<?xml version="1.0" encoding="utf-8"?>
<svg xmlns="http://www.w3.org/2000/svg" width="100" height="100">
	<g>
		<circle fill="#FBFBFB" cx="50" cy="50" r="50" />
		<path fill="#C9C9C9" d="M71 50c0-1.265-.131-2.497-.345-3.7l4.937-3.112-2.679-6.467-5.685 1.289c-1.423-2.041-3.197-3.814-5.237-5.237l1.289-5.685-6.467-2.679-3.113 4.936c-1.203-.214-2.435-.345-3.7-.345s-2.497.131-3.7.345l-3.112-4.937-6.467 2.679 1.289 5.685c-2.041 1.423-3.814 3.197-5.237 5.237l-5.685-1.289-2.679 6.467 4.937 3.112c-.215 1.204-.346 2.436-.346 3.701s.131 2.497.345 3.7l-4.937 3.112 2.679 6.467 5.685-1.289c1.423 2.041 3.197 3.814 5.237 5.237l-1.289 5.685 6.467 2.679 3.112-4.937c1.204.215 2.436.346 3.701.346s2.497-.131 3.7-.345l3.112 4.937 6.467-2.679-1.289-5.685c2.041-1.423 3.814-3.197 5.237-5.237l5.685 1.289 2.679-6.467-4.936-3.113c.214-1.203.345-2.435.345-3.7zm-21 8.75c-4.833 0-8.75-3.918-8.75-8.75 0-4.833 3.917-8.75 8.75-8.75s8.75 3.917 8.75 8.75c0 4.832-3.917 8.75-8.75 8.75z" />
	</g>
</svg>