<?xml version="1.0" encoding="utf-8"?>
<svg xmlns="http://www.w3.org/2000/svg" width="100" height="100">
	<g>
		<circle fill="#EBA601" cx="50" cy="50" r="50" />
		<path fill="#FBFBFB" d="M81.5 73h-63l13-13h14.443c1.156 2.035 2.025 3.499 2.342 4.027l1.715 2.866 1.716-2.865c.316-.528 1.186-1.993 2.342-4.027h14.442l13 12.999zm-18-40c0 7.456-13.5 30-13.5 30s-13.5-22.544-13.5-30c0-7.456 6.044-13.5 13.5-13.5s13.5 6.044 13.5 13.5zm-10 0c0-1.933-1.567-3.5-3.5-3.5s-3.5 1.567-3.5 3.5 1.567 3.5 3.5 3.5 3.5-1.567 3.5-3.5z" />
	</g>
</svg>