<?xml version="1.0" encoding="utf-8"?>
<svg xmlns="http://www.w3.org/2000/svg" xmlns:xlink="http://www.w3.org/1999/xlink" width="1281" height="175">
	<linearGradient id="1_a" gradientUnits="userSpaceOnUse" y1="87.5" x2="1281" y2="87.5">
		<stop offset="0" stop-color="#fff" />
		<stop offset="1" stop-color="#fff" stop-opacity="0" />
	</linearGradient>
	<polygon id="main_bg" opacity=".4" fill="url(#1_a)" points="1230,0 51,0 0,87.5 51,175 1230,175 1281,87.5 1230,0" />
	<polygon id="gauge_bg" fill="#9A9A9A" points="227.5,131 227.5,44 1204.218,44 1229.571,87.5 1204.218,131" />
	<g id="hp_gauge">
		<polygon id="gauge_bg" fill="#B4B4B4" points="227.5,131 227.5,44 1204.218,44 1229.571,87.5 1204.218,131" />
		<g id="max">
			<polygon id="mana" fill="#78ACC6" points="238,91.5 238,120.5 1198.185,120.5 1215.087,91.5" />
			<polygon id="hp" fill="#A8CE70" points="1215.087,83.5 1198.185,54.5 238,54.5 238,83.5" />
		</g>
		<g id="gauge_2">
			<defs>
				<polygon id="a" points="225,133.5 225,41.5 1155.654,41.5 1182.465,87.5 1155.654,133.5" />
			</defs>
			<clipPath id="b">
				<use xlink:href="#a" overflow="visible" />
			</clipPath>
			<g clip-path="url(#b)">
				<linearGradient id="c" gradientUnits="userSpaceOnUse" x1="726.543" y1="91.5" x2="726.543" y2="120.5">
					<stop offset="0" stop-color="#4192B6" />
					<stop offset="1" stop-color="#4D7B9B" />
				</linearGradient>
				<polygon id="mana" fill="url(#c)" points="238,91.5 238,120.5 1198.185,120.5 1215.087,91.5" />
				<linearGradient id="d" gradientUnits="userSpaceOnUse" x1="726.543" y1="54.5" x2="726.543" y2="83.5">
					<stop offset="0" stop-color="#95C259" />
					<stop offset=".77" stop-color="#7BB02F" />
					<stop offset="1" stop-color="#7CA63E" />
				</linearGradient>
				<polygon id="hp" fill="url(#d)" points="1215.087,83.5 1198.185,54.5 238,54.5 238,83.5" />
			</g>
		</g>
		<g id="gauge_1">
			<defs>
				<polygon id="e" points="225,133.5 225,41.5 700.654,41.5 727.465,87.5 700.654,133.5" />
			</defs>
			<clipPath id="f">
				<use xlink:href="#e" overflow="visible" />
			</clipPath>
			<g clip-path="url(#f)">
				<polygon id="gauge_1_bg" fill="#aaa" points="227.5,131 227.5,44 1204.218,44 1229.571,87.5 1204.218,131" />
				<linearGradient id="g" gradientUnits="userSpaceOnUse" x1="726.543" y1="91.5" x2="726.543" y2="120.5">
					<stop offset="0" stop-color="#3885A6" />
					<stop offset=".96" stop-color="#286792" />
					<stop offset="1" stop-color="#2D668B" />
				</linearGradient>
				<polygon id="mana" fill="url(#g)" points="238,91.5 238,120.5 1198.185,120.5 1215.087,91.5" />
				<linearGradient id="h" gradientUnits="userSpaceOnUse" x1="726.543" y1="54.5" x2="726.543" y2="83.5">
					<stop offset="0" stop-color="#87BB3E" />
					<stop offset=".38" stop-color="#70B415" />
					<stop offset="1" stop-color="#65991C" />
				</linearGradient>
				<polygon id="hp" fill="url(#h)" points="1215.087,83.5 1198.185,54.5 238,54.5 238,83.5" />
				<linearGradient id="i" gradientUnits="userSpaceOnUse" x1="726.543" y1="54.5" x2="726.543" y2="83.5">
					<stop offset="0" stop-color="#BEBC1E" />
					<stop offset=".69" stop-color="#A9A313" />
					<stop offset="1" stop-color="#9D9C22" />
				</linearGradient>
				<polygon display="none" id="yellow" fill="url(#i)" points="1215.087,83.5 1198.185,54.5 238,54.5 238,83.5" />
				<linearGradient id="j" gradientUnits="userSpaceOnUse" x1="726.543" y1="54.5" x2="726.543" y2="83.5">
					<stop offset="0" stop-color="#B02250" />
					<stop offset="1" stop-color="#921640" />
				</linearGradient>
				<polygon display="none" id="red" fill="url(#j)" points="1215.087,83.5 1198.185,54.5 238,54.5 238,83.5" />
			</g>
		</g>
	</g>
	<g id="gauge_wrapper">
		<path fill="#9A9A9A" d="M1202.781 128.5h-972.781v-82h972.781l23.896 41-23.896 41zm-964.781-8h960.184l16.903-29h-977.087v29zm0-37h977.087l-16.903-29h-960.184v29z" />
		<path fill="#808080" d="M1205.654 130.5h-980.654v-92h980.654l26.811 46-26.811 46zm-975.654-5h972.781l23.896-41-23.896-41h-972.781v82z" />
		<path fill="#FBFBFB" d="M1205.654 133.5h-980.654v-92h980.654l26.811 46-26.811 46zm-975.654-5h972.781l23.896-41-23.896-41h-972.781v82z" />
		<linearGradient id="2_a" gradientUnits="userSpaceOnUse" x1="227.5" y1="155" x2="227.5" y2="20">
			<stop offset="0" stop-color="#fff" stop-opacity="0" />
			<stop offset=".125" stop-color="#fff" />
			<stop offset=".5" stop-color="#fff" />
			<stop offset=".875" stop-color="#fff" />
			<stop offset="1" stop-color="#fff" stop-opacity="0" />
		</linearGradient>
		<rect x="225" y="20" fill="url(#2_a)" width="5" height="135" />
	</g>
	<g id="Leafa" display="none">
		<path fill="#9CCC6C" d="M96 119.187c4.698 4.176 5.115 4.766 9.161 7.899 5.872 4.568 10.959 10.312 20.877 10.312 9.135 0 17.191-3.933 23.455-10.197 5.872-3.262 7.815-4.47 14.209-9.821-3.001 9.918-5.172 14-5.172 14-5.35 8.613-18 19.642-30.528 19.642-8.386 0-22.494-8.358-26.464-20.687-.748-2.322-3.449-6.055-5.537-11.144l-.001-.004zm4.388-6.404c-.832-3.519-1.155-8.493-1.254-10.448-1.358-26.955 6.373-31.134 22.776-48.478 10.239 1.149 20.582-10.2 30.716-26.119-2.349 13.703-3.435 18.178-5.393 28.358-5.647 14.618-15.084 22.732-19.159 23.881-4.268 1.204-25.387 15.045-27.686 32.806zm18.733 2.56c.522-3.654 5.302-9.526 11.044-13.441 8.482-5.873 24.865-4.999 35.835-26.522 0 5.015-.421 10.062-1.254 14.418-3.657 19.119-17.552 24.134-23.281 23.925-9.315-.339-15.95-.86-22.344 1.62z" />
		<path fill="#222" d="M90.693 119.25h-27.545v-64.246h7.87v56.376h19.675v7.87zm25.296-19.996c0 3.052-2.489 5.621-5.622 5.621h-9.476v6.505h15.098v7.87h-17.426c-3.051 0-5.541-2.489-5.541-5.541v-34.773c0-3.052 2.49-5.541 5.541-5.541h17.427v25.859zm-7.87-2.329v-15.66h-7.228v15.66h7.228zm36.7 22.325h-17.427c-3.051 0-5.541-2.489-5.541-5.541v-20.398c0-3.052 2.49-5.541 5.541-5.541h9.557v-3.533l-15.098-2.972v-7.87l17.346 3.453c2.972.563 5.622 3.614 5.622 6.666v35.736zm-7.95-23.61h-7.147v15.74h7.147v-15.74zm21.601-29.714v10.44l15.098-2.972v7.87l-15.098 2.972v35.014h-7.87v-54.047c0-3.132 2.57-6.104 5.541-6.745l17.427-3.454v7.87l-15.098 3.052zm41.598 53.324h-17.427c-3.051 0-5.541-2.489-5.541-5.541v-20.398c0-3.052 2.49-5.541 5.541-5.541h9.557v-3.533l-15.098-2.972v-7.87l17.346 3.453c2.972.563 5.622 3.614 5.622 6.666v35.736zm-7.95-23.61h-7.147v15.74h7.147v-15.74z" />
		<path fill="#FBFBFB" d="M90.693 122.25h-27.545v-64.246h7.87v56.376h19.675v7.87zm25.296-19.996c0 3.052-2.489 5.621-5.622 5.621h-9.476v6.505h15.098v7.87h-17.426c-3.051 0-5.541-2.489-5.541-5.541v-34.773c0-3.052 2.49-5.541 5.541-5.541h17.427v25.859zm-7.87-2.329v-15.66h-7.228v15.66h7.228zm36.7 22.325h-17.427c-3.051 0-5.541-2.489-5.541-5.541v-20.398c0-3.052 2.49-5.541 5.541-5.541h9.557v-3.533l-15.098-2.972v-7.87l17.346 3.453c2.972.563 5.622 3.614 5.622 6.666v35.736zm-7.95-23.61h-7.147v15.74h7.147v-15.74zm21.601-29.714v10.44l15.098-2.972v7.87l-15.098 2.972v35.014h-7.87v-54.047c0-3.132 2.57-6.104 5.541-6.745l17.427-3.454v7.87l-15.098 3.052zm41.598 53.324h-17.427c-3.051 0-5.541-2.489-5.541-5.541v-20.398c0-3.052 2.49-5.541 5.541-5.541h9.557v-3.533l-15.098-2.972v-7.87l17.346 3.453c2.972.563 5.622 3.614 5.622 6.666v35.736zm-7.95-23.61h-7.147v15.74h7.147v-15.74z" />
	</g>
	<g id="Kirito">
		<path id="Spriggan" fill="#2C2C2C" d="M108.218 28.554s3.213-4.527 9.931-7.01c4.673-1.752 12.851-2.044 12.851-2.044s8.178.292 12.851 2.045c6.718 2.483 9.931 7.01 9.931 7.01-8.47-1.022-11.245 4.381-11.245 4.381l5.421 13.408-16.958 11.438-16.958-11.439 5.421-13.408c0 .001-2.775-5.403-11.245-4.381zm42.03 23.452l-16.261 10.968v17.663h-5.974v-17.663l-16.261-10.968-25.002 61.836s26.725-5.988 34.903 8.324c3.359 5.842 9.347 37.094 9.347 37.094s5.988-31.252 9.347-37.094c8.178-14.312 34.903-8.324 34.903-8.324l-25.002-61.836z" />
		<path fill="#222" d="M82.14 80.301l9.155 38.949h-7.87l-6.104-25.778-5.702 15.659v10.119h-7.87v-64.246h7.87v32.364l11.805-32.364h7.87l-9.154 25.297zm22.566-20.318v9.155h-7.87v-9.155h7.87zm-7.871 13.412h7.87v45.855h-7.87v-45.855zm36.379 0v7.87l-15.098 2.972v35.014h-7.87v-35.737c0-3.052 2.65-6.104 5.541-6.666l17.427-3.453zm11.081-13.412v9.155h-7.87v-9.155h7.87zm-7.87 13.412h7.87v45.855h-7.87v-45.855zm36.379 37.985v7.87h-17.427c-3.051 0-5.541-2.489-5.541-5.541v-54.127h7.87v13.813h15.098v7.87h-15.098v30.115h15.098zm21.28 7.87h-11.805c-3.051 0-5.541-2.489-5.541-5.541v-34.773c0-3.052 2.49-5.541 5.541-5.541h11.805c3.132 0 5.622 2.489 5.622 5.541v34.773c0 3.052-2.489 5.541-5.622 5.541zm-2.248-37.985h-7.228v30.115h7.228v-30.115z" />
		<path fill="#FBFBFB" d="M82.14 83.301l9.155 38.949h-7.87l-6.104-25.778-5.702 15.659v10.119h-7.87v-64.246h7.87v32.364l11.805-32.364h7.87l-9.154 25.297zm22.566-20.318v9.155h-7.87v-9.155h7.87zm-7.871 13.412h7.87v45.855h-7.87v-45.855zm36.379 0v7.87l-15.098 2.972v35.014h-7.87v-35.737c0-3.052 2.65-6.104 5.541-6.666l17.427-3.453zm11.081-13.412v9.155h-7.87v-9.155h7.87zm-7.87 13.412h7.87v45.855h-7.87v-45.855zm36.379 37.985v7.87h-17.427c-3.051 0-5.541-2.489-5.541-5.541v-54.127h7.87v13.813h15.098v7.87h-15.098v30.115h15.098zm21.28 7.87h-11.805c-3.051 0-5.541-2.489-5.541-5.541v-34.773c0-3.052 2.49-5.541 5.541-5.541h11.805c3.132 0 5.622 2.489 5.622 5.541v34.773c0 3.052-2.489 5.541-5.622 5.541zm-2.248-37.985h-7.228v30.115h7.228v-30.115z" />
	</g>
	<g id="Name_editable" display="none">
		<text transform="translate(57.847 119.25)" fill="#222" font-family="'SAOUI-Regular'" font-size="80.307">Kirito</text>
		<text transform="translate(57.847 122.25)" fill="#FBFBFB" font-family="'SAOUI-Regular'" font-size="80.307">Kirito</text>
	</g>
</svg>