<?xml version="1.0" encoding="utf-8"?>
<svg xmlns="http://www.w3.org/2000/svg" width="100" height="100">
	<g>
		<circle fill="#FBFBFB" cx="50" cy="50" r="50" />
		<path fill="#EBA601" d="M53.151 55.441l-.169-13.024h5.973l.333 8.526h18.585l.527 4.498h-12.624l.62 9.541h-26.232l.548-14.039h6.195l-.119 9.177h12.858l-.182-4.678h-6.312m12.049-8.839l-.272-4.185h11.946l.49 4.185h-12.164m-12.417-19.522h-5.566l-.047 3.635h-28.335l-1.675 11.702h11.938l-.777 8.526h6.195l-.293 4.498h-12.624l1.035-8.839h-6.073l-3.354 23.437h13.374l.461-5.058h-6.56l.569-4.862h12.868l-.645 9.92h13.384l-.069 5.265h6.819l-.068-5.265h20.076l-.903-9.92h6.434l1.161 9.92h6.692l-4.53-31.66h-11.736l-.355-3.898h11.534l-.539-3.766h-22.674l.147 3.766h5.767l.254 3.898h-23.464l-.158 4.038h5.973l-.054 4.185h-12.164l.535-8.223h-11.736l.457-3.898h28.825l-.096-7.4" />
	</g>
</svg>