<?xml version="1.0" encoding="utf-8"?>
<svg xmlns="http://www.w3.org/2000/svg" width="100" height="100">
	<g>
		<circle fill="#4D4D4D" cx="50" cy="50" r="50" />
		<path fill="#FBFBFB" d="M71.29 73.049l1.273 6.951h-55.126l4.683-25.554 17.268-4.029.576-2.59-3.741-3.454-1.151-15.397 5.756-6.476h8.346l5.756 6.476-1.151 15.397-3.741 3.454.576 2.59 6.083 1.419c-1.231 2.107-1.947 4.549-1.947 7.164 0 7.87 6.38 14.25 14.25 14.25.781 0 1.542-.08 2.29-.201zm10.46-14.049c0 7.042-5.708 12.75-12.75 12.75s-12.75-5.708-12.75-12.75 5.708-12.75 12.75-12.75 12.75 5.708 12.75 12.75zm-4-2.25h-6.5v-6.5h-4.5v6.5h-6.5v4.5h6.5v6.5h4.5v-6.5h6.5v-4.5z" />
	</g>
</svg>