<?xml version="1.0" encoding="utf-8"?>
<svg xmlns="http://www.w3.org/2000/svg" width="100" height="100">
	<g>
		<circle fill="#4D4D4D" cx="50" cy="50" r="50" />
		<path fill="#FBFBFB" d="M58 45.125c.305 0 .597-.124.81-.344l10.167-10.53 6.453 37.91c.247 1.452-.159 2.938-1.108 4.064-.951 1.126-2.349 1.775-3.822 1.775h-41c-1.473 0-2.871-.649-3.821-1.774-.95-1.126-1.355-2.612-1.108-4.064l6.453-37.91 10.167 10.53c.212.22.504.344.81.344h15.999zm-21.521-18.125c-2.438 0-4.52 1.758-4.929 4.161l-.057.336 10.985 11.378h15.045l10.985-11.378-.057-.336c-.41-2.403-2.492-4.161-4.93-4.161h-27.042zm12.521 22.875c-.552 0-1 .448-1 1v.25c0 .552.448 1 1 1h2c.552 0 1-.448 1-1v-.25c0-.552-.448-1-1-1h-2zm6.5-32.875c1.657 0 3 1.343 3 3v4.75h-3.5v-4.25h-10v4.25h-3.5v-4.75c0-1.657 1.343-3 3-3h11z" />
	</g>
</svg>