<?xml version="1.0" encoding="utf-8"?>
<svg xmlns="http://www.w3.org/2000/svg" width="100" height="100">
	<g>
		<circle fill="#4D4D4D" cx="50" cy="50" r="50" />
		<path fill="#FBFBFB" d="M70 60.955v11.545c0 2.762-2.238 5-5 5h-30c-2.761 0-5-2.238-5-5v-45c0-2.761 2.239-5 5-5h30c2.762 0 5 2.239 5 5v11.545l-6.25-6.25v-4.045h-27.5v42.5h27.5v-4.045l6.25-6.25zm-6.79-25.164c-1.221-1.221-3.199-1.221-4.42 0-1.22 1.22-1.22 3.199 0 4.419l6.666 6.666h-15.956v6.25h15.956l-6.666 6.664c-1.22 1.221-1.22 3.199 0 4.42.61.61 1.41.915 2.21.915s1.6-.305 2.21-.915l14.209-14.21-14.209-14.209zm-19.71 17.334h3v-6.25h-3v6.25z" />
	</g>
</svg>