<?xml version="1.0" encoding="utf-8"?>
<svg xmlns="http://www.w3.org/2000/svg" width="100" height="100">
	<g>
		<circle fill="#FBFBFB" cx="50" cy="50" r="50" />
		<path fill="#EBA601" d="M26.312 45.404l-7.778-7.778.707-6.364 4.243 4.243 6.364-1.414 1.414-6.364-4.243-4.243 6.364-.707 7.778 7.778-2.046 7.5 9.099 9.099c-2.584-.576-5.4.132-7.407 2.139l-.53.53-6.465-6.465-7.5 2.046zm48.79 33.941c-4.003 4.003-10.414 4.082-14.319.177-2.991-2.991-3.636-7.449-1.98-11.172l-7.213-7.213.53-.53c2.007-2.007 2.715-4.822 2.139-7.407l9.846 9.846c3.723-1.656 8.181-1.011 11.172 1.98 3.907 3.905 3.828 10.316-.175 14.319zm-3.358-10.783c-2.05-2.05-5.374-2.05-7.425 0-2.05 2.05-2.05 5.374 0 7.425 2.05 2.05 5.374 2.05 7.425 0 2.05-2.051 2.05-5.375 0-7.425zm1.944-37.3l4.243-5.657-2.121-2.121-5.657 4.243.707.707-20.623 20.622c-2.709-1.738-6.353-1.425-8.722.944l-20.506 20.506c-2.734 2.734-2.734 7.166 0 9.899 2.734 2.734 7.166 2.734 9.9 0l20.506-20.506c2.369-2.369 2.681-6.013.944-8.722l20.623-20.623.706.708z" />
	</g>
</svg>