<?xml version="1.0" encoding="utf-8"?>
<svg xmlns="http://www.w3.org/2000/svg" xmlns:xlink="http://www.w3.org/1999/xlink" width="100" height="100">
	<g>
		<defs>
			<circle id="a" cx="50" cy="50" r="50" />
		</defs>
		<clipPath id="b">
			<use xlink:href="#a" overflow="visible" />
		</clipPath>
		<g clip-path="url(#b)">
			<rect x="-10" y="-10" fill="#4D4D4D" width="120" height="120" />
			<rect y="26" fill="#FBFBFB" width="100" height="100" opacity=".2" transform="rotate(45 50 76)" />
			<rect y="55" fill="#FBFBFB" width="100" height="100" opacity=".1" transform="rotate(45 50 105)" />
			<polygon fill="#FBFBFB" points="51.244,131.803 66.449,207 88.013,207 88.013,203.959 75.573,200.641 65.344,109.409 68.108,87.845 78.337,132.079 84.696,132.079 71.979,62.687 55.391,58.817 54.838,56.329 58.432,53.011 59.538,38.22 54.009,32 45.991,32 40.462,38.22 41.568,53.011 45.162,56.329 44.609,58.817 28.021,62.687 15.304,132.079 21.663,132.079 31.892,87.845 34.656,109.409 24.427,200.641 11.987,203.959 11.987,207 33.551,207 48.756,131.803" />
			<rect x="29" y="84" fill="#FBFBFB" width="42" height="16" />
		</g>
	</g>
</svg>