<?xml version="1.0" encoding="utf-8"?>
<svg xmlns="http://www.w3.org/2000/svg" xmlns:xlink="http://www.w3.org/1999/xlink" width="1920" height="1229">
	<rect id="bg" width="1920" height="1229" />
	<g id="Menu-3">
		<g id="3rd">
			<rect x="1317.5" y="755.5" fill="#FBFBFB" width="365" height="95" />
			<rect x="1317.5" y="655.5" fill="#FBFBFB" width="365" height="95" />
			<rect x="1317.5" y="555.5" fill="#FBFBFB" width="365" height="95" />
			<rect x="1317.5" y="455.5" fill="#EBA601" width="365" height="95" />
			<rect x="1317.5" y="355.5" fill="#FBFBFB" width="365" height="95" />
			<rect x="1317.5" y="255.5" fill="#FBFBFB" width="365" height="95" />
			<rect x="1317.5" y="155.5" fill="#FBFBFB" width="365" height="95" />
		</g>
		<g id="Skills">
			<g id="Battle_Healing">
				<g>
					<defs>
						<circle id="a" cx="1373" cy="803" r="26.5" />
					</defs>
					<clipPath id="b">
						<use xlink:href="#a" overflow="visible" />
					</clipPath>
					<g clip-path="url(#b)">
						<rect x="1341.2" y="771.2" fill="#4D4D4D" width="63.6" height="63.6" />
						<circle opacity=".1" fill="#FBFBFB" enable-background="new" cx="1373" cy="809.625" r="19.875" />
						<circle opacity=".2" fill="#FBFBFB" enable-background="new" cx="1373" cy="813.6" r="15.9" />
						<polygon fill="#FBFBFB" points="1374.959,814.513 1374.759,813.608 1376.065,812.403 1376.467,807.027 1374.458,804.766 1371.544,804.766 1369.534,807.027 1369.936,812.403 1371.242,813.608 1371.041,814.513 1366.905,815.478 1366.905,828.851 1367.424,832.899 1367.211,834.8 1378.79,834.8 1378.577,832.899 1379.582,825.062 1381.833,834.8 1384.448,834.8 1380.988,815.919" />
						<polygon fill="#FBFBFB" points="1370.927,821.727 1367.119,821.638 1358.225,797.889 1360.551,797.479" />
					</g>
					<rect x="1356.689" y="791.733" transform="matrix(-.92 .391 -.391 -.92 2945.023 987.475)" fill="#FBFBFB" width="30.74" height="3.18" />
				</g>
				<g display="none">
					<defs>
						<circle id="c" cx="1373" cy="803" r="26.5" />
					</defs>
					<clipPath id="d">
						<use xlink:href="#c" overflow="visible" />
					</clipPath>
					<g clip-path="url(#d)">
						<rect x="1341.2" y="771.2" fill="#FBFBFB" width="63.6" height="63.6" />
						<circle opacity=".1" fill="#EBA601" enable-background="new" cx="1373" cy="809.625" r="19.875" />
						<circle opacity=".2" fill="#EBA601" enable-background="new" cx="1373" cy="813.6" r="15.9" />
						<polygon fill="#EBA601" points="1374.959,814.513 1374.759,813.608 1376.065,812.403 1376.467,807.027 1374.458,804.766 1371.544,804.766 1369.534,807.027 1369.936,812.403 1371.242,813.608 1371.041,814.513 1366.905,815.478 1366.905,828.851 1367.424,832.899 1367.211,834.8 1378.79,834.8 1378.577,832.899 1379.582,825.062 1381.833,834.8 1384.448,834.8 1380.988,815.919" />
						<polygon fill="#EBA601" points="1370.927,821.727 1367.119,821.638 1358.225,797.889 1360.551,797.479" />
					</g>
					<rect x="1356.689" y="791.733" transform="matrix(-.92 .391 -.391 -.92 2945.023 987.475)" fill="#EBA601" width="30.74" height="3.18" />
				</g>
			</g>
			<g id="Parrying">
				<g>
					<circle fill="#4D4D4D" cx="1373" cy="703" r="26.5" />
					<g transform="rotate(5.5 54 47.5)">
						<polygon opacity=".71" fill="#FBFBFB" enable-background="new" points="1431.738,563.084 1435.36,558.524 1436.216,564.284 1441.632,562.146 1439.493,567.562 1445.253,568.418 1440.693,572.039 1445.253,575.661 1439.493,576.517 1441.632,581.933 1436.216,579.794 1435.36,585.554 1431.738,580.994 1428.117,585.554 1427.261,579.794 1421.845,581.933 1423.983,576.517 1418.223,575.661 1422.783,572.039 1418.223,568.418 1423.983,567.562 1421.845,562.146 1427.261,564.284 1428.117,558.524" />
						<polygon fill="#4D4D4D" points="1431.738,566.245 1434.081,563.294 1434.635,567.021 1438.14,565.637 1436.756,569.142 1440.483,569.696 1437.533,572.039 1440.483,574.382 1436.756,574.936 1438.14,578.441 1434.635,577.057 1434.081,580.784 1431.738,577.834 1429.395,580.784 1428.841,577.057 1425.336,578.441 1426.72,574.936 1422.993,574.382 1425.944,572.039 1422.993,569.696 1426.72,569.142 1425.336,565.637 1428.841,567.021 1429.395,563.294" />
					</g>
					<g transform="rotate(20.5 37 48.75)">
						<rect x="1504.737" y="175.609" fill="#4D4D4D" width="12.19" height="39.75" />
						<polygon opacity=".71" fill="#FBFBFB" enable-background="new" points="1510.832,175.741 1506.857,179.186 1506.857,204.891 1514.807,204.891 1514.807,179.186" />
						<polygon fill="#FBFBFB" points="1506.857,179.186 1506.857,204.891 1510.832,204.891 1510.832,175.741" />
						<rect x="1508.579" y="206.216" fill="#FBFBFB" width="4.505" height="9.01" />
						<rect x="1505.797" y="204.626" fill="#FBFBFB" width="10.07" height="2.12" />
					</g>
				</g>
				<g display="none">
					<circle fill="#FBFBFB" cx="1373" cy="703" r="26.5" />
					<g transform="rotate(5.5 54 47.5)">
						<polygon opacity=".71" fill="#EBA601" enable-background="new" points="1431.738,563.084 1435.36,558.524 1436.216,564.284 1441.632,562.146 1439.493,567.562 1445.253,568.418 1440.693,572.039 1445.253,575.661 1439.493,576.517 1441.632,581.933 1436.216,579.794 1435.36,585.554 1431.738,580.994 1428.117,585.554 1427.261,579.794 1421.845,581.933 1423.983,576.517 1418.223,575.661 1422.783,572.039 1418.223,568.418 1423.983,567.562 1421.845,562.146 1427.261,564.284 1428.117,558.524" />
						<polygon fill="#FBFBFB" points="1431.738,566.245 1434.081,563.294 1434.635,567.021 1438.14,565.637 1436.756,569.142 1440.483,569.696 1437.533,572.039 1440.483,574.382 1436.756,574.936 1438.14,578.441 1434.635,577.057 1434.081,580.784 1431.738,577.834 1429.395,580.784 1428.841,577.057 1425.336,578.441 1426.72,574.936 1422.993,574.382 1425.944,572.039 1422.993,569.696 1426.72,569.142 1425.336,565.637 1428.841,567.021 1429.395,563.294" />
					</g>
					<g transform="rotate(20.5 37 48.75)">
						<rect x="1504.737" y="175.609" fill="#FBFBFB" width="12.19" height="39.75" />
						<polygon opacity=".71" fill="#EBA601" enable-background="new" points="1510.832,175.741 1506.857,179.186 1506.857,204.891 1514.807,204.891 1514.807,179.186" />
						<polygon fill="#EBA601" points="1514.807,179.186 1510.832,175.741 1510.832,204.891 1514.807,204.891" />
						<rect x="1508.579" y="206.216" fill="#EBA601" width="4.505" height="9.01" />
						<rect x="1505.797" y="204.626" fill="#EBA601" width="10.07" height="2.12" />
					</g>
				</g>
			</g>
			<g id="Blade_Throwing">
				<g>
					<circle fill="#4D4D4D" cx="1373" cy="603" r="26.5" />
					<g fill="#FBFBFB">
						<polygon opacity=".71" enable-background="new" points="1387.31,592.4 1373.795,592.4 1373.795,599.82 1387.31,599.82 1391.02,596.11" />
						<polygon points="1387.31,592.4 1373.795,592.4 1373.795,596.11 1391.02,596.11" />
						<rect x="1366.11" y="593.857" width="6.36" height="4.505" />
						<rect x="1371.807" y="591.207" width="2.385" height="9.805" />
					</g>
					<g fill="#FBFBFB">
						<polygon opacity=".71" enable-background="new" points="1378.83,606.18 1365.315,606.18 1365.315,613.6 1378.83,613.6 1382.54,609.89" />
						<polygon points="1378.83,606.18 1365.315,606.18 1365.315,609.89 1382.54,609.89" />
						<rect x="1357.63" y="607.638" width="6.36" height="4.505" />
						<rect x="1363.328" y="604.987" width="2.385" height="9.805" />
					</g>
					<defs>
						<circle id="e" cx="1373" cy="603" r="26.5" />
					</defs>
					<clipPath id="f">
						<use xlink:href="#e" overflow="visible" />
					</clipPath>
					<g clip-path="url(#f)">
						<rect x="1346.5" y="594.785" opacity=".535" fill="#FBFBFB" enable-background="new" width="16.96" height="2.65" />
						<rect x="1360.28" y="592.135" fill="#4D4D4D" width="1.06" height="7.95" />
						<rect x="1346.5" y="608.565" opacity=".535" fill="#FBFBFB" enable-background="new" width="8.48" height="2.65" />
						<rect x="1351.8" y="605.915" fill="#4D4D4D" width="1.06" height="7.95" />
					</g>
				</g>
				<g display="none">
					<circle fill="#FBFBFB" cx="1373" cy="603" r="26.5" />
					<g fill="#EBA601">
						<polygon opacity=".71" enable-background="new" points="1373.795,599.82 1387.31,599.82 1391.02,596.11 1387.31,592.4 1373.795,592.4" />
						<polygon points="1387.31,599.82 1391.02,596.11 1373.795,596.11 1373.795,599.82" />
						<rect x="1366.11" y="593.857" width="6.36" height="4.505" />
						<rect x="1371.807" y="591.207" width="2.385" height="9.805" />
					</g>
					<g fill="#EBA601">
						<polygon opacity=".71" enable-background="new" points="1365.315,613.6 1378.83,613.6 1382.54,609.89 1378.83,606.18 1365.315,606.18" />
						<polygon points="1378.83,613.6 1382.54,609.89 1365.315,609.89 1365.315,613.6" />
						<rect x="1357.63" y="607.638" width="6.36" height="4.505" />
						<rect x="1363.328" y="604.987" width="2.385" height="9.805" />
					</g>
					<defs>
						<circle id="g" cx="1373" cy="603" r="26.5" />
					</defs>
					<clipPath id="h">
						<use xlink:href="#g" overflow="visible" />
					</clipPath>
					<g clip-path="url(#h)">
						<rect x="1346.5" y="594.785" opacity=".535" fill="#EBA601" enable-background="new" width="16.96" height="2.65" />
						<rect x="1360.28" y="592.135" fill="#FBFBFB" width="1.06" height="7.95" />
						<rect x="1346.5" y="608.565" opacity=".535" fill="#EBA601" enable-background="new" width="8.48" height="2.65" />
						<rect x="1351.8" y="605.915" fill="#FBFBFB" width="1.06" height="7.95" />
					</g>
				</g>
			</g>
			<g id="Dual_Blades">
				<g display="none">
					<circle fill="#4D4D4D" cx="1373" cy="503" r="26.5" />
					<g transform="rotate(45 49.5 48.5)" fill="#FBFBFB">
						<polygon opacity=".71" enable-background="new" points="1309.696,-556.678 1309.696,-582.383 1305.986,-586.093 1302.276,-582.383 1302.276,-556.678" />
						<polygon points="1302.276,-582.383 1302.276,-556.678 1305.986,-556.678 1305.986,-586.093" />
						<rect x="1303.734" y="-555.088" width="4.505" height="8.48" />
						<rect x="1301.083" y="-557.34" width="9.805" height="2.385" />
					</g>
					<g transform="rotate(-45 50.5 48.5)">
						<polygon fill="#C9C9C9" points="668.728,1314.326 668.728,1288.621 665.018,1284.911 661.308,1288.621 661.308,1314.326" />
						<polygon fill="#FBFBFB" points="668.728,1288.621 665.018,1284.911 665.018,1314.326 668.728,1314.326" />
						<rect x="662.765" y="1315.916" fill="#FBFBFB" width="4.505" height="8.48" />
						<rect x="660.116" y="1313.664" fill="#FBFBFB" width="9.805" height="2.385" />
					</g>
				</g>
				<g>
					<circle fill="#FBFBFB" cx="1373" cy="503" r="26.5" />
					<g transform="rotate(45 49.5 48.5)" fill="#EBA601">
						<polygon opacity=".71" enable-background="new" points="1309.696,-556.678 1309.696,-582.383 1305.986,-586.093 1302.276,-582.383 1302.276,-556.678" />
						<polygon points="1302.276,-582.383 1302.276,-556.678 1305.986,-556.678 1305.986,-586.093" />
						<rect x="1303.734" y="-555.088" width="4.505" height="8.48" />
						<rect x="1301.083" y="-557.34" width="9.805" height="2.385" />
					</g>
					<g transform="rotate(-45 50.5 48.5)">
						<polygon fill="#F0BF4A" points="668.728,1314.326 668.728,1288.621 665.018,1284.911 661.308,1288.621 661.308,1314.326" />
						<polygon fill="#EBA601" points="668.728,1288.621 665.018,1284.911 665.018,1314.326 668.728,1314.326" />
						<rect x="662.765" y="1315.916" fill="#EBA601" width="4.505" height="8.48" />
						<rect x="660.116" y="1313.664" fill="#EBA601" width="9.805" height="2.385" />
					</g>
				</g>
			</g>
			<g id="One-Handed_Straight_Sword">
				<g>
					<circle fill="#4D4D4D" cx="1373" cy="403" r="26.5" />
					<g fill="#FBFBFB">
						<polygon opacity=".71" enable-background="new" points="1373,383.125 1369.29,386.835 1369.29,412.54 1376.71,412.54 1376.71,386.835" />
						<polygon points="1369.29,386.835 1369.29,412.54 1373,412.54 1373,383.125" />
						<rect x="1370.747" y="413.865" width="4.505" height="9.01" />
						<rect x="1368.097" y="412.143" width="9.805" height="2.385" />
					</g>
				</g>
				<g display="none">
					<circle fill="#FBFBFB" cx="1373" cy="403" r="26.5" />
					<g fill="#EBA601">
						<polygon opacity=".71" enable-background="new" points="1373,383.125 1369.29,386.835 1369.29,412.54 1376.71,412.54 1376.71,386.835" />
						<polygon points="1376.71,386.835 1373,383.125 1373,412.54 1376.71,412.54" />
						<rect x="1370.747" y="413.865" width="4.505" height="9.01" />
						<rect x="1368.097" y="412.143" width="9.805" height="2.385" />
					</g>
				</g>
			</g>
			<g id="Tracking">
				<g>
					<circle fill="#4D4D4D" cx="1373" cy="303" r="26.5" />
					<g fill="#FBFBFB">
						<path d="M1376.404 313.285l6.564 1.811s-1.132 7.469-5.206 6.338c-4.074-1.132-1.358-8.149-1.358-8.149zm6.791.905l-6.79-1.811s.453-5.659 1.585-9.054c1.132-3.395 2.716-7.017 5.659-6.338 2.943.679 3.622 5.659 3.169 8.375-.461 2.763-3.622 8.828-3.623 8.828zM1369.993 300.697l-6.564 1.811s1.132 7.469 5.206 6.338c4.075-1.132 1.358-8.149 1.358-8.149zm-6.79.906l6.79-1.811s-.453-5.659-1.585-9.054-2.716-7.017-5.659-6.338c-2.943.679-3.621 5.659-3.169 8.375.461 2.762 3.622 8.828 3.623 8.828z" />
					</g>
				</g>
				<g display="none">
					<circle fill="#FBFBFB" cx="1373" cy="303" r="26.5" />
					<g fill="#EBA601">
						<path d="M1376.404 313.285l6.564 1.811s-1.132 7.469-5.206 6.338c-4.074-1.132-1.358-8.149-1.358-8.149zm6.791.905l-6.79-1.811s.453-5.659 1.585-9.054c1.132-3.395 2.716-7.017 5.659-6.338 2.943.679 3.622 5.659 3.169 8.375-.461 2.763-3.622 8.828-3.623 8.828zM1369.993 300.697l-6.564 1.811s1.132 7.469 5.206 6.338c4.075-1.132 1.358-8.149 1.358-8.149zm-6.79.906l6.79-1.811s-.453-5.659-1.585-9.054-2.716-7.017-5.659-6.338c-2.943.679-3.621 5.659-3.169 8.375.461 2.762 3.622 8.828 3.623 8.828z" />
					</g>
				</g>
			</g>
			<g id="Searching">
				<g>
					<circle fill="#4D4D4D" cx="1373" cy="203" r="26.5" />
					<path opacity=".5" fill="#C9C9C9" enable-background="new" d="M1373 179.813c-8.582 0-16.069 4.666-20.078 11.595l20.078 11.592 21.794-7.933c-3.24-8.899-11.774-15.254-21.794-15.254z" />
					<path opacity=".71" fill="#FBFBFB" enable-background="new" d="M1373 210.023c-3.872 0-7.022-3.15-7.022-7.023s3.15-7.023 7.022-7.023 7.022 3.15 7.022 7.023-3.15 7.023-7.022 7.023zm0-13.25c-3.434 0-6.228 2.794-6.228 6.227s2.794 6.227 6.228 6.227 6.228-2.794 6.228-6.227-2.794-6.227-6.228-6.227zm0 19.875c-7.526 0-13.647-6.123-13.647-13.648 0-7.525 6.122-13.648 13.647-13.648s13.647 6.122 13.647 13.648c0 7.525-6.122 13.648-13.647 13.648zm0-26.5c-7.087 0-12.853 5.765-12.853 12.852 0 7.087 5.765 12.852 12.853 12.852 7.087 0 12.853-5.766 12.853-12.852 0-7.087-5.766-12.852-12.853-12.852zm0 33.125c-11.178 0-20.272-9.094-20.272-20.273s9.094-20.273 20.272-20.273 20.272 9.094 20.272 20.273c0 11.178-9.094 20.273-20.272 20.273zm0-39.75c-10.74 0-19.478 8.738-19.478 19.477s8.738 19.477 19.478 19.477 19.478-8.738 19.478-19.477-8.738-19.477-19.478-19.477z" />
					<path fill="#FBFBFB" d="M1394.465 203c0 .878-.712 1.59-1.59 1.59s-1.59-.712-1.59-1.59.712-1.59 1.59-1.59 1.59.712 1.59 1.59zm-35.668 13.994c.672-.564.76-1.567.196-2.24-.564-.673-1.567-.761-2.24-.196-.673.564-.761 1.567-.196 2.24.564.672 1.567.76 2.24.196zm1.232-33.28c.439.761 1.411 1.021 2.172.582.76-.439 1.021-1.411.582-2.172-.439-.761-1.411-1.021-2.172-.582-.76.439-1.021 1.412-.582 2.172zm12.971 18.226c-.586 0-1.06.474-1.06 1.06s.474 1.06 1.06 1.06 1.06-.474 1.06-1.06-.474-1.06-1.06-1.06z" />
					<path fill="#C9C9C9" d="M1392.875 204.855c-1.023 0-1.855-.832-1.855-1.855s.832-1.855 1.855-1.855 1.855.832 1.855 1.855-.832 1.855-1.855 1.855zm0-3.18c-.731 0-1.325.595-1.325 1.325 0 .731.594 1.325 1.325 1.325s1.325-.594 1.325-1.325c0-.73-.594-1.325-1.325-1.325zm-35.099 15.955c-.55 0-1.068-.241-1.422-.663-.318-.379-.47-.861-.427-1.354.043-.494.276-.941.656-1.259.333-.28.757-.434 1.192-.434.55 0 1.068.241 1.422.663.318.379.47.861.427 1.354-.043.494-.276.941-.656 1.259-.334.28-.758.434-1.192.434zm-.002-3.18c-.311 0-.613.11-.851.31-.271.228-.437.547-.468.899s.077.696.305.967c.452.538 1.327.615 1.867.163.271-.228.437-.547.468-.899.031-.352-.077-.696-.305-.967-.253-.3-.623-.473-1.016-.473zm3.633-29.676c-.661 0-1.277-.355-1.608-.928-.511-.886-.207-2.022.679-2.534.282-.163.602-.249.926-.249.661 0 1.278.356 1.608.928.511.886.207 2.022-.679 2.534-.281.164-.601.249-.926.249zm-.002-3.18c-.231 0-.459.061-.661.178-.632.365-.85 1.177-.485 1.81.351.608 1.197.84 1.81.485.632-.365.85-1.177.485-1.81-.236-.409-.677-.663-1.149-.663z" />
				</g>
				<g display="none">
					<circle fill="#FBFBFB" cx="1373" cy="203" r="26.5" />
					<path opacity=".5" fill="#F0BF4A" enable-background="new" d="M1373 179.813c-8.582 0-16.069 4.666-20.078 11.595l20.078 11.592 21.794-7.933c-3.24-8.899-11.774-15.254-21.794-15.254z" />
					<path opacity=".71" fill="#EBA601" enable-background="new" d="M1373 210.023c-3.872 0-7.022-3.15-7.022-7.023s3.15-7.023 7.022-7.023 7.022 3.15 7.022 7.023-3.15 7.023-7.022 7.023zm0-13.25c-3.434 0-6.228 2.794-6.228 6.227s2.794 6.227 6.228 6.227 6.228-2.794 6.228-6.227-2.794-6.227-6.228-6.227zm0 19.875c-7.526 0-13.647-6.123-13.647-13.648 0-7.525 6.122-13.648 13.647-13.648s13.647 6.122 13.647 13.648c0 7.525-6.122 13.648-13.647 13.648zm0-26.5c-7.087 0-12.853 5.765-12.853 12.852 0 7.087 5.765 12.852 12.853 12.852 7.087 0 12.853-5.766 12.853-12.852 0-7.087-5.766-12.852-12.853-12.852zm0 33.125c-11.178 0-20.272-9.094-20.272-20.273s9.094-20.273 20.272-20.273 20.272 9.094 20.272 20.273c0 11.178-9.094 20.273-20.272 20.273zm0-39.75c-10.74 0-19.478 8.738-19.478 19.477s8.738 19.477 19.478 19.477 19.478-8.738 19.478-19.477-8.738-19.477-19.478-19.477z" />
					<path fill="#EBA601" d="M1394.465 203c0 .878-.712 1.59-1.59 1.59s-1.59-.712-1.59-1.59.712-1.59 1.59-1.59 1.59.712 1.59 1.59zm-35.668 13.994c.672-.564.76-1.567.196-2.24-.564-.673-1.567-.761-2.24-.196-.673.564-.761 1.567-.196 2.24.564.672 1.567.76 2.24.196zm1.232-33.28c.439.761 1.411 1.021 2.172.582.76-.439 1.021-1.411.582-2.172-.439-.761-1.411-1.021-2.172-.582-.76.439-1.021 1.412-.582 2.172zm12.971 18.226c-.586 0-1.06.474-1.06 1.06s.474 1.06 1.06 1.06 1.06-.474 1.06-1.06-.474-1.06-1.06-1.06z" />
					<path fill="#F0BF4A" d="M1392.875 204.855c-1.023 0-1.855-.832-1.855-1.855s.832-1.855 1.855-1.855 1.855.832 1.855 1.855-.832 1.855-1.855 1.855zm0-3.18c-.731 0-1.325.595-1.325 1.325 0 .731.594 1.325 1.325 1.325s1.325-.594 1.325-1.325c0-.73-.594-1.325-1.325-1.325zm-35.099 15.955c-.55 0-1.068-.241-1.422-.663-.318-.379-.47-.861-.427-1.354.043-.494.276-.941.656-1.259.333-.28.757-.434 1.192-.434.55 0 1.068.241 1.422.663.318.379.47.861.427 1.354-.043.494-.276.941-.656 1.259-.334.28-.758.434-1.192.434zm-.002-3.18c-.311 0-.613.11-.851.31-.271.228-.437.547-.468.899s.077.696.305.967c.452.538 1.327.615 1.867.163.271-.228.437-.547.468-.899.031-.352-.077-.696-.305-.967-.253-.3-.623-.473-1.016-.473zm3.633-29.676c-.661 0-1.277-.355-1.608-.928-.511-.886-.207-2.022.679-2.534.282-.163.602-.249.926-.249.661 0 1.278.356 1.608.928.511.886.207 2.022-.679 2.534-.281.164-.601.249-.926.249zm-.002-3.18c-.231 0-.459.061-.661.178-.632.365-.85 1.177-.485 1.81.351.608 1.197.84 1.81.485.632-.365.85-1.177.485-1.81-.236-.409-.677-.663-1.149-.663z" />
				</g>
			</g>
		</g>
		<g fill="#4d4d4d" id="Menu-3" display="none">
			<circle cx="1373" cy="803" r="26.5" />
			<circle cx="1373" cy="703" r="26.5" />
			<circle cx="1373" cy="603" r="26.5" />
			<circle cx="1373" cy="503" r="26.5" />
			<circle cx="1373" cy="403" r="26.5" />
			<circle cx="1373" cy="303" r="26.5" />
			<circle cx="1373" cy="203" r="26.5" />
		</g>
	</g>
	<linearGradient id="g_b" gradientUnits="userSpaceOnUse" x1="1500" y1="850.5" x2="1500" y2="155.5">
		<stop offset="0" stop-color="#fff" stop-opacity="0" />
		<stop offset=".25" stop-color="#fff" />
		<stop offset=".5" stop-color="#fff" />
		<stop offset=".75" stop-color="#fff" />
		<stop offset="1" stop-color="#fff" stop-opacity="0" />
	</linearGradient>
	<rect id="Menu-3 gradient" x="1317.5" y="155.5" fill="url(#g_b)" width="365" height="695" display="none" />
	<g id="Menu-2">
		<g id="2nd_indicator" display="none">
			<linearGradient id="g_2" gradientUnits="userSpaceOnUse" x1="919" y1="650.5" x2="919" y2="355.5">
				<stop offset="0" stop-color="#FBFBFB" stop-opacity="0" />
				<stop offset=".1" stop-color="#FBFBFB" />
				<stop offset=".5" stop-color="#FBFBFB" />
				<stop offset=".9" stop-color="#FBFBFB" />
				<stop offset="1" stop-color="#FBFBFB" stop-opacity="0" />
			</linearGradient>
			<rect x="918" y="355.5" fill="url(#g_2)" width="2" height="295" />
			<path fill="#FBFBFB" d="M919 524l-42-21 42-21v42zm-11.5-26.25c-2.899 0-5.25 2.35-5.25 5.25s2.351 5.25 5.25 5.25 5.25-2.35 5.25-5.25-2.351-5.25-5.25-5.25z" />
		</g>
		<polygon id="2nd-rect_indicator" fill="#EBA601" points="972,550.5 877,503 972,455.5" />
		<g id="2nd">
			<g opacity=".4">
				<rect x="923.5" y="555.5" fill="#FBFBFB" width="365" height="95" />
				<text font-family="'SAOUI-Regular'" font-size="32" letter-spacing="1" transform="translate(1025 614.656)" fill="#4D4D4D">Equipment</text>
				<g id="Equipment">
					<g>
						<defs>
							<circle id="i" cx="979" cy="603" r="26.5" />
						</defs>
						<clipPath id="j">
							<use xlink:href="#i" overflow="visible" />
						</clipPath>
						<g clip-path="url(#j)">
							<rect x="947.2" y="571.2" fill="#4D4D4D" width="63.6" height="63.6" />
							<polygon fill="#C9C9C9" points="979,591.075 972.905,597.17 972.905,634.8 985.095,634.8 985.095,597.17" />
							<polygon fill="#FBFBFB" points="972.905,597.17 972.905,634.8 979,634.8 979,591.075" />
						</g>
					</g>
					<g display="none">
						<defs>
							<circle id="k" cx="979" cy="603" r="26.5" />
						</defs>
						<clipPath id="l">
							<use xlink:href="#k" overflow="visible" />
						</clipPath>
						<g clip-path="url(#l)">
							<rect x="947.2" y="571.2" fill="#FBFBFB" width="63.6" height="63.6" />
							<polygon fill="#F0BF4A" points="979,591.075 972.905,597.17 972.905,634.8 985.095,634.8 985.095,597.17" />
							<polygon fill="#EBA601" points="985.095,597.17 979,591.075 979,634.8 985.095,634.8" />
						</g>
					</g>
				</g>
			</g>
			<g>
				<rect x="923.5" y="455.5" fill="#EBA601" width="365" height="95" />
				<text font-family="'SAOUI-Regular'" font-size="32" letter-spacing="1" transform="translate(1025 514.656)" fill="#FBFBFB">Skills</text>
				<g id="Skills">
					<g display="none">
						<defs>
							<circle id="m" cx="979" cy="503" r="26.5" />
						</defs>
						<clipPath id="n">
							<use xlink:href="#m" overflow="visible" />
						</clipPath>
						<g clip-path="url(#n)">
							<rect x="947.2" y="471.2" fill="#4D4D4D" width="63.6" height="63.6" />
							<rect x="952.5" y="490.28" transform="matrix(-.707 -.707 .707 -.707 1305.839 1574.456)" opacity=".2" fill="#FBFBFB" enable-background="new" width="53" height="53" />
							<rect x="952.5" y="505.65" transform="matrix(-.707 -.707 .707 -.707 1294.971 1600.695)" opacity=".1" fill="#FBFBFB" enable-background="new" width="53" height="53" />
							<polygon fill="#FBFBFB" points="979.659,546.356 987.718,586.21 999.147,586.21 999.147,584.598 992.554,582.84 987.132,534.487 988.597,523.058 994.019,546.502 997.389,546.502 990.649,509.724 981.857,507.673 981.564,506.354 983.469,504.596 984.055,496.757 981.125,493.46 976.875,493.46 973.945,496.757 974.531,504.596 976.436,506.354 976.143,507.673 967.351,509.724 960.611,546.502 963.981,546.502 969.403,523.058 970.868,534.487 965.446,582.84 958.853,584.598 958.853,586.21 970.282,586.21 978.341,546.356" />
							<rect x="967.87" y="521.02" fill="#FBFBFB" width="22.26" height="8.48" />
						</g>
					</g>
					<g>
						<defs>
							<circle id="o" cx="979" cy="503" r="26.5" />
						</defs>
						<clipPath id="p">
							<use xlink:href="#o" overflow="visible" />
						</clipPath>
						<g clip-path="url(#p)">
							<rect x="947.2" y="471.2" fill="#FBFBFB" width="63.6" height="63.6" />
							<rect x="952.5" y="490.28" transform="matrix(-.707 -.707 .707 -.707 1305.839 1574.456)" opacity=".2" fill="#EBA601" enable-background="new" width="53" height="53" />
							<rect x="952.5" y="505.65" transform="matrix(-.707 -.707 .707 -.707 1294.971 1600.695)" opacity=".1" fill="#EBA601" enable-background="new" width="53" height="53" />
							<polygon fill="#EBA601" points="979.659,546.356 987.718,586.21 999.147,586.21 999.147,584.598 992.554,582.84 987.132,534.487 988.597,523.058 994.019,546.502 997.389,546.502 990.649,509.724 981.857,507.673 981.564,506.354 983.469,504.596 984.055,496.757 981.125,493.46 976.875,493.46 973.945,496.757 974.531,504.596 976.436,506.354 976.143,507.673 967.351,509.724 960.611,546.502 963.981,546.502 969.403,523.058 970.868,534.487 965.446,582.84 958.853,584.598 958.853,586.21 970.282,586.21 978.341,546.356" />
							<rect x="967.87" y="521.02" fill="#EBA601" width="22.26" height="8.48" />
						</g>
					</g>
				</g>
			</g>
			<g opacity=".4">
				<rect x="923.5" y="355.5" fill="#FBFBFB" width="365" height="95" />
				<text font-family="'SAOUI-Regular'" font-size="32" letter-spacing="1" transform="translate(1025 414.656)" fill="#4D4D4D">Items</text>
				<g id="Items">
					<g>
						<circle fill="#4D4D4D" cx="979" cy="403" r="26.5" />
						<path fill="#FBFBFB" d="M983.24 400.416c.162 0 .316-.066.429-.182l5.388-5.581 3.42 20.092c.131.77-.084 1.557-.587 2.154-.504.597-1.245.941-2.026.941h-21.73c-.781 0-1.522-.344-2.025-.94-.503-.597-.718-1.384-.587-2.154l3.42-20.092 5.388 5.581c.112.117.267.182.429.182l8.481-.001zm-11.406-9.606c-1.292 0-2.396.932-2.612 2.205l-.03.178 5.822 6.03h7.974l5.822-6.03-.03-.178c-.217-1.274-1.321-2.205-2.613-2.205h-14.333zm6.636 12.124c-.293 0-.53.237-.53.53v.133c0 .293.237.53.53.53h1.06c.293 0 .53-.237.53-.53v-.133c0-.293-.237-.53-.53-.53h-1.06zm3.445-17.424c.878 0 1.59.712 1.59 1.59v2.518h-1.855v-2.253h-5.3v2.253h-1.855v-2.518c0-.878.712-1.59 1.59-1.59h5.83z" />
					</g>
					<g display="none">
						<circle fill="#FBFBFB" cx="979" cy="403" r="26.5" />
						<path fill="#EBA601" d="M983.24 400.416c.162 0 .316-.066.429-.182l5.388-5.581 3.42 20.092c.131.77-.084 1.557-.587 2.154-.504.597-1.245.941-2.026.941h-21.73c-.781 0-1.522-.344-2.025-.94-.503-.597-.718-1.384-.587-2.154l3.42-20.092 5.388 5.581c.112.117.267.182.429.182l8.481-.001zm-11.406-9.606c-1.292 0-2.396.932-2.612 2.205l-.03.178 5.822 6.03h7.974l5.822-6.03-.03-.178c-.217-1.274-1.321-2.205-2.613-2.205h-14.333zm6.636 12.124c-.293 0-.53.237-.53.53v.133c0 .293.237.53.53.53h1.06c.293 0 .53-.237.53-.53v-.133c0-.293-.237-.53-.53-.53h-1.06zm3.445-17.424c.878 0 1.59.712 1.59 1.59v2.518h-1.855v-2.253h-5.3v2.253h-1.855v-2.518c0-.878.712-1.59 1.59-1.59h5.83z" />
					</g>
				</g>
			</g>
		</g>
		<g fill="#4d4d4d" id="Menu-2" display="none">
			<circle cx="979" cy="603" r="26.5" />
			<circle cx="979" cy="503" r="26.5" />
			<circle cx="979" cy="403" r="26.5" />
		</g>
	</g>
	<g id="3rd_indicator">
		<g>
			<linearGradient id="g_a" gradientUnits="userSpaceOnUse" x1="1309" y1="750.5" x2="1309" y2="255.5">
				<stop offset="0" stop-color="#FBFBFB" stop-opacity="0" />
				<stop offset=".1" stop-color="#FBFBFB" />
				<stop offset=".5" stop-color="#FBFBFB" />
				<stop offset=".9" stop-color="#FBFBFB" />
				<stop offset="1" stop-color="#FBFBFB" stop-opacity="0" />
			</linearGradient>
			<rect x="1308" y="255.5" fill="url(#g_a)" width="2" height="495" />
		</g>
		<path fill="#FBFBFB" d="M1309 524l-42-21 42-21v42zm-11.5-26.25c-2.9 0-5.25 2.35-5.25 5.25s2.35 5.25 5.25 5.25 5.25-2.35 5.25-5.25-2.35-5.25-5.25-5.25z" />
	</g>
	<g transform="translate(10 10)" id="Menu-1">
		<g opacity=".4">
			<g id="Config">
				<g>
					<path fill="#FBFBFB" d="M847 1151c0 37.555-30.445 68-68 68s-68-30.445-68-68 30.445-68 68-68 68 30.445 68 68zm-68-65.167c-35.99 0-65.167 29.177-65.167 65.167s29.177 65.167 65.167 65.167 65.167-29.177 65.167-65.167-29.177-65.167-65.167-65.167z" />
					<circle fill="#FBFBFB" cx="779" cy="1151" r="56.667" />
					<path fill="#C9C9C9" d="M802.8 1151c0-1.434-.148-2.83-.391-4.193l5.595-3.527-3.036-7.329-6.443 1.461c-1.613-2.313-3.623-4.323-5.935-5.935l1.461-6.443-7.329-3.036-3.528 5.594c-1.363-.243-2.76-.391-4.193-.391s-2.83.149-4.193.391l-3.527-5.595-7.329 3.036 1.461 6.443c-2.313 1.613-4.323 3.623-5.935 5.935l-6.443-1.461-3.036 7.329 5.595 3.527c-.244 1.365-.392 2.761-.392 4.194s.148 2.83.391 4.193l-5.595 3.527 3.036 7.329 6.443-1.461c1.613 2.313 3.623 4.323 5.935 5.935l-1.461 6.443 7.329 3.036 3.527-5.595c1.365.244 2.761.392 4.194.392s2.83-.149 4.193-.391l3.527 5.595 7.329-3.036-1.461-6.443c2.313-1.613 4.323-3.623 5.935-5.935l6.443 1.461 3.036-7.329-5.594-3.528c.243-1.363.391-2.759.391-4.193zm-23.8 9.917c-5.477 0-9.917-4.44-9.917-9.917 0-5.477 4.439-9.917 9.917-9.917s9.917 4.439 9.917 9.917c0 5.476-4.44 9.917-9.917 9.917z" />
				</g>
				<g display="none">
					<path fill="#EBA601" d="M847 1151c0 37.555-30.445 68-68 68s-68-30.445-68-68 30.445-68 68-68 68 30.445 68 68zm-68-65.167c-35.99 0-65.167 29.177-65.167 65.167s29.177 65.167 65.167 65.167 65.167-29.177 65.167-65.167-29.177-65.167-65.167-65.167z" />
					<circle fill="#EBA601" cx="779" cy="1151" r="56.667" />
					<path fill="#FBFBFB" d="M802.8 1151c0-1.434-.148-2.83-.391-4.193l5.595-3.527-3.036-7.329-6.443 1.461c-1.613-2.313-3.623-4.323-5.935-5.935l1.461-6.443-7.329-3.036-3.528 5.594c-1.363-.243-2.76-.391-4.193-.391s-2.83.149-4.193.391l-3.527-5.595-7.329 3.036 1.461 6.443c-2.313 1.613-4.323 3.623-5.935 5.935l-6.443-1.461-3.036 7.329 5.595 3.527c-.244 1.365-.392 2.761-.392 4.194s.148 2.83.391 4.193l-5.595 3.527 3.036 7.329 6.443-1.461c1.613 2.313 3.623 4.323 5.935 5.935l-1.461 6.443 7.329 3.036 3.527-5.595c1.365.244 2.761.392 4.194.392s2.83-.149 4.193-.391l3.527 5.595 7.329-3.036-1.461-6.443c2.313-1.613 4.323-3.623 5.935-5.935l6.443 1.461 3.036-7.329-5.594-3.528c.243-1.363.391-2.759.391-4.193zm-23.8 9.917c-5.477 0-9.917-4.44-9.917-9.917 0-5.477 4.439-9.917 9.917-9.917s9.917 4.439 9.917 9.917c0 5.476-4.44 9.917-9.917 9.917z" />
				</g>
			</g>
			<g id="Location">
				<g>
					<path fill="#FBFBFB" d="M847 986.25c0 37.555-30.445 68-68 68s-68-30.445-68-68 30.445-68 68-68 68 30.445 68 68zm-68-65.167c-35.99 0-65.167 29.177-65.167 65.167s29.177 65.167 65.167 65.167 65.167-29.177 65.167-65.167-29.177-65.167-65.167-65.167z" />
					<circle fill="#FBFBFB" cx="779" cy="986.25" r="56.667" />
					<path fill="#C9C9C9" d="M814.7 1012.317h-71.4l14.733-14.733h16.369c1.31 2.306 2.295 3.966 2.654 4.564l1.944 3.248 1.945-3.247c.358-.598 1.344-2.259 2.654-4.564h16.368l14.733 14.732zm-20.4-45.334c0 8.45-15.3 34-15.3 34s-15.3-25.55-15.3-34 6.85-15.3 15.3-15.3 15.3 6.85 15.3 15.3zm-11.333 0c0-2.191-1.776-3.967-3.967-3.967s-3.967 1.776-3.967 3.967 1.776 3.967 3.967 3.967 3.967-1.776 3.967-3.967z" />
				</g>
				<g display="none">
					<path fill="#EBA601" d="M847 986.25c0 37.555-30.445 68-68 68s-68-30.445-68-68 30.445-68 68-68 68 30.445 68 68zm-68-65.167c-35.99 0-65.167 29.177-65.167 65.167s29.177 65.167 65.167 65.167 65.167-29.177 65.167-65.167-29.177-65.167-65.167-65.167z" />
					<circle fill="#EBA601" cx="779" cy="986.25" r="56.667" />
					<path fill="#FBFBFB" d="M814.7 1012.317h-71.4l14.733-14.733h16.369c1.31 2.306 2.295 3.966 2.654 4.564l1.944 3.248 1.945-3.247c.358-.598 1.344-2.259 2.654-4.564h16.368l14.733 14.732zm-20.4-45.334c0 8.45-15.3 34-15.3 34s-15.3-25.55-15.3-34 6.85-15.3 15.3-15.3 15.3 6.85 15.3 15.3zm-11.333 0c0-2.191-1.776-3.967-3.967-3.967s-3.967 1.776-3.967 3.967 1.776 3.967 3.967 3.967 3.967-1.776 3.967-3.967z" />
				</g>
			</g>
			<g id="Message">
				<g>
					<path fill="#FBFBFB" d="M847 821.5c0 37.555-30.445 68-68 68s-68-30.445-68-68 30.445-68 68-68 68 30.445 68 68zm-68-65.167c-35.99 0-65.167 29.177-65.167 65.167s29.177 65.167 65.167 65.167 65.167-29.177 65.167-65.167-29.177-65.167-65.167-65.167z" />
					<circle fill="#FBFBFB" cx="779" cy="821.5" r="56.667" />
					<path fill="#C9C9C9" d="M810.167 813v26.35c0 1.878-1.522 3.4-3.4 3.4h-2.267v8.783l-7.319-8.783h-27.248c-1.878 0-3.4-1.522-3.4-3.4v-6.8h20.967c2.816 0 5.1-2.284 5.1-5.1v-17.85h14.167c1.878 0 3.4 1.522 3.4 3.4zm-22.667-15.3h-36.833c-1.878 0-3.4 1.522-3.4 3.4v26.35c0 1.878 1.522 3.4 3.4 3.4h2.267v8.783l7.319-8.783h27.247c1.878 0 3.4-1.522 3.4-3.4v-26.35c0-1.878-1.522-3.4-3.4-3.4z" />
				</g>
				<g display="none">
					<path fill="#EBA601" d="M847 821.5c0 37.555-30.445 68-68 68s-68-30.445-68-68 30.445-68 68-68 68 30.445 68 68zm-68-65.167c-35.99 0-65.167 29.177-65.167 65.167s29.177 65.167 65.167 65.167 65.167-29.177 65.167-65.167-29.177-65.167-65.167-65.167z" />
					<circle fill="#EBA601" cx="779" cy="821.5" r="56.667" />
					<path fill="#FBFBFB" d="M810.167 813v26.35c0 1.878-1.522 3.4-3.4 3.4h-2.267v8.783l-7.319-8.783h-27.248c-1.878 0-3.4-1.522-3.4-3.4v-6.8h20.967c2.816 0 5.1-2.284 5.1-5.1v-17.85h14.167c1.878 0 3.4 1.522 3.4 3.4zm-22.667-15.3h-36.833c-1.878 0-3.4 1.522-3.4 3.4v26.35c0 1.878 1.522 3.4 3.4 3.4h2.267v8.783l7.319-8.783h27.247c1.878 0 3.4-1.522 3.4-3.4v-26.35c0-1.878-1.522-3.4-3.4-3.4z" />
				</g>
			</g>
			<g id="Men">
				<g>
					<path fill="#FBFBFB" d="M847 656.75c0 37.555-30.445 68-68 68s-68-30.445-68-68 30.445-68 68-68 68 30.445 68 68zm-68-65.167c-35.99 0-65.167 29.177-65.167 65.167s29.177 65.167 65.167 65.167 65.167-29.177 65.167-65.167-29.177-65.167-65.167-65.167z" />
					<circle fill="#FBFBFB" cx="779" cy="656.75" r="56.667" />
					<path fill="#C9C9C9" d="M758.539 681.683h-19.705l2.08-10.92 18.72-4.16v-4.16l-4.42-4.16-.78-14.04 6.759-6.759h7.281l6.76 6.76-.78 14.04-4.42 4.16v2.576l-8.689 1.93-2.806 14.733zm37.461-16.433v-4.533l4.817-4.533.85-15.3-7.367-7.367h-7.933l-7.367 7.366.85 15.3 4.817 4.533v4.533l-20.4 4.533-2.267 11.9h56.667l-2.267-11.9-20.4-4.532z" />
				</g>
				<g display="none">
					<path fill="#EBA601" d="M847 656.75c0 37.555-30.445 68-68 68s-68-30.445-68-68 30.445-68 68-68 68 30.445 68 68zm-68-65.167c-35.99 0-65.167 29.177-65.167 65.167s29.177 65.167 65.167 65.167 65.167-29.177 65.167-65.167-29.177-65.167-65.167-65.167z" />
					<circle fill="#EBA601" cx="779" cy="656.75" r="56.667" />
					<path fill="#FBFBFB" d="M758.539 681.683h-19.705l2.08-10.92 18.72-4.16v-4.16l-4.42-4.16-.78-14.04 6.759-6.759h7.281l6.76 6.76-.78 14.04-4.42 4.16v2.576l-8.689 1.93-2.806 14.733zm37.461-16.433v-4.533l4.817-4.533.85-15.3-7.367-7.367h-7.933l-7.367 7.366.85 15.3 4.817 4.533v4.533l-20.4 4.533-2.267 11.9h56.667l-2.267-11.9-20.4-4.532z" />
				</g>
			</g>
		</g>
		<g id="Man">
			<g display="none">
				<path fill="#FBFBFB" d="M847 492c0 37.555-30.445 68-68 68s-68-30.445-68-68 30.445-68 68-68 68 30.445 68 68zm-68-65.167c-35.99 0-65.167 29.177-65.167 65.167s29.177 65.167 65.167 65.167 65.167-29.177 65.167-65.167-29.177-65.167-65.167-65.167z" />
				<circle fill="#FBFBFB" cx="779" cy="492" r="56.667" />
				<polygon fill="#C9C9C9" points="784.667,500.5 784.667,495.967 789.483,491.433 790.333,476.133 782.967,468.767 775.033,468.767 767.667,476.133 768.517,491.433 773.333,495.967 773.333,500.5 752.933,505.033 750.667,516.933 807.333,516.933 805.067,505.033" />
			</g>
			<g>
				<path fill="#EBA601" d="M847 492c0 37.555-30.445 68-68 68s-68-30.445-68-68 30.445-68 68-68 68 30.445 68 68zm-68-65.167c-35.99 0-65.167 29.177-65.167 65.167s29.177 65.167 65.167 65.167 65.167-29.177 65.167-65.167-29.177-65.167-65.167-65.167z" />
				<circle fill="#EBA601" cx="779" cy="492" r="56.667" />
				<polygon fill="#FBFBFB" points="784.667,500.5 784.667,495.967 789.483,491.433 790.333,476.133 782.967,468.767 775.033,468.767 767.667,476.133 768.517,491.433 773.333,495.967 773.333,500.5 752.933,505.033 750.667,516.933 807.333,516.933 805.067,505.033" />
			</g>
		</g>
	</g>
	<g fill="#4d4d4d" id="1st" display="none">
		<circle cx="789" cy="1161" r="68" />
		<circle cx="789" cy="996.25" r="68" />
		<circle cx="789" cy="831.5" r="68" />
		<circle cx="789" cy="666.75" r="68" />
		<circle cx="789" cy="502" r="68" />
	</g>
	<g id="main">
		<g id="main_window">
			<g display="none">
				<rect x="144" y="62" fill="#D7D7D7" width="506" height="593" />
				<path fill="#FBFBFB" d="M649 63v591h-504v-591h504m2-2h-508v595h508v-595z" />
			</g>
			<g>
				<g>
					<rect x="144" y="351.5" fill="#D7D7D7" width="506" height="593" />
					<path fill="#FBFBFB" d="M649 352.5v591h-504v-591h504m2-2h-508v595h508v-595z" />
				</g>
				<text transform="translate(247.5 766.268)">
					<tspan x="0" y="0" fill="#4D4D4D" font-family="'KozGoPr6N-Regular-90ms-RKSJ-H'" font-size="23.6">二本の剣を同時に使用し攻撃</tspan>
					<tspan x="0" y="36.25" fill="#4D4D4D" font-family="'KozGoPr6N-Regular-90ms-RKSJ-H'" font-size="23.6">出来るスキル。</tspan>
					<tspan x="0" y="72.5" fill="#4D4D4D" font-family="'KozGoPr6N-Regular-90ms-RKSJ-H'" font-size="23.6">攻撃速度ボーナス1.80</tspan>
					<tspan x="0" y="108.75" fill="#4D4D4D" font-family="'KozGoPr6N-Regular-90ms-RKSJ-H'" font-size="23.6">武器防御ボーナス1.50</tspan>
					<tspan x="0" y="145" fill="#4D4D4D" font-family="'KozGoPr6N-Regular-90ms-RKSJ-H'" font-size="23.6">クールタイムボーナス1.20</tspan>
				</text>
				<circle fill="#4d4d4d" cx="203" cy="704.5" r="26.25" display="none" />
				<g id="Dual_Blades">
					<circle fill="#4D4D4D" cx="203" cy="704.5" r="26.25" />
					<g transform="rotate(45 49.5 48.5)" fill="#FBFBFB">
						<polygon opacity=".71" enable-background="new" points="624.835,413.031 624.835,387.569 621.16,383.894 617.485,387.569 617.485,413.031" />
						<polygon points="617.485,387.569 617.485,413.031 621.16,413.031 621.16,383.894" />
						<rect x="618.929" y="414.606" width="4.462" height="8.4" />
						<rect x="616.304" y="412.375" width="9.712" height="2.362" />
					</g>
					<g transform="rotate(-45 50.5 48.5)">
						<polygon fill="#C9C9C9" points="-301.111,629.406 -301.111,603.943 -304.786,600.268 -308.461,603.943 -308.461,629.406" />
						<polygon fill="#FBFBFB" points="-301.111,603.943 -304.786,600.268 -304.786,629.406 -301.111,629.406" />
						<rect x="-307.017" y="630.981" fill="#FBFBFB" width="4.462" height="8.4" />
						<rect x="-309.642" y="628.749" fill="#FBFBFB" width="9.712" height="2.362" />
					</g>
				</g>
				<text transform="translate(249.5 717.177)" fill="#4D4D4D" font-family="'KozGoPr6N-Regular-90ms-RKSJ-H'" font-size="33.4">二刀流</text>
				<polygon fill="#FBFBFB" id="1st-bottom_triangle" points="219.5,643.5 203,664.5 186.5,643.5" />
			</g>
			<polygon fill="#FBFBFB" id="1st_indicator" points="603.5,550.5 698.5,503 603.5,455.5" />
			<rect x="142" y="55.5" fill="#FBFBFB" width="510" height="595" />
			<rect x="176" y="145" fill="#4D4D4D" width="442" height="2" />
		</g>
		<g id="2-Character_Woman" display="none">
			<g>
				<defs>
					<rect id="w_a" x="327" y="560.5" width="140" height="90" />
				</defs>
				<clipPath id="w_b">
					<use xlink:href="#w_a" overflow="visible" />
				</clipPath>
				<linearGradient id="w_c" gradientUnits="userSpaceOnUse" x1="397" y1="880.75" x2="397" y2="564.25">
					<stop offset="0" stop-color="#4D4D4D" stop-opacity="0" />
					<stop offset=".85" stop-color="#4D4D4D" stop-opacity="0" />
					<stop offset="1" stop-color="#4D4D4D" stop-opacity=".5" />
				</linearGradient>
				<polygon opacity=".9" clip-path="url(#w_b)" fill="url(#w_c)" points="436.71,574.75 426.5,729 417.5,759.5 423.05,788.5 444,699.75 452.6,699.75 429.85,822.5 404.89,832.25 404.89,838.25 413.55,838.25 413.55,869.5 403.55,880.75 390.45,880.75 380.45,869.5 380.45,838.25 389.11,838.25 389.11,832.25 364.15,822.5 341.4,699.75 350,699.75 370.95,788.5 376.5,759.5 367.5,729 357.29,574.75 336,569.25 336,564.25 371.17,564.25 395.75,704.75 398.25,704.75 422.83,564.25 458,564.25 458,569.25" />
			</g>
			<g>
				<radialGradient id="w_d" cx="397" cy="563.25" r="50.389" gradientTransform="matrix(1 0 0 .4 0 337.95)" gradientUnits="userSpaceOnUse">
					<stop offset="0" stop-color="#4D4D4D" stop-opacity=".5" />
					<stop offset="1" stop-color="#4D4D4D" stop-opacity="0" />
				</radialGradient>
				<ellipse fill="url(#w_d)" cx="397" cy="563.25" rx="68.75" ry="18.75" />
			</g>
			<polygon opacity=".9" fill="#4D4D4D" points="436.71,551.75 426.5,397.5 417.5,367 423.05,338 444,426.75 452.6,426.75 429.85,304 404.89,294.25 404.89,288.25 413.55,288.25 413.55,257 403.55,245.75 390.45,245.75 380.45,257 380.45,288.25 389.11,288.25 389.11,294.25 364.15,304 341.4,426.75 350,426.75 370.95,338 376.5,367 367.5,397.5 357.29,551.75 336,557.25 336,562.25 371.17,562.25 395.75,421.75 398.25,421.75 422.83,562.25 458,562.25 458,557.25" />
		</g>
		<g id="2-Character_Man">
			<g>
				<defs>
					<rect id="m_b" x="327" y="560.5" width="140" height="90" />
				</defs>
				<clipPath id="m_c">
					<use xlink:href="#b" overflow="visible" />
				</clipPath>
				<linearGradient id="m_d" gradientUnits="userSpaceOnUse" x1="397" y1="880.75" x2="397" y2="564.25">
					<stop offset="0" stop-color="#4D4D4D" stop-opacity="0" />
					<stop offset=".85" stop-color="#4D4D4D" stop-opacity="0" />
					<stop offset="1" stop-color="#4D4D4D" stop-opacity=".5" />
				</linearGradient>
				<polygon opacity=".9" clip-path="url(#m_c)" fill="url(#m_d)" points="399.25,700.25 426.75,564.25 465.75,564.25 465.75,569.75 443.25,575.75 424.75,740.75 429.75,779.75 448.25,699.75 459.75,699.75 436.75,825.25 406.75,832.25 405.75,836.75 412.25,842.75 414.25,869.5 404.25,880.75 389.75,880.75 379.75,869.5 381.75,842.75 388.25,836.75 387.25,832.25 357.25,825.25 334.25,699.75 345.75,699.75 364.25,779.75 369.25,740.75 350.75,575.75 328.25,569.75 328.25,564.25 367.25,564.25 394.75,700.25" />
			</g>
			<g>
				<radialGradient id="m_e" cx="397" cy="563.25" r="50.389" gradientTransform="matrix(1 0 0 .4 0 337.95)" gradientUnits="userSpaceOnUse">
					<stop offset="0" stop-color="#4D4D4D" stop-opacity=".5" />
					<stop offset="1" stop-color="#4D4D4D" stop-opacity="0" />
				</radialGradient>
				<ellipse fill="url(#m_e)" cx="397" cy="563.25" rx="68.75" ry="18.75" />
			</g>
			<polygon opacity=".9" fill="#4D4D4D" points="399.25,426.25 426.75,562.25 465.75,562.25 465.75,556.75 443.25,550.75 424.75,385.75 429.75,346.75 448.25,426.75 459.75,426.75 436.75,301.25 406.75,294.25 405.75,289.75 412.25,283.75 414.25,257 404.25,245.75 389.75,245.75 379.75,257 381.75,283.75 388.25,289.75 387.25,294.25 357.25,301.25 334.25,426.75 345.75,426.75 364.25,346.75 369.25,385.75 350.75,550.75 328.25,556.75 328.25,562.25 367.25,562.25 394.75,426.25" />
		</g>
		<g id="1-Skills">
			<g fill="#4D4D4D" id="raw">
				<path d="M397 583.5c-13.531 0-24.5 10.969-24.5 24.5s10.969 24.5 24.5 24.5 24.5-10.969 24.5-24.5-10.969-24.5-24.5-24.5zm0 46.5c-12.15 0-22-9.85-22-22s9.85-22 22-22 22 9.85 22 22-9.85 22-22 22z" />
				<circle cx="397" cy="608" r="19" />
				<path d="M397 170.5c-13.531 0-24.5 10.969-24.5 24.5s10.969 24.5 24.5 24.5 24.5-10.969 24.5-24.5-10.969-24.5-24.5-24.5zm0 46.5c-12.15 0-22-9.85-22-22s9.85-22 22-22 22 9.85 22 22-9.85 22-22 22z" />
				<circle cx="397" cy="195" r="19" />
			</g>
			<g fill="#4D4D4D" id="30" transform="rotate(30 397 401.5)">
				<path d="M397 583.5c-13.531 0-24.5 10.969-24.5 24.5s10.969 24.5 24.5 24.5 24.5-10.969 24.5-24.5-10.969-24.5-24.5-24.5zm0 46.5c-12.15 0-22-9.85-22-22s9.85-22 22-22 22 9.85 22 22-9.85 22-22 22z" />
				<circle cx="397" cy="608" r="19" />
				<path d="M397 170.5c-13.531 0-24.5 10.969-24.5 24.5s10.969 24.5 24.5 24.5 24.5-10.969 24.5-24.5-10.969-24.5-24.5-24.5zm0 46.5c-12.15 0-22-9.85-22-22s9.85-22 22-22 22 9.85 22 22-9.85 22-22 22z" />
				<circle cx="397" cy="195" r="19" />
			</g>
			<g fill="#4D4D4D" id="60" transform="rotate(60 397 401.5)">
				<path d="M397 583.5c-13.531 0-24.5 10.969-24.5 24.5s10.969 24.5 24.5 24.5 24.5-10.969 24.5-24.5-10.969-24.5-24.5-24.5zm0 46.5c-12.15 0-22-9.85-22-22s9.85-22 22-22 22 9.85 22 22-9.85 22-22 22z" />
				<circle fill="#eba601" cx="397" cy="608" r="19" />
				<path d="M397 170.5c-13.531 0-24.5 10.969-24.5 24.5s10.969 24.5 24.5 24.5 24.5-10.969 24.5-24.5-10.969-24.5-24.5-24.5zm0 46.5c-12.15 0-22-9.85-22-22s9.85-22 22-22 22 9.85 22 22-9.85 22-22 22z" />
				<circle cx="397" cy="195" r="19" />
			</g>
			<g fill="#4D4D4D" id="90" transform="rotate(90 397 401.5)">
				<path d="M397 583.5c-13.531 0-24.5 10.969-24.5 24.5s10.969 24.5 24.5 24.5 24.5-10.969 24.5-24.5-10.969-24.5-24.5-24.5zm0 46.5c-12.15 0-22-9.85-22-22s9.85-22 22-22 22 9.85 22 22-9.85 22-22 22z" />
				<circle cx="397" cy="608" r="19" />
				<path d="M397 170.5c-13.531 0-24.5 10.969-24.5 24.5s10.969 24.5 24.5 24.5 24.5-10.969 24.5-24.5-10.969-24.5-24.5-24.5zm0 46.5c-12.15 0-22-9.85-22-22s9.85-22 22-22 22 9.85 22 22-9.85 22-22 22z" />
				<circle cx="397" cy="195" r="19" />
			</g>
			<g fill="#4D4D4D" id="120" transform="rotate(120 397 401.5)">
				<path d="M397 583.5c-13.531 0-24.5 10.969-24.5 24.5s10.969 24.5 24.5 24.5 24.5-10.969 24.5-24.5-10.969-24.5-24.5-24.5zm0 46.5c-12.15 0-22-9.85-22-22s9.85-22 22-22 22 9.85 22 22-9.85 22-22 22z" />
				<circle cx="397" cy="608" r="19" />
				<path d="M397 170.5c-13.531 0-24.5 10.969-24.5 24.5s10.969 24.5 24.5 24.5 24.5-10.969 24.5-24.5-10.969-24.5-24.5-24.5zm0 46.5c-12.15 0-22-9.85-22-22s9.85-22 22-22 22 9.85 22 22-9.85 22-22 22z" />
				<circle cx="397" cy="195" r="19" />
			</g>
			<g fill="#4D4D4D" id="150" transform="rotate(150 397 401.5)">
				<path d="M397 583.5c-13.531 0-24.5 10.969-24.5 24.5s10.969 24.5 24.5 24.5 24.5-10.969 24.5-24.5-10.969-24.5-24.5-24.5zm0 46.5c-12.15 0-22-9.85-22-22s9.85-22 22-22 22 9.85 22 22-9.85 22-22 22z" />
				<circle cx="397" cy="608" r="19" />
				<path d="M397 170.5c-13.531 0-24.5 10.969-24.5 24.5s10.969 24.5 24.5 24.5 24.5-10.969 24.5-24.5-10.969-24.5-24.5-24.5zm0 46.5c-12.15 0-22-9.85-22-22s9.85-22 22-22 22 9.85 22 22-9.85 22-22 22z" />
				<circle cx="397" cy="195" r="19" />
			</g>
		</g>
		<g id="1-Details" display="none">
			<g id="bottom">
				<g stroke-miterlimit="10">
					<line stroke="#FBFBFB" stroke-width="4.375" x1="397" y1="593.125" x2="397" y2="582.625" fill="none" />
					<circle fill="#FBFBFB" stroke="#FBFBFB" stroke-width="5.25" cx="397" cy="577.5" r="5.125" />
					<line fill="#4D4D4D" stroke="#4D4D4D" stroke-width="1.75" x1="397" y1="593.125" x2="397" y2="582.625" />
					<circle stroke="#4D4D4D" stroke-width="2.625" cx="397" cy="577.5" r="5.125" fill="none" />
				</g>
				<g>
					<circle stroke="#4D4D4D" stroke-width="1.75" stroke-miterlimit="10" cx="397" cy="608" r="14.875" fill="none" />
					<circle fill="#4D4D4D" cx="397" cy="608" r="10.063" />
				</g>
			</g>
			<g id="45-bottom">
				<g>
					<g stroke-miterlimit="10">
						<polyline stroke="#FBFBFB" stroke-width="4.375" points="532.499,536.999 460.5,465 425.125,465" fill="none" />
						<circle fill="#FBFBFB" stroke="#FBFBFB" stroke-width="5.25" cx="420" cy="465" r="5.125" />
						<polyline stroke="#4D4D4D" stroke-width="1.75" points="532.499,536.999 460.5,465 425.125,465" fill="none" />
						<circle stroke="#4D4D4D" stroke-width="2.625" cx="420" cy="465" r="5.125" fill="none" />
					</g>
					<g>
						<circle stroke="#4D4D4D" stroke-width="1.75" stroke-miterlimit="10" cx="543.018" cy="547.518" r="14.875" fill="none" />
						<circle fill="#4D4D4D" cx="543.018" cy="547.518" r="10.063" />
					</g>
				</g>
				<g>
					<g stroke-miterlimit="10">
						<polyline stroke="#FBFBFB" stroke-width="4.375" points="261.5,536.999 333.5,465 368.875,465" fill="none" />
						<circle fill="#FBFBFB" stroke="#FBFBFB" stroke-width="5.25" cx="374" cy="465" r="5.125" />
						<polyline stroke="#4D4D4D" stroke-width="1.75" points="261.5,536.999 333.5,465 368.875,465" fill="none" />
						<circle stroke="#4D4D4D" stroke-width="2.625" cx="374" cy="465" r="5.125" fill="none" />
					</g>
					<g>
						<circle stroke="#4D4D4D" stroke-width="1.75" stroke-miterlimit="10" cx="250.982" cy="547.518" r="14.875" fill="none" />
						<circle fill="#4D4D4D" cx="250.982" cy="547.518" r="10.063" />
					</g>
				</g>
			</g>
			<g id="67.5-bottom">
				<g>
					<g stroke-miterlimit="10">
						<line stroke="#FBFBFB" stroke-width="4.375" x1="574.038" y1="474.832" x2="466.406" y2="430.249" fill="none" />
						<circle fill="#FBFBFB" stroke="#FBFBFB" stroke-width="5.25" cx="461.672" cy="428.288" r="5.125" />
						<line fill="#4D4D4D" stroke="#4D4D4D" stroke-width="1.75" x1="574.038" y1="474.832" x2="466.406" y2="430.249" />
						<circle stroke="#4D4D4D" stroke-width="2.625" cx="461.672" cy="428.288" r="5.125" fill="none" />
					</g>
					<g>
						<circle stroke="#4D4D4D" stroke-width="1.75" stroke-miterlimit="10" cx="587.781" cy="480.524" r="14.875" fill="none" />
						<circle fill="#4D4D4D" cx="587.781" cy="480.524" r="10.063" />
					</g>
				</g>
				<g>
					<g stroke-miterlimit="10">
						<line stroke="#FBFBFB" stroke-width="4.375" x1="219.962" y1="474.832" x2="327.594" y2="430.249" fill="none" />
						<circle fill="#FBFBFB" stroke="#FBFBFB" stroke-width="5.25" cx="332.328" cy="428.288" r="5.125" />
						<line fill="#4D4D4D" stroke="#4D4D4D" stroke-width="1.75" x1="219.962" y1="474.832" x2="327.594" y2="430.249" />
						<circle stroke="#4D4D4D" stroke-width="2.625" cx="332.328" cy="428.288" r="5.125" fill="none" />
					</g>
					<g>
						<circle stroke="#4D4D4D" stroke-width="1.75" stroke-miterlimit="10" cx="206.219" cy="480.524" r="14.875" fill="none" />
						<circle fill="#4D4D4D" cx="206.219" cy="480.524" r="10.063" />
					</g>
				</g>
			</g>
			<g id="90">
				<g>
					<g stroke-miterlimit="10">
						<line stroke="#FBFBFB" stroke-width="4.375" x1="588.625" y1="401.5" x2="460.125" y2="401.5" fill="none" />
						<circle fill="#FBFBFB" stroke="#FBFBFB" stroke-width="5.25" cx="455" cy="401.5" r="5.125" />
						<line fill="#4D4D4D" stroke="#4D4D4D" stroke-width="1.75" x1="588.625" y1="401.5" x2="460.125" y2="401.5" />
						<circle stroke="#4D4D4D" stroke-width="2.625" cx="455" cy="401.5" r="5.125" fill="none" />
					</g>
					<g>
						<circle stroke="#4D4D4D" stroke-width="1.75" stroke-miterlimit="10" cx="603.5" cy="401.5" r="14.875" fill="none" />
						<circle fill="#4D4D4D" cx="603.5" cy="401.5" r="10.063" />
					</g>
				</g>
				<g>
					<g stroke-miterlimit="10">
						<line stroke="#FBFBFB" stroke-width="4.375" x1="205.375" y1="401.5" x2="333.875" y2="401.5" fill="none" />
						<circle fill="#FBFBFB" stroke="#FBFBFB" stroke-width="5.25" cx="339" cy="401.5" r="5.125" />
						<line fill="#4D4D4D" stroke="#4D4D4D" stroke-width="1.75" x1="205.375" y1="401.5" x2="333.875" y2="401.5" />
						<circle stroke="#4D4D4D" stroke-width="2.625" cx="339" cy="401.5" r="5.125" fill="none" />
					</g>
					<g>
						<circle stroke="#4D4D4D" stroke-width="1.75" stroke-miterlimit="10" cx="190.5" cy="401.5" r="14.875" fill="none" />
						<circle fill="#4D4D4D" cx="190.5" cy="401.5" r="10.063" />
					</g>
				</g>
			</g>
			<g id="67.5">
				<g>
					<g stroke-miterlimit="10">
						<polyline stroke="#FBFBFB" stroke-width="4.375" points="574.038,328.168 474.255,369.5 429.125,369.5" fill="none" />
						<circle fill="#FBFBFB" stroke="#FBFBFB" stroke-width="5.25" cx="424" cy="369.5" r="5.125" />
						<polyline stroke="#4D4D4D" stroke-width="1.75" points="574.038,328.168 474.255,369.5 429.125,369.5" fill="none" />
						<circle stroke="#4D4D4D" stroke-width="2.625" cx="424" cy="369.5" r="5.125" fill="none" />
					</g>
					<g>
						<circle stroke="#4D4D4D" stroke-width="1.75" stroke-miterlimit="10" cx="587.781" cy="322.476" r="14.875" fill="none" />
						<circle fill="#4D4D4D" cx="587.781" cy="322.476" r="10.063" />
					</g>
				</g>
				<g>
					<g stroke-miterlimit="10">
						<polyline stroke="#FBFBFB" stroke-width="4.375" points="219.962,328.168 319.745,369.5 364.875,369.5" fill="none" />
						<circle fill="#FBFBFB" stroke="#FBFBFB" stroke-width="5.25" cx="370" cy="369.5" r="5.125" />
						<polyline stroke="#4D4D4D" stroke-width="1.75" points="219.962,328.168 319.745,369.5 364.875,369.5" fill="none" />
						<circle stroke="#4D4D4D" stroke-width="2.625" cx="370" cy="369.5" r="5.125" fill="none" />
					</g>
					<g>
						<circle stroke="#4D4D4D" stroke-width="1.75" stroke-miterlimit="10" cx="206.219" cy="322.476" r="14.875" fill="none" />
						<circle fill="#4D4D4D" cx="206.219" cy="322.476" r="10.063" />
					</g>
				</g>
			</g>
			<g id="45">
				<g>
					<g stroke-miterlimit="10">
						<polyline stroke="#FBFBFB" stroke-width="4.375" points="532.499,266.001 458,340.5 451.208,340.5" fill="none" />
						<circle fill="#FBFBFB" stroke="#FBFBFB" stroke-width="5.25" cx="446.083" cy="340.5" r="5.125" />
						<polyline stroke="#4D4D4D" stroke-width="1.75" points="532.499,266.001 458,340.5 451.208,340.5" fill="none" />
						<circle stroke="#4D4D4D" stroke-width="2.625" cx="446.083" cy="340.5" r="5.125" fill="none" />
					</g>
					<g>
						<circle stroke="#4D4D4D" stroke-width="1.75" stroke-miterlimit="10" cx="543.018" cy="255.482" r="14.875" fill="none" />
						<circle fill="#4D4D4D" cx="543.018" cy="255.482" r="10.063" />
					</g>
				</g>
				<g>
					<g stroke-miterlimit="10">
						<polyline stroke="#FBFBFB" stroke-width="4.375" points="261.5,266.001 336,340.5 342.792,340.5" fill="none" />
						<circle fill="#FBFBFB" stroke="#FBFBFB" stroke-width="5.25" cx="347.917" cy="340.5" r="5.125" />
						<polyline stroke="#4D4D4D" stroke-width="1.75" points="261.5,266.001 336,340.5 342.792,340.5" fill="none" />
						<circle stroke="#4D4D4D" stroke-width="2.625" cx="347.917" cy="340.5" r="5.125" fill="none" />
					</g>
					<g>
						<circle stroke="#4D4D4D" stroke-width="1.75" stroke-miterlimit="10" cx="250.982" cy="255.482" r="14.875" fill="none" />
						<circle fill="#4D4D4D" cx="250.982" cy="255.482" r="10.063" />
					</g>
				</g>
			</g>
			<g id="top">
				<g stroke-miterlimit="10">
					<line stroke="#FBFBFB" stroke-width="4.375" x1="397" y1="209.875" x2="397" y2="217.875" fill="none" />
					<circle fill="#FBFBFB" stroke="#FBFBFB" stroke-width="5.25" cx="397" cy="223" r="5.125" />
					<line fill="#4D4D4D" stroke="#4D4D4D" stroke-width="1.75" x1="397" y1="209.875" x2="397" y2="217.875" />
					<circle stroke="#4D4D4D" stroke-width="2.625" cx="397" cy="223" r="5.125" fill="none" />
				</g>
				<g>
					<circle stroke="#4D4D4D" stroke-width="1.75" stroke-miterlimit="10" cx="397" cy="195" r="14.875" fill="none" />
					<circle fill="#4D4D4D" cx="397" cy="195" r="10.063" />
				</g>
			</g>
		</g>
	</g>
	<g id="text">
		<g font-family="'KozGoPr6N-ExtraLight-90ms-RKSJ-H'" font-size="28">
			<text transform="translate(1419.5 513.574)" fill="#FBFBFB">二刀流</text>
			<text transform="translate(1419.5 613.574)" fill="#4D4D4D">投剣</text>
			<text transform="translate(1419.5 713.574)" fill="#4D4D4D">武器防御</text>
			<text transform="translate(1419.5 813.574)" fill="#4D4D4D">戦闘時回復</text>
			<text transform="translate(1419.5 413.574)" fill="#4D4D4D">片手用直剣</text>
			<text transform="translate(1419.5 313.574)" fill="#4D4D4D">追跡</text>
			<text transform="translate(1419.5 213.574)" fill="#4D4D4D">索敵</text>
		</g>
		<text transform="translate(364.404 114.478)" fill="#4D4D4D" font-family="'SAOUI-Regular'" font-size="37">Kirito</text>
	</g>
</svg>