<?xml version="1.0" encoding="utf-8"?>
<svg xmlns="http://www.w3.org/2000/svg" width="1920" height="1080">
	<rect fill="#ECECEC" width="1920" height="1080" />
	<g>
		<path fill="#0682BE" d="M518.75 717.75c-17.645 0-32-14.355-32-32v-288.5c0-17.645 14.355-32 32-32h882.5c17.645 0 32 14.355 32 32v288.5c0 17.645-14.355 32-32 32h-882.5z" />
		<path fill="#808486" d="M1401.25 368.25c15.991 0 29 13.009 29 29v288.5c0 15.991-13.009 29-29 29h-882.5c-15.991 0-29-13.009-29-29v-288.5c0-15.991 13.009-29 29-29h882.5m0-6h-882.5c-19.25 0-35 15.75-35 35v288.5c0 19.25 15.75 35 35 35h882.5c19.25 0 35-15.75 35-35v-288.5c0-19.25-15.75-35-35-35z" />
		<g fill="#FBFBFB">
			<rect x="983" y="492" width="372.5" height="47" />
			<rect x="983" y="616" width="372.5" height="47" />
			<path d="M987.517 462.297h-4.845v-4.803h4.845v4.803zm0 17.361h-4.845v-4.803h4.845v4.803zm27.996 0h-3.368c-.521-1.115-.848-2.26-.978-3.434h-.152c-1.681 2.693-4.187 4.041-7.519 4.041-2.289 0-4.157-.725-5.605-2.172-1.275-1.275-1.912-2.832-1.912-4.672 0-4.578 3.947-6.982 11.842-7.215l2.977-.086v-1.152c0-1.549-.442-2.766-1.325-3.65-.927-.926-2.115-1.391-3.563-1.391-2.492 0-4.36 1.211-5.606 3.629l-3.304-1.521c2.057-3.389 5.055-5.084 8.996-5.084 2.723 0 4.816.76 6.279 2.281 1.362 1.361 2.043 3.289 2.043 5.779v8.148c0 2.769.398 4.935 1.195 6.499zm-4.628-10.865l-2.434.043c-5.736.131-8.604 1.674-8.604 4.629 0 1.043.34 1.904 1.021 2.586.84.826 1.941 1.238 3.303 1.238 1.897 0 3.542-.695 4.933-2.086 1.188-1.23 1.781-2.717 1.781-4.455v-1.955zm31.212 5.846c-2.014 3.781-5.186 5.67-9.517 5.67-3.115 0-5.693-1.02-7.735-3.063-2.202-2.23-3.303-5.135-3.303-8.713 0-3.549 1.101-6.447 3.303-8.691 2.013-2.014 4.548-3.021 7.605-3.021 4.316 0 7.388 1.869 9.213 5.607l-3.085 1.607c-1.29-2.738-3.289-4.107-5.997-4.107-1.782 0-3.324.652-4.628 1.955-1.637 1.639-2.456 3.883-2.456 6.736 0 2.695.79 4.832 2.369 6.41 1.391 1.391 3.092 2.086 5.106 2.086 2.738 0 4.802-1.361 6.193-4.084l2.932 1.608zm25.54 0c-2.014 3.781-5.186 5.67-9.517 5.67-3.115 0-5.693-1.02-7.735-3.063-2.202-2.23-3.303-5.135-3.303-8.713 0-3.549 1.101-6.447 3.303-8.691 2.013-2.014 4.548-3.021 7.605-3.021 4.316 0 7.388 1.869 9.213 5.607l-3.085 1.607c-1.29-2.738-3.289-4.107-5.997-4.107-1.782 0-3.324.652-4.628 1.955-1.637 1.639-2.456 3.883-2.456 6.736 0 2.695.79 4.832 2.369 6.41 1.391 1.391 3.092 2.086 5.106 2.086 2.738 0 4.802-1.361 6.193-4.084l2.932 1.608zm16.154-17.774c3.129 0 5.765 1.049 7.909 3.15 2.202 2.201 3.303 5.098 3.303 8.691 0 3.477-1.079 6.293-3.238 8.451-2.115 2.102-4.773 3.15-7.974 3.15-3.202 0-5.838-1.035-7.909-3.105-2.173-2.158-3.259-5.035-3.259-8.627 0-3.506 1.101-6.359 3.303-8.561 2.099-2.1 4.721-3.149 7.865-3.149zm0 2.932c-1.854 0-3.426.668-4.715 2-1.637 1.637-2.455 3.91-2.455 6.822 0 2.869.804 5.107 2.412 6.715 1.304 1.303 2.89 1.955 4.758 1.955 1.912 0 3.513-.666 4.802-1.998 1.607-1.609 2.412-3.883 2.412-6.824 0-2.766-.818-4.99-2.456-6.67-1.332-1.332-2.919-2-4.758-2zm37.709 19.861h-3.563v-4.043c-2.188 2.984-4.846 4.477-7.975 4.477-2.564 0-4.563-.869-5.997-2.607-1.13-1.404-1.695-3.41-1.695-6.018v-13.973h3.824v13.842c0 3.68 1.542 5.52 4.628 5.52 3.114 0 5.432-1.912 6.953-5.736v-13.625h3.824v22.163zm28.517 0h-3.824v-13.754c0-3.768-1.557-5.65-4.671-5.65-3.144 0-5.447 1.883-6.91 5.65v13.754h-3.824v-22.164h3.563v3.998c2.086-2.969 4.744-4.453 7.975-4.453 5.128 0 7.691 2.883 7.691 8.646v13.973zm19.848-1.238c-1.651 1.145-3.339 1.715-5.063 1.715-3.448 0-5.172-1.939-5.172-5.822v-14.102h-3.02v-2.717h3.02v-4.975l3.65-1.826v6.801h6.149v2.717h-6.149v13.58c0 2.273.775 3.412 2.325 3.412 1.043 0 2.035-.398 2.977-1.195l1.283 2.412zM987.517 585.297h-4.845v-4.803h4.845v4.803zm0 17.361h-4.845v-4.803h4.845v4.803zm13.525-18.252c2.086-3.027 4.708-4.541 7.866-4.541 2.607 0 4.845.934 6.714 2.803 2.173 2.172 3.259 5.17 3.259 8.994 0 3.725-1.072 6.672-3.216 8.844-1.868 1.869-4.136 2.803-6.801 2.803-2.926 0-5.461-1.223-7.605-3.672v11.908h-3.781v-31.051h3.563v3.912zm.217 5.127v4.586c0 1.824.949 3.426 2.846 4.801 1.275.912 2.644 1.369 4.107 1.369 1.68 0 3.114-.594 4.302-1.781 1.579-1.564 2.368-3.816 2.368-6.758 0-2.637-.651-4.787-1.955-6.453-1.304-1.578-2.89-2.369-4.759-2.369-2.057 0-3.824.965-5.302 2.891-1.071 1.39-1.607 2.628-1.607 3.714zm43.228 13.125h-3.368c-.521-1.115-.848-2.26-.978-3.434h-.152c-1.681 2.693-4.187 4.041-7.519 4.041-2.289 0-4.157-.725-5.605-2.172-1.275-1.275-1.912-2.832-1.912-4.672 0-4.578 3.947-6.982 11.842-7.215l2.977-.086v-1.152c0-1.549-.442-2.766-1.325-3.65-.927-.926-2.115-1.391-3.563-1.391-2.492 0-4.36 1.211-5.606 3.629l-3.303-1.521c2.057-3.389 5.055-5.084 8.996-5.084 2.723 0 4.816.76 6.279 2.281 1.362 1.361 2.043 3.289 2.043 5.779v8.148c-.001 2.769.397 4.935 1.194 6.499zm-4.629-10.865l-2.434.043c-5.736.131-8.604 1.674-8.604 4.629 0 1.043.34 1.904 1.021 2.586.84.826 1.941 1.238 3.303 1.238 1.897 0 3.542-.695 4.933-2.086 1.188-1.23 1.781-2.717 1.781-4.455v-1.955zm24.02-6.41c-1.376-1.781-3.115-2.672-5.215-2.672-2.752 0-4.129 1.057-4.129 3.172 0 1.492 1.485 2.725 4.455 3.693l1.456.479c4.216 1.377 6.323 3.65 6.323 6.822 0 2.131-.876 3.803-2.629 5.02-1.391.943-3.187 1.412-5.389 1.412-3.39 0-6.266-1.238-8.626-3.715l2.412-2.195c1.825 1.957 3.94 2.934 6.345 2.934 2.854 0 4.281-1.107 4.281-3.324 0-1.68-1.572-3.078-4.715-4.193l-1.521-.521c-3.969-1.391-5.954-3.426-5.954-6.105 0-1.695.58-3.121 1.738-4.281 1.391-1.391 3.303-2.086 5.736-2.086 3.26 0 5.932 1.131 8.018 3.391l-2.586 2.169zm21.891 0c-1.376-1.781-3.115-2.672-5.215-2.672-2.752 0-4.129 1.057-4.129 3.172 0 1.492 1.485 2.725 4.455 3.693l1.456.479c4.216 1.377 6.323 3.65 6.323 6.822 0 2.131-.876 3.803-2.629 5.02-1.391.943-3.187 1.412-5.389 1.412-3.39 0-6.266-1.238-8.626-3.715l2.412-2.195c1.825 1.957 3.94 2.934 6.345 2.934 2.854 0 4.281-1.107 4.281-3.324 0-1.68-1.572-3.078-4.715-4.193l-1.521-.521c-3.969-1.391-5.954-3.426-5.954-6.105 0-1.695.58-3.121 1.738-4.281 1.391-1.391 3.303-2.086 5.736-2.086 3.26 0 5.932 1.131 8.018 3.391l-2.586 2.169zm39.533-4.889l-7.692 22.555h-2.672l-4.671-13.299c-.464-1.316-.92-2.947-1.369-4.889h-.13c-.333 1.406-.812 3.035-1.434 4.889l-4.541 13.299h-2.673l-7.692-22.555h3.998l3.737 12.234c.231.738.709 2.447 1.434 5.127h.13c.435-1.723.927-3.434 1.478-5.127l3.998-12.234h3.39l4.172 12.234c.42 1.145.913 2.854 1.478 5.127h.13c.478-1.998.935-3.707 1.369-5.127l3.693-12.234h3.867zm14.959-.629c3.129 0 5.765 1.049 7.909 3.15 2.202 2.201 3.303 5.098 3.303 8.691 0 3.477-1.079 6.293-3.238 8.451-2.115 2.102-4.773 3.15-7.974 3.15-3.202 0-5.838-1.035-7.909-3.105-2.173-2.158-3.259-5.035-3.259-8.627 0-3.506 1.101-6.359 3.303-8.561 2.099-2.1 4.721-3.149 7.865-3.149zm0 2.932c-1.854 0-3.426.668-4.715 2-1.637 1.637-2.455 3.91-2.455 6.822 0 2.869.804 5.107 2.412 6.715 1.304 1.303 2.89 1.955 4.758 1.955 1.912 0 3.513-.666 4.802-1.998 1.607-1.609 2.412-3.883 2.412-6.824 0-2.766-.818-4.99-2.456-6.67-1.332-1.332-2.919-2-4.758-2zm30.929-2.758l-.674 3.801c-.493-.1-.935-.15-1.325-.15-1.709 0-3.122.803-4.237 2.41-1.391 2.029-2.086 3.811-2.086 5.346v11.213h-3.824v-22.164h3.607l-.174 6.584h.087c1.637-4.809 4.02-7.213 7.149-7.213.507-.001.999.056 1.477.173zm25.323 22.619h-3.477v-3.869c-2.086 3.014-4.722 4.52-7.909 4.52-2.65 0-4.889-.934-6.714-2.803-2.202-2.186-3.303-5.178-3.303-8.973 0-3.723 1.064-6.678 3.194-8.865 1.839-1.869 4.114-2.803 6.822-2.803 2.926 0 5.461 1.23 7.605 3.693v-13.798h3.78v32.898zm-3.78-8.627v-5.52c0-1.463-.906-2.875-2.716-4.236-1.275-.928-2.672-1.391-4.194-1.391-1.709 0-3.158.594-4.346 1.781-1.579 1.58-2.368 3.832-2.368 6.758 0 2.637.652 4.787 1.956 6.453 1.26 1.58 2.832 2.369 4.715 2.369 2.202 0 4.077-1.08 5.627-3.238.884-1.2 1.326-2.193 1.326-2.976zM602.948 471.896h-31.652v-52.862h6.576v47.081h25.076v5.781zm24.771-37.904c5.203 0 9.587 1.747 13.152 5.239 3.661 3.662 5.492 8.479 5.492 14.453 0 5.781-1.795 10.467-5.384 14.056-3.517 3.493-7.938 5.239-13.261 5.239-5.324 0-9.708-1.722-13.152-5.167-3.613-3.589-5.42-8.37-5.42-14.345 0-5.829 1.831-10.574 5.492-14.236 3.493-3.492 7.853-5.239 13.081-5.239zm0 4.878c-3.083 0-5.697 1.108-7.841 3.324-2.722 2.723-4.083 6.504-4.083 11.346 0 4.77 1.337 8.491 4.011 11.165 2.168 2.168 4.806 3.252 7.913 3.252 3.18 0 5.841-1.107 7.985-3.324 2.674-2.674 4.011-6.455 4.011-11.346 0-4.601-1.361-8.298-4.083-11.093-2.216-2.215-4.854-3.324-7.913-3.324zm40.271 20.451c-2.505.217-3.758 1.181-3.758 2.891 0 2.217 2.915 3.469 8.744 3.758l4.264.217c9.033.458 13.55 3.734 13.55 9.828 0 3.131-1.458 5.696-4.372 7.696-3.132 2.264-7.492 3.396-13.08 3.396-5.059 0-9.13-.867-12.213-2.602-2.963-1.687-4.444-3.999-4.444-6.938 0-3.951 2.782-6.552 8.347-7.805v-.253c-4.384-1.107-6.576-3.071-6.576-5.89 0-2.602 1.879-4.601 5.637-5.998-4.144-2.144-6.215-5.552-6.215-10.226 0-3.613 1.204-6.624 3.613-9.033 2.77-2.77 6.504-4.155 11.201-4.155 2.987 0 5.625.65 7.913 1.951 1.758-2.313 4.986-3.505 9.684-3.577v5.203c-3.252.072-5.396.361-6.432.867 2.553 2.506 3.83 5.469 3.83 8.889 0 3.396-1.156 6.264-3.469 8.6-2.578 2.554-6.131 3.83-10.659 3.83-1.928.002-3.783-.215-5.565-.649zm4.878 11.454c-6.552 0-9.828 2.023-9.828 6.07 0 3.926 3.457 5.89 10.37 5.89 4.456 0 7.684-1.036 9.684-3.107 1.036-.964 1.554-2.096 1.554-3.396-.001-3.637-3.928-5.457-11.78-5.457zm-.217-31.905c-2.505 0-4.577.819-6.215 2.457-1.614 1.614-2.421 3.638-2.421 6.07 0 2.385.759 4.3 2.276 5.745 1.638 1.639 3.842 2.457 6.612 2.457 2.602 0 4.685-.795 6.251-2.385 1.59-1.565 2.385-3.589 2.385-6.07 0-2.264-.795-4.179-2.385-5.745-1.661-1.685-3.829-2.529-6.503-2.529zm59.369-11.671h-7.263v-7.407h7.263v7.407zm-.47 44.697h-6.359v-36.856h6.359v36.856zm47.679 0h-6.359v-22.872c0-6.263-2.59-9.395-7.769-9.395-5.228 0-9.058 3.132-11.49 9.395v22.872h-6.359v-36.856h5.926v6.648c3.469-4.938 7.889-7.407 13.261-7.407 8.527 0 12.791 4.794 12.791 14.381v23.234zm45.583 9.394h-37v-3.686h37v3.686zm18.194-38.265h-8.058v-7.985h8.058v7.985zm0 28.871h-8.058v-7.985h8.058v7.985zm26.035-28.871h-8.058v-7.985h8.058v7.985zm0 28.871h-8.058v-7.985h8.058v7.985z" />
		</g>
	</g>
</svg>