<?xml version="1.0" encoding="utf-8"?>
<svg xmlns="http://www.w3.org/2000/svg" width="464" height="464">
	<path fill="#765C46" d="M188.707 113.971l13.205-21.034c.366-.583 1.006-.937 1.694-.937h49.891c.631 0 1.225.298 1.603.804l10.502 14.074c.551.738.526 1.756-.059 2.467l-45.863 55.732c-.891 1.082-2.59.936-3.283-.282l-27.736-48.773c-.363-.639-.346-1.428.046-2.051zm80.909 3.283l-46.935 56.934c-.524.636-.605 1.527-.203 2.247l54.656 97.948c.666 1.194 2.307 1.382 3.226.371l15.627-17.189c.331-.364.516-.836.52-1.328l.739-84.794c.003-.292-.059-.581-.18-.846l-24.087-52.9c-.612-1.346-2.423-1.584-3.363-.443zm-34.102 98.606l-49.441-92.554c-.794-1.487-2.959-1.385-3.609.171l-20.556 49.144c-.105.25-.157.518-.155.789l.74 84.83c.004.489.188.96.516 1.323l19.031 21.072c.825.914 2.272.872 3.043-.088l50.225-62.492c.502-.624.583-1.488.206-2.195zm2.621 10.025l-49.814 61.684c-.568.703-.594 1.7-.063 2.431l14.643 20.174c.376.518.978.825 1.619.825h51.837c.708 0 1.364-.375 1.723-.985l14.057-23.86c.353-.599.369-1.337.044-1.951l-30.723-57.999c-.672-1.267-2.421-1.436-3.323-.319zm55.5 62.08l-23.038 33.175c-.374.538-.987.859-1.643.859h-75.908c-.655 0-1.269-.321-1.643-.859l-23.127-33.303c-.68-.98-2.062-1.15-2.96-.364l-5.024 4.396c-.743.65-.901 1.746-.37 2.579l26.793 42.103c.187.294.448.534.756.696l37.529 19.753v15c0 1.105.895 2 2 2h7c1.105 0 2-.895 2-2v-15l38.518-20.247c.315-.166.581-.413.769-.716l25.877-41.69c.49-.789.372-1.812-.285-2.469l-4.187-4.187c-.881-.88-2.346-.749-3.057.274z" />
</svg>