<?xml version="1.0" encoding="utf-8"?>
<svg xmlns="http://www.w3.org/2000/svg" width="178" height="177">
	<path fill="#0BB3FA" d="M121.802 124.89l-35.802-2.14-61 16-7.5-3 77.5-31.5 26.802 20.64zm2.428 1.871l-34.964-2.558 14.567 6.477 34.666 7.07-14.269-10.989zm-68.852-10.959l19.358-30.193 15.84-61.042 6.282-5.078-10.376 83.011-31.104 13.302zm-2.818 1.206l19.313-29.258-12.768 9.546-23.105 26.794 16.56-7.082zm42.961-55.046l16.951 31.607 45.611 43.55 1.378 7.959-67.461-49.472 3.521-33.644zm.319-3.049l16.156 31.113-2.124-15.8-12.158-33.226-1.874 17.913z" />
</svg>