<?xml version="1.0" encoding="utf-8"?>
<svg xmlns="http://www.w3.org/2000/svg" width="232" height="232">
	<path d="M116 185.43l-15.03-39.53c-6.426-1.383-12.789-3.375-18.46-6.7-3.908-2.263-7.601-5.095-10.462-8.663-1.189-1.482-1.314-1.773-2.958-4.727v-.01c4.235-2.527 7.799-6.328 9.01-11.13l.49-1.77c1.843 1.583 3.527 3.057 5.846 4.628 6.47 4.383 14.082 7.064 21.804 8.452 3.28-4.71 6.47-9.48 9.76-14.17 3.29 4.69 6.48 9.46 9.76 14.17 7.722-1.388 15.334-4.069 21.804-8.452 2.319-1.571 4.003-3.045 5.846-4.628l.49 1.77c1.211 4.802 4.775 8.603 9.01 11.13v.01c-1.645 2.955-1.77 3.245-2.958 4.727-2.86 3.567-6.554 6.399-10.462 8.663-5.671 3.325-12.034 5.317-18.46 6.7l-15.03 39.53zm45.12-90.442c-2.26-.161-5.172-.525-6.231-.673-2.773-.387-4.067-.76-6.304-1.586-3.258-1.203-6.371-2.892-8.817-5.395-1.706-1.745-3.186-4.276-3.95-6.608-1.011-3.083-1.424-8.046-.349-12.714.593-2.576 1.473-5.451 2.271-7.972-3.075-2.612-6.442-4.875-10.22-6.24-3.675-1.081-7.559-1.686-11.52-1.694-3.961.008-7.845.614-11.52 1.694-3.778 1.365-7.145 3.628-10.22 6.24.798 2.521 1.678 5.396 2.271 7.972 1.075 4.668.662 9.631-.349 12.714-.764 2.332-2.244 4.863-3.95 6.608-2.447 2.503-5.559 4.192-8.817 5.395-2.237.826-3.53 1.199-6.304 1.586-1.059.148-3.971.511-6.231.673-.949.068-1.906.115-2.87.132 2.446 2.169 7.453 6.852 15.033 12.135 2.448 1.706 4.594 3.105 7.831 5 2.482 1.453 5.018 2.84 7.596 4.195 4.385-5.368 16.746-21.424 17.527-22.45.781 1.026 13.147 17.082 17.533 22.45 2.578-1.355 5.114-2.742 7.596-4.195 3.237-1.895 5.383-3.294 7.831-5 7.58-5.282 12.587-9.966 15.033-12.135-.963-.018-1.92-.064-2.87-.132z" />
</svg>