<?xml version="1.0" encoding="utf-8"?>
<svg xmlns="http://www.w3.org/2000/svg" width="232" height="232">
	<path fill="#666" d="M180 127.25v-22.5h-17.082c-1.196-5.005-3.163-9.71-5.784-13.974l12.076-12.076-15.91-15.91-12.076 12.076c-4.264-2.62-8.968-4.588-13.974-5.784v-17.082h-22.5v17.082c-5.005 1.196-9.71 3.163-13.974 5.784l-12.076-12.076-15.91 15.91 12.076 12.076c-2.62 4.264-4.588 8.968-5.784 13.974h-17.082v22.5h17.082c1.196 5.005 3.163 9.71 5.784 13.974l-12.076 12.076 15.91 15.91 12.076-12.076c4.264 2.62 8.968 4.588 13.974 5.784v17.082h22.5v-17.082c5.005-1.196 9.71-3.163 13.974-5.784l12.076 12.076 15.91-15.91-12.076-12.076c2.62-4.264 4.588-8.968 5.784-13.974h17.082zm-40.382-13.75h-21.118v-21.118c11.12 1.163 19.955 9.998 21.118 21.118zm-26.118-21.118v21.118h-21.118c1.163-11.12 9.998-19.955 21.118-21.118zm-21.118 26.118h21.118v21.118c-11.12-1.163-19.955-9.998-21.118-21.118zm26.118 21.118v-21.118h21.118c-1.163 11.12-9.998 19.955-21.118 21.118z" />
</svg>