<?xml version="1.0" encoding="utf-8"?>
<svg xmlns="http://www.w3.org/2000/svg" width="232" height="232">
	<path fill="#AEDE6C" d="M149.5 143.75l-36 47-36-47.5 4.5-5.5 31.5 25.75 31.25-25.25 4.75 5.5zm-39.223-64.946c-1.59-1.546-2.926-3.302-4.047-5.237l-.087-.153c-1.25-2.228-1.149-4.762-1.143-7.653.001-.552.029-1.095.083-1.646.68-6.902 5.555-14.502 9.417-18.364-6.693 4.534-15.295 13.801-17.423 21.609-.665 2.438-.754 4.827-.275 7.345 2.077 10.921 13.145 18.786 22.349 25.105 4.197 2.882 7.444 5.548 10.405 8.316 1.421 1.328 3.52 3.745 1.804 4.663-1.184.634-2.239.196-3.398-.517-4.068-2.503-11.689-5.42-19.889-5.941s-16.976 1.351-23.357 6.426c-2.025 1.61-3.292 3.537-3.111 6.106.137 1.945 1.075 3.907 2.107 5.562.279.447.6.927.808 1.218.86 1.207 7.935 10.06 10.782 12.833.789.768 2.493 2.196 3.347 2.891 2.748 2.235 6.103 4.679 9.399 5.936 2.611.995 5.144 1.249 7.77.272 1.148-.427 2.253-1.064 3.36-1.868 1.107-.804 2.215-1.777 3.37-2.876 7.331-6.151 14.228-16.076 19.367-24.105 3.404-5.318 6.204-10.311 6.804-11.531 2.2-4.476 1.94-8.58-1.68-11.857-2.916-2.639-7.435-4.631-11.109-5.991-10.09-3.736-18.925-4-25.653-10.543zm52.424-13.045c-4.424-2.971-9.464-1.002-16.071-8.055-.757-.808-1.486-1.682-2.166-2.592-.618-.826-1.074-1.507-1.607-2.361-2.068-3.316-4.519-6.558-7.665-8.846-4.492-3.266-10.161-4.527-14.701-1.209-3.738 2.731-6.739 7.755-8.672 11.961-3.257 7.09-2.904 8.566-3.123 11.838 1.074-1.715 2.48-3.483 4.058-4.776 1.431-1.172 2.935-1.717 4.431-1.812 4.447-.283 8.874 3.421 11.123 6.517 1.898 2.614 2.704 5.3 10.608 12.082 2.984 2.56 6.875 5.336 10.582 6.743.523-.692 13.463-17.791 14-18.5l.006-.046c.002-.176-.142-.37-.261-.498-.154-.167-.353-.319-.542-.446z" />
</svg>