<?xml version="1.0" encoding="utf-8"?>
<svg xmlns="http://www.w3.org/2000/svg" width="260.632" height="435.915">
	<path fill="#C02840" d="M135 0c-17.333 93.667-4 90.333 33 151.305-24.615-14.507-49-34.972-82-63 12-23.972 32-65.61 49-88.305zm83.15 186.314c-15.651-11.48-23.151-13.98-26.151-62.009-8 15.029-11.25 37.49-11.25 49.779-27.647-17.871-64.231-45.544-100.749-76.779l-16 27 7 34c105.404 35.59 147 108.028 146 199.028 23.5-36 40.711-69.827 43.499-106.029 1.501-19.471-9.529-40.916-42.349-64.99zm-184.15 181.87c49.05 78.122 193 131.149 158.667-89.334-17.667 97.817-57.334 119.816-158.667 89.334zm13.344-206.195c14.349 33.625 6.256 31.514-4.523 48.323-17.727 27.645-42.821 48.962-42.821 84.355 0 51.845 71 72 110.667 72-23.874-18.222-53.667-42.209-53.667-83.362 0-23.333 19.215-53.979 41.334-92.305l-50.99-29.011zm61.491 52.687c-1.987 1.815-22.884 25.667-30.842 44.8-5.114 12.294-5.053 21.22-2.27 32.926 4.565 19.199 19.729 32.464 35.705 44.023 19.92 14.412 26.634 22.903 48.021-7.274 7.844-11.068 13.125-23.755 16.633-36.863 2.878-10.754 6.436-20.694-6.845-40.51-7.141-10.654-22.393-30.603-33.207-38.236-9.677-6.83-19.796-5.626-27.195 1.134z"/>
</svg>