<?xml version="1.0" encoding="utf-8"?>
<svg xmlns="http://www.w3.org/2000/svg" width="113.727" height="202.223">
	<path fill="#9CCC6C" d="M70.4 27.47c7.95-8.33 13.97-18.21 20.74-27.47-.153 4.864-6.341 40.597-7 44.33-2.32 8.78-6.07 17.18-10.92 24.86-3.85 6-8.69 11.54-14.84 15.25-3.98 2.45-8.73 3.1-12.85 5.24-10.54 5.15-19.36 13.15-27.19 21.76-4.23 4.87-8.18 10.08-10.95 15.93-2.29 4.89-2.33 10.42-2.4 15.72-1.17-1.365-2.077-4.556-2.553-6.293-1.723-6.286-2.214-12.884-2.437-19.387.28-8.09.74-16.45 4.49-23.81 7.42-15.44 18.02-29.08 28.59-42.48 2.65-3 4.84-6.45 7.83-9.13 5.38-1.86 11.11-2.47 16.47-4.41 5.24-2.01 9.19-6.17 13.02-10.11zm2.58 87.57c-14.31 3.22-27.65 10.62-38 21.02-4.03 4.65-8.45 9.31-10.57 15.19 12.221-6.527 26.287-7.829 39.797-9.733 3.796-.535 16.453-1.427 17.662-1.477 3.515-.145 7.213.268 10.282-1.78 6.38-4.4 9.84-11.71 12.62-18.7 5.011-12.659 9.655-33.223 8.87-37.28-6.37 10.04-12.06 21.32-22.33 27.98-5.361 3.84-12.331 2.76-18.331 4.78zm-57.49 70.35c5.8 8.03 14.35 14.24 24.06 16.48 3.56 1 6.93-1.07 10.39-1.57 8.42-1.18 17.09-.69 25.27 1.65 2.75 1.06 5.03-1.21 7.1-2.65 15.53-12 27.31-30.18 28.85-50.02-1.974 1.873-11.123 24.215-40.69 29.18-15.69 2.59-32.62 2.12-47.06-5.17-10.67-5.45-18.15-15.69-21.73-26.96 1.66 13.78 5.51 27.72 13.81 39.06z" />
</svg>