<?xml version="1.0" encoding="utf-8"?>
<svg xmlns="http://www.w3.org/2000/svg" width="335" height="590">
	<path fill="#9CCC6C" d="M0 437.65c22.483 19.985 24.479 22.811 43.84 37.8 28.104 21.859 52.445 49.35 99.91 49.35 43.718 0 82.272-18.822 112.25-48.8 28.104-15.613 37.398-21.394 68-47-14.364 47.465-24.75 67-24.75 67-25.606 41.218-86.144 94-146.1 94-40.134 0-107.65-40-126.65-99-3.578-11.111-16.507-28.976-26.5-53.333v-.017zm21-30.65c-3.98-16.839-5.529-40.647-6-50-6.5-129 30.5-149 109-232 49 5.5 98.5-48.813 147-125-11.242 65.577-16.441 86.997-25.81 135.711-27.023 69.956-72.19 108.789-91.69 114.289-20.428 5.762-121.5 72-132.5 157zm89.65 12.25c2.498-17.487 25.373-45.589 52.853-64.325 40.594-28.105 118.997-23.925 171.497-126.925 0 24-2.013 48.155-6 69-17.5 91.5-83.999 115.5-111.415 114.5-44.58-1.626-76.333-4.116-106.935 7.75z" />
</svg>