<?xml version="1.0" encoding="utf-8"?>
<svg xmlns="http://www.w3.org/2000/svg" width="232" height="232">
	<path fill="#6CD0E0" d="M111.92 120.115c-1.834-.46-3.737-.345-5.61-.31 5.048-3.584 12.23-4.235 18.141-1.246 6.543 3.309 10.536 10.502 9.332 18.225-1.491 9.569-10.435 15.78-18.442 14.87-9.249-1.052-15.284-7.382-16.182-15.621-.097-.894-.128-1.752-.107-2.546.032-1.178.202-2.691.646-3.761.175-.422.375-.722.585-.872.425 2.256 1.068 4.546 2.77 6.09 2.614 2.594 7.043 3.309 10.235 1.345 1.927-.996 3.259-2.722 4.22-4.697.534-1.099.732-3.606.277-5.362-.094-.361-.206-.695-.544-1.345-1.14-2.194-2.972-3.995-5.321-4.77zm16.479-48.688c-3.181-6.433-3.649-7.74-5.237-11.552-4.054-9.737-4.777-11.398-6.528-22.514-1.295 5.015-1.521 11.872-7.76 25.003-4.04 8.504-5.594 11.581-7.782 15.953-4.284 8.562-7.135 14.627-10.803 21.054-2.32 4.532-4.551 9.235-5.87 14.153-.275 1.025-.518 2.082-.695 3.124-.432 2.535-.785 6.294-.707 8.898.131 4.345 1.182 8.615 2.815 12.544.539 1.296 1.095 2.445 1.815 3.691 3.051 5.277 7.346 9.203 9.252 10.18-.581-2.042-.889-1.553-2.352-3.884-1.231-1.96-2.09-4.111-2.763-6.306-1.404-4.339-1.87-9.31-.998-14.747.275-1.715.655-3.324 1.253-4.933.175-.469.492-1.29.685-1.768.615-1.521 1.317-3.005 2.27-4.342 1.429-2.452 4.182-5.431 7.535-7.66 2.097-1.394 4.351-2.447 6.817-3.104 3.332-.889 6.866-1.009 10.146-.409 5.996 1.096 11.474 4.743 14.977 9.708.561.702 1.058 1.42 1.52 2.182.764 1.259 1.511 2.811 2.076 4.15 1.571 3.72 2.352 7.432 2.275 12.022-.042 2.499-.339 5.008-.996 7.44-.417 1.543-1.031 3.202-1.649 4.581-2.933 6.549-6.784 8.96-8.846 11.24.552-.184 1.095-.398 1.679-.67 1.046-.488 2.086-1.1 3.053-1.722 1.447-.932 3.023-2.069 4.383-3.203 1.317-1.098 2.316-2.079 3.24-3.122.886-1.002 1.915-2.297 2.767-3.516.568-.812 1.083-1.629 1.637-2.636 2.642-4.8 4.147-10.284 4.395-15.717.051-1.121.045-2.212-.03-3.4-.259-4.107-1.312-8.803-2.549-12.373-.264-.763-.549-1.51-.851-2.266-2.57-6.434-4.322-8.82-8.284-16.522-.514-1.002-6.855-13.419-9.89-19.557zm-26.504 91.143c1.196 1.652 2.74 3.019 3.78 4.785 3.724 5.818 6.811 12.188 8.975 18.965.755 2.5 1.585 5.171 1.672 7.841.044 1.352.341 2.092.472.02.123-1.948.457-3.884.969-5.794.318-1.185.58-1.935.926-2.935.972-2.805 1.872-5.382 2.968-7.901.388-.891.92-2.041 1.38-2.892.584-1.082 1.746-3.108 2.362-4.173.287-.496.479-.827.785-1.322 1.261-2.034 2.696-3.925 4.21-5.789-.089-.017-.758.166-.845.19-1.934.518-6.618 1.913-9.601 2.331-.986.138-2.281.202-3.277.214-1.695.02-3.465-.091-5.164-.39-3.206-.567-6.493-1.98-9.612-3.15z" />
</svg>