<?xml version="1.0" encoding="utf-8"?>
<svg xmlns="http://www.w3.org/2000/svg" width="417.184" height="1003.936">
	<path fill="#6CD0E0" d="M292.212 794.976c-15.016 4.616-30.537 6.634-46.009 8.781-9.859 1.368-19.823 2.873-29.726 2.783-9.913-.091-19.844-1.847-29.702-3.307-14.967-2.218-29.92-4.585-44.465-8.974-5.778-1.743-6.68-.111-8.469 2.771-2.628 4.234-1.432 7.161 2.993 11.275 5.827 5.418 11.114 11.425 16.517 17.285 16 17.354 34.226 65.924 40.905 88.599 16.856 57.228 18.307 67.377 21.584 80.817 3.052 12.514 3.678 11.389 6.087-.327 3.415-16.611 15.739-65.639 26.29-96.426.343-1 17.963-46.135 31.501-66.281 6.211-9.242 13.421-17.773 22.297-24.75 3.663-2.88 3.973-5.435 2.279-9.729-1.959-4.962-6.14-4.344-12.082-2.517zM417.04 548.549c-1.936-64.613-27.898-138.112-54.778-192.873-25.445-51.837-14.261-22.039-42.818-87.066-45.276-103.097-86.354-236.484-92.805-257.661-4.942-16.226-3.823-12.952-8.567.262-26.579 74.022-50.303 146.927-100.722 252.404-.646 1.352-24.84 49.093-49.451 89.418-5.635 9.233-38.658 52.268-58.114 122.168-7.812 28.064-10.869 56.653-9.448 85.717 3.276 66.997 53.463 132.59 74.069 147.146-17.159-48.093-24.29-78.467-25.009-124.864-.296-19.072 2.666-37.868 8.324-56.121 10.889-35.13 33.25-63.958 64.701-83.291 28.817-17.714 63.629-25.982 93.499-25.982 33.9 0 60.563 13.296 81.049 33.138 11.076 10.728 30.863 38.965 40.455 62.981 11.723 29.35 16.834 59.465 16.834 80.782 0 18.517-1.765 35.301-5.54 51.119-10.799 45.249-37.143 88.58-74.709 110.871-15.052 8.931-23.656 10.372-47.43 20.866 12.994-2.012 54.014-12.643 82.776-30.13 15.897-9.665 25.154-15.992 33.143-22.727 50.323-42.432 76.897-97.555 74.541-176.157zM290.194 669.407c11.291-20.028 15.185-42.08 15.948-64.792 2.098-62.47-32.455-120.8-102.667-123.41-37.635-1.399-56.709 11.773-64.854 16.375-12.445 7.032-22.825 17.457-22.235 18.457 1.906-.527 12.234-12.286 33.075-11.802 14.979.348 28.046 6.106 39.189 16.315 10.188 9.334 16.932 20.573 18.985 34.22 2.753 18.294-.974 34.878-15.04 47.91-8.532 7.905-18.847 12.462-30.396 13.804-29.874 3.471-51.103-10.271-60.187-31.242-3.411-7.874-4.547-14.681-4.787-20.548-.411-10.029 2.631-17.556 2.631-22.692-1.971 3.122-6.613 14.466-8.69 22.503-4.227 16.358-4.538 36.61-3.323 51.193 4.534 54.445 37.401 101.982 93.502 109.038 43.367 5.454 83.427-10.235 108.849-55.329z"/>
</svg>