<?xml version="1.0" encoding="utf-8"?>
<svg xmlns="http://www.w3.org/2000/svg" width="124" height="124">
	<g>
		<circle opacity="0" cx="62" cy="62" r="58.2" />
		<path fill="#C8C8C8" d="M57.8 59.575h-44.239c.792-16.072 9.413-30.077 22.123-38.306l22.116 38.306zm-44.239 4.85c.792 16.072 9.413 30.076 22.123 38.305l22.116-38.305h-44.239zm26.322 40.734c6.633 3.406 14.147 5.341 22.117 5.341s15.484-1.935 22.117-5.341l-22.117-38.309-22.117 38.309zm70.556-40.734h-44.239l22.116 38.305c12.71-8.229 21.331-22.233 22.123-38.305zm-35.839-9.7h44.238c-.792-16.072-9.413-30.077-22.123-38.306l-22.115 38.306zm9.517-35.884c-6.633-3.406-14.147-5.341-22.117-5.341s-15.484 1.935-22.117 5.341l22.117 38.309 22.117-38.309z" />
	</g>
</svg>