<?xml version="1.0" encoding="utf-8"?>
<svg xmlns="http://www.w3.org/2000/svg" width="124" height="124">
	<path fill="#C8C8C8" d="M117 62c0 30.376-24.624 55-55 55s-55-24.624-55-55 24.624-55 55-55 55 24.624 55 55zm-55-49.054c-27.092 0-49.054 21.962-49.054 49.054s21.962 49.054 49.054 49.054 49.054-21.962 49.054-49.054-21.962-49.054-49.054-49.054zm-7.425 22.537c-3.59-3.59-8.696-4.729-13.255-3.431l7.565 7.565-1.735 7.533-7.533 1.735-7.565-7.565c-1.298 4.559-.159 9.666 3.431 13.255 3.676 3.676 8.943 4.781 13.583 3.33l32.676 32.676c2.441 2.441 6.398 2.441 8.839 0s2.441-6.398 0-8.839l-32.675-32.675c1.45-4.641.346-9.907-3.331-13.584z" />
</svg>