<?xml version="1.0" encoding="utf-8"?>
<svg xmlns="http://www.w3.org/2000/svg" xmlns:xlink="http://www.w3.org/1999/xlink" width="1296" height="548">
	<g>
		<polygon opacity="0" points="158.194,548 0,274 158.194,0 1137.806,0 1296,274 1137.806,548" />
		<polygon opacity=".6" fill="#40008C" points="159.349,546 2.31,274 159.349,2 1136.651,2 1293.69,274 1136.651,546" />
		<defs>
			<polygon id="a" points="159.349,546 2.31,274 159.349,2 1136.651,2 1293.69,274 1136.651,546" />
		</defs>
		<clipPath id="b">
			<use xlink:href="#a" overflow="visible" />
		</clipPath>
		<g opacity=".4" clip-path="url(#b)" stroke="#4C00B8" stroke-width="4" stroke-miterlimit="10" fill="none">
			<path d="M159.349 461l-24.537-42.5 24.537-42.5h49.075l24.537 42.5-24.538 42.5h-49.074zm-24.538-42.5l24.537-42.5-24.537-42.5h-49.075l-24.537 42.5 24.537 42.5h49.075zm0 85l24.537-42.5-24.537-42.5h-49.075l-24.537 42.5 24.537 42.5h49.075zm73.612 42.5l24.537-42.5-24.537-42.5h-49.075l-24.537 42.5 24.537 42.5h49.075zm0-170l24.537-42.5-24.537-42.5h-49.075l-24.537 42.5 24.537 42.5h49.075zm-73.612-42.5l24.537-42.5-24.537-42.5h-49.075l-24.537 42.5 24.537 42.5h49.075zm-73.612 42.5l24.537-42.5-24.537-42.5h-49.075l-24.537 42.5 24.537 42.5h49.075zm0-85l24.537-42.5-24.537-42.5h-49.075l-24.537 42.5 24.537 42.5h49.075zm73.612-42.5l24.537-42.5-24.537-42.5h-49.075l-24.537 42.5 24.537 42.5h49.075zm-73.612-42.5l24.537-42.5-24.537-42.5h-49.075l-24.537 42.5 24.537 42.5h49.075zm73.612-42.5l24.537-42.5-24.537-42.5h-49.075l-24.537 42.5 24.537 42.5h49.075zm73.612-42.5l24.537-42.5-24.537-42.5h-49.075l-24.537 42.5 24.537 42.5h49.075zm73.613 212.5l24.537-42.5-24.537-42.5h-49.075l-24.538 42.5 24.537 42.5h49.076zm-220.837 127.5l24.537-42.5-24.537-42.5h-49.075l-24.537 42.5 24.537 42.5h49.075zm0 85l24.537-42.5-24.537-42.5h-49.075l-24.537 42.5 24.537 42.5h49.075zm-73.612-212.5l24.537-42.5-24.537-42.5h-49.075l-24.537 42.5 24.537 42.5h49.075zm0 85l24.537-42.5-24.537-42.5h-49.075l-24.537 42.5 24.537 42.5h49.075zm0 85l24.537-42.5-24.537-42.5h-49.075l-24.537 42.5 24.537 42.5h49.075zm-73.612 42.5l24.537-42.5-24.537-42.5h-49.075l-24.537 42.5 24.537 42.5h49.075zm147.224-425l24.537-42.5-24.537-42.5h-49.075l-24.537 42.5 24.537 42.5h49.075z" />
			<path d="M1293.69 189l-24.537-42.5 24.537-42.5h49.075l24.537 42.5-24.537 42.5h-49.075zm-24.537-42.5l24.537-42.5-24.537-42.5h-49.075l-24.537 42.5 24.537 42.5h49.075zm0 85l24.537-42.5-24.537-42.5h-49.075l-24.537 42.5 24.537 42.5h49.075zm73.612 42.5l24.537-42.5-24.537-42.5h-49.075l-24.537 42.5 24.537 42.5h49.075zm0-170l24.537-42.5-24.537-42.5h-49.075l-24.537 42.5 24.537 42.5h49.075zm-73.612-42.5l24.537-42.5-24.537-42.5h-49.075l-24.537 42.5 24.537 42.5h49.075zm-73.612 42.5l24.537-42.5-24.537-42.5h-49.075l-24.537 42.5 24.537 42.5h49.075zm0-85l24.537-42.5-24.537-42.5h-49.075l-24.537 42.5 24.537 42.5h49.075zm73.612-42.5l24.537-42.5-24.537-42.5h-49.075l-24.537 42.5 24.537 42.5h49.075zm-73.612-42.5l24.537-42.5-24.537-42.5h-49.075l-24.537 42.5 24.537 42.5h49.075zm73.612-42.5l24.537-42.5-24.537-42.5h-49.075l-24.537 42.5 24.537 42.5h49.075zm73.612-42.5l24.537-42.5-24.537-42.5h-49.075l-24.537 42.5 24.537 42.5h49.075zm73.612 212.5l24.537-42.5-24.537-42.5h-49.075l-24.537 42.5 24.537 42.5h49.075zm-220.836 127.5l24.537-42.5-24.537-42.5h-49.075l-24.537 42.5 24.537 42.5h49.075zm0 85l24.537-42.5-24.537-42.5h-49.075l-24.537 42.5 24.537 42.5h49.075zm-73.612-212.5l24.537-42.5-24.537-42.5h-49.075l-24.537 42.5 24.537 42.5h49.075zm0 85l24.537-42.5-24.537-42.5h-49.075l-24.537 42.5 24.537 42.5h49.075zm0 85l24.537-42.5-24.537-42.5h-49.075l-24.537 42.5 24.537 42.5h49.075zm-73.612 42.5l24.537-42.5-24.537-42.5h-49.075l-24.537 42.5 24.537 42.5h49.075zm147.224-425l24.537-42.5-24.537-42.5h-49.075l-24.537 42.5 24.537 42.5h49.075z" />
			<path d="M1293.69 733l-24.537-42.5 24.537-42.5h49.075l24.537 42.5-24.537 42.5h-49.075zm-24.537-42.5l24.537-42.5-24.537-42.5h-49.075l-24.537 42.5 24.537 42.5h49.075zm0 85l24.537-42.5-24.537-42.5h-49.075l-24.537 42.5 24.537 42.5h49.075zm73.612 42.5l24.537-42.5-24.537-42.5h-49.075l-24.537 42.5 24.537 42.5h49.075zm0-170l24.537-42.5-24.537-42.5h-49.075l-24.537 42.5 24.537 42.5h49.075zm-73.612-42.5l24.537-42.5-24.537-42.5h-49.075l-24.537 42.5 24.537 42.5h49.075zm-73.612 42.5l24.537-42.5-24.537-42.5h-49.075l-24.537 42.5 24.537 42.5h49.075zm0-85l24.537-42.5-24.537-42.5h-49.075l-24.537 42.5 24.537 42.5h49.075zm73.612-42.5l24.537-42.5-24.537-42.5h-49.075l-24.537 42.5 24.537 42.5h49.075zm-73.612-42.5l24.537-42.5-24.537-42.5h-49.075l-24.537 42.5 24.537 42.5h49.075zm73.612-42.5l24.537-42.5-24.537-42.5h-49.075l-24.537 42.5 24.537 42.5h49.075zm73.612-42.5l24.537-42.5-24.537-42.5h-49.075l-24.537 42.5 24.537 42.5h49.075zm73.612 212.5l24.537-42.5-24.537-42.5h-49.075l-24.537 42.5 24.537 42.5h49.075zm-220.836 127.5l24.537-42.5-24.537-42.5h-49.075l-24.537 42.5 24.537 42.5h49.075zm0 85l24.537-42.5-24.537-42.5h-49.075l-24.537 42.5 24.537 42.5h49.075zm-73.612-212.5l24.537-42.5-24.537-42.5h-49.075l-24.537 42.5 24.537 42.5h49.075zm0 85l24.537-42.5-24.537-42.5h-49.075l-24.537 42.5 24.537 42.5h49.075zm0 85l24.537-42.5-24.537-42.5h-49.075l-24.537 42.5 24.537 42.5h49.075zm-73.612 42.5l24.537-42.5-24.537-42.5h-49.075l-24.537 42.5 24.537 42.5h49.075zm147.224-425l24.537-42.5-24.537-42.5h-49.075l-24.537 42.5 24.537 42.5h49.075z" />
		</g>
		<path fill="#A046F0" d="M338.63 232.331h12.151v99.194h-12.151v-99.194zm77.372 28.395v70.8h-12.151v-58.648h-10.043v58.648h-12.275v-58.648h-10.044v58.648h-12.151v-62.244c0-4.712 3.844-8.556 8.556-8.556h48.108zm65.222 0v70.8h-12.15v-58.648h-10.044v58.648h-12.275v-58.648h-10.043v58.648h-12.152v-62.244c0-4.712 3.844-8.556 8.556-8.556h48.108zm35.34 70.799h-18.228c-4.712 0-8.556-3.844-8.556-8.556v-53.688c0-4.712 3.844-8.556 8.556-8.556h18.228c4.835 0 8.679 3.844 8.679 8.556v53.688c0 4.713-3.844 8.556-8.679 8.556zm-3.472-58.648h-11.159v46.497h11.159v-46.497zm56.171-12.151v12.151l-23.311 4.588v54.061h-12.151v-55.177c0-4.712 4.092-9.424 8.556-10.291l26.906-5.332zm40.423 58.648v12.151h-26.906c-4.712 0-8.556-3.844-8.556-8.556v-83.571h12.151v21.327h23.311v12.151h-23.311v46.497h23.311zm41.539 12.151h-26.906c-4.712 0-8.556-3.844-8.556-8.556v-31.494c0-4.712 3.844-8.556 8.556-8.556h14.755v-5.455l-23.311-4.588v-12.151l26.782 5.332c4.588.867 8.68 5.579 8.68 10.291v55.177zm-12.276-36.454h-11.035v24.303h11.035v-24.303zm42.406 24.303v12.151h-21.203v-99.194h12.151v87.043h9.052zm71.545-78.487v82.083c0 4.712-3.844 8.556-8.68 8.556h-25.295c-4.712 0-8.556-3.844-8.556-8.556v-82.083c0-4.712 3.844-8.556 8.556-8.556h25.295c4.837 0 8.68 3.844 8.68 8.556zm-12.151 3.595h-18.228v74.892h18.228v-74.892zm56.17 16.244v62.244c0 4.712-3.844 8.556-8.68 8.556h-26.782v-99.194h12.151v28.395h23.311zm-12.151 12.151h-11.159v46.497h11.159v-46.497zm41.786-12.151v76.38c0 4.711-3.968 9.423-8.555 10.291l-12.647 2.603v-12.275l9.051-1.735v-63.112h-7.067v-12.151h19.218zm0-6.573h-12.151v-14.135h12.151v14.135zm44.018 46.498c0 4.712-3.844 8.68-8.68 8.68h-14.631v10.043h23.311v12.151h-26.906c-4.712 0-8.556-3.844-8.556-8.556v-53.688c0-4.712 3.844-8.556 8.556-8.556h26.906v39.926zm-12.151-3.595v-24.179h-11.159v24.179h11.159zm44.515-15.127v-9.052h-11.159v46.497h11.159v-9.052h12.151v12.647c0 4.712-3.844 8.556-8.679 8.556h-18.228c-4.712 0-8.556-3.844-8.556-8.556v-53.688c0-4.712 3.844-8.556 8.556-8.556h26.906v21.203h-12.15zm54.434 37.445v12.151h-26.906c-4.712 0-8.556-3.844-8.556-8.556v-83.571h12.151v21.327h23.311v12.151h-23.31v46.497h23.31z" />
		<polygon stroke="#2D0A64" stroke-width="6" stroke-miterlimit="10" points="159.349,546 2.31,274 159.349,2 1136.651,2 1293.69,274 1136.651,546" fill="none" />
	</g>
</svg>