<?xml version="1.0" encoding="utf-8"?>
<svg xmlns="http://www.w3.org/2000/svg" xmlns:xlink="http://www.w3.org/1999/xlink" width="1296" height="548">
	<g>
		<polygon opacity=".6" fill="#E60012" enable-background="new" points="159.349,546 2.31,274 159.349,2 1136.651,2 1293.69,274 1136.651,546" />
		<defs>
			<polygon id="a" points="159.349,546 2.31,274 159.349,2 1136.651,2 1293.69,274 1136.651,546" />
		</defs>
		<clipPath id="b">
			<use xlink:href="#a" overflow="visible" />
		</clipPath>
		<g opacity=".4" clip-path="url(#b)" stroke="#C41226" stroke-width="4" stroke-miterlimit="10" fill="none">
			<path d="M159.349 461l-24.537-42.5 24.537-42.5h49.075l24.537 42.5-24.538 42.5h-49.074zm-24.538-42.5l24.537-42.5-24.537-42.5h-49.075l-24.537 42.5 24.537 42.5h49.075zm0 85l24.537-42.5-24.537-42.5h-49.075l-24.537 42.5 24.537 42.5h49.075zm73.612 42.5l24.537-42.5-24.537-42.5h-49.075l-24.537 42.5 24.537 42.5h49.075zm0-170l24.537-42.5-24.537-42.5h-49.075l-24.537 42.5 24.537 42.5h49.075zm-73.612-42.5l24.537-42.5-24.537-42.5h-49.075l-24.537 42.5 24.537 42.5h49.075zm-73.612 42.5l24.537-42.5-24.537-42.5h-49.075l-24.537 42.5 24.537 42.5h49.075zm0-85l24.537-42.5-24.537-42.5h-49.075l-24.537 42.5 24.537 42.5h49.075zm73.612-42.5l24.537-42.5-24.537-42.5h-49.075l-24.537 42.5 24.537 42.5h49.075zm-73.612-42.5l24.537-42.5-24.537-42.5h-49.075l-24.537 42.5 24.537 42.5h49.075zm73.612-42.5l24.537-42.5-24.537-42.5h-49.075l-24.537 42.5 24.537 42.5h49.075zm73.612-42.5l24.537-42.5-24.537-42.5h-49.075l-24.537 42.5 24.537 42.5h49.075zm73.613 212.5l24.537-42.5-24.537-42.5h-49.075l-24.538 42.5 24.537 42.5h49.076zm-220.837 127.5l24.537-42.5-24.537-42.5h-49.075l-24.537 42.5 24.537 42.5h49.075zm0 85l24.537-42.5-24.537-42.5h-49.075l-24.537 42.5 24.537 42.5h49.075zm-73.612-212.5l24.537-42.5-24.537-42.5h-49.075l-24.537 42.5 24.537 42.5h49.075zm0 85l24.537-42.5-24.537-42.5h-49.075l-24.537 42.5 24.537 42.5h49.075zm0 85l24.537-42.5-24.537-42.5h-49.075l-24.537 42.5 24.537 42.5h49.075zm-73.612 42.5l24.537-42.5-24.537-42.5h-49.075l-24.537 42.5 24.537 42.5h49.075zm147.224-425l24.537-42.5-24.537-42.5h-49.075l-24.537 42.5 24.537 42.5h49.075zM1293.69 189l-24.537-42.5 24.537-42.5h49.075l24.537 42.5-24.537 42.5h-49.075zm-24.537-42.5l24.537-42.5-24.537-42.5h-49.075l-24.537 42.5 24.537 42.5h49.075zm0 85l24.537-42.5-24.537-42.5h-49.075l-24.537 42.5 24.537 42.5h49.075zm73.612 42.5l24.537-42.5-24.537-42.5h-49.075l-24.537 42.5 24.537 42.5h49.075zm0-170l24.537-42.5-24.537-42.5h-49.075l-24.537 42.5 24.537 42.5h49.075zm-73.612-42.5l24.537-42.5-24.537-42.5h-49.075l-24.537 42.5 24.537 42.5h49.075zm-73.612 42.5l24.537-42.5-24.537-42.5h-49.075l-24.537 42.5 24.537 42.5h49.075zm0-85l24.537-42.5-24.537-42.5h-49.075l-24.537 42.5 24.537 42.5h49.075zm73.612-42.5l24.537-42.5-24.537-42.5h-49.075l-24.537 42.5 24.537 42.5h49.075zm-73.612-42.5l24.537-42.5-24.537-42.5h-49.075l-24.537 42.5 24.537 42.5h49.075zm73.612-42.5l24.537-42.5-24.537-42.5h-49.075l-24.537 42.5 24.537 42.5h49.075zm73.612-42.5l24.537-42.5-24.537-42.5h-49.075l-24.537 42.5 24.537 42.5h49.075zm73.612 212.5l24.537-42.5-24.537-42.5h-49.075l-24.537 42.5 24.537 42.5h49.075zm-220.836 127.5l24.537-42.5-24.537-42.5h-49.075l-24.537 42.5 24.537 42.5h49.075zm0 85l24.537-42.5-24.537-42.5h-49.075l-24.537 42.5 24.537 42.5h49.075zm-73.612-212.5l24.537-42.5-24.537-42.5h-49.075l-24.537 42.5 24.537 42.5h49.075zm0 85l24.537-42.5-24.537-42.5h-49.075l-24.537 42.5 24.537 42.5h49.075zm0 85l24.537-42.5-24.537-42.5h-49.075l-24.537 42.5 24.537 42.5h49.075zm-73.612 42.5l24.537-42.5-24.537-42.5h-49.075l-24.537 42.5 24.537 42.5h49.075zm147.224-425l24.537-42.5-24.537-42.5h-49.075l-24.537 42.5 24.537 42.5h49.075zM1293.69 733l-24.537-42.5 24.537-42.5h49.075l24.537 42.5-24.537 42.5h-49.075zm-24.537-42.5l24.537-42.5-24.537-42.5h-49.075l-24.537 42.5 24.537 42.5h49.075zm0 85l24.537-42.5-24.537-42.5h-49.075l-24.537 42.5 24.537 42.5h49.075zm73.612 42.5l24.537-42.5-24.537-42.5h-49.075l-24.537 42.5 24.537 42.5h49.075zm0-170l24.537-42.5-24.537-42.5h-49.075l-24.537 42.5 24.537 42.5h49.075zm-73.612-42.5l24.537-42.5-24.537-42.5h-49.075l-24.537 42.5 24.537 42.5h49.075zm-73.612 42.5l24.537-42.5-24.537-42.5h-49.075l-24.537 42.5 24.537 42.5h49.075zm0-85l24.537-42.5-24.537-42.5h-49.075l-24.537 42.5 24.537 42.5h49.075zm73.612-42.5l24.537-42.5-24.537-42.5h-49.075l-24.537 42.5 24.537 42.5h49.075zm-73.612-42.5l24.537-42.5-24.537-42.5h-49.075l-24.537 42.5 24.537 42.5h49.075zm73.612-42.5l24.537-42.5-24.537-42.5h-49.075l-24.537 42.5 24.537 42.5h49.075zm73.612-42.5l24.537-42.5-24.537-42.5h-49.075l-24.537 42.5 24.537 42.5h49.075zm73.612 212.5l24.537-42.5-24.537-42.5h-49.075l-24.537 42.5 24.537 42.5h49.075zm-220.836 127.5l24.537-42.5-24.537-42.5h-49.075l-24.537 42.5 24.537 42.5h49.075zm0 85l24.537-42.5-24.537-42.5h-49.075l-24.537 42.5 24.537 42.5h49.075zm-73.612-212.5l24.537-42.5-24.537-42.5h-49.075l-24.537 42.5 24.537 42.5h49.075zm0 85l24.537-42.5-24.537-42.5h-49.075l-24.537 42.5 24.537 42.5h49.075zm0 85l24.537-42.5-24.537-42.5h-49.075l-24.537 42.5 24.537 42.5h49.075zm-73.612 42.5l24.537-42.5-24.537-42.5h-49.075l-24.537 42.5 24.537 42.5h49.075zm147.224-425l24.537-42.5-24.537-42.5h-49.075l-24.537 42.5 24.537 42.5h49.075z" />
		</g>
		<path opacity=".75" fill="#900612" enable-background="new" d="M507.334 160.133v208.093c0 10.816-4.928 19.642-10.968 19.642h-50.705c-6.04 0-10.968-8.825-10.968-19.642v-208.093h15.577v199.837h13.034v-199.837h15.577v199.837h12.875v-199.837h15.578zm65.485 227.734h-15.577l-3.338-83.692h-16.69l-3.338 83.692h-15.577l8.266-208.093c.477-10.816 5.723-19.642 11.763-19.642h25.432l9.059 227.735zm-20.028-111.59l-3.496-88.247h-7.471l-3.497 88.247h14.464zm85.991-7.97c0 10.817-4.928 19.642-10.968 19.642h-2.226l13.193 99.919h-15.577l-13.193-99.919h-10.173v99.919h-15.577v-208.094c0-10.816 4.928-19.642 10.968-19.642h43.553v108.175zm-15.577-80.277h-23.366v72.021h23.366v-72.021zm26.067 199.837v-227.734h15.629l23.262 136.314v-136.314h15.629v227.734h-15.629l-23.262-136.315v136.315h-15.629zm65.486-227.734h15.577v227.734h-15.577v-227.734zm26.542 227.734v-227.734h15.629l23.263 136.314v-136.314h15.629v227.734h-15.629l-23.262-136.315v136.315h-15.63zm104.429-179.055v-20.782h-23.366v171.94h23.366v-72.021h-11.763v-27.896h27.34v108.174c0 10.816-4.928 19.642-11.127 19.642h-32.426c-6.04 0-10.968-8.825-10.968-19.642v-188.453c0-10.816 4.928-19.642 10.968-19.642h43.553v48.679l-15.577.001z" />
		<polygon stroke="#921A18" stroke-width="6" stroke-miterlimit="10" points="159.349,546 2.31,274 159.349,2 1136.651,2 1293.69,274 1136.651,546" fill="none" />
	</g>
	<g>
		<polygon opacity=".6" fill="#E60012" enable-background="new" points="1293.69,818 1136.651,546 1293.69,274 2270.992,274 2428.031,546 2270.992,818" />
		<defs>
			<polygon id="c" points="1293.69,818 1136.651,546 1293.69,274 2270.992,274 2428.031,546 2270.992,818" />
		</defs>
		<clipPath id="d">
			<use xlink:href="#c" overflow="visible" />
		</clipPath>
		<g opacity=".4" clip-path="url(#d)" stroke="#C41226" stroke-width="4" stroke-miterlimit="10" fill="none">
			<path d="M1293.69 733l-24.537-42.5 24.537-42.5h49.075l24.537 42.5-24.538 42.5h-49.074zm-24.538-42.5l24.537-42.5-24.537-42.5h-49.075l-24.537 42.5 24.537 42.5h49.075zm0 85l24.537-42.5-24.537-42.5h-49.075l-24.537 42.5 24.537 42.5h49.075zm73.612 42.5l24.537-42.5-24.537-42.5h-49.075l-24.537 42.5 24.537 42.5h49.075zm0-170l24.537-42.5-24.537-42.5h-49.075l-24.537 42.5 24.537 42.5h49.075zm-73.612-42.5l24.537-42.5-24.537-42.5h-49.075l-24.537 42.5 24.537 42.5h49.075zm-73.612 42.5l24.537-42.5-24.537-42.5h-49.075l-24.537 42.5 24.537 42.5h49.075zm0-85l24.537-42.5-24.537-42.5h-49.075l-24.537 42.5 24.537 42.5h49.075zm73.612-42.5l24.537-42.5-24.537-42.5h-49.075l-24.537 42.5 24.537 42.5h49.075zm-73.612-42.5l24.537-42.5-24.537-42.5h-49.075l-24.537 42.5 24.537 42.5h49.075zm73.612-42.5l24.537-42.5-24.537-42.5h-49.075l-24.537 42.5 24.537 42.5h49.075zm73.612-42.5l24.537-42.5-24.537-42.5h-49.075l-24.537 42.5 24.537 42.5h49.075zm73.613 212.5l24.537-42.5-24.537-42.5h-49.075l-24.538 42.5 24.537 42.5h49.076zm-220.837 127.5l24.537-42.5-24.537-42.5h-49.075l-24.537 42.5 24.537 42.5h49.075zm0 85l24.537-42.5-24.537-42.5h-49.075l-24.537 42.5 24.537 42.5h49.075zm-73.612-212.5l24.537-42.5-24.537-42.5h-49.075l-24.537 42.5 24.537 42.5h49.075zm0 85l24.537-42.5-24.537-42.5h-49.075l-24.537 42.5 24.537 42.5h49.075zm0 85l24.537-42.5-24.537-42.5h-49.075l-24.537 42.5 24.537 42.5h49.075zm-73.612 42.5l24.537-42.5-24.537-42.5h-49.075l-24.537 42.5 24.537 42.5h49.075zm147.224-425l24.537-42.5-24.537-42.5h-49.075l-24.537 42.5 24.537 42.5h49.075zM2428.031 461l-24.537-42.5 24.537-42.5h49.075l24.537 42.5-24.537 42.5h-49.075zm-24.537-42.5l24.537-42.5-24.537-42.5h-49.075l-24.537 42.5 24.537 42.5h49.075zm0 85l24.537-42.5-24.537-42.5h-49.075l-24.537 42.5 24.537 42.5h49.075zm73.612 42.5l24.537-42.5-24.537-42.5h-49.075l-24.537 42.5 24.537 42.5h49.075zm0-170l24.537-42.5-24.537-42.5h-49.075l-24.537 42.5 24.537 42.5h49.075zm-73.612-42.5l24.537-42.5-24.537-42.5h-49.075l-24.537 42.5 24.537 42.5h49.075zm-73.612 42.5l24.537-42.5-24.537-42.5h-49.075l-24.537 42.5 24.537 42.5h49.075zm0-85l24.537-42.5-24.537-42.5h-49.075l-24.537 42.5 24.537 42.5h49.075zm73.612-42.5l24.537-42.5-24.537-42.5h-49.075l-24.537 42.5 24.537 42.5h49.075zm-73.612-42.5l24.537-42.5-24.537-42.5h-49.075l-24.537 42.5 24.537 42.5h49.075zm73.612-42.5l24.537-42.5-24.537-42.5h-49.075l-24.537 42.5 24.537 42.5h49.075zm73.612-42.5l24.537-42.5-24.537-42.5h-49.075l-24.537 42.5 24.537 42.5h49.075zm73.612 212.5l24.537-42.5-24.537-42.5h-49.075l-24.537 42.5 24.537 42.5h49.075zm-220.836 127.5l24.537-42.5-24.537-42.5h-49.075l-24.537 42.5 24.537 42.5h49.075zm0 85l24.537-42.5-24.537-42.5h-49.075l-24.537 42.5 24.537 42.5h49.075zm-73.612-212.5l24.537-42.5-24.537-42.5h-49.075l-24.537 42.5 24.537 42.5h49.075zm0 85l24.537-42.5-24.537-42.5h-49.075l-24.537 42.5 24.537 42.5h49.075zm0 85l24.537-42.5-24.537-42.5h-49.075l-24.537 42.5 24.537 42.5h49.075zm-73.612 42.5l24.537-42.5-24.537-42.5h-49.075l-24.537 42.5 24.537 42.5h49.075zm147.224-425l24.537-42.5-24.537-42.5h-49.075l-24.537 42.5 24.537 42.5h49.075zM2428.031 1005l-24.537-42.5 24.537-42.5h49.075l24.537 42.5-24.537 42.5h-49.075zm-24.537-42.5l24.537-42.5-24.537-42.5h-49.075l-24.537 42.5 24.537 42.5h49.075zm0 85l24.537-42.5-24.537-42.5h-49.075l-24.537 42.5 24.537 42.5h49.075zm73.612 42.5l24.537-42.5-24.537-42.5h-49.075l-24.537 42.5 24.537 42.5h49.075zm0-170l24.537-42.5-24.537-42.5h-49.075l-24.537 42.5 24.537 42.5h49.075zm-73.612-42.5l24.537-42.5-24.537-42.5h-49.075l-24.537 42.5 24.537 42.5h49.075zm-73.612 42.5l24.537-42.5-24.537-42.5h-49.075l-24.537 42.5 24.537 42.5h49.075zm0-85l24.537-42.5-24.537-42.5h-49.075l-24.537 42.5 24.537 42.5h49.075zm73.612-42.5l24.537-42.5-24.537-42.5h-49.075l-24.537 42.5 24.537 42.5h49.075zm-73.612-42.5l24.537-42.5-24.537-42.5h-49.075l-24.537 42.5 24.537 42.5h49.075zm73.612-42.5l24.537-42.5-24.537-42.5h-49.075l-24.537 42.5 24.537 42.5h49.075zm73.612-42.5l24.537-42.5-24.537-42.5h-49.075l-24.537 42.5 24.537 42.5h49.075zm73.612 212.5l24.537-42.5-24.537-42.5h-49.075l-24.537 42.5 24.537 42.5h49.075zm-220.836 127.5l24.537-42.5-24.537-42.5h-49.075l-24.537 42.5 24.537 42.5h49.075zm0 85l24.537-42.5-24.537-42.5h-49.075l-24.537 42.5 24.537 42.5h49.075zm-73.612-212.5l24.537-42.5-24.537-42.5h-49.075l-24.537 42.5 24.537 42.5h49.075zm0 85l24.537-42.5-24.537-42.5h-49.075l-24.537 42.5 24.537 42.5h49.075zm0 85l24.537-42.5-24.537-42.5h-49.075l-24.537 42.5 24.537 42.5h49.075zm-73.612 42.5l24.537-42.5-24.537-42.5h-49.075l-24.537 42.5 24.537 42.5h49.075zm147.224-425l24.537-42.5-24.537-42.5h-49.075l-24.537 42.5 24.537 42.5h49.075z" />
		</g>
		<path opacity=".75" fill="#900612" enable-background="new" d="M1379.604 525.315v-9.143h-18.409v31.684h21.915c4.884 0 8.766 3.882 8.766 8.641v38.946c0 4.759-3.882 8.641-8.766 8.641h-25.547c-4.758 0-8.641-3.882-8.641-8.641v-12.773h12.272v9.142h18.409v-31.683h-22.041c-4.758 0-8.641-3.883-8.641-8.641v-38.946c0-4.759 3.882-8.642 8.641-8.642h34.313v21.415h-12.271zm55.351 84.279c0 4.884-4.007 9.518-8.766 10.52l-27.049 5.385v-12.272l23.543-4.759v-4.383h-14.902c-4.758 0-8.641-3.882-8.641-8.641v-62.865h12.272v59.233h11.271v-59.233h12.272v77.015zm32.184-55.602v-9.142h-11.271v17.281h14.777c4.884 0 8.766 3.883 8.766 8.767v24.545c0 4.759-3.882 8.641-8.766 8.641h-18.409c-4.758 0-8.641-3.882-8.641-8.641v-12.773h12.272v9.142h11.271v-17.407h-14.902c-4.758 0-8.641-3.882-8.641-8.641v-24.545c0-4.759 3.882-8.641 8.641-8.641h27.175v21.414h-12.272zm56.479 37.82v12.272h-27.175c-4.758 0-8.641-3.882-8.641-8.641v-84.404h12.272v21.539h23.543v12.272h-23.543v46.961l23.544.001zm41.952-18.91c0 4.759-3.882 8.766-8.766 8.766h-14.777v10.144h23.543v12.272h-27.175c-4.758 0-8.641-3.882-8.641-8.641v-54.225c0-4.759 3.882-8.641 8.641-8.641h27.175v40.325zm-12.273-3.631v-24.42h-11.271v24.42h11.271zm78.644-36.693v71.506h-12.272v-59.233h-10.144v59.233h-12.397v-59.233h-10.144v59.233h-12.272v-62.865c0-4.759 3.882-8.641 8.641-8.641h48.588zm73.759 71.506h-12.272l-2.63-36.817h-13.149l-2.63 36.817h-12.272l6.512-91.542c.376-4.759 4.508-8.642 9.267-8.642h20.037l7.137 100.184zm-15.779-49.09l-2.755-38.821h-5.886l-2.755 38.821h11.396zm60.611-22.416v71.506h-12.272v-59.233h-11.271v59.233h-12.272v-62.865c0-4.759 3.882-8.641 8.641-8.641h27.174zm44.456 0v71.506h-12.272v-59.233h-11.271v59.233h-12.272v-62.865c0-4.759 3.882-8.641 8.641-8.641h27.174zm35.691 71.506h-18.409c-4.758 0-8.641-3.882-8.641-8.641v-54.225c0-4.759 3.882-8.641 8.641-8.641h18.409c4.884 0 8.766 3.882 8.766 8.641v54.225c0 4.759-3.882 8.641-8.766 8.641zm-3.506-59.233h-11.271v46.961h11.271v-46.961zm56.729-12.273v71.506h-27.175c-4.758 0-8.641-3.882-8.641-8.641v-62.865h12.272v59.233h11.271v-59.233h12.273zm44.456 0v71.506h-12.272v-59.233h-11.271v59.233h-12.272v-62.865c0-4.759 3.882-8.641 8.641-8.641h27.174zm32.184 21.414v-9.142h-11.271v46.961h11.271v-9.142h12.272v12.773c0 4.759-3.882 8.641-8.766 8.641h-18.409c-4.758 0-8.641-3.882-8.641-8.641v-54.225c0-4.759 3.882-8.641 8.641-8.641h27.175v21.414h-12.272v.002zm54.975 18.91c0 4.759-3.882 8.766-8.766 8.766h-14.777v10.144h23.543v12.272h-27.175c-4.758 0-8.641-3.882-8.641-8.641v-54.225c0-4.759 3.882-8.641 8.641-8.641h27.175v40.325zm-12.272-3.631v-24.42h-11.271v24.42h11.271zm78.644-36.693v71.506h-12.272v-59.233h-10.144v59.233h-12.397v-59.233h-10.144v59.233h-12.272v-62.865c0-4.759 3.882-8.641 8.641-8.641h48.588zm44.456 40.324c0 4.759-3.882 8.766-8.766 8.766h-14.777v10.144h23.543v12.272h-27.175c-4.759 0-8.641-3.882-8.641-8.641v-54.225c0-4.759 3.882-8.641 8.641-8.641h27.175v40.325zm-12.273-3.631v-24.42h-11.271v24.42h11.271zm57.23-36.693v71.506h-12.271v-59.233h-11.271v59.233h-12.271v-62.865c0-4.759 3.882-8.641 8.641-8.641h27.172zm44.457 59.234v12.272h-27.175c-4.759 0-8.641-3.882-8.641-8.641v-84.404h12.272v21.539h23.543v12.272h-23.543v46.961l23.544.001z" />
		<polygon stroke="#921A18" stroke-width="6" stroke-miterlimit="10" points="1293.69,818 1136.651,546 1293.69,274 2270.992,274 2428.031,546 2270.992,818" fill="none" />
	</g>
	<g>
		<polygon opacity=".6" fill="#E60012" enable-background="new" points="1293.69,274 1136.651,2 1293.69,-270 2270.992,-270 2428.031,2 2270.992,274" />
		<defs>
			<polygon id="e" points="1293.69,274 1136.651,2 1293.69,-270 2270.992,-270 2428.031,2 2270.992,274" />
		</defs>
		<clipPath id="f">
			<use xlink:href="#e" overflow="visible" />
		</clipPath>
		<g opacity=".4" clip-path="url(#f)" stroke="#C41226" stroke-width="4" stroke-miterlimit="10" fill="none">
			<path d="M1293.69 189l-24.537-42.5 24.537-42.5h49.075l24.537 42.5-24.538 42.5h-49.074zm-24.538-42.5l24.537-42.5-24.537-42.5h-49.075l-24.537 42.5 24.537 42.5h49.075zm0 85l24.537-42.5-24.537-42.5h-49.075l-24.537 42.5 24.537 42.5h49.075zm73.612 42.5l24.537-42.5-24.537-42.5h-49.075l-24.537 42.5 24.537 42.5h49.075zm0-170l24.537-42.5-24.537-42.5h-49.075l-24.537 42.5 24.537 42.5h49.075zm-73.612-42.5l24.537-42.5-24.537-42.5h-49.075l-24.537 42.5 24.537 42.5h49.075zm-73.612 42.5l24.537-42.5-24.537-42.5h-49.075l-24.537 42.5 24.537 42.5h49.075zm0-85l24.537-42.5-24.537-42.5h-49.075l-24.537 42.5 24.537 42.5h49.075zm73.612-42.5l24.537-42.5-24.537-42.5h-49.075l-24.537 42.5 24.537 42.5h49.075zm-73.612-42.5l24.537-42.5-24.537-42.5h-49.075l-24.537 42.5 24.537 42.5h49.075zm73.612-42.5l24.537-42.5-24.537-42.5h-49.075l-24.537 42.5 24.537 42.5h49.075zm73.612-42.5l24.537-42.5-24.537-42.5h-49.075l-24.537 42.5 24.537 42.5h49.075zm73.613 212.5l24.537-42.5-24.537-42.5h-49.075l-24.538 42.5 24.537 42.5h49.076zm-220.837 127.5l24.537-42.5-24.537-42.5h-49.075l-24.537 42.5 24.537 42.5h49.075zm0 85l24.537-42.5-24.537-42.5h-49.075l-24.537 42.5 24.537 42.5h49.075zm-73.612-212.5l24.537-42.5-24.537-42.5h-49.075l-24.537 42.5 24.537 42.5h49.075zm0 85l24.537-42.5-24.537-42.5h-49.075l-24.537 42.5 24.537 42.5h49.075zm0 85l24.537-42.5-24.537-42.5h-49.075l-24.537 42.5 24.537 42.5h49.075zm-73.612 42.5l24.537-42.5-24.537-42.5h-49.075l-24.537 42.5 24.537 42.5h49.075zm147.224-425l24.537-42.5-24.537-42.5h-49.075l-24.537 42.5 24.537 42.5h49.075zM2428.031-83l-24.537-42.5 24.537-42.5h49.075l24.537 42.5-24.537 42.5h-49.075zm-24.537-42.5l24.537-42.5-24.537-42.5h-49.075l-24.537 42.5 24.537 42.5h49.075zm0 85l24.537-42.5-24.537-42.5h-49.075l-24.537 42.5 24.537 42.5h49.075zm73.612 42.5l24.537-42.5-24.537-42.5h-49.075l-24.537 42.5 24.537 42.5h49.075zm0-170l24.537-42.5-24.537-42.5h-49.075l-24.537 42.5 24.537 42.5h49.075zm-73.612-42.5l24.537-42.5-24.537-42.5h-49.075l-24.537 42.5 24.537 42.5h49.075zm-73.612 42.5l24.537-42.5-24.537-42.5h-49.075l-24.537 42.5 24.537 42.5h49.075zm0-85l24.537-42.5-24.537-42.5h-49.075l-24.537 42.5 24.537 42.5h49.075zm73.612-42.5l24.537-42.5-24.537-42.5h-49.075l-24.537 42.5 24.537 42.5h49.075zm-73.612-42.5l24.537-42.5-24.537-42.5h-49.075l-24.537 42.5 24.537 42.5h49.075zm73.612-42.5l24.537-42.5-24.537-42.5h-49.075l-24.537 42.5 24.537 42.5h49.075zm73.612-42.5l24.537-42.5-24.537-42.5h-49.075l-24.537 42.5 24.537 42.5h49.075zm73.612 212.5l24.537-42.5-24.537-42.5h-49.075l-24.537 42.5 24.537 42.5h49.075zm-220.836 127.5l24.537-42.5-24.537-42.5h-49.075l-24.537 42.5 24.537 42.5h49.075zm0 85l24.537-42.5-24.537-42.5h-49.075l-24.537 42.5 24.537 42.5h49.075zm-73.612-212.5l24.537-42.5-24.537-42.5h-49.075l-24.537 42.5 24.537 42.5h49.075zm0 85l24.537-42.5-24.537-42.5h-49.075l-24.537 42.5 24.537 42.5h49.075zm0 85l24.537-42.5-24.537-42.5h-49.075l-24.537 42.5 24.537 42.5h49.075zm-73.612 42.5l24.537-42.5-24.537-42.5h-49.075l-24.537 42.5 24.537 42.5h49.075zm147.224-425l24.537-42.5-24.537-42.5h-49.075l-24.537 42.5 24.537 42.5h49.075zM2428.031 461l-24.537-42.5 24.537-42.5h49.075l24.537 42.5-24.537 42.5h-49.075zm-24.537-42.5l24.537-42.5-24.537-42.5h-49.075l-24.537 42.5 24.537 42.5h49.075zm0 85l24.537-42.5-24.537-42.5h-49.075l-24.537 42.5 24.537 42.5h49.075zm73.612 42.5l24.537-42.5-24.537-42.5h-49.075l-24.537 42.5 24.537 42.5h49.075zm0-170l24.537-42.5-24.537-42.5h-49.075l-24.537 42.5 24.537 42.5h49.075zm-73.612-42.5l24.537-42.5-24.537-42.5h-49.075l-24.537 42.5 24.537 42.5h49.075zm-73.612 42.5l24.537-42.5-24.537-42.5h-49.075l-24.537 42.5 24.537 42.5h49.075zm0-85l24.537-42.5-24.537-42.5h-49.075l-24.537 42.5 24.537 42.5h49.075zm73.612-42.5l24.537-42.5-24.537-42.5h-49.075l-24.537 42.5 24.537 42.5h49.075zm-73.612-42.5l24.537-42.5-24.537-42.5h-49.075l-24.537 42.5 24.537 42.5h49.075zm73.612-42.5l24.537-42.5-24.537-42.5h-49.075l-24.537 42.5 24.537 42.5h49.075zm73.612-42.5l24.537-42.5-24.537-42.5h-49.075l-24.537 42.5 24.537 42.5h49.075zm73.612 212.5l24.537-42.5-24.537-42.5h-49.075l-24.537 42.5 24.537 42.5h49.075zm-220.836 127.5l24.537-42.5-24.537-42.5h-49.075l-24.537 42.5 24.537 42.5h49.075zm0 85l24.537-42.5-24.537-42.5h-49.075l-24.537 42.5 24.537 42.5h49.075zm-73.612-212.5l24.537-42.5-24.537-42.5h-49.075l-24.537 42.5 24.537 42.5h49.075zm0 85l24.537-42.5-24.537-42.5h-49.075l-24.537 42.5 24.537 42.5h49.075zm0 85l24.537-42.5-24.537-42.5h-49.075l-24.537 42.5 24.537 42.5h49.075zm-73.612 42.5l24.537-42.5-24.537-42.5h-49.075l-24.537 42.5 24.537 42.5h49.075zm147.224-425l24.537-42.5-24.537-42.5h-49.075l-24.537 42.5 24.537 42.5h49.075z" />
		</g>
		<path opacity=".75" fill="#900612" enable-background="new" d="M1641.675-111.867v208.093c0 10.816-4.928 19.642-10.968 19.642h-50.705c-6.04 0-10.968-8.825-10.968-19.642v-208.093h15.577v199.837h13.034v-199.837h15.577v199.837h12.875v-199.837h15.578zm65.485 227.734h-15.577l-3.338-83.692h-16.69l-3.338 83.692h-15.577l8.266-208.093c.477-10.816 5.723-19.642 11.763-19.642h25.432l9.059 227.735zm-20.028-111.59l-3.496-88.247h-7.471l-3.497 88.247h14.464zm85.991-7.97c0 10.817-4.928 19.642-10.968 19.642h-2.226l13.193 99.919h-15.577l-13.193-99.919h-10.173v99.919h-15.577v-208.094c0-10.816 4.928-19.642 10.968-19.642h43.553v108.175zm-15.577-80.277h-23.366v72.021h23.366v-72.021zm26.067 199.837v-227.734h15.629l23.262 136.314v-136.314h15.629v227.734h-15.629l-23.262-136.315v136.315h-15.629zm65.486-227.734h15.577v227.734h-15.577v-227.734zm26.542 227.734v-227.734h15.629l23.263 136.314v-136.314h15.629v227.734h-15.629l-23.262-136.315v136.315h-15.63zm104.429-179.055v-20.782h-23.366v171.94h23.366v-72.021h-11.763v-27.896h27.34v108.174c0 10.816-4.928 19.642-11.127 19.642h-32.426c-6.04 0-10.968-8.825-10.968-19.642v-188.453c0-10.816 4.928-19.642 10.968-19.642h43.553v48.679l-15.577.001z" />
		<polygon stroke="#921A18" stroke-width="6" stroke-miterlimit="10" points="1293.69,274 1136.651,2 1293.69,-270 2270.992,-270 2428.031,2 2270.992,274" fill="none" />
	</g>
	<g>
		<polygon opacity=".6" fill="#E60012" enable-background="new" points="-974.992,818 -1132.031,546 -974.992,274 2.31,274 159.349,546 2.31,818" />
		<defs>
			<polygon id="g" points="-974.992,818 -1132.031,546 -974.992,274 2.31,274 159.349,546 2.31,818" />
		</defs>
		<clipPath id="h">
			<use xlink:href="#g" overflow="visible" />
		</clipPath>
		<g opacity=".4" clip-path="url(#h)" stroke="#C41226" stroke-width="4" stroke-miterlimit="10" fill="none">
			<path d="M-974.992 733l-24.537-42.5 24.537-42.5h49.075l24.537 42.5-24.538 42.5h-49.074zm-24.538-42.5l24.537-42.5-24.537-42.5h-49.075l-24.537 42.5 24.537 42.5h49.075zm0 85l24.537-42.5-24.537-42.5h-49.075l-24.537 42.5 24.537 42.5h49.075zm73.612 42.5l24.537-42.5-24.537-42.5h-49.075l-24.537 42.5 24.537 42.5h49.075zm0-170l24.537-42.5-24.537-42.5h-49.075l-24.537 42.5 24.537 42.5h49.075zm-73.612-42.5l24.537-42.5-24.537-42.5h-49.075l-24.537 42.5 24.537 42.5h49.075zm-73.612 42.5l24.537-42.5-24.537-42.5h-49.075l-24.537 42.5 24.537 42.5h49.075zm0-85l24.537-42.5-24.537-42.5h-49.075l-24.537 42.5 24.537 42.5h49.075zm73.612-42.5l24.537-42.5-24.537-42.5h-49.075l-24.537 42.5 24.537 42.5h49.075zm-73.612-42.5l24.537-42.5-24.537-42.5h-49.075l-24.537 42.5 24.537 42.5h49.075zm73.612-42.5l24.537-42.5-24.537-42.5h-49.075l-24.537 42.5 24.537 42.5h49.075zm73.612-42.5l24.537-42.5-24.537-42.5h-49.075l-24.537 42.5 24.537 42.5h49.075zm73.613 212.5l24.537-42.5-24.537-42.5h-49.075l-24.538 42.5 24.537 42.5h49.076zm-220.837 127.5l24.537-42.5-24.537-42.5h-49.075l-24.537 42.5 24.537 42.5h49.075zm0 85l24.537-42.5-24.537-42.5h-49.075l-24.537 42.5 24.537 42.5h49.075zm-73.612-212.5l24.537-42.5-24.537-42.5h-49.075l-24.537 42.5 24.537 42.5h49.075zm0 85l24.537-42.5-24.537-42.5h-49.075l-24.537 42.5 24.537 42.5h49.075zm0 85l24.537-42.5-24.537-42.5h-49.075l-24.537 42.5 24.537 42.5h49.075zm-73.612 42.5l24.537-42.5-24.537-42.5h-49.075l-24.537 42.5 24.537 42.5h49.075zm147.224-425l24.537-42.5-24.537-42.5h-49.075l-24.537 42.5 24.537 42.5h49.075zM159.349 461l-24.537-42.5 24.537-42.5h49.075l24.537 42.5-24.537 42.5h-49.075zm-24.537-42.5l24.537-42.5-24.537-42.5h-49.075l-24.537 42.5 24.537 42.5h49.075zm0 85l24.537-42.5-24.537-42.5h-49.075l-24.537 42.5 24.537 42.5h49.075zm73.612 42.5l24.537-42.5-24.537-42.5h-49.075l-24.537 42.5 24.537 42.5h49.075zm0-170l24.537-42.5-24.537-42.5h-49.075l-24.537 42.5 24.537 42.5h49.075zm-73.612-42.5l24.537-42.5-24.537-42.5h-49.075l-24.537 42.5 24.537 42.5h49.075zm-73.612 42.5l24.537-42.5-24.537-42.5h-49.075l-24.537 42.5 24.537 42.5h49.075zm0-85l24.537-42.5-24.537-42.5h-49.075l-24.537 42.5 24.537 42.5h49.075zm73.612-42.5l24.537-42.5-24.537-42.5h-49.075l-24.537 42.5 24.537 42.5h49.075zm-73.612-42.5l24.537-42.5-24.537-42.5h-49.075l-24.537 42.5 24.537 42.5h49.075zm73.612-42.5l24.537-42.5-24.537-42.5h-49.075l-24.537 42.5 24.537 42.5h49.075zm73.612-42.5l24.537-42.5-24.537-42.5h-49.075l-24.537 42.5 24.537 42.5h49.075zm73.612 212.5l24.537-42.5-24.537-42.5h-49.075l-24.537 42.5 24.537 42.5h49.075zm-220.836 127.5l24.537-42.5-24.537-42.5h-49.075l-24.537 42.5 24.537 42.5h49.075zm0 85l24.537-42.5-24.537-42.5h-49.075l-24.537 42.5 24.537 42.5h49.075zm-73.612-212.5l24.537-42.5-24.537-42.5h-49.075l-24.537 42.5 24.537 42.5h49.075zm0 85l24.537-42.5-24.537-42.5h-49.075l-24.537 42.5 24.537 42.5h49.075zm0 85l24.537-42.5-24.537-42.5h-49.075l-24.537 42.5 24.537 42.5h49.075zm-73.612 42.5l24.537-42.5-24.537-42.5h-49.075l-24.537 42.5 24.537 42.5h49.075zm147.224-425l24.537-42.5-24.537-42.5h-49.075l-24.537 42.5 24.537 42.5h49.075zM159.349 1005l-24.537-42.5 24.537-42.5h49.075l24.537 42.5-24.537 42.5h-49.075zm-24.537-42.5l24.537-42.5-24.537-42.5h-49.075l-24.537 42.5 24.537 42.5h49.075zm0 85l24.537-42.5-24.537-42.5h-49.075l-24.537 42.5 24.537 42.5h49.075zm73.612 42.5l24.537-42.5-24.537-42.5h-49.075l-24.537 42.5 24.537 42.5h49.075zm0-170l24.537-42.5-24.537-42.5h-49.075l-24.537 42.5 24.537 42.5h49.075zm-73.612-42.5l24.537-42.5-24.537-42.5h-49.075l-24.537 42.5 24.537 42.5h49.075zm-73.612 42.5l24.537-42.5-24.537-42.5h-49.075l-24.537 42.5 24.537 42.5h49.075zm0-85l24.537-42.5-24.537-42.5h-49.075l-24.537 42.5 24.537 42.5h49.075zm73.612-42.5l24.537-42.5-24.537-42.5h-49.075l-24.537 42.5 24.537 42.5h49.075zm-73.612-42.5l24.537-42.5-24.537-42.5h-49.075l-24.537 42.5 24.537 42.5h49.075zm73.612-42.5l24.537-42.5-24.537-42.5h-49.075l-24.537 42.5 24.537 42.5h49.075zm73.612-42.5l24.537-42.5-24.537-42.5h-49.075l-24.537 42.5 24.537 42.5h49.075zm73.612 212.5l24.537-42.5-24.537-42.5h-49.075l-24.537 42.5 24.537 42.5h49.075zm-220.836 127.5l24.537-42.5-24.537-42.5h-49.075l-24.537 42.5 24.537 42.5h49.075zm0 85l24.537-42.5-24.537-42.5h-49.075l-24.537 42.5 24.537 42.5h49.075zm-73.612-212.5l24.537-42.5-24.537-42.5h-49.075l-24.537 42.5 24.537 42.5h49.075zm0 85l24.537-42.5-24.537-42.5h-49.075l-24.537 42.5 24.537 42.5h49.075zm0 85l24.537-42.5-24.537-42.5h-49.075l-24.537 42.5 24.537 42.5h49.075zm-73.612 42.5l24.537-42.5-24.537-42.5h-49.075l-24.537 42.5 24.537 42.5h49.075zm147.224-425l24.537-42.5-24.537-42.5h-49.075l-24.537 42.5 24.537 42.5h49.075z" />
		</g>
		<path opacity=".75" fill="#900612" enable-background="new" d="M-889.078 525.315v-9.143h-18.409v31.684h21.915c4.884 0 8.766 3.882 8.766 8.641v38.946c0 4.759-3.882 8.641-8.766 8.641h-25.547c-4.758 0-8.641-3.882-8.641-8.641v-12.773h12.272v9.142h18.409v-31.683h-22.041c-4.758 0-8.641-3.883-8.641-8.641v-38.946c0-4.759 3.882-8.642 8.641-8.642h34.313v21.415h-12.271zm55.351 84.279c0 4.884-4.007 9.518-8.766 10.52l-27.049 5.385v-12.272l23.543-4.759v-4.383h-14.902c-4.758 0-8.641-3.882-8.641-8.641v-62.865h12.272v59.233h11.271v-59.233h12.272v77.015zm32.184-55.602v-9.142h-11.271v17.281h14.777c4.884 0 8.766 3.883 8.766 8.767v24.545c0 4.759-3.882 8.641-8.766 8.641h-18.409c-4.758 0-8.641-3.882-8.641-8.641v-12.773h12.272v9.142h11.271v-17.407h-14.902c-4.758 0-8.641-3.882-8.641-8.641v-24.545c0-4.759 3.882-8.641 8.641-8.641h27.175v21.414h-12.272zm56.479 37.82v12.272h-27.175c-4.758 0-8.641-3.882-8.641-8.641v-84.404h12.272v21.539h23.543v12.272h-23.543v46.961l23.544.001zm41.952-18.91c0 4.759-3.882 8.766-8.766 8.766h-14.777v10.144h23.543v12.272h-27.175c-4.758 0-8.641-3.882-8.641-8.641v-54.225c0-4.759 3.882-8.641 8.641-8.641h27.175v40.325zm-12.273-3.631v-24.42h-11.271v24.42h11.271zm78.644-36.693v71.506h-12.272v-59.233h-10.144v59.233h-12.397v-59.233h-10.144v59.233h-12.272v-62.865c0-4.759 3.882-8.641 8.641-8.641h48.588zm73.759 71.506h-12.272l-2.63-36.817h-13.149l-2.63 36.817h-12.272l6.512-91.542c.376-4.759 4.508-8.642 9.267-8.642h20.037l7.137 100.184zm-15.779-49.09l-2.755-38.821h-5.886l-2.755 38.821h11.396zm60.611-22.416v71.506h-12.272v-59.233h-11.271v59.233h-12.272v-62.865c0-4.759 3.882-8.641 8.641-8.641h27.174zm44.456 0v71.506h-12.272v-59.233h-11.271v59.233h-12.272v-62.865c0-4.759 3.882-8.641 8.641-8.641h27.174zm35.691 71.506h-18.409c-4.758 0-8.641-3.882-8.641-8.641v-54.225c0-4.759 3.882-8.641 8.641-8.641h18.409c4.884 0 8.766 3.882 8.766 8.641v54.225c0 4.759-3.882 8.641-8.766 8.641zm-3.506-59.233h-11.271v46.961h11.271v-46.961zm56.729-12.273v71.506h-27.175c-4.758 0-8.641-3.882-8.641-8.641v-62.865h12.272v59.233h11.271v-59.233h12.273zm44.456 0v71.506h-12.272v-59.233h-11.271v59.233h-12.272v-62.865c0-4.759 3.882-8.641 8.641-8.641h27.174zm32.184 21.414v-9.142h-11.271v46.961h11.271v-9.142h12.272v12.773c0 4.759-3.882 8.641-8.766 8.641h-18.409c-4.758 0-8.641-3.882-8.641-8.641v-54.225c0-4.759 3.882-8.641 8.641-8.641h27.175v21.414h-12.272v.002zm54.975 18.91c0 4.759-3.882 8.766-8.766 8.766h-14.777v10.144h23.543v12.272h-27.175c-4.758 0-8.641-3.882-8.641-8.641v-54.225c0-4.759 3.882-8.641 8.641-8.641h27.175v40.325zm-12.272-3.631v-24.42h-11.271v24.42h11.271zm78.644-36.693v71.506h-12.272v-59.233h-10.144v59.233h-12.397v-59.233h-10.144v59.233h-12.272v-62.865c0-4.759 3.882-8.641 8.641-8.641h48.588zm44.456 40.324c0 4.759-3.882 8.766-8.766 8.766h-14.777v10.144h23.543v12.272h-27.175c-4.759 0-8.641-3.882-8.641-8.641v-54.225c0-4.759 3.882-8.641 8.641-8.641h27.175v40.325zm-12.273-3.631v-24.42h-11.271v24.42h11.271zm57.23-36.693v71.506h-12.271v-59.233h-11.271v59.233h-12.271v-62.865c0-4.759 3.882-8.641 8.641-8.641h27.172zm44.457 59.234v12.272h-27.175c-4.759 0-8.641-3.882-8.641-8.641v-84.404h12.272v21.539h23.543v12.272h-23.543v46.961l23.544.001z" />
		<polygon stroke="#921A18" stroke-width="6" stroke-miterlimit="10" points="-974.992,818 -1132.031,546 -974.992,274 2.31,274 159.349,546 2.31,818" fill="none" />
	</g>
	<g>
		<polygon opacity=".6" fill="#E60012" enable-background="new" points="-974.992,274 -1132.031,2 -974.992,-270 2.31,-270 159.349,2 2.31,274" />
		<defs>
			<polygon id="i" points="-974.992,274 -1132.031,2 -974.992,-270 2.31,-270 159.349,2 2.31,274" />
		</defs>
		<clipPath id="j">
			<use xlink:href="#i" overflow="visible" />
		</clipPath>
		<g opacity=".4" clip-path="url(#j)" stroke="#C41226" stroke-width="4" stroke-miterlimit="10" fill="none">
			<path d="M-974.992 189l-24.537-42.5 24.537-42.5h49.075l24.537 42.5-24.538 42.5h-49.074zm-24.538-42.5l24.537-42.5-24.537-42.5h-49.075l-24.537 42.5 24.537 42.5h49.075zm0 85l24.537-42.5-24.537-42.5h-49.075l-24.537 42.5 24.537 42.5h49.075zm73.612 42.5l24.537-42.5-24.537-42.5h-49.075l-24.537 42.5 24.537 42.5h49.075zm0-170l24.537-42.5-24.537-42.5h-49.075l-24.537 42.5 24.537 42.5h49.075zm-73.612-42.5l24.537-42.5-24.537-42.5h-49.075l-24.537 42.5 24.537 42.5h49.075zm-73.612 42.5l24.537-42.5-24.537-42.5h-49.075l-24.537 42.5 24.537 42.5h49.075zm0-85l24.537-42.5-24.537-42.5h-49.075l-24.537 42.5 24.537 42.5h49.075zm73.612-42.5l24.537-42.5-24.537-42.5h-49.075l-24.537 42.5 24.537 42.5h49.075zm-73.612-42.5l24.537-42.5-24.537-42.5h-49.075l-24.537 42.5 24.537 42.5h49.075zm73.612-42.5l24.537-42.5-24.537-42.5h-49.075l-24.537 42.5 24.537 42.5h49.075zm73.612-42.5l24.537-42.5-24.537-42.5h-49.075l-24.537 42.5 24.537 42.5h49.075zm73.613 212.5l24.537-42.5-24.537-42.5h-49.075l-24.538 42.5 24.537 42.5h49.076zm-220.837 127.5l24.537-42.5-24.537-42.5h-49.075l-24.537 42.5 24.537 42.5h49.075zm0 85l24.537-42.5-24.537-42.5h-49.075l-24.537 42.5 24.537 42.5h49.075zm-73.612-212.5l24.537-42.5-24.537-42.5h-49.075l-24.537 42.5 24.537 42.5h49.075zm0 85l24.537-42.5-24.537-42.5h-49.075l-24.537 42.5 24.537 42.5h49.075zm0 85l24.537-42.5-24.537-42.5h-49.075l-24.537 42.5 24.537 42.5h49.075zm-73.612 42.5l24.537-42.5-24.537-42.5h-49.075l-24.537 42.5 24.537 42.5h49.075zm147.224-425l24.537-42.5-24.537-42.5h-49.075l-24.537 42.5 24.537 42.5h49.075zM159.349-83l-24.537-42.5 24.537-42.5h49.075l24.537 42.5-24.537 42.5h-49.075zm-24.537-42.5l24.537-42.5-24.537-42.5h-49.075l-24.537 42.5 24.537 42.5h49.075zm0 85l24.537-42.5-24.537-42.5h-49.075l-24.537 42.5 24.537 42.5h49.075zm73.612 42.5l24.537-42.5-24.537-42.5h-49.075l-24.537 42.5 24.537 42.5h49.075zm0-170l24.537-42.5-24.537-42.5h-49.075l-24.537 42.5 24.537 42.5h49.075zm-73.612-42.5l24.537-42.5-24.537-42.5h-49.075l-24.537 42.5 24.537 42.5h49.075zm-73.612 42.5l24.537-42.5-24.537-42.5h-49.075l-24.537 42.5 24.537 42.5h49.075zm0-85l24.537-42.5-24.537-42.5h-49.075l-24.537 42.5 24.537 42.5h49.075zm73.612-42.5l24.537-42.5-24.537-42.5h-49.075l-24.537 42.5 24.537 42.5h49.075zm-73.612-42.5l24.537-42.5-24.537-42.5h-49.075l-24.537 42.5 24.537 42.5h49.075zm73.612-42.5l24.537-42.5-24.537-42.5h-49.075l-24.537 42.5 24.537 42.5h49.075zm73.612-42.5l24.537-42.5-24.537-42.5h-49.075l-24.537 42.5 24.537 42.5h49.075zm73.612 212.5l24.537-42.5-24.537-42.5h-49.075l-24.537 42.5 24.537 42.5h49.075zm-220.836 127.5l24.537-42.5-24.537-42.5h-49.075l-24.537 42.5 24.537 42.5h49.075zm0 85l24.537-42.5-24.537-42.5h-49.075l-24.537 42.5 24.537 42.5h49.075zm-73.612-212.5l24.537-42.5-24.537-42.5h-49.075l-24.537 42.5 24.537 42.5h49.075zm0 85l24.537-42.5-24.537-42.5h-49.075l-24.537 42.5 24.537 42.5h49.075zm0 85l24.537-42.5-24.537-42.5h-49.075l-24.537 42.5 24.537 42.5h49.075zm-73.612 42.5l24.537-42.5-24.537-42.5h-49.075l-24.537 42.5 24.537 42.5h49.075zm147.224-425l24.537-42.5-24.537-42.5h-49.075l-24.537 42.5 24.537 42.5h49.075zM159.349 461l-24.537-42.5 24.537-42.5h49.075l24.537 42.5-24.537 42.5h-49.075zm-24.537-42.5l24.537-42.5-24.537-42.5h-49.075l-24.537 42.5 24.537 42.5h49.075zm0 85l24.537-42.5-24.537-42.5h-49.075l-24.537 42.5 24.537 42.5h49.075zm73.612 42.5l24.537-42.5-24.537-42.5h-49.075l-24.537 42.5 24.537 42.5h49.075zm0-170l24.537-42.5-24.537-42.5h-49.075l-24.537 42.5 24.537 42.5h49.075zm-73.612-42.5l24.537-42.5-24.537-42.5h-49.075l-24.537 42.5 24.537 42.5h49.075zm-73.612 42.5l24.537-42.5-24.537-42.5h-49.075l-24.537 42.5 24.537 42.5h49.075zm0-85l24.537-42.5-24.537-42.5h-49.075l-24.537 42.5 24.537 42.5h49.075zm73.612-42.5l24.537-42.5-24.537-42.5h-49.075l-24.537 42.5 24.537 42.5h49.075zm-73.612-42.5l24.537-42.5-24.537-42.5h-49.075l-24.537 42.5 24.537 42.5h49.075zm73.612-42.5l24.537-42.5-24.537-42.5h-49.075l-24.537 42.5 24.537 42.5h49.075zm73.612-42.5l24.537-42.5-24.537-42.5h-49.075l-24.537 42.5 24.537 42.5h49.075zm73.612 212.5l24.537-42.5-24.537-42.5h-49.075l-24.537 42.5 24.537 42.5h49.075zm-220.836 127.5l24.537-42.5-24.537-42.5h-49.075l-24.537 42.5 24.537 42.5h49.075zm0 85l24.537-42.5-24.537-42.5h-49.075l-24.537 42.5 24.537 42.5h49.075zm-73.612-212.5l24.537-42.5-24.537-42.5h-49.075l-24.537 42.5 24.537 42.5h49.075zm0 85l24.537-42.5-24.537-42.5h-49.075l-24.537 42.5 24.537 42.5h49.075zm0 85l24.537-42.5-24.537-42.5h-49.075l-24.537 42.5 24.537 42.5h49.075zm-73.612 42.5l24.537-42.5-24.537-42.5h-49.075l-24.537 42.5 24.537 42.5h49.075zm147.224-425l24.537-42.5-24.537-42.5h-49.075l-24.537 42.5 24.537 42.5h49.075z" />
		</g>
		<path opacity=".75" fill="#900612" enable-background="new" d="M-627.007-111.867v208.093c0 10.816-4.928 19.642-10.968 19.642h-50.705c-6.04 0-10.968-8.825-10.968-19.642v-208.093h15.577v199.837h13.034v-199.837h15.577v199.837h12.875v-199.837h15.578zm65.485 227.734h-15.577l-3.338-83.692h-16.69l-3.338 83.692h-15.577l8.266-208.093c.477-10.816 5.723-19.642 11.763-19.642h25.432l9.059 227.735zm-20.028-111.59l-3.496-88.247h-7.471l-3.497 88.247h14.464zm85.991-7.97c0 10.817-4.928 19.642-10.968 19.642h-2.226l13.193 99.919h-15.577l-13.193-99.919h-10.173v99.919h-15.577v-208.094c0-10.816 4.928-19.642 10.968-19.642h43.553v108.175zm-15.577-80.277h-23.366v72.021h23.366v-72.021zm26.067 199.837v-227.734h15.629l23.262 136.314v-136.314h15.629v227.734h-15.629l-23.262-136.315v136.315h-15.629zm65.486-227.734h15.577v227.734h-15.577v-227.734zm26.542 227.734v-227.734h15.629l23.263 136.314v-136.314h15.629v227.734h-15.629l-23.262-136.315v136.315h-15.63zm104.429-179.055v-20.782h-23.366v171.94h23.366v-72.021h-11.763v-27.896h27.34v108.174c0 10.816-4.928 19.642-11.127 19.642h-32.426c-6.04 0-10.968-8.825-10.968-19.642v-188.453c0-10.816 4.928-19.642 10.968-19.642h43.553v48.679l-15.577.001z" />
		<polygon stroke="#921A18" stroke-width="6" stroke-miterlimit="10" points="-974.992,274 -1132.031,2 -974.992,-270 2.31,-270 159.349,2 2.31,274" fill="none" />
	</g>
	<g>
		<polygon opacity=".6" fill="#E60012" enable-background="new" points="159.349,1090 2.31,818 159.349,546 1136.651,546 1293.69,818 1136.651,1090" />
		<defs>
			<polygon id="k" points="159.349,1090 2.31,818 159.349,546 1136.651,546 1293.69,818 1136.651,1090" />
		</defs>
		<clipPath id="l">
			<use xlink:href="#k" overflow="visible" />
		</clipPath>
		<g opacity=".4" clip-path="url(#l)" stroke="#C41226" stroke-width="4" stroke-miterlimit="10" fill="none">
			<path d="M159.349 1005l-24.537-42.5 24.537-42.5h49.075l24.537 42.5-24.538 42.5h-49.074zm-24.538-42.5l24.537-42.5-24.537-42.5h-49.075l-24.537 42.5 24.537 42.5h49.075zm0 85l24.537-42.5-24.537-42.5h-49.075l-24.537 42.5 24.537 42.5h49.075zm73.612 42.5l24.537-42.5-24.537-42.5h-49.075l-24.537 42.5 24.537 42.5h49.075zm0-170l24.537-42.5-24.537-42.5h-49.075l-24.537 42.5 24.537 42.5h49.075zm-73.612-42.5l24.537-42.5-24.537-42.5h-49.075l-24.537 42.5 24.537 42.5h49.075zm-73.612 42.5l24.537-42.5-24.537-42.5h-49.075l-24.537 42.5 24.537 42.5h49.075zm0-85l24.537-42.5-24.537-42.5h-49.075l-24.537 42.5 24.537 42.5h49.075zm73.612-42.5l24.537-42.5-24.537-42.5h-49.075l-24.537 42.5 24.537 42.5h49.075zm-73.612-42.5l24.537-42.5-24.537-42.5h-49.075l-24.537 42.5 24.537 42.5h49.075zm73.612-42.5l24.537-42.5-24.537-42.5h-49.075l-24.537 42.5 24.537 42.5h49.075zm73.612-42.5l24.537-42.5-24.537-42.5h-49.075l-24.537 42.5 24.537 42.5h49.075zm73.613 212.5l24.537-42.5-24.537-42.5h-49.075l-24.538 42.5 24.537 42.5h49.076zm-220.837 127.5l24.537-42.5-24.537-42.5h-49.075l-24.537 42.5 24.537 42.5h49.075zm0 85l24.537-42.5-24.537-42.5h-49.075l-24.537 42.5 24.537 42.5h49.075zm-73.612-212.5l24.537-42.5-24.537-42.5h-49.075l-24.537 42.5 24.537 42.5h49.075zm0 85l24.537-42.5-24.537-42.5h-49.075l-24.537 42.5 24.537 42.5h49.075zm0 85l24.537-42.5-24.537-42.5h-49.075l-24.537 42.5 24.537 42.5h49.075zm-73.612 42.5l24.537-42.5-24.537-42.5h-49.075l-24.537 42.5 24.537 42.5h49.075zm147.224-425l24.537-42.5-24.537-42.5h-49.075l-24.537 42.5 24.537 42.5h49.075zM1293.69 733l-24.537-42.5 24.537-42.5h49.075l24.537 42.5-24.537 42.5h-49.075zm-24.537-42.5l24.537-42.5-24.537-42.5h-49.075l-24.537 42.5 24.537 42.5h49.075zm0 85l24.537-42.5-24.537-42.5h-49.075l-24.537 42.5 24.537 42.5h49.075zm73.612 42.5l24.537-42.5-24.537-42.5h-49.075l-24.537 42.5 24.537 42.5h49.075zm0-170l24.537-42.5-24.537-42.5h-49.075l-24.537 42.5 24.537 42.5h49.075zm-73.612-42.5l24.537-42.5-24.537-42.5h-49.075l-24.537 42.5 24.537 42.5h49.075zm-73.612 42.5l24.537-42.5-24.537-42.5h-49.075l-24.537 42.5 24.537 42.5h49.075zm0-85l24.537-42.5-24.537-42.5h-49.075l-24.537 42.5 24.537 42.5h49.075zm73.612-42.5l24.537-42.5-24.537-42.5h-49.075l-24.537 42.5 24.537 42.5h49.075zm-73.612-42.5l24.537-42.5-24.537-42.5h-49.075l-24.537 42.5 24.537 42.5h49.075zm73.612-42.5l24.537-42.5-24.537-42.5h-49.075l-24.537 42.5 24.537 42.5h49.075zm73.612-42.5l24.537-42.5-24.537-42.5h-49.075l-24.537 42.5 24.537 42.5h49.075zm73.612 212.5l24.537-42.5-24.537-42.5h-49.075l-24.537 42.5 24.537 42.5h49.075zm-220.836 127.5l24.537-42.5-24.537-42.5h-49.075l-24.537 42.5 24.537 42.5h49.075zm0 85l24.537-42.5-24.537-42.5h-49.075l-24.537 42.5 24.537 42.5h49.075zm-73.612-212.5l24.537-42.5-24.537-42.5h-49.075l-24.537 42.5 24.537 42.5h49.075zm0 85l24.537-42.5-24.537-42.5h-49.075l-24.537 42.5 24.537 42.5h49.075zm0 85l24.537-42.5-24.537-42.5h-49.075l-24.537 42.5 24.537 42.5h49.075zm-73.612 42.5l24.537-42.5-24.537-42.5h-49.075l-24.537 42.5 24.537 42.5h49.075zm147.224-425l24.537-42.5-24.537-42.5h-49.075l-24.537 42.5 24.537 42.5h49.075zM1293.69 1277l-24.537-42.5 24.537-42.5h49.075l24.537 42.5-24.537 42.5h-49.075zm-24.537-42.5l24.537-42.5-24.537-42.5h-49.075l-24.537 42.5 24.537 42.5h49.075zm0 85l24.537-42.5-24.537-42.5h-49.075l-24.537 42.5 24.537 42.5h49.075zm73.612 42.5l24.537-42.5-24.537-42.5h-49.075l-24.537 42.5 24.537 42.5h49.075zm0-170l24.537-42.5-24.537-42.5h-49.075l-24.537 42.5 24.537 42.5h49.075zm-73.612-42.5l24.537-42.5-24.537-42.5h-49.075l-24.537 42.5 24.537 42.5h49.075zm-73.612 42.5l24.537-42.5-24.537-42.5h-49.075l-24.537 42.5 24.537 42.5h49.075zm0-85l24.537-42.5-24.537-42.5h-49.075l-24.537 42.5 24.537 42.5h49.075zm73.612-42.5l24.537-42.5-24.537-42.5h-49.075l-24.537 42.5 24.537 42.5h49.075zm-73.612-42.5l24.537-42.5-24.537-42.5h-49.075l-24.537 42.5 24.537 42.5h49.075zm73.612-42.5l24.537-42.5-24.537-42.5h-49.075l-24.537 42.5 24.537 42.5h49.075zm73.612-42.5l24.537-42.5-24.537-42.5h-49.075l-24.537 42.5 24.537 42.5h49.075zm73.612 212.5l24.537-42.5-24.537-42.5h-49.075l-24.537 42.5 24.537 42.5h49.075zm-220.836 127.5l24.537-42.5-24.537-42.5h-49.075l-24.537 42.5 24.537 42.5h49.075zm0 85l24.537-42.5-24.537-42.5h-49.075l-24.537 42.5 24.537 42.5h49.075zm-73.612-212.5l24.537-42.5-24.537-42.5h-49.075l-24.537 42.5 24.537 42.5h49.075zm0 85l24.537-42.5-24.537-42.5h-49.075l-24.537 42.5 24.537 42.5h49.075zm0 85l24.537-42.5-24.537-42.5h-49.075l-24.537 42.5 24.537 42.5h49.075zm-73.612 42.5l24.537-42.5-24.537-42.5h-49.075l-24.537 42.5 24.537 42.5h49.075zm147.224-425l24.537-42.5-24.537-42.5h-49.075l-24.537 42.5 24.537 42.5h49.075z" />
		</g>
		<path opacity=".75" fill="#900612" enable-background="new" d="M245.263 797.315v-9.143h-18.409v31.684h21.915c4.884 0 8.766 3.882 8.766 8.641v38.946c0 4.759-3.882 8.641-8.766 8.641h-25.547c-4.758 0-8.641-3.882-8.641-8.641v-12.773h12.272v9.142h18.409v-31.683h-22.041c-4.758 0-8.641-3.883-8.641-8.641v-38.946c0-4.759 3.882-8.642 8.641-8.642h34.313v21.415h-12.271zm55.351 84.279c0 4.884-4.007 9.518-8.766 10.52l-27.049 5.385v-12.272l23.543-4.759v-4.383h-14.902c-4.758 0-8.641-3.882-8.641-8.641v-62.865h12.272v59.233h11.271v-59.233h12.272v77.015zm32.184-55.602v-9.142h-11.271v17.281h14.777c4.884 0 8.766 3.883 8.766 8.767v24.545c0 4.759-3.882 8.641-8.766 8.641h-18.409c-4.758 0-8.641-3.882-8.641-8.641v-12.773h12.272v9.142h11.271v-17.407h-14.902c-4.758 0-8.641-3.882-8.641-8.641v-24.545c0-4.759 3.882-8.641 8.641-8.641h27.175v21.414h-12.272zm56.479 37.82v12.272h-27.175c-4.758 0-8.641-3.882-8.641-8.641v-84.404h12.272v21.539h23.543v12.272h-23.543v46.961l23.544.001zm41.952-18.91c0 4.759-3.882 8.766-8.766 8.766h-14.777v10.144h23.543v12.272h-27.175c-4.758 0-8.641-3.882-8.641-8.641v-54.225c0-4.759 3.882-8.641 8.641-8.641h27.175v40.325zm-12.273-3.631v-24.42h-11.271v24.42h11.271zm78.644-36.693v71.506h-12.272v-59.233h-10.144v59.233h-12.397v-59.233h-10.144v59.233h-12.272v-62.865c0-4.759 3.882-8.641 8.641-8.641h48.588zm73.759 71.506h-12.272l-2.63-36.817h-13.149l-2.63 36.817h-12.272l6.512-91.542c.376-4.759 4.508-8.642 9.267-8.642h20.037l7.137 100.184zm-15.779-49.09l-2.755-38.821h-5.886l-2.755 38.821h11.396zm60.611-22.416v71.506h-12.272v-59.233h-11.271v59.233h-12.272v-62.865c0-4.759 3.882-8.641 8.641-8.641h27.174zm44.456 0v71.506h-12.272v-59.233h-11.271v59.233h-12.272v-62.865c0-4.759 3.882-8.641 8.641-8.641h27.174zm35.691 71.506h-18.409c-4.758 0-8.641-3.882-8.641-8.641v-54.225c0-4.759 3.882-8.641 8.641-8.641h18.409c4.884 0 8.766 3.882 8.766 8.641v54.225c0 4.759-3.882 8.641-8.766 8.641zm-3.506-59.233h-11.271v46.961h11.271v-46.961zm56.729-12.273v71.506h-27.175c-4.758 0-8.641-3.882-8.641-8.641v-62.865h12.272v59.233h11.271v-59.233h12.273zm44.456 0v71.506h-12.272v-59.233h-11.271v59.233h-12.272v-62.865c0-4.759 3.882-8.641 8.641-8.641h27.174zm32.184 21.414v-9.142h-11.271v46.961h11.271v-9.142h12.272v12.773c0 4.759-3.882 8.641-8.766 8.641h-18.409c-4.758 0-8.641-3.882-8.641-8.641v-54.225c0-4.759 3.882-8.641 8.641-8.641h27.175v21.414h-12.272v.002zm54.975 18.91c0 4.759-3.882 8.766-8.766 8.766h-14.777v10.144h23.543v12.272h-27.175c-4.758 0-8.641-3.882-8.641-8.641v-54.225c0-4.759 3.882-8.641 8.641-8.641h27.175v40.325zm-12.272-3.631v-24.42h-11.271v24.42h11.271zm78.644-36.693v71.506h-12.272v-59.233h-10.144v59.233h-12.397v-59.233h-10.144v59.233h-12.272v-62.865c0-4.759 3.882-8.641 8.641-8.641h48.588zm44.456 40.324c0 4.759-3.882 8.766-8.766 8.766h-14.777v10.144h23.543v12.272h-27.175c-4.759 0-8.641-3.882-8.641-8.641v-54.225c0-4.759 3.882-8.641 8.641-8.641h27.175v40.325zm-12.273-3.631v-24.42h-11.271v24.42h11.271zm57.23-36.693v71.506h-12.271v-59.233h-11.271v59.233h-12.271v-62.865c0-4.759 3.882-8.641 8.641-8.641h27.172zm44.457 59.234v12.272h-27.175c-4.759 0-8.641-3.882-8.641-8.641v-84.404h12.272v21.539h23.543v12.272h-23.543v46.961l23.544.001z" />
		<polygon stroke="#921A18" stroke-width="6" stroke-miterlimit="10" points="159.349,1090 2.31,818 159.349,546 1136.651,546 1293.69,818 1136.651,1090" fill="none" />
	</g>
	<g>
		<polygon opacity=".6" fill="#E60012" enable-background="new" points="159.349,2 2.31,-270 159.349,-542 1136.651,-542 1293.69,-270 1136.651,2" />
		<defs>
			<polygon id="m" points="159.349,2 2.31,-270 159.349,-542 1136.651,-542 1293.69,-270 1136.651,2" />
		</defs>
		<clipPath id="n">
			<use xlink:href="#m" overflow="visible" />
		</clipPath>
		<g opacity=".4" clip-path="url(#n)" stroke="#C41226" stroke-width="4" stroke-miterlimit="10" fill="none">
			<path d="M159.349-83l-24.537-42.5 24.537-42.5h49.075l24.537 42.5-24.538 42.5h-49.074zm-24.538-42.5l24.537-42.5-24.537-42.5h-49.075l-24.537 42.5 24.537 42.5h49.075zm0 85l24.537-42.5-24.537-42.5h-49.075l-24.537 42.5 24.537 42.5h49.075zm73.612 42.5l24.537-42.5-24.537-42.5h-49.075l-24.537 42.5 24.537 42.5h49.075zm0-170l24.537-42.5-24.537-42.5h-49.075l-24.537 42.5 24.537 42.5h49.075zm-73.612-42.5l24.537-42.5-24.537-42.5h-49.075l-24.537 42.5 24.537 42.5h49.075zm-73.612 42.5l24.537-42.5-24.537-42.5h-49.075l-24.537 42.5 24.537 42.5h49.075zm0-85l24.537-42.5-24.537-42.5h-49.075l-24.537 42.5 24.537 42.5h49.075zm73.612-42.5l24.537-42.5-24.537-42.5h-49.075l-24.537 42.5 24.537 42.5h49.075zm-73.612-42.5l24.537-42.5-24.537-42.5h-49.075l-24.537 42.5 24.537 42.5h49.075zm73.612-42.5l24.537-42.5-24.537-42.5h-49.075l-24.537 42.5 24.537 42.5h49.075zm73.612-42.5l24.537-42.5-24.537-42.5h-49.075l-24.537 42.5 24.537 42.5h49.075zm73.613 212.5l24.537-42.5-24.537-42.5h-49.075l-24.538 42.5 24.537 42.5h49.076zm-220.837 127.5l24.537-42.5-24.537-42.5h-49.075l-24.537 42.5 24.537 42.5h49.075zm0 85l24.537-42.5-24.537-42.5h-49.075l-24.537 42.5 24.537 42.5h49.075zm-73.612-212.5l24.537-42.5-24.537-42.5h-49.075l-24.537 42.5 24.537 42.5h49.075zm0 85l24.537-42.5-24.537-42.5h-49.075l-24.537 42.5 24.537 42.5h49.075zm0 85l24.537-42.5-24.537-42.5h-49.075l-24.537 42.5 24.537 42.5h49.075zm-73.612 42.5l24.537-42.5-24.537-42.5h-49.075l-24.537 42.5 24.537 42.5h49.075zm147.224-425l24.537-42.5-24.537-42.5h-49.075l-24.537 42.5 24.537 42.5h49.075zM1293.69-355l-24.537-42.5 24.537-42.5h49.075l24.537 42.5-24.537 42.5h-49.075zm-24.537-42.5l24.537-42.5-24.537-42.5h-49.075l-24.537 42.5 24.537 42.5h49.075zm0 85l24.537-42.5-24.537-42.5h-49.075l-24.537 42.5 24.537 42.5h49.075zm73.612 42.5l24.537-42.5-24.537-42.5h-49.075l-24.537 42.5 24.537 42.5h49.075zm0-170l24.537-42.5-24.537-42.5h-49.075l-24.537 42.5 24.537 42.5h49.075zm-73.612-42.5l24.537-42.5-24.537-42.5h-49.075l-24.537 42.5 24.537 42.5h49.075zm-73.612 42.5l24.537-42.5-24.537-42.5h-49.075l-24.537 42.5 24.537 42.5h49.075zm0-85l24.537-42.5-24.537-42.5h-49.075l-24.537 42.5 24.537 42.5h49.075zm73.612-42.5l24.537-42.5-24.537-42.5h-49.075l-24.537 42.5 24.537 42.5h49.075zm-73.612-42.5l24.537-42.5-24.537-42.5h-49.075l-24.537 42.5 24.537 42.5h49.075zm73.612-42.5l24.537-42.5-24.537-42.5h-49.075l-24.537 42.5 24.537 42.5h49.075zm73.612-42.5l24.537-42.5-24.537-42.5h-49.075l-24.537 42.5 24.537 42.5h49.075zm73.612 212.5l24.537-42.5-24.537-42.5h-49.075l-24.537 42.5 24.537 42.5h49.075zm-220.836 127.5l24.537-42.5-24.537-42.5h-49.075l-24.537 42.5 24.537 42.5h49.075zm0 85l24.537-42.5-24.537-42.5h-49.075l-24.537 42.5 24.537 42.5h49.075zm-73.612-212.5l24.537-42.5-24.537-42.5h-49.075l-24.537 42.5 24.537 42.5h49.075zm0 85l24.537-42.5-24.537-42.5h-49.075l-24.537 42.5 24.537 42.5h49.075zm0 85l24.537-42.5-24.537-42.5h-49.075l-24.537 42.5 24.537 42.5h49.075zm-73.612 42.5l24.537-42.5-24.537-42.5h-49.075l-24.537 42.5 24.537 42.5h49.075zm147.224-425l24.537-42.5-24.537-42.5h-49.075l-24.537 42.5 24.537 42.5h49.075zM1293.69 189l-24.537-42.5 24.537-42.5h49.075l24.537 42.5-24.537 42.5h-49.075zm-24.537-42.5l24.537-42.5-24.537-42.5h-49.075l-24.537 42.5 24.537 42.5h49.075zm0 85l24.537-42.5-24.537-42.5h-49.075l-24.537 42.5 24.537 42.5h49.075zm73.612 42.5l24.537-42.5-24.537-42.5h-49.075l-24.537 42.5 24.537 42.5h49.075zm0-170l24.537-42.5-24.537-42.5h-49.075l-24.537 42.5 24.537 42.5h49.075zm-73.612-42.5l24.537-42.5-24.537-42.5h-49.075l-24.537 42.5 24.537 42.5h49.075zm-73.612 42.5l24.537-42.5-24.537-42.5h-49.075l-24.537 42.5 24.537 42.5h49.075zm0-85l24.537-42.5-24.537-42.5h-49.075l-24.537 42.5 24.537 42.5h49.075zm73.612-42.5l24.537-42.5-24.537-42.5h-49.075l-24.537 42.5 24.537 42.5h49.075zm-73.612-42.5l24.537-42.5-24.537-42.5h-49.075l-24.537 42.5 24.537 42.5h49.075zm73.612-42.5l24.537-42.5-24.537-42.5h-49.075l-24.537 42.5 24.537 42.5h49.075zm73.612-42.5l24.537-42.5-24.537-42.5h-49.075l-24.537 42.5 24.537 42.5h49.075zm73.612 212.5l24.537-42.5-24.537-42.5h-49.075l-24.537 42.5 24.537 42.5h49.075zm-220.836 127.5l24.537-42.5-24.537-42.5h-49.075l-24.537 42.5 24.537 42.5h49.075zm0 85l24.537-42.5-24.537-42.5h-49.075l-24.537 42.5 24.537 42.5h49.075zm-73.612-212.5l24.537-42.5-24.537-42.5h-49.075l-24.537 42.5 24.537 42.5h49.075zm0 85l24.537-42.5-24.537-42.5h-49.075l-24.537 42.5 24.537 42.5h49.075zm0 85l24.537-42.5-24.537-42.5h-49.075l-24.537 42.5 24.537 42.5h49.075zm-73.612 42.5l24.537-42.5-24.537-42.5h-49.075l-24.537 42.5 24.537 42.5h49.075zm147.224-425l24.537-42.5-24.537-42.5h-49.075l-24.537 42.5 24.537 42.5h49.075z" />
		</g>
		<path opacity=".75" fill="#900612" enable-background="new" d="M245.263-290.685v-9.143h-18.409v31.684h21.915c4.884 0 8.766 3.882 8.766 8.641v38.946c0 4.759-3.882 8.641-8.766 8.641h-25.547c-4.758 0-8.641-3.882-8.641-8.641v-12.773h12.272v9.142h18.409v-31.683h-22.041c-4.758 0-8.641-3.883-8.641-8.641v-38.946c0-4.759 3.882-8.642 8.641-8.642h34.313v21.415h-12.271zm55.351 84.279c0 4.884-4.007 9.518-8.766 10.52l-27.049 5.385v-12.272l23.543-4.759v-4.383h-14.902c-4.758 0-8.641-3.882-8.641-8.641v-62.865h12.272v59.233h11.271v-59.233h12.272v77.015zm32.184-55.602v-9.142h-11.271v17.281h14.777c4.884 0 8.766 3.883 8.766 8.767v24.545c0 4.759-3.882 8.641-8.766 8.641h-18.409c-4.758 0-8.641-3.882-8.641-8.641v-12.773h12.272v9.142h11.271v-17.407h-14.902c-4.758 0-8.641-3.882-8.641-8.641v-24.545c0-4.759 3.882-8.641 8.641-8.641h27.175v21.414h-12.272zm56.479 37.82v12.272h-27.175c-4.758 0-8.641-3.882-8.641-8.641v-84.404h12.272v21.539h23.543v12.272h-23.543v46.961l23.544.001zm41.952-18.91c0 4.759-3.882 8.766-8.766 8.766h-14.777v10.144h23.543v12.272h-27.175c-4.758 0-8.641-3.882-8.641-8.641v-54.225c0-4.759 3.882-8.641 8.641-8.641h27.175v40.325zm-12.273-3.631v-24.42h-11.271v24.42h11.271zm78.644-36.693v71.506h-12.272v-59.233h-10.144v59.233h-12.397v-59.233h-10.144v59.233h-12.272v-62.865c0-4.759 3.882-8.641 8.641-8.641h48.588zm73.759 71.506h-12.272l-2.63-36.817h-13.149l-2.63 36.817h-12.272l6.512-91.542c.376-4.759 4.508-8.642 9.267-8.642h20.037l7.137 100.184zm-15.779-49.09l-2.755-38.821h-5.886l-2.755 38.821h11.396zm60.611-22.416v71.506h-12.272v-59.233h-11.271v59.233h-12.272v-62.865c0-4.759 3.882-8.641 8.641-8.641h27.174zm44.456 0v71.506h-12.272v-59.233h-11.271v59.233h-12.272v-62.865c0-4.759 3.882-8.641 8.641-8.641h27.174zm35.691 71.506h-18.409c-4.758 0-8.641-3.882-8.641-8.641v-54.225c0-4.759 3.882-8.641 8.641-8.641h18.409c4.884 0 8.766 3.882 8.766 8.641v54.225c0 4.759-3.882 8.641-8.766 8.641zm-3.506-59.233h-11.271v46.961h11.271v-46.961zm56.729-12.273v71.506h-27.175c-4.758 0-8.641-3.882-8.641-8.641v-62.865h12.272v59.233h11.271v-59.233h12.273zm44.456 0v71.506h-12.272v-59.233h-11.271v59.233h-12.272v-62.865c0-4.759 3.882-8.641 8.641-8.641h27.174zm32.184 21.414v-9.142h-11.271v46.961h11.271v-9.142h12.272v12.773c0 4.759-3.882 8.641-8.766 8.641h-18.409c-4.758 0-8.641-3.882-8.641-8.641v-54.225c0-4.759 3.882-8.641 8.641-8.641h27.175v21.414h-12.272v.002zm54.975 18.91c0 4.759-3.882 8.766-8.766 8.766h-14.777v10.144h23.543v12.272h-27.175c-4.758 0-8.641-3.882-8.641-8.641v-54.225c0-4.759 3.882-8.641 8.641-8.641h27.175v40.325zm-12.272-3.631v-24.42h-11.271v24.42h11.271zm78.644-36.693v71.506h-12.272v-59.233h-10.144v59.233h-12.397v-59.233h-10.144v59.233h-12.272v-62.865c0-4.759 3.882-8.641 8.641-8.641h48.588zm44.456 40.324c0 4.759-3.882 8.766-8.766 8.766h-14.777v10.144h23.543v12.272h-27.175c-4.759 0-8.641-3.882-8.641-8.641v-54.225c0-4.759 3.882-8.641 8.641-8.641h27.175v40.325zm-12.273-3.631v-24.42h-11.271v24.42h11.271zm57.23-36.693v71.506h-12.271v-59.233h-11.271v59.233h-12.271v-62.865c0-4.759 3.882-8.641 8.641-8.641h27.172zm44.457 59.234v12.272h-27.175c-4.759 0-8.641-3.882-8.641-8.641v-84.404h12.272v21.539h23.543v12.272h-23.543v46.961l23.544.001z" />
		<polygon stroke="#921A18" stroke-width="6" stroke-miterlimit="10" points="159.349,2 2.31,-270 159.349,-542 1136.651,-542 1293.69,-270 1136.651,2" fill="none" />
	</g>
</svg>