<?xml version="1.0" encoding="utf-8"?>
<svg xmlns="http://www.w3.org/2000/svg" xmlns:xlink="http://www.w3.org/1999/xlink" width="1296" height="548">
	<g>
		<polygon opacity="0" points="158.194,548 0,274 158.194,0 1137.806,0 1296,274 1137.806,548" />
		<polygon opacity=".6" fill="#E60012" points="159.349,546 2.31,274 159.349,2 1136.651,2 1293.69,274 1136.651,546" />
		<defs>
			<polygon id="a" points="159.349,546 2.31,274 159.349,2 1136.651,2 1293.69,274 1136.651,546" />
		</defs>
		<clipPath id="b">
			<use xlink:href="#a" overflow="visible" />
		</clipPath>
		<g opacity=".4" clip-path="url(#b)" stroke="#C41226" stroke-width="4" stroke-miterlimit="10" fill="none">
			<path d="M159.349 461l-24.537-42.5 24.537-42.5h49.075l24.537 42.5-24.538 42.5h-49.074zm-24.538-42.5l24.537-42.5-24.537-42.5h-49.075l-24.537 42.5 24.537 42.5h49.075zm0 85l24.537-42.5-24.537-42.5h-49.075l-24.537 42.5 24.537 42.5h49.075zm73.612 42.5l24.537-42.5-24.537-42.5h-49.075l-24.537 42.5 24.537 42.5h49.075zm0-170l24.537-42.5-24.537-42.5h-49.075l-24.537 42.5 24.537 42.5h49.075zm-73.612-42.5l24.537-42.5-24.537-42.5h-49.075l-24.537 42.5 24.537 42.5h49.075zm-73.612 42.5l24.537-42.5-24.537-42.5h-49.075l-24.537 42.5 24.537 42.5h49.075zm0-85l24.537-42.5-24.537-42.5h-49.075l-24.537 42.5 24.537 42.5h49.075zm73.612-42.5l24.537-42.5-24.537-42.5h-49.075l-24.537 42.5 24.537 42.5h49.075zm-73.612-42.5l24.537-42.5-24.537-42.5h-49.075l-24.537 42.5 24.537 42.5h49.075zm73.612-42.5l24.537-42.5-24.537-42.5h-49.075l-24.537 42.5 24.537 42.5h49.075zm73.612-42.5l24.537-42.5-24.537-42.5h-49.075l-24.537 42.5 24.537 42.5h49.075zm73.613 212.5l24.537-42.5-24.537-42.5h-49.075l-24.538 42.5 24.537 42.5h49.076zm-220.837 127.5l24.537-42.5-24.537-42.5h-49.075l-24.537 42.5 24.537 42.5h49.075zm0 85l24.537-42.5-24.537-42.5h-49.075l-24.537 42.5 24.537 42.5h49.075zm-73.612-212.5l24.537-42.5-24.537-42.5h-49.075l-24.537 42.5 24.537 42.5h49.075zm0 85l24.537-42.5-24.537-42.5h-49.075l-24.537 42.5 24.537 42.5h49.075zm0 85l24.537-42.5-24.537-42.5h-49.075l-24.537 42.5 24.537 42.5h49.075zm-73.612 42.5l24.537-42.5-24.537-42.5h-49.075l-24.537 42.5 24.537 42.5h49.075zm147.224-425l24.537-42.5-24.537-42.5h-49.075l-24.537 42.5 24.537 42.5h49.075z" />
			<path d="M1293.69 189l-24.537-42.5 24.537-42.5h49.075l24.537 42.5-24.537 42.5h-49.075zm-24.537-42.5l24.537-42.5-24.537-42.5h-49.075l-24.537 42.5 24.537 42.5h49.075zm0 85l24.537-42.5-24.537-42.5h-49.075l-24.537 42.5 24.537 42.5h49.075zm73.612 42.5l24.537-42.5-24.537-42.5h-49.075l-24.537 42.5 24.537 42.5h49.075zm0-170l24.537-42.5-24.537-42.5h-49.075l-24.537 42.5 24.537 42.5h49.075zm-73.612-42.5l24.537-42.5-24.537-42.5h-49.075l-24.537 42.5 24.537 42.5h49.075zm-73.612 42.5l24.537-42.5-24.537-42.5h-49.075l-24.537 42.5 24.537 42.5h49.075zm0-85l24.537-42.5-24.537-42.5h-49.075l-24.537 42.5 24.537 42.5h49.075zm73.612-42.5l24.537-42.5-24.537-42.5h-49.075l-24.537 42.5 24.537 42.5h49.075zm-73.612-42.5l24.537-42.5-24.537-42.5h-49.075l-24.537 42.5 24.537 42.5h49.075zm73.612-42.5l24.537-42.5-24.537-42.5h-49.075l-24.537 42.5 24.537 42.5h49.075zm73.612-42.5l24.537-42.5-24.537-42.5h-49.075l-24.537 42.5 24.537 42.5h49.075zm73.612 212.5l24.537-42.5-24.537-42.5h-49.075l-24.537 42.5 24.537 42.5h49.075zm-220.836 127.5l24.537-42.5-24.537-42.5h-49.075l-24.537 42.5 24.537 42.5h49.075zm0 85l24.537-42.5-24.537-42.5h-49.075l-24.537 42.5 24.537 42.5h49.075zm-73.612-212.5l24.537-42.5-24.537-42.5h-49.075l-24.537 42.5 24.537 42.5h49.075zm0 85l24.537-42.5-24.537-42.5h-49.075l-24.537 42.5 24.537 42.5h49.075zm0 85l24.537-42.5-24.537-42.5h-49.075l-24.537 42.5 24.537 42.5h49.075zm-73.612 42.5l24.537-42.5-24.537-42.5h-49.075l-24.537 42.5 24.537 42.5h49.075zm147.224-425l24.537-42.5-24.537-42.5h-49.075l-24.537 42.5 24.537 42.5h49.075z" />
			<path d="M1293.69 733l-24.537-42.5 24.537-42.5h49.075l24.537 42.5-24.537 42.5h-49.075zm-24.537-42.5l24.537-42.5-24.537-42.5h-49.075l-24.537 42.5 24.537 42.5h49.075zm0 85l24.537-42.5-24.537-42.5h-49.075l-24.537 42.5 24.537 42.5h49.075zm73.612 42.5l24.537-42.5-24.537-42.5h-49.075l-24.537 42.5 24.537 42.5h49.075zm0-170l24.537-42.5-24.537-42.5h-49.075l-24.537 42.5 24.537 42.5h49.075zm-73.612-42.5l24.537-42.5-24.537-42.5h-49.075l-24.537 42.5 24.537 42.5h49.075zm-73.612 42.5l24.537-42.5-24.537-42.5h-49.075l-24.537 42.5 24.537 42.5h49.075zm0-85l24.537-42.5-24.537-42.5h-49.075l-24.537 42.5 24.537 42.5h49.075zm73.612-42.5l24.537-42.5-24.537-42.5h-49.075l-24.537 42.5 24.537 42.5h49.075zm-73.612-42.5l24.537-42.5-24.537-42.5h-49.075l-24.537 42.5 24.537 42.5h49.075zm73.612-42.5l24.537-42.5-24.537-42.5h-49.075l-24.537 42.5 24.537 42.5h49.075zm73.612-42.5l24.537-42.5-24.537-42.5h-49.075l-24.537 42.5 24.537 42.5h49.075zm73.612 212.5l24.537-42.5-24.537-42.5h-49.075l-24.537 42.5 24.537 42.5h49.075zm-220.836 127.5l24.537-42.5-24.537-42.5h-49.075l-24.537 42.5 24.537 42.5h49.075zm0 85l24.537-42.5-24.537-42.5h-49.075l-24.537 42.5 24.537 42.5h49.075zm-73.612-212.5l24.537-42.5-24.537-42.5h-49.075l-24.537 42.5 24.537 42.5h49.075zm0 85l24.537-42.5-24.537-42.5h-49.075l-24.537 42.5 24.537 42.5h49.075zm0 85l24.537-42.5-24.537-42.5h-49.075l-24.537 42.5 24.537 42.5h49.075zm-73.612 42.5l24.537-42.5-24.537-42.5h-49.075l-24.537 42.5 24.537 42.5h49.075zm147.224-425l24.537-42.5-24.537-42.5h-49.075l-24.537 42.5 24.537 42.5h49.075z" />
		</g>
		<path opacity=".75" fill="#900612" d="M507.334 160.133v208.093c0 10.816-4.928 19.642-10.968 19.642h-50.705c-6.04 0-10.968-8.825-10.968-19.642v-208.093h15.577v199.837h13.034v-199.837h15.577v199.837h12.875v-199.837h15.578zm65.485 227.734h-15.577l-3.338-83.692h-16.69l-3.338 83.692h-15.577l8.266-208.093c.477-10.816 5.723-19.642 11.763-19.642h25.432l9.059 227.735zm-20.028-111.59l-3.496-88.247h-7.471l-3.497 88.247h14.464zm85.991-7.97c0 10.817-4.928 19.642-10.968 19.642h-2.226l13.193 99.919h-15.577l-13.193-99.919h-10.173v99.919h-15.577v-208.094c0-10.816 4.928-19.642 10.968-19.642h43.553v108.175zm-15.577-80.277h-23.366v72.021h23.366v-72.021zm26.067 199.837v-227.734h15.629l23.262 136.314v-136.314h15.629v227.734h-15.629l-23.262-136.315v136.315h-15.629zm65.486-227.734h15.577v227.734h-15.577v-227.734zm26.542 227.734v-227.734h15.629l23.263 136.314v-136.314h15.629v227.734h-15.629l-23.262-136.315v136.315h-15.63zm104.429-179.055v-20.782h-23.366v171.94h23.366v-72.021h-11.763v-27.896h27.34v108.174c0 10.816-4.928 19.642-11.127 19.642h-32.426c-6.04 0-10.968-8.825-10.968-19.642v-188.453c0-10.816 4.928-19.642 10.968-19.642h43.553v48.679h-15.577z" />
		<polygon stroke="#921A18" stroke-width="6" stroke-miterlimit="10" points="159.349,546 2.31,274 159.349,2 1136.651,2 1293.69,274 1136.651,546" fill="none" />
	</g>
</svg>