<?xml version="1.0" encoding="utf-8"?>
<svg xmlns="http://www.w3.org/2000/svg" xmlns:xlink="http://www.w3.org/1999/xlink" width="1296" height="548">
	<g>
		<polygon opacity="0" points="158.194,548 0,274 158.194,0 1137.806,0 1296,274 1137.806,548" />
		<polygon opacity=".6" fill="#E60012" points="159.349,546 2.31,274 159.349,2 1136.651,2 1293.69,274 1136.651,546" />
		<defs>
			<polygon id="a" points="159.349,546 2.31,274 159.349,2 1136.651,2 1293.69,274 1136.651,546" />
		</defs>
		<clipPath id="b">
			<use xlink:href="#a" overflow="visible" />
		</clipPath>
		<g opacity=".4" clip-path="url(#b)" stroke="#C41226" stroke-width="4" stroke-miterlimit="10" fill="none">
			<path d="M159.349 461l-24.537-42.5 24.537-42.5h49.075l24.537 42.5-24.538 42.5h-49.074zm-24.538-42.5l24.537-42.5-24.537-42.5h-49.075l-24.537 42.5 24.537 42.5h49.075zm0 85l24.537-42.5-24.537-42.5h-49.075l-24.537 42.5 24.537 42.5h49.075zm73.612 42.5l24.537-42.5-24.537-42.5h-49.075l-24.537 42.5 24.537 42.5h49.075zm0-170l24.537-42.5-24.537-42.5h-49.075l-24.537 42.5 24.537 42.5h49.075zm-73.612-42.5l24.537-42.5-24.537-42.5h-49.075l-24.537 42.5 24.537 42.5h49.075zm-73.612 42.5l24.537-42.5-24.537-42.5h-49.075l-24.537 42.5 24.537 42.5h49.075zm0-85l24.537-42.5-24.537-42.5h-49.075l-24.537 42.5 24.537 42.5h49.075zm73.612-42.5l24.537-42.5-24.537-42.5h-49.075l-24.537 42.5 24.537 42.5h49.075zm-73.612-42.5l24.537-42.5-24.537-42.5h-49.075l-24.537 42.5 24.537 42.5h49.075zm73.612-42.5l24.537-42.5-24.537-42.5h-49.075l-24.537 42.5 24.537 42.5h49.075zm73.612-42.5l24.537-42.5-24.537-42.5h-49.075l-24.537 42.5 24.537 42.5h49.075zm73.613 212.5l24.537-42.5-24.537-42.5h-49.075l-24.538 42.5 24.537 42.5h49.076zm-220.837 127.5l24.537-42.5-24.537-42.5h-49.075l-24.537 42.5 24.537 42.5h49.075zm0 85l24.537-42.5-24.537-42.5h-49.075l-24.537 42.5 24.537 42.5h49.075zm-73.612-212.5l24.537-42.5-24.537-42.5h-49.075l-24.537 42.5 24.537 42.5h49.075zm0 85l24.537-42.5-24.537-42.5h-49.075l-24.537 42.5 24.537 42.5h49.075zm0 85l24.537-42.5-24.537-42.5h-49.075l-24.537 42.5 24.537 42.5h49.075zm-73.612 42.5l24.537-42.5-24.537-42.5h-49.075l-24.537 42.5 24.537 42.5h49.075zm147.224-425l24.537-42.5-24.537-42.5h-49.075l-24.537 42.5 24.537 42.5h49.075z" />
			<path d="M1293.69 189l-24.537-42.5 24.537-42.5h49.075l24.537 42.5-24.537 42.5h-49.075zm-24.537-42.5l24.537-42.5-24.537-42.5h-49.075l-24.537 42.5 24.537 42.5h49.075zm0 85l24.537-42.5-24.537-42.5h-49.075l-24.537 42.5 24.537 42.5h49.075zm73.612 42.5l24.537-42.5-24.537-42.5h-49.075l-24.537 42.5 24.537 42.5h49.075zm0-170l24.537-42.5-24.537-42.5h-49.075l-24.537 42.5 24.537 42.5h49.075zm-73.612-42.5l24.537-42.5-24.537-42.5h-49.075l-24.537 42.5 24.537 42.5h49.075zm-73.612 42.5l24.537-42.5-24.537-42.5h-49.075l-24.537 42.5 24.537 42.5h49.075zm0-85l24.537-42.5-24.537-42.5h-49.075l-24.537 42.5 24.537 42.5h49.075zm73.612-42.5l24.537-42.5-24.537-42.5h-49.075l-24.537 42.5 24.537 42.5h49.075zm-73.612-42.5l24.537-42.5-24.537-42.5h-49.075l-24.537 42.5 24.537 42.5h49.075zm73.612-42.5l24.537-42.5-24.537-42.5h-49.075l-24.537 42.5 24.537 42.5h49.075zm73.612-42.5l24.537-42.5-24.537-42.5h-49.075l-24.537 42.5 24.537 42.5h49.075zm73.612 212.5l24.537-42.5-24.537-42.5h-49.075l-24.537 42.5 24.537 42.5h49.075zm-220.836 127.5l24.537-42.5-24.537-42.5h-49.075l-24.537 42.5 24.537 42.5h49.075zm0 85l24.537-42.5-24.537-42.5h-49.075l-24.537 42.5 24.537 42.5h49.075zm-73.612-212.5l24.537-42.5-24.537-42.5h-49.075l-24.537 42.5 24.537 42.5h49.075zm0 85l24.537-42.5-24.537-42.5h-49.075l-24.537 42.5 24.537 42.5h49.075zm0 85l24.537-42.5-24.537-42.5h-49.075l-24.537 42.5 24.537 42.5h49.075zm-73.612 42.5l24.537-42.5-24.537-42.5h-49.075l-24.537 42.5 24.537 42.5h49.075zm147.224-425l24.537-42.5-24.537-42.5h-49.075l-24.537 42.5 24.537 42.5h49.075z" />
			<path d="M1293.69 733l-24.537-42.5 24.537-42.5h49.075l24.537 42.5-24.537 42.5h-49.075zm-24.537-42.5l24.537-42.5-24.537-42.5h-49.075l-24.537 42.5 24.537 42.5h49.075zm0 85l24.537-42.5-24.537-42.5h-49.075l-24.537 42.5 24.537 42.5h49.075zm73.612 42.5l24.537-42.5-24.537-42.5h-49.075l-24.537 42.5 24.537 42.5h49.075zm0-170l24.537-42.5-24.537-42.5h-49.075l-24.537 42.5 24.537 42.5h49.075zm-73.612-42.5l24.537-42.5-24.537-42.5h-49.075l-24.537 42.5 24.537 42.5h49.075zm-73.612 42.5l24.537-42.5-24.537-42.5h-49.075l-24.537 42.5 24.537 42.5h49.075zm0-85l24.537-42.5-24.537-42.5h-49.075l-24.537 42.5 24.537 42.5h49.075zm73.612-42.5l24.537-42.5-24.537-42.5h-49.075l-24.537 42.5 24.537 42.5h49.075zm-73.612-42.5l24.537-42.5-24.537-42.5h-49.075l-24.537 42.5 24.537 42.5h49.075zm73.612-42.5l24.537-42.5-24.537-42.5h-49.075l-24.537 42.5 24.537 42.5h49.075zm73.612-42.5l24.537-42.5-24.537-42.5h-49.075l-24.537 42.5 24.537 42.5h49.075zm73.612 212.5l24.537-42.5-24.537-42.5h-49.075l-24.537 42.5 24.537 42.5h49.075zm-220.836 127.5l24.537-42.5-24.537-42.5h-49.075l-24.537 42.5 24.537 42.5h49.075zm0 85l24.537-42.5-24.537-42.5h-49.075l-24.537 42.5 24.537 42.5h49.075zm-73.612-212.5l24.537-42.5-24.537-42.5h-49.075l-24.537 42.5 24.537 42.5h49.075zm0 85l24.537-42.5-24.537-42.5h-49.075l-24.537 42.5 24.537 42.5h49.075zm0 85l24.537-42.5-24.537-42.5h-49.075l-24.537 42.5 24.537 42.5h49.075zm-73.612 42.5l24.537-42.5-24.537-42.5h-49.075l-24.537 42.5 24.537 42.5h49.075zm147.224-425l24.537-42.5-24.537-42.5h-49.075l-24.537 42.5 24.537 42.5h49.075z" />
		</g>
		<path opacity=".75" fill="#900612" d="M245.263 253.315v-9.143h-18.409v31.684h21.915c4.884 0 8.766 3.882 8.766 8.641v38.946c0 4.759-3.882 8.641-8.766 8.641h-25.547c-4.758 0-8.641-3.882-8.641-8.641v-12.773h12.272v9.142h18.409v-31.683h-22.041c-4.758 0-8.641-3.883-8.641-8.641v-38.946c0-4.759 3.882-8.642 8.641-8.642h34.313v21.415h-12.271zm55.351 84.279c0 4.884-4.007 9.518-8.766 10.52l-27.049 5.385v-12.272l23.543-4.759v-4.383h-14.902c-4.758 0-8.641-3.882-8.641-8.641v-62.865h12.272v59.233h11.271v-59.233h12.272v77.015zm32.184-55.602v-9.142h-11.271v17.281h14.777c4.884 0 8.766 3.883 8.766 8.767v24.545c0 4.759-3.882 8.641-8.766 8.641h-18.409c-4.758 0-8.641-3.882-8.641-8.641v-12.773h12.272v9.142h11.271v-17.407h-14.902c-4.758 0-8.641-3.882-8.641-8.641v-24.545c0-4.759 3.882-8.641 8.641-8.641h27.175v21.414h-12.272zm56.479 37.82v12.272h-27.175c-4.758 0-8.641-3.882-8.641-8.641v-84.404h12.272v21.539h23.543v12.272h-23.543v46.961h23.544zm41.952-18.91c0 4.759-3.882 8.766-8.766 8.766h-14.777v10.144h23.543v12.272h-27.175c-4.758 0-8.641-3.882-8.641-8.641v-54.225c0-4.759 3.882-8.641 8.641-8.641h27.175v40.325zm-12.273-3.631v-24.42h-11.271v24.42h11.271zm78.644-36.693v71.506h-12.272v-59.233h-10.144v59.233h-12.397v-59.233h-10.144v59.233h-12.272v-62.865c0-4.759 3.882-8.641 8.641-8.641h48.588zm73.759 71.506h-12.272l-2.63-36.817h-13.149l-2.63 36.817h-12.272l6.512-91.542c.376-4.759 4.508-8.642 9.267-8.642h20.037l7.137 100.184zm-15.779-49.09l-2.755-38.821h-5.886l-2.755 38.821h11.396zm60.611-22.416v71.506h-12.272v-59.233h-11.271v59.233h-12.272v-62.865c0-4.759 3.882-8.641 8.641-8.641h27.174zm44.456 0v71.506h-12.272v-59.233h-11.271v59.233h-12.272v-62.865c0-4.759 3.882-8.641 8.641-8.641h27.174zm35.691 71.506h-18.409c-4.758 0-8.641-3.882-8.641-8.641v-54.225c0-4.759 3.882-8.641 8.641-8.641h18.409c4.884 0 8.766 3.882 8.766 8.641v54.225c0 4.759-3.882 8.641-8.766 8.641zm-3.506-59.233h-11.271v46.961h11.271v-46.961zm56.729-12.273v71.506h-27.175c-4.758 0-8.641-3.882-8.641-8.641v-62.865h12.272v59.233h11.271v-59.233h12.273zm44.456 0v71.506h-12.272v-59.233h-11.271v59.233h-12.272v-62.865c0-4.759 3.882-8.641 8.641-8.641h27.174zm32.184 21.414v-9.142h-11.271v46.961h11.271v-9.142h12.272v12.773c0 4.759-3.882 8.641-8.766 8.641h-18.409c-4.758 0-8.641-3.882-8.641-8.641v-54.225c0-4.759 3.882-8.641 8.641-8.641h27.175v21.414h-12.272zm54.975 18.91c0 4.759-3.882 8.766-8.766 8.766h-14.777v10.144h23.543v12.272h-27.175c-4.758 0-8.641-3.882-8.641-8.641v-54.225c0-4.759 3.882-8.641 8.641-8.641h27.175v40.325zm-12.272-3.631v-24.42h-11.271v24.42h11.271zm78.644-36.693v71.506h-12.272v-59.233h-10.144v59.233h-12.397v-59.233h-10.144v59.233h-12.272v-62.865c0-4.759 3.882-8.641 8.641-8.641h48.588zm44.456 40.324c0 4.759-3.882 8.766-8.766 8.766h-14.777v10.144h23.543v12.272h-27.175c-4.759 0-8.641-3.882-8.641-8.641v-54.225c0-4.759 3.882-8.641 8.641-8.641h27.175v40.325zm-12.273-3.631v-24.42h-11.271v24.42h11.271zm57.23-36.693v71.506h-12.271v-59.233h-11.271v59.233h-12.271v-62.865c0-4.759 3.882-8.641 8.641-8.641h27.172zm44.457 59.234v12.272h-27.175c-4.759 0-8.641-3.882-8.641-8.641v-84.404h12.272v21.539h23.543v12.272h-23.543v46.961h23.544z" />
		<polygon stroke="#921A18" stroke-width="6" stroke-miterlimit="10" points="159.349,546 2.31,274 159.349,2 1136.651,2 1293.69,274 1136.651,546" fill="none" />
	</g>
</svg>