<?xml version="1.0" encoding="utf-8"?>
<svg xmlns="http://www.w3.org/2000/svg" xmlns:xlink="http://www.w3.org/1999/xlink" width="1296" height="548">
	<g>
		<polygon opacity="0" points="158.194,548 0,274 158.194,0 1137.806,0 1296,274 1137.806,548" />
		<polygon opacity=".25" fill="#BC0006" points="159.349,546 2.31,274 159.349,2 1136.651,2 1293.69,274 1136.651,546" />
		<defs>
			<polygon id="a" points="159.349,546 2.31,274 159.349,2 1136.651,2 1293.69,274 1136.651,546" />
		</defs>
		<clipPath id="b">
			<use xlink:href="#a" overflow="visible" />
		</clipPath>
		<g opacity=".1" clip-path="url(#b)" stroke="#f00" stroke-width="2.5" stroke-miterlimit="10" fill="none">
			<path d="M159.349 461l-24.537-42.5 24.537-42.5h49.075l24.537 42.5-24.538 42.5h-49.074zm-24.538-42.5l24.537-42.5-24.537-42.5h-49.075l-24.537 42.5 24.537 42.5h49.075zm0 85l24.537-42.5-24.537-42.5h-49.075l-24.537 42.5 24.537 42.5h49.075zm73.612 42.5l24.537-42.5-24.537-42.5h-49.075l-24.537 42.5 24.537 42.5h49.075zm0-170l24.537-42.5-24.537-42.5h-49.075l-24.537 42.5 24.537 42.5h49.075zm-73.612-42.5l24.537-42.5-24.537-42.5h-49.075l-24.537 42.5 24.537 42.5h49.075zm-73.612 42.5l24.537-42.5-24.537-42.5h-49.075l-24.537 42.5 24.537 42.5h49.075zm0-85l24.537-42.5-24.537-42.5h-49.075l-24.537 42.5 24.537 42.5h49.075zm73.612-42.5l24.537-42.5-24.537-42.5h-49.075l-24.537 42.5 24.537 42.5h49.075zm-73.612-42.5l24.537-42.5-24.537-42.5h-49.075l-24.537 42.5 24.537 42.5h49.075zm73.612-42.5l24.537-42.5-24.537-42.5h-49.075l-24.537 42.5 24.537 42.5h49.075zm73.612-42.5l24.537-42.5-24.537-42.5h-49.075l-24.537 42.5 24.537 42.5h49.075zm73.613 212.5l24.537-42.5-24.537-42.5h-49.075l-24.538 42.5 24.537 42.5h49.076zm-220.837 127.5l24.537-42.5-24.537-42.5h-49.075l-24.537 42.5 24.537 42.5h49.075zm0 85l24.537-42.5-24.537-42.5h-49.075l-24.537 42.5 24.537 42.5h49.075zm-73.612-212.5l24.537-42.5-24.537-42.5h-49.075l-24.537 42.5 24.537 42.5h49.075zm0 85l24.537-42.5-24.537-42.5h-49.075l-24.537 42.5 24.537 42.5h49.075zm0 85l24.537-42.5-24.537-42.5h-49.075l-24.537 42.5 24.537 42.5h49.075zm-73.612 42.5l24.537-42.5-24.537-42.5h-49.075l-24.537 42.5 24.537 42.5h49.075zm147.224-425l24.537-42.5-24.537-42.5h-49.075l-24.537 42.5 24.537 42.5h49.075z" />
			<path d="M1293.69 189l-24.537-42.5 24.537-42.5h49.075l24.537 42.5-24.537 42.5h-49.075zm-24.537-42.5l24.537-42.5-24.537-42.5h-49.075l-24.537 42.5 24.537 42.5h49.075zm0 85l24.537-42.5-24.537-42.5h-49.075l-24.537 42.5 24.537 42.5h49.075zm73.612 42.5l24.537-42.5-24.537-42.5h-49.075l-24.537 42.5 24.537 42.5h49.075zm0-170l24.537-42.5-24.537-42.5h-49.075l-24.537 42.5 24.537 42.5h49.075zm-73.612-42.5l24.537-42.5-24.537-42.5h-49.075l-24.537 42.5 24.537 42.5h49.075zm-73.612 42.5l24.537-42.5-24.537-42.5h-49.075l-24.537 42.5 24.537 42.5h49.075zm0-85l24.537-42.5-24.537-42.5h-49.075l-24.537 42.5 24.537 42.5h49.075zm73.612-42.5l24.537-42.5-24.537-42.5h-49.075l-24.537 42.5 24.537 42.5h49.075zm-73.612-42.5l24.537-42.5-24.537-42.5h-49.075l-24.537 42.5 24.537 42.5h49.075zm73.612-42.5l24.537-42.5-24.537-42.5h-49.075l-24.537 42.5 24.537 42.5h49.075zm73.612-42.5l24.537-42.5-24.537-42.5h-49.075l-24.537 42.5 24.537 42.5h49.075zm73.612 212.5l24.537-42.5-24.537-42.5h-49.075l-24.537 42.5 24.537 42.5h49.075zm-220.836 127.5l24.537-42.5-24.537-42.5h-49.075l-24.537 42.5 24.537 42.5h49.075zm0 85l24.537-42.5-24.537-42.5h-49.075l-24.537 42.5 24.537 42.5h49.075zm-73.612-212.5l24.537-42.5-24.537-42.5h-49.075l-24.537 42.5 24.537 42.5h49.075zm0 85l24.537-42.5-24.537-42.5h-49.075l-24.537 42.5 24.537 42.5h49.075zm0 85l24.537-42.5-24.537-42.5h-49.075l-24.537 42.5 24.537 42.5h49.075zm-73.612 42.5l24.537-42.5-24.537-42.5h-49.075l-24.537 42.5 24.537 42.5h49.075zm147.224-425l24.537-42.5-24.537-42.5h-49.075l-24.537 42.5 24.537 42.5h49.075z" />
			<path d="M1293.69 733l-24.537-42.5 24.537-42.5h49.075l24.537 42.5-24.537 42.5h-49.075zm-24.537-42.5l24.537-42.5-24.537-42.5h-49.075l-24.537 42.5 24.537 42.5h49.075zm0 85l24.537-42.5-24.537-42.5h-49.075l-24.537 42.5 24.537 42.5h49.075zm73.612 42.5l24.537-42.5-24.537-42.5h-49.075l-24.537 42.5 24.537 42.5h49.075zm0-170l24.537-42.5-24.537-42.5h-49.075l-24.537 42.5 24.537 42.5h49.075zm-73.612-42.5l24.537-42.5-24.537-42.5h-49.075l-24.537 42.5 24.537 42.5h49.075zm-73.612 42.5l24.537-42.5-24.537-42.5h-49.075l-24.537 42.5 24.537 42.5h49.075zm0-85l24.537-42.5-24.537-42.5h-49.075l-24.537 42.5 24.537 42.5h49.075zm73.612-42.5l24.537-42.5-24.537-42.5h-49.075l-24.537 42.5 24.537 42.5h49.075zm-73.612-42.5l24.537-42.5-24.537-42.5h-49.075l-24.537 42.5 24.537 42.5h49.075zm73.612-42.5l24.537-42.5-24.537-42.5h-49.075l-24.537 42.5 24.537 42.5h49.075zm73.612-42.5l24.537-42.5-24.537-42.5h-49.075l-24.537 42.5 24.537 42.5h49.075zm73.612 212.5l24.537-42.5-24.537-42.5h-49.075l-24.537 42.5 24.537 42.5h49.075zm-220.836 127.5l24.537-42.5-24.537-42.5h-49.075l-24.537 42.5 24.537 42.5h49.075zm0 85l24.537-42.5-24.537-42.5h-49.075l-24.537 42.5 24.537 42.5h49.075zm-73.612-212.5l24.537-42.5-24.537-42.5h-49.075l-24.537 42.5 24.537 42.5h49.075zm0 85l24.537-42.5-24.537-42.5h-49.075l-24.537 42.5 24.537 42.5h49.075zm0 85l24.537-42.5-24.537-42.5h-49.075l-24.537 42.5 24.537 42.5h49.075zm-73.612 42.5l24.537-42.5-24.537-42.5h-49.075l-24.537 42.5 24.537 42.5h49.075zm147.224-425l24.537-42.5-24.537-42.5h-49.075l-24.537 42.5 24.537 42.5h49.075z" />
		</g>
		<path opacity=".75" fill="#A80000" d="M253.497 167.501l-30.195 121.026v76.972h-24.502v-76.972l-30.195-121.026h24.255l18.067 72.517 18.314-72.517h24.256zm69.794 197.998h-36.382c-9.405 0-17.077-7.673-17.077-17.077v-107.167c0-9.404 7.672-17.077 17.077-17.077h36.382c9.652 0 17.325 7.673 17.325 17.077v107.167c0 9.404-7.673 17.077-17.325 17.077zm-6.93-117.066h-22.275v92.812h22.275v-92.812zm112.116-24.255v141.321h-53.707c-9.405 0-17.077-7.673-17.077-17.077v-124.244h24.255v117.066h22.275v-117.066h24.254zm131.666 141.321h-53.707c-9.405 0-17.077-7.673-17.077-17.077v-62.864c0-9.405 7.672-17.077 17.077-17.077h29.452v-10.891l-46.529-9.157v-24.255l53.459 10.643c9.157 1.732 17.325 11.138 17.325 20.542v110.136zm-24.502-72.765h-22.027v48.51h22.027v-48.51zm113.103-68.556v24.255l-46.529 9.157v107.909h-24.255v-110.137c0-9.404 8.167-18.81 17.077-20.542l53.707-10.642zm80.682 79.694c0 9.405-7.672 17.325-17.325 17.325h-29.205v20.047h46.529v24.255h-53.707c-9.405 0-17.077-7.673-17.077-17.077v-107.167c0-9.404 7.672-17.077 17.077-17.077h53.707v79.694zm-24.254-7.178v-48.262h-22.275v48.262h22.275zm156.91-129.193v197.998h-53.707c-9.405 0-17.077-7.673-17.077-17.077v-107.167c0-9.404 7.672-17.077 17.077-17.077h29.453v-56.677h24.254zm-24.255 80.932h-22.275v92.812h22.275v-92.812zm112.116 55.439c0 9.405-7.673 17.325-17.325 17.325h-29.205v20.047h46.53v24.255h-53.708c-9.405 0-17.077-7.673-17.077-17.077v-107.167c0-9.404 7.672-17.077 17.077-17.077h53.708v79.694zm-24.255-7.178v-48.262h-22.275v48.262h22.275zm113.106 68.805h-53.707c-9.404 0-17.077-7.673-17.077-17.077v-62.864c0-9.405 7.673-17.077 17.077-17.077h29.452v-10.891l-46.529-9.157v-24.255l53.459 10.643c9.158 1.732 17.325 11.138 17.325 20.542v110.136zm-24.502-72.765h-22.027v48.51h22.027v-48.51zm113.104-125.233v197.998h-53.707c-9.404 0-17.077-7.673-17.077-17.077v-107.167c0-9.404 7.673-17.077 17.077-17.077h29.452v-56.677h24.255zm-24.255 80.932h-22.274v92.812h22.274v-92.812z" />
		<polygon stroke="#A60000" stroke-width="4" stroke-miterlimit="10" points="159.349,546 2.31,274 159.349,2 1136.651,2 1293.69,274 1136.651,546" fill="none" />
	</g>
</svg>