<?xml version="1.0" encoding="utf-8"?>
<svg xmlns="http://www.w3.org/2000/svg" width="1600" height="2000">
	<radialGradient id="a" cx="800" cy="1000" r="905.538" gradientUnits="userSpaceOnUse">
		<stop offset="0" stop-color="#4AA0FA" />
		<stop offset=".206" stop-color="#4A9EF7" />
		<stop offset=".371" stop-color="#4998ED" />
		<stop offset=".522" stop-color="#478EDC" />
		<stop offset=".664" stop-color="#4481C4" />
		<stop offset=".75" stop-color="#4276B2" />
		<stop offset="1" stop-color="#3C5C88" />
	</radialGradient>
	<rect fill="url(#a)" width="1600" height="2000" />
	<path fill="#FBFBFB" d="M1236.714 1934.666h7.752v18.168h-7.752v-18.168zm34.882 18.168h6.783v-18.168h-6.783v18.168zm43.604 0h5.814v-18.168h-5.814v18.168zm-91.083 0h4.845v-18.168h-4.845v18.168zm69.766 0h5.814v-18.168h-5.814v18.168zm-11.628 0h7.752v-18.168h-7.752v18.168zm42.634 0h3.876v-18.168h-3.876v18.168zm-122.089 0h13.565v-18.168h-13.565v18.168zm-80.424 0h5.814v-18.168h-5.814v18.168zm18.41 0h5.814v-18.168h-5.814v18.168zm-8.721 0h4.845v-18.168h-4.845v18.168zm61.045 0h5.814v-18.168h-5.814v18.168zm-22.286 0h6.783v-18.168h-6.783v18.168zm-16.473 0h12.597v-18.168h-12.597v18.168zm99.804 0h7.752v-18.168h-7.752v18.168zm227.707 0h9.69v-18.168h-9.69v18.168zm-17.442 0h13.566v-18.168h-13.566v18.168zm-31.006 0h13.566v-18.168h-13.566v18.168zm17.441 0h9.69v-18.168h-9.69v18.168zm-118.214 0h5.814v-18.168h-5.814v18.168zm184.104 0h5.814v-18.168h-5.814v18.168zm-408.904 0h4.845v-18.168h-4.845v18.168zm387.586 0h17.441v-18.168h-17.441v18.168zm-131.779 0h3.876v-18.168h-3.876v18.168zm-21.317 0h9.69v-18.168h-9.69v18.168zm29.069 0h7.752v-18.168h-7.752v18.168zm19.379 0h7.752v-18.168h-7.752v18.168zm11.628 0h9.69v-18.168h-9.69v18.168zm13.565 0h5.814v-18.168h-5.814v18.168zm114.338-18.168h-3.876v18.168h3.876v-18.168zm-719.941 18.168h6.783v-18.168h-6.783v18.168zm-13.566 0h5.814v-18.168h-5.814v18.168zm30.038 0h7.752v-18.168h-7.752v18.168zm30.038 0h5.814v-18.168h-5.814v18.168zm-12.596 0h6.783v-18.168h-6.783v18.168zm22.286 0h5.814v-18.168h-5.814v18.168zm-90.114 0h12.597v-18.168h-12.597v18.168zm-48.448 0h12.597v-18.168h-12.597v18.168zm38.758 0h5.814v-18.168h-5.814v18.168zm767.421 0h5.814v-18.168h-5.814v18.168zm-833.31 0v-18.168h-3.876v18.168h3.876zm3.875 0h5.814v-18.168h-5.814v18.168zm39.728 0h6.783v-18.168h-6.783v18.168zm-30.038 0h5.814v-18.168h-5.814v18.168zm173.445 0h5.814v-18.168h-5.814v18.168zm167.631 0h7.752v-18.168h-7.752v18.168zm-31.007 0h9.69v-18.168h-9.69v18.168zm-17.441 0h13.565v-18.168h-13.565v18.168zm31.007 0h13.565v-18.168h-13.565v18.168zm-49.418 0h6.783v-18.168h-6.783v18.168zm100.773 0h4.845v-18.168h-4.845v18.168zm-22.286 0h18.41v-18.168h-18.41v18.168zm31.006 0h5.814v-18.168h-5.814v18.168zm-161.817 0h5.814v-18.168h-5.814v18.168zm-19.379 0h7.752v-18.168h-7.752v18.168zm60.076 0h7.752v-18.168h-7.752v18.168zm-70.735 0h6.783v-18.168h-6.783v18.168zm-8.72 0h4.845v-18.168h-4.845v18.168zm65.889 0h7.752v-18.168h-7.752v18.168zm-17.441 0h5.814v-18.168h-5.814v18.168z" />
	<g fill="#FBFBFB">
		<path d="M871 391.833c61.544 0 121.36 12.155 177.786 36.127 54.496 23.152 103.503 56.267 145.662 98.425 42.158 42.158 75.273 91.166 98.425 145.661 23.972 56.428 36.127 116.243 36.127 177.787v546c0 61.544-12.155 121.36-36.127 177.786-23.152 54.496-56.267 103.503-98.425 145.662-42.158 42.158-91.166 75.273-145.662 98.425-56.427 23.972-116.243 36.127-177.786 36.127h-142c-61.544 0-121.36-12.155-177.786-36.127-54.496-23.152-103.503-56.267-145.662-98.425-42.158-42.158-75.273-91.166-98.425-145.662-23.972-56.426-36.127-116.242-36.127-177.786v-546c0-61.544 12.155-121.36 36.127-177.786 23.152-54.495 56.267-103.503 98.425-145.661 42.158-42.158 91.166-75.273 145.662-98.425 56.426-23.973 116.242-36.128 177.786-36.128h142m0-17h-142c-261.25 0-475 213.75-475 475v546c0 261.25 213.75 475 475 475h142c261.25 0 475-213.75 475-475v-546c0-261.25-213.75-475-475-475z" />
		<path d="M557.691 1402.418h-6.332v-57.956h10.95c11.472 0 18.549 3.576 18.549 16.836 0 13.483-6.853 18.921-16.612 18.921h-6.556v22.199zm0-27.712h5.587c6.406 0 11.099-3.054 11.099-13.036 0-9.237-4.395-11.547-11.919-11.547h-4.768v24.583zm39.485-33.075v60.787h-6.183v-59.818l6.183-.969zm34.193 61.234c-1.192-1.788-2.086-4.396-2.384-7.301-1.713 5.215-6.108 7.673-10.653 7.673-5.438 0-11.025-3.277-11.025-13.483 0-10.429 4.395-13.483 20.858-14.526v-5.14c0-4.842-1.49-7.003-6.555-7.003-3.352 0-6.854 1.118-10.206 2.905l-1.267-5.438c3.501-1.714 8.194-2.979 12.44-2.979 8.716 0 11.472 4.171 11.472 12.217v18.995c0 5.886.894 10.578 2.607 13.111l-5.287.969zm-3.203-22.572c-11.844.82-14.898 2.533-14.898 9.387 0 5.959 3.352 8.269 6.481 8.269 4.395 0 7.449-3.203 8.417-8.12v-9.536zm39.782-16.09c-2.161-.745-4.693-1.192-6.854-1.192-7.748 0-10.802 5.513-10.802 18.027 0 12.068 3.874 16.761 11.1 16.761 2.16 0 4.917-.372 7.002-1.117l.819 5.364c-2.16.67-5.289 1.266-8.492 1.266-11.77 0-16.687-8.119-16.687-22.198 0-15.123 4.619-23.54 16.761-23.54 2.979 0 5.885.521 8.12 1.191l-.967 5.438zm36.876 16.761h-22.944c-.075.67-.075 1.49-.075 1.862 0 9.014 3.278 14.898 11.546 14.898 3.501 0 7.077-.745 9.759-1.937l1.192 5.215c-2.831 1.191-7.002 2.234-11.397 2.234-10.578 0-17.283-5.885-17.283-22.124 0-15.048 5.885-23.615 15.942-23.615 9.088 0 13.26 6.854 13.26 19.07v4.397zm-5.81-4.842c-.074-9.61-2.607-13.409-8.045-13.409-5.065 0-8.417 5.14-8.939 13.409h16.984zm44.029 1.043l-16.463-32.703h7.3l12.516 26.595 12.217-26.595h7.151l-16.389 32.554v25.402h-6.332v-25.253zm60.418 3.128c0 14.303-4.843 23.168-16.091 23.168-11.547 0-16.165-8.939-16.165-23.242 0-13.93 4.692-22.646 16.165-22.646 11.845 0 16.091 8.939 16.091 22.72zm-6.258-.074c0-12.217-3.277-17.356-9.833-17.356s-9.908 5.14-9.908 17.356c0 11.472 3.203 17.879 9.833 17.879 6.779 0 9.908-6.408 9.908-17.879zm44.849-21.529v33.075c0 4.32.298 7.449 1.117 10.354l-5.735.894c-.597-1.639-.969-3.65-1.118-5.14-2.83 3.203-7.002 5.438-11.546 5.438-7.822 0-11.397-4.842-11.397-12.962v-31.659h6.183v30.542c0 5.363 1.937 8.79 6.928 8.79 3.725 0 7.301-2.086 9.387-4.768v-34.564h6.181zm18.701 43.728h-6.184v-31.511c0-5.587-.298-9.237-.968-11.919l5.512-.819c.597 1.713 1.118 4.47 1.267 6.63 2.086-4.022 6.406-6.63 11.993-6.704l-.223 5.735c-4.917.075-9.61 2.235-11.397 6.63v31.958zm42.017-26.817v26.817h-6.332v-57.956h6.332v25.552h22.05v-25.552h6.332v57.956h-6.332v-26.817h-22.05zm62.727 27.264c-1.191-1.788-2.086-4.396-2.384-7.301-1.713 5.215-6.108 7.673-10.652 7.673-5.438 0-11.025-3.277-11.025-13.483 0-10.429 4.396-13.483 20.858-14.526v-5.14c0-4.842-1.489-7.003-6.556-7.003-3.352 0-6.853 1.118-10.205 2.905l-1.267-5.438c3.501-1.714 8.194-2.979 12.44-2.979 8.716 0 11.472 4.171 11.472 12.217v18.995c0 5.886.895 10.578 2.607 13.111l-5.288.969zm-3.203-22.572c-11.844.82-14.898 2.533-14.898 9.387 0 5.959 3.353 8.269 6.48 8.269 4.396 0 7.45-3.203 8.418-8.12v-9.536zm22.724-22.124c.521 1.489.969 3.575 1.117 5.14 2.905-3.277 7.375-5.363 11.695-5.363 7.971 0 11.1 4.768 11.1 12.291v32.182h-6.108v-30.84c0-4.991-1.713-8.418-6.854-8.418-3.575 0-7.226 1.937-9.46 4.618v34.64h-6.184v-35.012c0-2.682-.224-6.184-.819-8.418l5.513-.82zm64.291-16.538v46.782c0 4.098.223 9.833 1.564 13.409l-5.438.968c-.894-1.937-1.341-3.873-1.564-6.257-1.788 3.203-5.438 6.704-11.323 6.704-7.896 0-13.408-5.661-13.408-21.604 0-15.345 4.395-23.986 14.451-23.986 3.8 0 7.301 1.639 9.61 4.246v-19.293l6.108-.969zm-14.601 21.454c-6.481 0-9.237 5.96-9.237 18.326 0 11.248 2.979 16.388 8.492 16.388 4.842 0 7.821-3.501 9.088-6.63.224-1.341.372-3.649.372-5.661v-11.695c0-2.012-.074-4.396-.372-6.108-1.639-2.31-4.544-4.62-8.343-4.62z" />
		<path d="M872 981.084c-10.217 0-18.5 8.283-18.5 18.5v76.966c0 2.75-2.155 4.353-4.789 3.563l-.422-.127c-2.634-.79-4.789-3.687-4.789-6.437v-108.549c0-10.217-8.283-18.5-18.5-18.5s-18.5 8.283-18.5 18.5v98c0 2.75-2.25 5-5 5s-5-2.25-5-5v-111c0-10.217-8.283-18.5-18.5-18.5s-18.5 8.283-18.5 18.5v111c0 2.75-2.25 5-5 5s-5-2.25-5-5v-87.083c0-10.217-8.283-18.5-18.5-18.5s-18.5 8.283-18.5 18.5v142.396c0 2.75-1.291 3.157-2.868.904l-21.843-31.195c-6.811-9.727-20.217-12.093-29.944-5.279-9.727 6.811-12.09 20.217-5.28 29.943l52.532 75c20.556 38.021 53 54.315 95.222 54.315 46.68 0 90.18-29.315 90.18-82.44v-159.977c.001-10.217-8.282-18.5-18.499-18.5z" />
	</g>
	<g fill="#FBFBFB">
		<path id="off" d="M1433 90.5c21.937 0 42.627 8.609 58.259 24.241s24.241 36.322 24.241 58.259v45c0 21.937-8.609 42.627-24.241 58.259-15.632 15.632-36.322 24.241-58.259 24.241h-382c-21.937 0-42.627-8.609-58.259-24.241-15.632-15.632-24.241-36.322-24.241-58.259v-45c0-21.937 8.609-42.627 24.241-58.259 15.632-15.632 36.322-24.241 58.259-24.241h382m0-7.5h-382c-49.5 0-90 40.5-90 90v45c0 49.5 40.5 90 90 90h382c49.5 0 90-40.5 90-90v-45c0-49.5-40.5-90-90-90z" />
		<path d="M1180 196c0 32.585-26.415 59-59 59s-59-26.415-59-59 26.415-59 59-59 59 26.415 59 59zm-81.168 15.616c0 12.294 7.699 18.884 19.836 18.884h18.5v-42.058h-20.217v9.538h8.583v22.982h-7.247c-4.91 0-7.821-2.791-7.821-7.629v-35.57c0-4.721 3.216-7.632 8.202-7.632h16.593v-9.631h-15.642c-12.123 0-20.787 6.374-20.787 18.788v32.328z" />
		<path d="M1251.899 237.732h-7.479v-68.462h12.936c13.552 0 21.911 4.224 21.911 19.887 0 15.928-8.096 22.352-19.623 22.352h-7.744v26.223zm0-32.735h6.6c7.568 0 13.112-3.608 13.112-15.4 0-10.912-5.192-13.639-14.08-13.639h-5.632v29.039zm64.241 33.263c-1.408-2.112-2.464-5.192-2.816-8.624-2.023 6.16-7.216 9.063-12.584 9.063-6.424 0-13.023-3.872-13.023-15.927 0-12.32 5.192-15.928 24.64-17.16v-6.072c0-5.72-1.76-8.271-7.744-8.271-3.96 0-8.096 1.32-12.056 3.432l-1.496-6.424c4.137-2.024 9.68-3.52 14.696-3.52 10.295 0 13.552 4.928 13.552 14.432v22.439c0 6.952 1.056 12.496 3.079 15.488l-6.248 1.144zm-3.785-26.663c-13.992.968-17.6 2.992-17.6 11.088 0 7.04 3.96 9.768 7.656 9.768 5.191 0 8.799-3.784 9.943-9.592v-11.264zm28.865-42.327v7.479h-8.008v-7.479h8.008zm-.353 16.808v51.654h-7.304v-51.654h7.304zm48.047-20.152v55.262c0 4.84.265 11.616 1.849 15.839l-6.424 1.144c-1.057-2.288-1.584-4.576-1.849-7.392-2.111 3.784-6.424 7.919-13.375 7.919-9.328 0-15.84-6.688-15.84-25.519 0-18.127 5.192-28.335 17.071-28.335 4.488 0 8.624 1.936 11.352 5.016v-22.79l7.216-1.144zm-17.247 25.344c-7.656 0-10.912 7.04-10.912 21.647 0 13.288 3.521 19.36 10.032 19.36 5.72 0 9.239-4.136 10.735-7.832.265-1.584.44-4.312.44-6.688v-13.815c0-2.376-.088-5.192-.44-7.216-1.935-2.729-5.367-5.456-9.855-5.456z" />
	</g>
	<g fill="#FBFBFB">
		<path d="M549 90.5c21.937 0 42.627 8.609 58.259 24.241 15.632 15.632 24.241 36.322 24.241 58.259v45c0 21.937-8.609 42.627-24.241 58.259-15.632 15.632-36.322 24.241-58.259 24.241h-382c-21.937 0-42.627-8.609-58.259-24.241-15.632-15.632-24.241-36.322-24.241-58.259v-45c0-21.937 8.609-42.627 24.241-58.259s36.322-24.241 58.259-24.241h382m0-7.5h-382c-49.5 0-90 40.5-90 90v45c0 49.5 40.5 90 90 90h382c49.5 0 90-40.5 90-90v-45c0-49.5-40.5-90-90-90z" />
		<path d="M276.5 196c0 32.585-26.415 59-59 59s-59-26.415-59-59 26.415-59 59-59 59 26.415 59 59zm-28.076-29.308l-4.424-4.054-26.5 28.921-26.5-28.92-4.424 4.054 26.855 29.307-26.855 29.308 4.424 4.054 26.5-28.921 26.5 28.921 4.424-4.054-26.855-29.308 26.855-29.308z" />
		<path d="M352.447 176.926c-3.344-1.144-7.216-1.848-10.912-1.848-12.583 0-17.512 8.624-17.512 29.127 0 19.975 5.984 27.455 17.688 27.455 3.784 0 8.536-.88 11.704-1.936l.88 6.864c-3.432 1.144-8.536 2.024-13.112 2.024-17.863 0-24.991-11-24.991-34.319 0-21.647 5.368-36.079 25.167-36.079 4.312 0 8.712.792 12.232 1.848l-1.144 6.864zm38.016 61.334c-1.408-2.112-2.464-5.192-2.816-8.624-2.024 6.16-7.216 9.063-12.583 9.063-6.424 0-13.023-3.872-13.023-15.927 0-12.32 5.191-15.928 24.639-17.16v-6.072c0-5.72-1.76-8.271-7.744-8.271-3.96 0-8.096 1.32-12.056 3.432l-1.496-6.424c4.136-2.024 9.68-3.52 14.695-3.52 10.296 0 13.552 4.928 13.552 14.432v22.439c0 6.952 1.056 12.496 3.08 15.488l-6.248 1.144zm-3.784-26.663c-13.992.968-17.6 2.992-17.6 11.088 0 7.04 3.96 9.768 7.656 9.768 5.192 0 8.8-3.784 9.944-9.592v-11.264zm26.84-26.136c.616 1.76 1.144 4.224 1.32 6.072 3.432-3.872 8.712-6.336 13.815-6.336 9.416 0 13.112 5.632 13.112 14.52v38.015h-7.216v-36.431c0-5.896-2.024-9.943-8.096-9.943-4.224 0-8.536 2.288-11.176 5.456v40.919h-7.304v-41.359c0-3.168-.264-7.304-.968-9.943l6.513-.97zm68.639 7.128c-2.552-.88-5.544-1.408-8.096-1.408-9.152 0-12.76 6.512-12.76 21.295 0 14.256 4.576 19.8 13.111 19.8 2.552 0 5.808-.44 8.272-1.32l.968 6.336c-2.552.792-6.248 1.496-10.032 1.496-13.903 0-19.711-9.592-19.711-26.224 0-17.863 5.456-27.807 19.8-27.807 3.52 0 6.952.616 9.592 1.408l-1.144 6.424zm43.558 19.8h-27.103c-.088.792-.088 1.76-.088 2.2 0 10.647 3.872 17.599 13.64 17.599 4.136 0 8.36-.88 11.528-2.288l1.408 6.16c-3.344 1.408-8.271 2.64-13.463 2.64-12.496 0-20.416-6.952-20.416-26.135 0-17.775 6.952-27.895 18.832-27.895 10.736 0 15.664 8.096 15.664 22.527v5.192zm-6.863-5.72c-.088-11.352-3.08-15.84-9.504-15.84-5.984 0-9.943 6.072-10.56 15.84h20.064zm26.575-40.743v71.806h-7.304v-70.662l7.304-1.144z" />
	</g>
</svg>