<?xml version="1.0" encoding="utf-8"?>
<svg xmlns="http://www.w3.org/2000/svg" width="274.25" height="97.08">
	<path fill="#9CC98E" d="M102.67 0c8.08 5.05 16.81 9.08 26.16 11.08-7.55 2.72-13.33 8.49-18.98 13.94l-.28-2.7c-14.6 7.91-29.86 15.02-46.2 18.43-11.41 2.45-23.14 1.91-34.74 1.98-9.54-.07-19.11.01-28.63-.72 5.26-2.58 11.03-3.82 16.52-5.81 23.2-7.57 45.91-16.49 68.91-24.6 6.48-2.41 13.24-3.99 20.1-4.8-.97-2.26-1.93-4.53-2.86-6.8zm61.43 24.95l.21-2.7c19.56 10.51 40.65 20.03 63.25 20.37 15.56.13 31.15.39 46.69-.63-5.18-2.45-10.81-3.66-16.17-5.6-19.23-6.37-38.23-13.42-57.24-20.43-10.52-3.74-21.01-8.17-32.27-9.05.91-2.28 1.82-4.56 2.73-6.85-7.96 4.98-16.59 9.04-25.85 10.89 7.29 3.05 13.11 8.53 18.65 14zm-31.91-11.59c3.45-3.15 7.65-6.04 8.4-11.03-2.15 1.75-4.43 3.33-6.48 5.2-1.62 1.47-1.38 3.89-1.92 5.83zm7.9.1c1.28-1.08 1.69-2.82 2.43-4.25-2.52 1.43-5 2.95-7.28 4.75 1.61-.12 3.26-.13 4.85-.5zm-11.29 2.32c1.12-1.51-1.51-3.01-2.49-1.61-1.11 1.48 1.51 2.98 2.49 1.61zm13.1-.62c-1.76.7-3.48 1.52-5.29 2.09-1.51-.38-2.88-1.15-4.29-1.78 1.25 1.59 2.64 3.06 4.16 4.41 2.08-1.23 3.98-2.76 5.42-4.72zm7.37 38.05c.91-3.53 1.76-7.08 2.68-10.61 18.5 20.58 38.64 40.24 62.54 54.48-4.5-7.66-10.09-14.58-15.2-21.81-8.36-11.56-16.22-23.51-22.65-36.26-1.14-2.1-2.09-4.58-4.38-5.67-7.61-4.28-15.62-7.81-23.57-11.39-2.15-.87-3.34-2.94-4.67-4.7 2.11 11.93 2.94 24.06 5.25 35.96zm-47.48-19.84c-1.96.95-2.94 2.98-3.89 4.82-7.21 14.31-16.19 27.64-25.63 40.57-4.37 6.01-8.95 11.91-12.73 18.32 24.02-14.13 43.96-34.05 62.71-54.42.83 3.53 1.57 7.08 2.45 10.6 2.23-11.78 3.46-23.72 4.98-35.6-1.33 1.77-2.58 3.8-4.78 4.57-7.85 3.39-15.65 6.94-23.11 11.14zm45.7-17.65c1.23-1.53-1.51-2.93-2.43-1.47-1.23 1.53 1.49 2.93 2.43 1.47z" />
</svg>