<?xml version="1.0" encoding="utf-8"?>
<svg xmlns="http://www.w3.org/2000/svg" xmlns:xlink="http://www.w3.org/1999/xlink" width="1761" height="289">
	<g id="Duel">
		<g>
			<polygon fill="#FBFBFB" points="923,289 880.5,256.5 838,289 0,289 0,0 838,0 880.5,32.5 923,0 1761,0 1761,289" />
			<linearGradient id="a" gradientUnits="userSpaceOnUse" x1="880.5" y1="280" x2="880.5" y2="9">
				<stop offset="0" stop-color="#E8E6E2" stop-opacity="0" />
				<stop offset=".5" stop-color="#F8F6F4" stop-opacity=".5" />
				<stop offset="1" stop-color="#E8E6E2" />
			</linearGradient>
			<polygon fill="url(#a)" points="926.047,280 880.5,245.17 834.953,280 9,280 9,9 834.953,9 880.5,43.83 926.047,9 1752,9 1752,280" />
		</g>
		<g>
			<polygon fill="#E04062" points="988.5,144.5 880.5,226.5 772.5,144.5 880.5,62.5" />
			<path fill="#FBFBFB" d="M876.087 116.807l-8.342 55.387h-11.058l-8.342-55.387h9.506l4.365 28.809 4.365-28.809h9.506zM903.149 133.394v-7.081h-8.73v13.386h11.446c3.783 0 6.79 3.007 6.79 6.79v19.011c0 3.687-3.007 6.693-6.79 6.693h-14.259c-3.687 0-6.693-3.007-6.693-6.693v-9.894h9.506v7.081h8.73v-13.483h-11.543c-3.687 0-6.693-3.007-6.693-6.692v-19.012c0-3.686 3.007-6.693 6.693-6.693h21.049v16.587h-9.506z" />
		</g>
		<g fill="#A69C96">
			<circle cx="203.5" cy="144.5" r="91" />
			<circle cx="1557.5" cy="144.5" r="91" />
		</g>
		<g fill="#4D4D4D">
			<g>
				<path display="none" id="Kradeel" d="M361.547 137.616l9.233 39.282h-7.938l-6.155-25.999-5.75 15.794v10.205h-7.937v-64.795h7.938v32.641l11.906-32.641h7.938l-9.235 25.513zM399.535 130.65v46.248h-17.576c-3.078 0-5.588-2.511-5.588-5.588v-40.66h7.938v38.31h7.289v-38.31h7.937zM428.29 130.65v7.938l-15.227 2.997v35.313h-7.938v-36.042c0-3.078 2.673-6.156 5.588-6.723l17.577-3.483zM454.695 176.897h-17.575c-3.078 0-5.588-2.511-5.588-5.588v-20.573c0-3.077 2.511-5.588 5.588-5.588h9.638v-3.564l-15.227-2.997v-7.938l17.495 3.483c2.997.567 5.669 3.645 5.669 6.723v36.042zm-8.018-23.811h-7.208v15.874h7.208v-15.874zM483.692 112.103v64.795h-17.576c-3.078 0-5.588-2.511-5.588-5.588v-35.071c0-3.078 2.511-5.589 5.588-5.589h9.638v-18.547h7.938zm-7.937 26.484h-7.289v30.373h7.289v-30.373zM512.447 156.73c0 3.077-2.511 5.669-5.669 5.669h-9.557v6.561h15.227v7.938h-17.576c-3.078 0-5.588-2.511-5.588-5.588v-35.071c0-3.078 2.511-5.589 5.588-5.589h17.576v26.08zm-7.937-2.348v-15.794h-7.289v15.794h7.289zM541.526 156.73c0 3.077-2.511 5.669-5.669 5.669h-9.557v6.561h15.227v7.938h-17.577c-3.078 0-5.588-2.511-5.588-5.588v-35.071c0-3.078 2.511-5.589 5.588-5.589h17.576v26.08zm-7.937-2.348v-15.794h-7.29v15.794h7.29zM561.291 168.96v7.938h-13.85v-64.795h7.938v56.857h5.912z" />
				<path id="Heathcliff" d="M370.781 112.103v64.795h-7.938v-28.429h-11.906v28.429h-7.937v-64.795h7.938v28.429h11.906v-28.429h7.937zM399.535 156.73c0 3.077-2.511 5.669-5.669 5.669h-9.557v6.561h15.227v7.938h-17.576c-3.078 0-5.588-2.511-5.588-5.588v-35.071c0-3.078 2.511-5.589 5.588-5.589h17.576v26.08zm-7.937-2.348v-15.794h-7.289v15.794h7.289zM428.614 176.897h-17.576c-3.078 0-5.588-2.511-5.588-5.588v-20.573c0-3.077 2.511-5.588 5.588-5.588h9.639v-3.564l-15.227-2.997v-7.938l17.495 3.483c2.997.567 5.669 3.645 5.669 6.723v36.042zm-8.018-23.811h-7.208v15.874h7.208v-15.874zM457.611 168.96v7.938h-17.576c-3.078 0-5.588-2.511-5.588-5.588v-54.59h7.938v13.931h15.227v7.938h-15.227v30.373h15.226zM484.745 136.239v40.659h-7.938v-38.31h-7.289v38.31h-7.938v-64.795h7.938v18.547h9.557c3.159 0 5.67 2.511 5.67 5.589zM505.643 144.5v-5.913h-7.289v30.373h7.289v-5.912h7.938v8.262c0 3.077-2.511 5.588-5.669 5.588h-11.906c-3.078 0-5.588-2.511-5.588-5.588v-35.071c0-3.078 2.511-5.589 5.588-5.589h17.576v13.85h-7.939zM531.886 168.96v7.938h-13.85v-64.795h7.938v56.857h5.912zM544.441 117.124v9.233h-7.938v-9.233h7.938zm-7.937 13.526h7.938v46.248h-7.938v-46.248zM557.968 123.118v10.529l15.227-2.997v7.938l-15.227 2.997v35.313h-7.938v-54.509c0-3.159 2.592-6.155 5.588-6.803l17.576-3.483v7.938l-15.226 3.077zM584.697 123.118v10.529l15.227-2.997v7.938l-15.227 2.997v35.313h-7.938v-54.509c0-3.159 2.592-6.155 5.588-6.803l17.576-3.483v7.938l-15.226 3.077z" />
			</g>
			<path id="Kirito" d="M1299.42 137.616l9.232 39.282h-7.938l-6.154-25.999-5.751 15.794v10.205h-7.938v-64.795h7.938v32.641l11.905-32.641h7.938l-9.232 25.513zM1322.181 117.124v9.233h-7.938v-9.233h7.938zm-7.938 13.526h7.938v46.248h-7.938v-46.248zM1350.934 130.65v7.938l-15.227 2.997v35.313h-7.938v-36.042c0-3.078 2.673-6.156 5.588-6.723l17.577-3.483zM1362.112 117.124v9.233h-7.938v-9.233h7.938zm-7.937 13.526h7.938v46.248h-7.938v-46.248zM1390.865 168.96v7.938h-17.576c-3.077 0-5.588-2.511-5.588-5.588v-54.59h7.938v13.931h15.227v7.938h-15.227v30.373h15.226zM1412.33 176.897h-11.906c-3.078 0-5.588-2.511-5.588-5.588v-35.071c0-3.078 2.51-5.589 5.588-5.589h11.906c3.158 0 5.67 2.511 5.67 5.589v35.071c0 3.078-2.512 5.588-5.67 5.588zm-2.267-38.31h-7.289v30.373h7.289v-30.373z" />
		</g>
	</g>
	<g id="Duel for starting animation" display="none">
		<g>
			<polygon fill="#FBFBFB" points="764.232,144.5 880.5,232.778 996.768,144.5 880.5,56.222 880.5,56.222" />
			<defs>
				<polygon id="b" points="764.232,144.5 880.5,232.778 996.768,144.5 880.5,56.222 880.5,56.222" />
			</defs>
			<clipPath id="c">
				<use xlink:href="#b" overflow="visible" />
			</clipPath>
			<linearGradient id="d" gradientUnits="userSpaceOnUse" x1="880.5" y1="280" x2="880.5" y2="9">
				<stop offset="0" stop-color="#E8E6E2" stop-opacity="0" />
				<stop offset=".5" stop-color="#F8F6F4" stop-opacity=".5" />
				<stop offset="1" stop-color="#E8E6E2" />
			</linearGradient>
			<polygon clip-path="url(#c)" fill="url(#d)" points="926.047,280 880.5,245.17 834.953,280 9,280 9,9 834.953,9 880.5,43.83 926.047,9 1752,9 1752,280" />
			<polygon fill="#E04062" points="988.5,144.5 880.5,226.5 772.5,144.5 880.5,62.5" />
			<path fill="#FBFBFB" d="M876.087 116.807l-8.342 55.387h-11.058l-8.342-55.387h9.506l4.365 28.809 4.365-28.809h9.506zM903.149 133.394v-7.081h-8.73v13.386h11.446c3.783 0 6.79 3.007 6.79 6.79v19.011c0 3.687-3.007 6.693-6.79 6.693h-14.259c-3.687 0-6.693-3.007-6.693-6.693v-9.894h9.506v7.081h8.73v-13.483h-11.543c-3.687 0-6.693-3.007-6.693-6.692v-19.012c0-3.686 3.007-6.693 6.693-6.693h21.049v16.587h-9.506z" />
		</g>
		<g>
			<polygon fill="#FBFBFB" points="923,0 880.5,32.5 880.5,56.222 996.768,144.5 880.5,232.778 880.5,256.5 923,289 1761,289 1761,0" />
			<linearGradient id="e" gradientUnits="userSpaceOnUse" x1="1316.25" y1="280" x2="1316.25" y2="9">
				<stop offset="0" stop-color="#E8E6E2" stop-opacity="0" />
				<stop offset=".5" stop-color="#F8F6F4" stop-opacity=".5" />
				<stop offset="1" stop-color="#E8E6E2" />
			</linearGradient>
			<polygon fill="url(#e)" points="926.047,9 880.5,43.83 880.5,56.222 996.768,144.5 880.5,232.778 880.5,245.17 926.047,280 1752,280 1752,9" />
			<path id="Kirito" fill="#4D4D4D" d="M1299.42 137.616l9.232 39.282h-7.938l-6.154-25.999-5.751 15.794v10.205h-7.938v-64.795h7.938v32.641l11.905-32.641h7.938l-9.232 25.513zM1322.181 117.124v9.233h-7.938v-9.233h7.938zm-7.938 13.526h7.938v46.248h-7.938v-46.248zM1350.934 130.65v7.938l-15.227 2.997v35.313h-7.938v-36.042c0-3.078 2.673-6.156 5.588-6.723l17.577-3.483zM1362.112 117.124v9.233h-7.938v-9.233h7.938zm-7.937 13.526h7.938v46.248h-7.938v-46.248zM1390.865 168.96v7.938h-17.576c-3.077 0-5.588-2.511-5.588-5.588v-54.59h7.938v13.931h15.227v7.938h-15.227v30.373h15.226zM1412.33 176.897h-11.906c-3.078 0-5.588-2.511-5.588-5.588v-35.071c0-3.078 2.51-5.589 5.588-5.589h11.906c3.158 0 5.67 2.511 5.67 5.589v35.071c0 3.078-2.512 5.588-5.67 5.588zm-2.267-38.31h-7.289v30.373h7.289v-30.373z" />
			<circle fill="#A69C96" cx="1557.5" cy="144.5" r="91" />
		</g>
		<g>
			<polygon fill="#FBFBFB" points="880.5,56.222 880.5,32.5 838,0 0,0 0,289 838,289 880.5,256.5 880.5,232.778 764.232,144.5" />
			<linearGradient id="f" gradientUnits="userSpaceOnUse" x1="444.75" y1="280" x2="444.75" y2="9">
				<stop offset="0" stop-color="#E8E6E2" stop-opacity="0" />
				<stop offset=".5" stop-color="#F8F6F4" stop-opacity=".5" />
				<stop offset="1" stop-color="#E8E6E2" />
			</linearGradient>
			<polygon fill="url(#f)" points="880.5,56.222 880.5,43.83 834.953,9 9,9 9,280 834.953,280 880.5,245.17 880.5,232.778 764.232,144.5" />
			<g fill="#4D4D4D">
				<path display="none" id="Kradeel" d="M361.547 137.616l9.233 39.282h-7.938l-6.155-25.999-5.75 15.794v10.205h-7.937v-64.795h7.938v32.641l11.906-32.641h7.938l-9.235 25.513zM399.535 130.65v46.248h-17.576c-3.078 0-5.588-2.511-5.588-5.588v-40.66h7.938v38.31h7.289v-38.31h7.937zM428.29 130.65v7.938l-15.227 2.997v35.313h-7.938v-36.042c0-3.078 2.673-6.156 5.588-6.723l17.577-3.483zM454.695 176.897h-17.575c-3.078 0-5.588-2.511-5.588-5.588v-20.573c0-3.077 2.511-5.588 5.588-5.588h9.638v-3.564l-15.227-2.997v-7.938l17.495 3.483c2.997.567 5.669 3.645 5.669 6.723v36.042zm-8.018-23.811h-7.208v15.874h7.208v-15.874zM483.692 112.103v64.795h-17.576c-3.078 0-5.588-2.511-5.588-5.588v-35.071c0-3.078 2.511-5.589 5.588-5.589h9.638v-18.547h7.938zm-7.937 26.484h-7.289v30.373h7.289v-30.373zM512.447 156.73c0 3.077-2.511 5.669-5.669 5.669h-9.557v6.561h15.227v7.938h-17.576c-3.078 0-5.588-2.511-5.588-5.588v-35.071c0-3.078 2.511-5.589 5.588-5.589h17.576v26.08zm-7.937-2.348v-15.794h-7.289v15.794h7.289zM541.526 156.73c0 3.077-2.511 5.669-5.669 5.669h-9.557v6.561h15.227v7.938h-17.577c-3.078 0-5.588-2.511-5.588-5.588v-35.071c0-3.078 2.511-5.589 5.588-5.589h17.576v26.08zm-7.937-2.348v-15.794h-7.29v15.794h7.29zM561.291 168.96v7.938h-13.85v-64.795h7.938v56.857h5.912z" />
				<path id="Heathcliff" d="M370.781 112.103v64.795h-7.938v-28.429h-11.906v28.429h-7.937v-64.795h7.938v28.429h11.906v-28.429h7.937zM399.535 156.73c0 3.077-2.511 5.669-5.669 5.669h-9.557v6.561h15.227v7.938h-17.576c-3.078 0-5.588-2.511-5.588-5.588v-35.071c0-3.078 2.511-5.589 5.588-5.589h17.576v26.08zm-7.937-2.348v-15.794h-7.289v15.794h7.289zM428.614 176.897h-17.576c-3.078 0-5.588-2.511-5.588-5.588v-20.573c0-3.077 2.511-5.588 5.588-5.588h9.639v-3.564l-15.227-2.997v-7.938l17.495 3.483c2.997.567 5.669 3.645 5.669 6.723v36.042zm-8.018-23.811h-7.208v15.874h7.208v-15.874zM457.611 168.96v7.938h-17.576c-3.078 0-5.588-2.511-5.588-5.588v-54.59h7.938v13.931h15.227v7.938h-15.227v30.373h15.226zM484.745 136.239v40.659h-7.938v-38.31h-7.289v38.31h-7.938v-64.795h7.938v18.547h9.557c3.159 0 5.67 2.511 5.67 5.589zM505.643 144.5v-5.913h-7.289v30.373h7.289v-5.912h7.938v8.262c0 3.077-2.511 5.588-5.669 5.588h-11.906c-3.078 0-5.588-2.511-5.588-5.588v-35.071c0-3.078 2.511-5.589 5.588-5.589h17.576v13.85h-7.939zM531.886 168.96v7.938h-13.85v-64.795h7.938v56.857h5.912zM544.441 117.124v9.233h-7.938v-9.233h7.938zm-7.937 13.526h7.938v46.248h-7.938v-46.248zM557.968 123.118v10.529l15.227-2.997v7.938l-15.227 2.997v35.313h-7.938v-54.509c0-3.159 2.592-6.155 5.588-6.803l17.576-3.483v7.938l-15.226 3.077zM584.697 123.118v10.529l15.227-2.997v7.938l-15.227 2.997v35.313h-7.938v-54.509c0-3.159 2.592-6.155 5.588-6.803l17.576-3.483v7.938l-15.226 3.077z" />
			</g>
			<circle fill="#A69C96" cx="203.5" cy="144.5" r="91" />
		</g>
	</g>
	<g id="Duel result" display="none">
		<g opacity=".5" id="Right lost">
			<g>
				<polygon fill="#FBFBFB" points="880.5,32.5 923,0 1761,0 1761,289 923,289 880.5,256.5" />
				<linearGradient id="g" gradientUnits="userSpaceOnUse" x1="1316.25" y1="280" x2="1316.25" y2="9">
					<stop offset="0" stop-color="#E8E6E2" stop-opacity="0" />
					<stop offset=".5" stop-color="#F8F6F4" stop-opacity=".5" />
					<stop offset="1" stop-color="#E8E6E2" />
				</linearGradient>
				<polygon fill="url(#g)" points="880.5,43.83 926.047,9 1752,9 1752,280 926.047,280 880.5,245.17" />
			</g>
			<polygon fill="#E04062" points="880.5,62.5 988.5,144.5 880.5,226.5" />
			<path fill="#FBFBFB" d="M903.149 133.394v-7.081h-8.73v13.386h11.446c3.783 0 6.79 3.007 6.79 6.79v19.011c0 3.687-3.007 6.693-6.79 6.693h-14.259c-3.687 0-6.693-3.007-6.693-6.693v-9.894h9.506v7.081h8.73v-13.483h-11.543c-3.687 0-6.693-3.007-6.693-6.692v-19.012c0-3.686 3.007-6.693 6.693-6.693h21.049v16.587h-9.506z" />
			<circle fill="#A69C96" cx="1557.5" cy="144.5" r="91" />
			<path fill="#4D4D4D" d="M1299.42 137.616l9.232 39.282h-7.938l-6.154-25.999-5.751 15.794v10.205h-7.938v-64.795h7.938v32.641l11.905-32.641h7.938l-9.232 25.513zM1322.181 117.124v9.233h-7.938v-9.233h7.938zm-7.938 13.526h7.938v46.248h-7.938v-46.248zM1350.934 130.65v7.938l-15.227 2.997v35.313h-7.938v-36.042c0-3.078 2.673-6.156 5.588-6.723l17.577-3.483zM1362.112 117.124v9.233h-7.938v-9.233h7.938zm-7.937 13.526h7.938v46.248h-7.938v-46.248zM1390.865 168.96v7.938h-17.576c-3.077 0-5.588-2.511-5.588-5.588v-54.59h7.938v13.931h15.227v7.938h-15.227v30.373h15.226zM1412.33 176.897h-11.906c-3.078 0-5.588-2.511-5.588-5.588v-35.071c0-3.078 2.51-5.589 5.588-5.589h11.906c3.158 0 5.67 2.511 5.67 5.589v35.071c0 3.078-2.512 5.588-5.67 5.588zm-2.267-38.31h-7.289v30.373h7.289v-30.373z" />
		</g>
		<g id="Right won">
			<polygon fill="#FA966E" points="880.5,32.5 923,0 1761,0 1761,289 923,289 880.5,256.5" />
			<polygon fill="#FBFBFB" points="880.5,62.5 988.5,144.5 880.5,226.5" />
			<path fill="#E04062" d="M903.149 133.394v-7.081h-8.73v13.386h11.446c3.783 0 6.79 3.007 6.79 6.79v19.011c0 3.687-3.007 6.693-6.79 6.693h-14.259c-3.687 0-6.693-3.007-6.693-6.693v-9.894h9.506v7.081h8.73v-13.483h-11.543c-3.687 0-6.693-3.007-6.693-6.692v-19.012c0-3.686 3.007-6.693 6.693-6.693h21.049v16.587h-9.506z" />
			<circle fill="#FBFBFB" cx="1557.5" cy="144.5" r="91" />
			<path fill="#FBFBFB" d="M1299.42 137.616l9.232 39.282h-7.938l-6.154-25.999-5.751 15.794v10.205h-7.938v-64.795h7.938v32.641l11.905-32.641h7.938l-9.232 25.513zM1322.181 117.124v9.233h-7.938v-9.233h7.938zm-7.938 13.526h7.938v46.248h-7.938v-46.248zM1350.934 130.65v7.938l-15.227 2.997v35.313h-7.938v-36.042c0-3.078 2.673-6.156 5.588-6.723l17.577-3.483zM1362.112 117.124v9.233h-7.938v-9.233h7.938zm-7.937 13.526h7.938v46.248h-7.938v-46.248zM1390.865 168.96v7.938h-17.576c-3.077 0-5.588-2.511-5.588-5.588v-54.59h7.938v13.931h15.227v7.938h-15.227v30.373h15.226zM1412.33 176.897h-11.906c-3.078 0-5.588-2.511-5.588-5.588v-35.071c0-3.078 2.51-5.589 5.588-5.589h11.906c3.158 0 5.67 2.511 5.67 5.589v35.071c0 3.078-2.512 5.588-5.67 5.588zm-2.267-38.31h-7.289v30.373h7.289v-30.373z" />
		</g>
		<g opacity=".5" id="Left lost">
			<g>
				<polygon fill="#FBFBFB" points="880.5,256.5 838,289 0,289 0,0 838,0 880.5,32.5" />
				<linearGradient id="h" gradientUnits="userSpaceOnUse" x1="444.75" y1="280" x2="444.75" y2="9">
					<stop offset="0" stop-color="#E8E6E2" stop-opacity="0" />
					<stop offset=".5" stop-color="#F8F6F4" stop-opacity=".5" />
					<stop offset="1" stop-color="#E8E6E2" />
				</linearGradient>
				<polygon fill="url(#h)" points="880.5,245.17 834.953,280 9,280 9,9 834.953,9 880.5,43.83" />
			</g>
			<polygon fill="#E04062" points="880.5,226.5 772.5,144.5 880.5,62.5" />
			<path fill="#FBFBFB" d="M876.087 116.807l-8.342 55.387h-11.059l-8.342-55.387h9.506l4.365 28.809 4.365-28.809h9.507z" />
			<circle fill="#A69C96" cx="203.5" cy="144.5" r="91" />
			<g fill="#4D4D4D">
				<path display="none" id="Kradeel" d="M361.547 137.616l9.233 39.282h-7.938l-6.155-25.999-5.75 15.794v10.205h-7.937v-64.795h7.938v32.641l11.906-32.641h7.938l-9.235 25.513zM399.535 130.65v46.248h-17.576c-3.078 0-5.588-2.511-5.588-5.588v-40.66h7.938v38.31h7.289v-38.31h7.937zM428.29 130.65v7.938l-15.227 2.997v35.313h-7.938v-36.042c0-3.078 2.673-6.156 5.588-6.723l17.577-3.483zM454.695 176.897h-17.575c-3.078 0-5.588-2.511-5.588-5.588v-20.573c0-3.077 2.511-5.588 5.588-5.588h9.638v-3.564l-15.227-2.997v-7.938l17.495 3.483c2.997.567 5.669 3.645 5.669 6.723v36.042zm-8.018-23.811h-7.208v15.874h7.208v-15.874zM483.692 112.103v64.795h-17.576c-3.078 0-5.588-2.511-5.588-5.588v-35.071c0-3.078 2.511-5.589 5.588-5.589h9.638v-18.547h7.938zm-7.937 26.484h-7.289v30.373h7.289v-30.373zM512.447 156.73c0 3.077-2.511 5.669-5.669 5.669h-9.557v6.561h15.227v7.938h-17.576c-3.078 0-5.588-2.511-5.588-5.588v-35.071c0-3.078 2.511-5.589 5.588-5.589h17.576v26.08zm-7.937-2.348v-15.794h-7.289v15.794h7.289zM541.526 156.73c0 3.077-2.511 5.669-5.669 5.669h-9.557v6.561h15.227v7.938h-17.577c-3.078 0-5.588-2.511-5.588-5.588v-35.071c0-3.078 2.511-5.589 5.588-5.589h17.576v26.08zm-7.937-2.348v-15.794h-7.29v15.794h7.29zM561.291 168.96v7.938h-13.85v-64.795h7.938v56.857h5.912z" />
				<path id="Heathcliff" d="M370.781 112.103v64.795h-7.938v-28.429h-11.906v28.429h-7.937v-64.795h7.938v28.429h11.906v-28.429h7.937zM399.535 156.73c0 3.077-2.511 5.669-5.669 5.669h-9.557v6.561h15.227v7.938h-17.576c-3.078 0-5.588-2.511-5.588-5.588v-35.071c0-3.078 2.511-5.589 5.588-5.589h17.576v26.08zm-7.937-2.348v-15.794h-7.289v15.794h7.289zM428.614 176.897h-17.576c-3.078 0-5.588-2.511-5.588-5.588v-20.573c0-3.077 2.511-5.588 5.588-5.588h9.639v-3.564l-15.227-2.997v-7.938l17.495 3.483c2.997.567 5.669 3.645 5.669 6.723v36.042zm-8.018-23.811h-7.208v15.874h7.208v-15.874zM457.611 168.96v7.938h-17.576c-3.078 0-5.588-2.511-5.588-5.588v-54.59h7.938v13.931h15.227v7.938h-15.227v30.373h15.226zM484.745 136.239v40.659h-7.938v-38.31h-7.289v38.31h-7.938v-64.795h7.938v18.547h9.557c3.159 0 5.67 2.511 5.67 5.589zM505.643 144.5v-5.913h-7.289v30.373h7.289v-5.912h7.938v8.262c0 3.077-2.511 5.588-5.669 5.588h-11.906c-3.078 0-5.588-2.511-5.588-5.588v-35.071c0-3.078 2.511-5.589 5.588-5.589h17.576v13.85h-7.939zM531.886 168.96v7.938h-13.85v-64.795h7.938v56.857h5.912zM544.441 117.124v9.233h-7.938v-9.233h7.938zm-7.937 13.526h7.938v46.248h-7.938v-46.248zM557.968 123.118v10.529l15.227-2.997v7.938l-15.227 2.997v35.313h-7.938v-54.509c0-3.159 2.592-6.155 5.588-6.803l17.576-3.483v7.938l-15.226 3.077zM584.697 123.118v10.529l15.227-2.997v7.938l-15.227 2.997v35.313h-7.938v-54.509c0-3.159 2.592-6.155 5.588-6.803l17.576-3.483v7.938l-15.226 3.077z" />
			</g>
		</g>
		<g id="Right won">
			<polygon fill="#FA966E" points="880.5,256.5 838,289 0,289 0,0 838,0 880.5,32.5" />
			<polygon fill="#FBFBFB" points="880.5,226.5 772.5,144.5 880.5,62.5" />
			<path fill="#E04062" d="M876.087 116.807l-8.342 55.387h-11.059l-8.342-55.387h9.506l4.365 28.809 4.365-28.809h9.507z" />
			<circle fill="#FBFBFB" cx="203.5" cy="144.5" r="91" />
			<g fill="#FBFBFB">
				<path display="none" id="Kradeel" d="M361.547 137.616l9.233 39.282h-7.938l-6.155-25.999-5.75 15.794v10.205h-7.937v-64.795h7.938v32.641l11.906-32.641h7.938l-9.235 25.513zM399.535 130.65v46.248h-17.576c-3.078 0-5.588-2.511-5.588-5.588v-40.66h7.938v38.31h7.289v-38.31h7.937zM428.29 130.65v7.938l-15.227 2.997v35.313h-7.938v-36.042c0-3.078 2.673-6.156 5.588-6.723l17.577-3.483zM454.695 176.897h-17.575c-3.078 0-5.588-2.511-5.588-5.588v-20.573c0-3.077 2.511-5.588 5.588-5.588h9.638v-3.564l-15.227-2.997v-7.938l17.495 3.483c2.997.567 5.669 3.645 5.669 6.723v36.042zm-8.018-23.811h-7.208v15.874h7.208v-15.874zM483.692 112.103v64.795h-17.576c-3.078 0-5.588-2.511-5.588-5.588v-35.071c0-3.078 2.511-5.589 5.588-5.589h9.638v-18.547h7.938zm-7.937 26.484h-7.289v30.373h7.289v-30.373zM512.447 156.73c0 3.077-2.511 5.669-5.669 5.669h-9.557v6.561h15.227v7.938h-17.576c-3.078 0-5.588-2.511-5.588-5.588v-35.071c0-3.078 2.511-5.589 5.588-5.589h17.576v26.08zm-7.937-2.348v-15.794h-7.289v15.794h7.289zM541.526 156.73c0 3.077-2.511 5.669-5.669 5.669h-9.557v6.561h15.227v7.938h-17.577c-3.078 0-5.588-2.511-5.588-5.588v-35.071c0-3.078 2.511-5.589 5.588-5.589h17.576v26.08zm-7.937-2.348v-15.794h-7.29v15.794h7.29zM561.291 168.96v7.938h-13.85v-64.795h7.938v56.857h5.912z" />
				<path id="Heathcliff" d="M370.781 112.103v64.795h-7.938v-28.429h-11.906v28.429h-7.937v-64.795h7.938v28.429h11.906v-28.429h7.937zM399.535 156.73c0 3.077-2.511 5.669-5.669 5.669h-9.557v6.561h15.227v7.938h-17.576c-3.078 0-5.588-2.511-5.588-5.588v-35.071c0-3.078 2.511-5.589 5.588-5.589h17.576v26.08zm-7.937-2.348v-15.794h-7.289v15.794h7.289zM428.614 176.897h-17.576c-3.078 0-5.588-2.511-5.588-5.588v-20.573c0-3.077 2.511-5.588 5.588-5.588h9.639v-3.564l-15.227-2.997v-7.938l17.495 3.483c2.997.567 5.669 3.645 5.669 6.723v36.042zm-8.018-23.811h-7.208v15.874h7.208v-15.874zM457.611 168.96v7.938h-17.576c-3.078 0-5.588-2.511-5.588-5.588v-54.59h7.938v13.931h15.227v7.938h-15.227v30.373h15.226zM484.745 136.239v40.659h-7.938v-38.31h-7.289v38.31h-7.938v-64.795h7.938v18.547h9.557c3.159 0 5.67 2.511 5.67 5.589zM505.643 144.5v-5.913h-7.289v30.373h7.289v-5.912h7.938v8.262c0 3.077-2.511 5.588-5.669 5.588h-11.906c-3.078 0-5.588-2.511-5.588-5.588v-35.071c0-3.078 2.511-5.589 5.588-5.589h17.576v13.85h-7.939zM531.886 168.96v7.938h-13.85v-64.795h7.938v56.857h5.912zM544.441 117.124v9.233h-7.938v-9.233h7.938zm-7.937 13.526h7.938v46.248h-7.938v-46.248zM557.968 123.118v10.529l15.227-2.997v7.938l-15.227 2.997v35.313h-7.938v-54.509c0-3.159 2.592-6.155 5.588-6.803l17.576-3.483v7.938l-15.226 3.077zM584.697 123.118v10.529l15.227-2.997v7.938l-15.227 2.997v35.313h-7.938v-54.509c0-3.159 2.592-6.155 5.588-6.803l17.576-3.483v7.938l-15.226 3.077z" />
			</g>
		</g>
	</g>
</svg>