<?xml version="1.0" encoding="utf-8"?>
<svg xmlns="http://www.w3.org/2000/svg" width="1305" height="932">
	<g display="none">
		<rect fill="#D8D8D8" width="1305" height="592" />
		<g display="none">
			<linearGradient id="a" gradientUnits="userSpaceOnUse" x1="652.5" y1="241" x2="652.5" y2="198.5">
				<stop offset="0" stop-color="#040404" stop-opacity=".2" />
				<stop offset="1" stop-color="#040404" stop-opacity="0" />
			</linearGradient>
			<rect y="198.5" fill="url(#a)" width="1305" height="42.5" />
			<linearGradient id="b" gradientUnits="userSpaceOnUse" x1="652.5" y1="233.5" x2="652.5" y2="276">
				<stop offset="0" stop-color="#040404" stop-opacity=".2" />
				<stop offset="1" stop-color="#040404" stop-opacity="0" />
			</linearGradient>
			<rect y="233.5" fill="url(#b)" width="1305" height="42.5" />
		</g>
		<rect y="241" fill="#fff" width="1305" height="351" />
		<g>
			<rect y="233" width="1305" height="8" opacity=".2" />
			<g>
				<linearGradient id="c" gradientUnits="userSpaceOnUse" x1="652.5" x2="652.5" y2="233">
					<stop offset="0" stop-color="#E4E4E4" />
					<stop offset="1" stop-color="#F9F9F9" />
				</linearGradient>
				<rect fill="url(#c)" width="1305" height="233" />
			</g>
		</g>
		<path fill="#fff" d="M1298.5 6.5v579h-1292v-579h1292m6.5-6.5h-1305v592h1305v-592z" />
		<g>
			<path fill="#C82864" d="M1038.5 413c0 48.463-39.287 87.75-87.75 87.75s-87.75-39.287-87.75-87.75 39.287-87.75 87.75-87.75 87.75 39.287 87.75 87.75zm-87.75-80.291c-44.344 0-80.291 35.948-80.291 80.291s35.948 80.291 80.291 80.291 80.291-35.948 80.291-80.291-35.947-80.291-80.291-80.291z" />
			<circle fill="#C82864" cx="950.75" cy="413" r="67.568" />
			<path opacity=".5" fill="#040404" d="M971.381 439.482l-51.5-51.5 10.239-10.239 51.5 51.5-10.239 10.239zm-41.262 0l-10.239-10.239 51.5-51.5 10.239 10.239-51.5 51.5z" />
			<path fill="#FBFBFB" d="M971.381 443.869l-51.5-51.5 10.239-10.239 51.5 51.5-10.239 10.239zm-41.262 0l-10.239-10.239 51.5-51.5 10.239 10.239-51.5 51.5z" />
		</g>
		<g>
			<path fill="#3278BE" d="M442 413c0 48.463-39.287 87.75-87.75 87.75s-87.75-39.287-87.75-87.75 39.287-87.75 87.75-87.75 87.75 39.287 87.75 87.75zm-87.75-80.291c-44.344 0-80.291 35.948-80.291 80.291s35.948 80.291 80.291 80.291 80.291-35.948 80.291-80.291-35.947-80.291-80.291-80.291z" />
			<circle fill="#3278BE" cx="354.25" cy="413" r="67.567" />
			<path opacity=".5" fill="#040404" d="M390.666 408.612c0 20.112-16.304 36.416-36.416 36.416s-36.416-16.304-36.416-36.416 16.304-36.416 36.416-36.416 36.416 16.304 36.416 36.416zm-36.416-21.06c-11.631 0-21.06 9.429-21.06 21.06 0 11.631 9.429 21.06 21.06 21.06s21.06-9.429 21.06-21.06c0-11.631-9.429-21.06-21.06-21.06z" />
			<path fill="#FBFBFB" d="M390.666 413c0 20.112-16.304 36.416-36.416 36.416s-36.416-16.304-36.416-36.416 16.304-36.416 36.416-36.416 36.416 16.304 36.416 36.416zm-36.416-21.06c-11.631 0-21.06 9.429-21.06 21.06s9.429 21.06 21.06 21.06 21.06-9.429 21.06-21.06-9.429-21.06-21.06-21.06z" />
		</g>
	</g>
	<g>
		<rect fill="#D8D8D8" width="1305" height="932" />
		<g>
			<linearGradient id="d" gradientUnits="userSpaceOnUse" x1="652.5" y1="576" x2="652.5" y2="533.5">
				<stop offset="0" stop-color="#040404" stop-opacity=".2" />
				<stop offset="1" stop-color="#040404" stop-opacity="0" />
			</linearGradient>
			<rect y="533.5" fill="url(#d)" width="1305" height="42.5" />
			<linearGradient id="e" gradientUnits="userSpaceOnUse" x1="652.5" y1="233.5" x2="652.5" y2="276">
				<stop offset="0" stop-color="#040404" stop-opacity=".2" />
				<stop offset="1" stop-color="#040404" stop-opacity="0" />
			</linearGradient>
			<rect y="233.5" fill="url(#e)" width="1305" height="42.5" />
		</g>
		<rect y="576" fill="#fff" width="1305" height="356" />
		<g>
			<rect display="none" y="233" width="1305" height="8" opacity=".2" />
			<g>
				<linearGradient id="f" gradientUnits="userSpaceOnUse" x1="652.5" x2="652.5" y2="233">
					<stop offset="0" stop-color="#E4E4E4" />
					<stop offset="1" stop-color="#F9F9F9" />
				</linearGradient>
				<rect fill="url(#f)" width="1305" height="233" />
			</g>
		</g>
		<path fill="#fff" d="M1298.5 6.5v919h-1292v-919h1292m6.5-6.5h-1305v932h1305v-932z" />
		<g>
			<path fill="#C82864" d="M1038.5 755c0 48.463-39.287 87.75-87.75 87.75s-87.75-39.287-87.75-87.75 39.287-87.75 87.75-87.75 87.75 39.287 87.75 87.75zm-87.75-80.291c-44.344 0-80.291 35.948-80.291 80.291s35.948 80.291 80.291 80.291 80.291-35.948 80.291-80.291-35.947-80.291-80.291-80.291z" />
			<circle fill="#C82864" cx="950.75" cy="755" r="67.568" />
			<path opacity=".5" fill="#040404" d="M971.381 781.482l-51.5-51.5 10.239-10.239 51.5 51.5-10.239 10.239zm-41.262 0l-10.239-10.239 51.5-51.5 10.239 10.239-51.5 51.5z" />
			<path fill="#FBFBFB" d="M971.381 785.869l-51.5-51.5 10.239-10.239 51.5 51.5-10.239 10.239zm-41.262 0l-10.239-10.239 51.5-51.5 10.239 10.239-51.5 51.5z" />
		</g>
		<g>
			<path fill="#3278BE" d="M442 755c0 48.463-39.287 87.75-87.75 87.75s-87.75-39.287-87.75-87.75 39.287-87.75 87.75-87.75 87.75 39.287 87.75 87.75zm-87.75-80.291c-44.344 0-80.291 35.948-80.291 80.291s35.948 80.291 80.291 80.291 80.291-35.948 80.291-80.291-35.947-80.291-80.291-80.291z" />
			<circle fill="#3278BE" cx="354.25" cy="755" r="67.567" />
			<path opacity=".5" fill="#040404" d="M390.666 750.612c0 20.112-16.304 36.416-36.416 36.416s-36.416-16.304-36.416-36.416 16.304-36.416 36.416-36.416 36.416 16.304 36.416 36.416zm-36.416-21.06c-11.631 0-21.06 9.429-21.06 21.06s9.429 21.06 21.06 21.06 21.06-9.429 21.06-21.06-9.429-21.06-21.06-21.06z" />
			<path fill="#FBFBFB" d="M390.666 755c0 20.112-16.304 36.416-36.416 36.416s-36.416-16.304-36.416-36.416 16.304-36.416 36.416-36.416 36.416 16.304 36.416 36.416zm-36.416-21.06c-11.631 0-21.06 9.429-21.06 21.06s9.429 21.06 21.06 21.06 21.06-9.429 21.06-21.06-9.429-21.06-21.06-21.06z" />
		</g>
	</g>
	<g>
		<path display="none" id="Dissolve" fill="#4D4D4D" d="M568.983 152.486h-23.04v-67.2h23.04c1.599 0 2.959.561 4.08 1.68 1.119 1.121 1.68 2.481 1.68 4.08v55.68c0 1.6-.561 2.961-1.68 4.08-1.121 1.12-2.481 1.68-4.08 1.68zm-14.784-58.944v50.688h12.288v-50.688h-12.288zm35.232 6.144h-8.256v-9.6h8.256v9.6zm0 52.8h-8.256v-48h8.256v48zm6.43-5.76v-8.64h8.256v6.144h7.488v-11.616h-9.984c-1.601 0-2.961-.56-4.08-1.68-1.121-1.119-1.68-2.48-1.68-4.08v-16.608c0-1.599.56-2.959 1.68-4.08 1.119-1.119 2.479-1.68 4.08-1.68h18.24v14.4h-8.256v-6.144h-7.488v11.616h9.984c1.599 0 2.959.561 4.08 1.68 1.119 1.121 1.68 2.481 1.68 4.08v16.608c0 1.6-.561 2.961-1.68 4.08-1.121 1.121-2.481 1.68-4.08 1.68h-12.48c-1.601 0-2.961-.56-4.08-1.68-1.12-1.119-1.68-2.48-1.68-4.08zm29.76 0v-8.64h8.256v6.144h7.488v-11.616h-9.984c-1.601 0-2.961-.56-4.08-1.68-1.121-1.119-1.68-2.48-1.68-4.08v-16.608c0-1.599.56-2.959 1.68-4.08 1.119-1.119 2.479-1.68 4.08-1.68h18.24v14.4h-8.256v-6.144h-7.488v11.616h9.984c1.599 0 2.959.561 4.08 1.68 1.119 1.121 1.68 2.481 1.68 4.08v16.608c0 1.6-.561 2.961-1.68 4.08-1.121 1.121-2.481 1.68-4.08 1.68h-12.48c-1.601 0-2.961-.56-4.08-1.68-1.121-1.119-1.68-2.48-1.68-4.08zm29.759 0v-36.48c0-1.599.56-2.959 1.68-4.08 1.119-1.119 2.479-1.68 4.08-1.68h12.48c1.599 0 2.959.561 4.08 1.68 1.119 1.12 1.68 2.481 1.68 4.08v36.48c0 1.6-.561 2.961-1.68 4.08-1.121 1.121-2.481 1.68-4.08 1.68h-12.48c-1.601 0-2.961-.56-4.08-1.68-1.121-1.119-1.68-2.48-1.68-4.08zm8.256-33.984v31.488h7.488v-31.488h-7.488zm35.903 39.744h-14.4v-67.2h8.256v58.944h6.144v8.256zm12.866 0l-7.107-48h8.349l3.651 24.96 3.651-24.96h8.349l-7.107 48h-9.786zm22.653-5.76v-36.48c0-1.599.56-2.959 1.68-4.08 1.119-1.119 2.479-1.68 4.08-1.68h18.24v27.168c0 1.601-.561 2.961-1.68 4.08-1.121 1.121-2.481 1.68-4.08 1.68h-9.984v6.816h15.744v8.256h-18.24c-1.601 0-2.961-.56-4.08-1.68-1.121-1.119-1.68-2.48-1.68-4.08zm8.256-33.984v16.416h7.488v-16.416h-7.488z" />
		<path display="none" id="Invite" fill="#4D4D4D" d="M589.431 152.486h-8.256v-67.2h8.256v67.2zm14.687 0h-8.256v-42.24c0-1.599.56-2.959 1.68-4.08 1.119-1.119 2.479-1.68 4.08-1.68h18.24v48h-8.256v-39.744h-7.488v39.744zm28.61 0l-7.107-48h8.349l3.651 24.96 3.651-24.96h8.349l-7.107 48h-9.786zm31.58-52.8h-8.256v-9.6h8.256v9.6zm0 52.8h-8.256v-48h8.256v48zm6.431-5.76v-56.64h8.256v14.4h15.744v8.256h-15.744v31.488h15.744v8.256h-18.24c-1.601 0-2.961-.56-4.08-1.68-1.121-1.119-1.68-2.48-1.68-4.08zm29.759 0v-36.48c0-1.599.56-2.959 1.68-4.08 1.119-1.119 2.479-1.68 4.08-1.68h18.24v27.168c0 1.601-.561 2.961-1.68 4.08-1.121 1.121-2.481 1.68-4.08 1.68h-9.984v6.816h15.744v8.256h-18.24c-1.601 0-2.961-.56-4.08-1.68-1.12-1.119-1.68-2.48-1.68-4.08zm8.256-33.984v16.416h7.488v-16.416h-7.488z" />
		<path id="Alert" fill="#4D4D4D" d="M591.657 152.486h-8.275l4.378-61.443c.063-1.599.705-2.958 1.925-4.077 1.219-1.119 2.632-1.68 4.237-1.68h13.478l4.782 67.2h-8.276l-1.759-24.672h-8.729l-1.761 24.672zm4.205-58.944l-1.855 26.016h7.551l-1.855-26.016h-3.841zm36.479 58.944h-14.4v-67.2h8.256v58.944h6.144v8.256zm5.76-5.76v-36.48c0-1.599.56-2.959 1.68-4.08 1.119-1.119 2.479-1.68 4.08-1.68h18.24v27.168c0 1.601-.561 2.961-1.68 4.08-1.121 1.121-2.481 1.68-4.08 1.68h-9.984v6.816h15.744v8.256h-18.24c-1.601 0-2.961-.56-4.08-1.68-1.121-1.119-1.68-2.48-1.68-4.08zm8.256-33.984v16.416h7.488v-16.416h-7.488zm29.759 39.744h-8.256v-37.224c0-1.594.578-3.078 1.736-4.449s2.508-2.217 4.053-2.537l18.211-3.791v8.125l-15.744 3.298v36.578zm21.503-5.76v-56.64h8.256v14.4h15.744v8.256h-15.744v31.488h15.744v8.256h-18.24c-1.601 0-2.961-.56-4.08-1.68-1.12-1.119-1.68-2.48-1.68-4.08z" />
	</g>
</svg>