<?xml version="1.0" encoding="utf-8"?>
<svg xmlns="http://www.w3.org/2000/svg" xmlns:xlink="http://www.w3.org/1999/xlink" width="100" height="100">
	<g>
		<circle fill="#FBFBFB" cx="50" cy="50" r="50" />
		<g fill="#EBA601">
			<polygon opacity=".71" points="51.5,44 77,44 84,37 77,30 51.5,30" />
			<polygon points="77,44 84,37 51.5,37 51.5,44" />
			<rect x="37" y="32.75" width="12" height="8.5" />
			<rect x="47.75" y="27.75" width="4.5" height="18.5" />
		</g>
		<g fill="#EBA601">
			<polygon opacity=".71" points="35.5,70 61,70 68,63 61,56 35.5,56" />
			<polygon points="61,70 68,63 35.5,63 35.5,70" />
			<rect x="21" y="58.75" width="12" height="8.5" />
			<rect x="31.75" y="53.75" width="4.5" height="18.5" />
		</g>
		<defs>
			<circle id="a" cx="50" cy="50" r="50" />
		</defs>
		<clipPath id="b">
			<use xlink:href="#a" overflow="visible" />
		</clipPath>
		<g clip-path="url(#b)">
			<rect y="34.5" opacity=".535" fill="#EBA601" width="32" height="5" />
			<rect x="26" y="29.5" fill="#FBFBFB" width="2" height="15" />
			<rect y="60.5" opacity=".535" fill="#EBA601" width="16" height="5" />
			<rect x="10" y="55.5" fill="#FBFBFB" width="2" height="15" />
		</g>
	</g>
</svg>