<?xml version="1.0" encoding="utf-8"?>
<svg xmlns="http://www.w3.org/2000/svg" width="100" height="100">
	<g>
		<circle fill="#FBFBFB" cx="50" cy="50" r="50" />
		<g transform="rotate(45 49.5 48.5)" fill="#EBA601">
			<polygon opacity=".71" points="56.5,66.75 56.5,18.25 49.5,11.25 42.5,18.25 42.5,66.75" />
			<polygon points="42.5,18.25 42.5,66.75 49.5,66.75 49.5,11.25" />
			<rect x="45.25" y="69.75" width="8.5" height="16" />
			<rect x="40.25" y="65.5" width="18.5" height="4.5" />
		</g>
		<g transform="rotate(-45 50.5 48.5)">
			<polygon fill="#F0BF4A" points="57.5,66.75 57.5,18.25 50.5,11.25 43.5,18.25 43.5,66.75" />
			<polygon fill="#EBA601" points="57.5,18.25 50.5,11.25 50.5,66.75 57.5,66.75" />
			<rect x="46.25" y="69.75" fill="#EBA601" width="8.5" height="16" />
			<rect x="41.25" y="65.5" fill="#EBA601" width="18.5" height="4.5" />
		</g>
	</g>
</svg>