<?xml version="1.0" encoding="utf-8"?>
<svg xmlns="http://www.w3.org/2000/svg" width="100" height="100">
	<g>
		<circle fill="#FBFBFB" cx="50" cy="50" r="50" />
		<path opacity=".5" fill="#F0BF4A" d="M50 6.25c-16.192 0-30.319 8.803-37.884 21.878l37.884 21.872 41.121-14.967c-6.113-16.791-22.216-28.783-41.121-28.783z" />
		<path opacity=".71" fill="#EBA601" d="M50 63.25c-7.306 0-13.25-5.944-13.25-13.25s5.944-13.25 13.25-13.25 13.25 5.944 13.25 13.25-5.944 13.25-13.25 13.25zm0-25c-6.479 0-11.75 5.271-11.75 11.75s5.271 11.75 11.75 11.75 11.75-5.271 11.75-11.75-5.271-11.75-11.75-11.75zm0 37.5c-14.199 0-25.75-11.552-25.75-25.75 0-14.199 11.551-25.75 25.75-25.75 14.198 0 25.75 11.551 25.75 25.75 0 14.198-11.552 25.75-25.75 25.75zm0-50c-13.372 0-24.25 10.878-24.25 24.25 0 13.371 10.878 24.25 24.25 24.25 13.371 0 24.25-10.879 24.25-24.25 0-13.372-10.879-24.25-24.25-24.25zm0 62.5c-21.091 0-38.25-17.159-38.25-38.25s17.159-38.25 38.25-38.25 38.25 17.159 38.25 38.25-17.159 38.25-38.25 38.25zm0-75c-20.264 0-36.75 16.486-36.75 36.75s16.486 36.75 36.75 36.75 36.75-16.486 36.75-36.75-16.486-36.75-36.75-36.75z" />
		<path fill="#EBA601" d="M90.5 50c0 1.657-1.343 3-3 3s-3-1.343-3-3 1.343-3 3-3 3 1.343 3 3zm-67.298 26.403c1.269-1.065 1.435-2.957.37-4.227-1.065-1.269-2.957-1.435-4.226-.37-1.269 1.065-1.435 2.957-.37 4.226 1.064 1.27 2.956 1.436 4.226.371zm2.325-62.792c.828 1.435 2.663 1.927 4.098 1.098s1.927-2.663 1.098-4.098c-.828-1.435-2.663-1.927-4.098-1.098s-1.927 2.664-1.098 4.098zm24.473 34.389c-1.105 0-2 .895-2 2s.895 2 2 2 2-.895 2-2-.895-2-2-2z" />
		<path fill="#F0BF4A" d="M87.5 53.5c-1.93 0-3.5-1.57-3.5-3.5s1.57-3.5 3.5-3.5 3.5 1.57 3.5 3.5-1.57 3.5-3.5 3.5zm0-6c-1.379 0-2.5 1.122-2.5 2.5 0 1.379 1.121 2.5 2.5 2.5s2.5-1.121 2.5-2.5c0-1.378-1.121-2.5-2.5-2.5zm-66.225 30.104c-1.038 0-2.016-.455-2.683-1.25-.601-.716-.887-1.624-.806-2.555.082-.932.521-1.775 1.237-2.376.629-.528 1.428-.819 2.249-.819 1.038 0 2.016.455 2.682 1.25.601.716.887 1.624.806 2.555-.082.932-.521 1.775-1.237 2.376-.629.528-1.428.819-2.248.819zm-.003-6c-.586 0-1.156.208-1.606.585-.511.43-.825 1.032-.883 1.697s.146 1.313.576 1.825c.852 1.015 2.503 1.161 3.522.308.511-.43.825-1.032.883-1.697s-.146-1.313-.576-1.825c-.476-.567-1.174-.893-1.916-.893zm6.855-55.992c-1.248 0-2.41-.67-3.034-1.75-.964-1.671-.39-3.816 1.281-4.781.532-.307 1.136-.469 1.747-.469 1.248 0 2.411.671 3.034 1.75.964 1.671.39 3.816-1.281 4.781-.531.307-1.135.469-1.747.469zm-.005-6.001c-.436 0-.867.116-1.247.335-1.193.689-1.604 2.221-.915 3.415.663 1.148 2.258 1.584 3.415.915 1.193-.689 1.604-2.221.915-3.415-.445-.771-1.276-1.25-2.168-1.25z" />
	</g>
</svg>