<?xml version="1.0" encoding="utf-8"?>
<svg xmlns="http://www.w3.org/2000/svg" width="100" height="100">
	<g>
		<circle fill="#FBFBFB" cx="50" cy="50" r="50" />
		<g fill="#EBA601">
			<path d="M56.423 69.405l12.385 3.417s-2.135 14.093-9.823 11.958c-7.687-2.135-2.562-15.375-2.562-15.375zM69.236 71.114l-12.812-3.417s.854-10.677 2.99-17.083 5.125-13.239 10.677-11.958c5.552 1.281 6.833 10.677 5.979 15.802-.868 5.211-6.833 16.656-6.833 16.656z" />
			<path d="M44.327 45.655l-12.385 3.417s2.135 14.093 9.823 11.958c7.687-2.135 2.562-15.375 2.562-15.375zM31.515 47.364l12.812-3.417s-.854-10.677-2.99-17.083-5.125-13.239-10.677-11.958-6.833 10.677-5.979 15.802c.868 5.211 6.833 16.656 6.833 16.656z" />
		</g>
	</g>
</svg>