<?xml version="1.0" encoding="utf-8"?>
<svg xmlns="http://www.w3.org/2000/svg" width="100" height="100">
	<g>
		<circle fill="#4D4D4D" cx="50" cy="50" r="50" />
		<g fill="#FBFBFB">
			<path d="M66.5 87.5h3.5l-18.158-40.402c1.564-.705 2.658-2.271 2.658-4.098 0-2.485-2.015-4.5-4.5-4.5s-4.5 2.015-4.5 4.5c0 1.827 1.094 3.393 2.658 4.098l-18.158 40.402h3.5l4.045-9h24.91l4.045 9zm-27.382-12.5l2.247-5h17.27l2.247 5h-21.764zM82.125 43c0 7.349-2.486 14.125-6.654 19.544l-1.387-1.065c3.941-5.124 6.292-11.531 6.292-18.48s-2.351-13.356-6.292-18.48l1.387-1.065c4.168 5.421 6.654 12.197 6.654 19.546zm-56.208-18.48l-1.387-1.065c-4.169 5.42-6.655 12.196-6.655 19.545s2.486 14.125 6.654 19.544l1.387-1.065c-3.941-5.124-6.292-11.531-6.292-18.48s2.352-13.355 6.293-18.479z" />
			<path opacity=".91" d="M75.875 43c0 5.919-2.003 11.377-5.36 15.742l-1.387-1.065c3.13-4.069 4.997-9.158 4.997-14.677s-1.867-10.608-4.997-14.677l1.387-1.065c3.357 4.365 5.36 9.823 5.36 15.742zm-45.003-14.677l-1.387-1.065c-3.357 4.365-5.36 9.822-5.36 15.742 0 5.919 2.003 11.377 5.36 15.742l1.387-1.065c-3.13-4.069-4.997-9.158-4.997-14.677s1.867-10.608 4.997-14.677z" />
			<path opacity=".81" d="M69.625 43c0 4.49-1.532 8.619-4.078 11.93l-1.386-1.064c2.319-3.015 3.714-6.776 3.714-10.866s-1.395-7.851-3.714-10.866l1.386-1.064c2.546 3.311 4.078 7.44 4.078 11.93zm-33.786-10.866l-1.386-1.064c-2.546 3.31-4.078 7.44-4.078 11.93 0 4.49 1.532 8.619 4.078 11.93l1.386-1.064c-2.319-3.015-3.714-6.777-3.714-10.866s1.395-7.851 3.714-10.866z" />
			<path opacity=".71" d="M63.375 43c0 3.06-1.044 5.874-2.779 8.13l-1.386-1.064c1.508-1.961 2.416-4.407 2.416-7.067s-.907-5.106-2.416-7.067l1.386-1.064c1.735 2.258 2.779 5.072 2.779 8.132zm-22.584-7.067l-1.386-1.064c-1.735 2.256-2.779 5.07-2.779 8.13s1.044 5.874 2.779 8.13l1.386-1.064c-1.508-1.961-2.416-4.407-2.416-7.067s.907-5.104 2.416-7.065z" />
		</g>
	</g>
</svg>