<?xml version="1.0" encoding="utf-8"?>
<svg xmlns="http://www.w3.org/2000/svg" width="100" height="100">
	<g>
		<circle fill="#4D4D4D" cx="50" cy="50" r="50" />
		<path fill="#FBFBFB" d="M66.794 74.294c-1.919 0-3.839-.732-5.304-2.196l-33.587-33.589c-2.929-2.929-2.929-7.678 0-10.606 2.929-2.929 7.678-2.929 10.606 0l33.589 33.587c2.929 2.93 2.929 7.678 0 10.607-1.465 1.465-3.385 2.197-5.304 2.197zm-33.588 0c-1.919 0-3.839-.732-5.303-2.196-2.929-2.93-2.929-7.678 0-10.607l33.587-33.588c2.93-2.929 7.678-2.929 10.607 0 2.929 2.929 2.929 7.678 0 10.606l-33.588 33.589c-1.464 1.464-3.384 2.196-5.303 2.196z" />
	</g>
</svg>