<?xml version="1.0" encoding="utf-8"?>
<svg xmlns="http://www.w3.org/2000/svg" width="100" height="100">
	<g>
		<circle fill="#4D4D4D" cx="50" cy="50" r="50" />
		<path fill="#FBFBFB" d="M55.5 54.5c0-3.056.93-5.895 2.521-8.25h-22.021v-1.5h23.202c2.444-2.767 5.901-4.609 9.798-4.937v-14.813h-38v50h38v-5.813c-7.56-.636-13.5-6.963-13.5-14.687zm-19.5-20.75h28v1.5h-28v-1.5zm0 5.5h28v1.5h-28v-1.5zm10 30.25h-10v-1.5h10v1.5zm3 0h-1v-1.5h1v1.5zm0-5.5h-13v-1.5h13v1.5zm1-12.25h-14v-1.5h14v1.5zm3 0h-1v-1.5h1v1.5zm17.25-10.5c-7.318 0-13.25 5.932-13.25 13.25s5.932 13.25 13.25 13.25 13.25-5.932 13.25-13.25-5.932-13.25-13.25-13.25zm-3.879 19.531l-4.5-7.794 3.031-1.75 2.75 4.763 8.876-5.125 1.75 3.031-11.907 6.875z" />
	</g>
</svg>