<?xml version="1.0" encoding="utf-8"?>
<svg xmlns="http://www.w3.org/2000/svg" width="500" height="500">
	<g>
		<rect opacity="0" fill="#fff" width="500" height="500" />
		<path fill="#CBB778" d="M142.33 75.78c-8.11 15.9-14.6 33.15-15.07 51.19.3 18.84 4.26 38.18 14.65 54.17 6.66 10.76 16.44 19.07 26.45 26.59 10.2 7.16 21.61 12.32 32.98 17.32-34.49 18.68-69.17 37.02-103.69 55.66-1.31.71-2.65 1.5-4.2 1.43-4.01-12.89-8.36-25.74-10.82-39.05-2.94-16.4-1.77-33.14-.33-49.63 1.79-15.44 4.41-31.07 10.88-45.32 16.838-37.149 48.063-72.166 49.15-72.36zm230.34 51.24c-.16 12.14-1.91 24.33-5.81 35.85-5.01 14.91-14.41 28.23-26.69 38.06-12.01 10.72-26.68 17.74-41.38 23.97 4.45 3.19 9.62 5.27 14.35 8.02 28.31 15.12 56.58 30.31 84.87 45.46 2.69 1.42 5.3 3.05 8.19 4.06 6.76-19.84 13.32-40.28 12.98-61.48-.32-18.1-1.7-36.31-6.02-53.94-3.71-16.37-12.09-31.14-20.64-45.41-11.099-18.622-33.74-45.629-34.74-45.81 7.81 16.02 14.56 33.16 14.89 51.22zm-216.09 216.68c21.71 11.59 46.08 17.05 70.32 20.11 15.37 2.04 30.98 1.91 46.37.21 9.34-1.52 18.69-3.07 27.92-5.13 20.64-4.56 40.71-12.54 57.93-24.92 16.72-11.63 30.95-26.66 41.9-43.81-36.52-20.9-73.05-41.78-109.61-62.63-27.3 5.59-55.66 5.46-82.98.03-36.49 20.88-73.01 41.72-109.51 62.59 14.23 22.38 34.26 41.06 57.66 53.55zm-14.9 14.65c35.99 32.43 72.38 64.84 108.32 97.34 34.43-31.31 68.99-62.11 103.61-93.22 1.95-1.92 4.41-3.35 5.93-5.67-15.41 7.69-30.8 15.82-47.5 20.42-14.24 4.22-29.04 6-43.73 7.87-16.66 1.99-33.49.72-50.02-1.77-16.53-2.07-32.93-5.89-48.3-12.41-10.19-4.02-19.75-9.45-29.63-14.09l1.32 1.53z" />
	</g>
</svg>