<?xml version="1.0" encoding="utf-8"?>
<svg xmlns="http://www.w3.org/2000/svg" width="500" height="500">
	<rect opacity="0" fill="#fff" width="500" height="500" />
	<path fill="#766787" d="M206.44 53.48c10.15-6.27 21.5-11.05 33.48-12.17 14.8-1.29 30.37-.03 43.69 7.07 8.35 4.46 16.69 10.15 21.35 18.63 4.61 8.8 3.12 19.85-1.84 28.17-2.64 4.26-5.91 8.09-9.34 11.72 7.42 17.28 15.12 34.49 24.49 50.81 3.43 5.74 6.9 11.6 11.69 16.35 4.71 4.28 10.85 6.55 16.86 8.37 10.26 2.97 20.91 4.25 31.54 4.99-.59.68-1.21 1.34-1.86 1.96-24.62 21.22-49.22 42.46-73.8 63.73-11.6-8.4-23.52-17.43-30.65-30.16-8.38-14.2-15.87-28.92-23.15-43.71-8.39 15.3-16.49 30.84-26.49 45.18-4.29 6.39-10.73 10.85-17.2 14.82-5.11 3.05-10.36 5.92-15.83 8.29-22.87-17.12-45.81-34.15-68.7-51.24-2.37-1.83-4.95-3.41-7.05-5.57 13.81-.71 27.78-1.99 40.97-6.39 5.94-2.07 11.93-4.84 16.07-9.73 4.89-5.68 8.62-12.24 12.19-18.79 8.51-16.02 15.47-32.8 22.05-49.68-5.63-4.43-12.35-9.4-13.24-17.06-1.66-13.26 3.19-28.1 14.77-35.59zm41.932 180.987l-.292.383c-11.74 15.43-23.52 30.84-35.28 46.26-15.32-1.77-30.93-3.59-45.32-9.45-13.75-6.69-24.73-17.74-35.32-28.53-11.21 15.05-22.36 30.15-33.56 45.21 6.1 7.24 12.74 14.01 19.54 20.6 9.46 8.98 19.48 17.71 31.35 23.37 14.58 7.08 30 12.29 45.53 16.83 1 .44 2.63.4 2.88 1.78 15.81 39.31 31.64 78.62 47.46 117.93 3.554 8.441 2.452 8.486 5.645.385 15.364-38.984 30.494-78.049 45.885-117.025 13.58-4.2 27-8.93 40.24-14.1 11.01-4.47 22.25-8.96 31.71-16.32 12.28-9.42 23.11-20.58 33.46-32.04-10.79-15.95-21.78-31.77-32.83-47.54-9.45 10.26-19.02 21.13-31.68 27.48-16.09 6.77-33.33 10.15-50.26 14.11-12.94-15.97-25.4-32.32-38.33-48.29l-.828-1.043z" />
</svg>