<?xml version="1.0" encoding="utf-8"?>
<svg xmlns="http://www.w3.org/2000/svg" width="500" height="500">
	<g>
		<rect opacity="0" fill="#fff" width="500" height="500" />
		<path fill="#A4A2AB" d="M212.76 66c12.25-2.33 24.73-3.64 37.22-3.79 11.92.39 23.82 1.67 35.64 3.32.58 14.42-1 29.01.47 43.45 6.97 2.52 14 4.94 20.8 7.92 5.07 2.16 9.25 6.01 14.6 7.58 10.87-9.79 21.29-20.05 31.51-30.51 18.5 15.09 35.5 32.03 50.64 50.49 1.28 1.07-.64 2.09-1.23 2.89-9.87 9.51-19.38 19.38-28.56 29.56 1.76 5.56 5.79 9.96 7.95 15.34 2.74 6.53 5.2 13.17 7.44 19.88 14.51 1.66 29.11.21 43.67.49 1.72 15.06 3.95 30.2 2.91 45.39-.75 9.3-1.46 18.64-3.66 27.73-14.38-.17-28.8-1.1-43.16.26-3.17 8.6-5.79 17.52-10.52 25.44-1.85 3.24-2.79 6.89-4.27 10.31 9.82 10.44 19.36 21.15 29.67 31.12-15.44 18.53-31.97 36.3-50.89 51.34-10.33-10.26-20.28-20.91-31.14-30.61-2.43.89-4.9 1.75-7.05 3.23-8.72 5.88-18.99 8.65-28.7 12.39-1.53 14.45-.4 28.97-.28 43.46-13.23 1.63-26.51 3.42-39.85 3.24-11.15-.48-22.3-1.56-33.24-3.76.1-14.45 1.16-28.94-.41-43.34-8.63-3.16-17.57-5.8-25.49-10.57-3.35-1.84-7.07-2.84-10.58-4.32-10.58 9.57-20.7 19.6-30.74 29.72-18.69-15.02-35.59-32.2-50.83-50.69 10.04-10.18 20.22-20.24 29.76-30.9-1.75-4.04-2.85-8.38-5.24-12.12-4.22-7.52-6.73-15.82-9.64-23.9-14.44-1.69-28.96-.44-43.45-.47-2.28-12.68-3.76-25.59-3.7-38.51.53-11.56 1.61-23.12 3.38-34.56 14.44.25 28.92 1.24 43.33-.28 2.54-6.78 4.85-13.65 7.73-20.29 2.24-5.38 6.31-9.8 7.93-15.45-9.75-10.84-20.44-20.77-30.62-31.18 8.49-10.17 17.08-20.33 27.04-29.12 7.7-7.62 15.85-14.76 24.22-21.64 10.08 10.15 20.69 19.77 31.11 29.57 3.47-1.38 7.1-2.4 10.37-4.23 7.92-4.74 16.84-7.36 25.44-10.53 1.42-14.42.29-28.9.42-43.35zm-19.61 126.12c-10.66 10.48-17.27 24.28-21.24 38.54 4.29 5.35 10.02 10.16 17.01 11.1 13.29.26 26.58.44 39.87.81 3.38-5.63 7.6-11.14 14.02-13.43-.42-12.06-.62-24.12-.83-36.19.45-8.44-4.6-16.32-11.11-21.35-13.85 3.93-27.69 9.85-37.72 20.52zm63.48-3c-.35 13.21-.56 26.43-.82 39.65 5.64 2.54 10.68 6.66 13.07 12.52.47 1.91 2.71 1.06 4.07 1.22 12.07-.38 24.14-.46 36.2-.76 7.03-1.22 13.27-5.42 17.63-11.02-3.52-12.36-8.63-24.48-17.05-34.34-10.67-12.83-26.21-20.39-42.02-24.81-5.67 4.25-9.84 10.53-11.08 17.54zm-84.72 78.38c3.85 13.75 10.05 27.13 20.16 37.41 10.43 10.86 24.37 17.53 38.73 21.5 6.24-4.84 11.83-12.08 11.17-20.38.2-12.33.45-24.66.81-36.99-2.6-1.64-5.32-3.15-7.58-5.27-2.49-2.35-4.02-5.45-6-8.2-13.67.53-27.36.46-41.03.94-6.67 1.28-12.1 5.81-16.26 10.99zm97.38-11.85c-2.22 6.38-7.62 10.75-13.44 13.75.16 13.47.47 26.94.8 40.41 1.1 6.83 5.75 12.48 11.11 16.62 7.98-2.54 16.06-5.11 23.23-9.55 7.44-4.28 14.02-9.93 19.68-16.36 8.01-9.51 12.68-21.25 16.1-33.07-5.16-6.58-13.15-11.62-21.74-11.1-11.91-.27-23.83-.42-35.74-.7z" />
	</g>
</svg>