<?xml version="1.0" encoding="utf-8"?>
<svg xmlns="http://www.w3.org/2000/svg" width="500" height="500">
	<rect opacity="0" fill="#fff" width="500" height="500" />
	<path fill="#AEDE6C" d="M246.81 39.71c8.47-6.89 18.99-12.78 30.3-11.31 12.07 1.2 21.19 10 29.88 17.58 11.67 9.73 21.03 22.15 27.44 35.91 3.46 7.76 2.8 16.69 6.38 24.39 5.26 9.5 15.78 14.6 26.04 16.75 7.62 1.32 15.43 1.55 23.15 1.08 3.4-.12 5.87-2.76 8.65-4.36-1.37 3.31-3.93 5.89-6.05 8.73-6.11 7.52-12.44 15.22-20.95 20.15-7.71 5.11-17.13 9.04-26.52 6.86-7.2-1.99-13.73-5.8-20.13-9.56-19-11.6-37.45-25.21-50.24-43.72-3.21-4.61-3.1-10.52-5.51-15.46-2.51-4.77-8.18-6.42-13.14-7.15-14.27-1.71-28.97 0-42.36 5.26-4.48 1.74-7.6 5.52-11.19 8.53.34-1.25.88-2.39 1.64-3.43 9.1-13.01 18.19-26.1 28.75-37.99 4.07-4.68 9.05-8.4 13.86-12.26zm-75.65 70.47c-2.98 4.77-6.37 9.91-6 15.8.14 9.93 5.48 18.83 11.6 26.29 5.44 6.47 10.99 13.06 18.21 17.63 19.99 13.35 41.77 23.68 62.74 35.36 4.35 2.72 8.66 5.5 13.1 8.08 3.87 2.37 8.24 5.62 8.31 10.63.15 6.61-2.93 13.89-8.96 17.09-5.67 2.29-11.58-.68-17.01-2.33-11.14-2.91-19.08-12.46-30.3-15.19-11.96-3.29-24.3-.21-36.06 2.37-14.29 3.8-28.36 8.4-42.25 13.46-5.07 2.03-10.6 3.58-14.59 7.52-3.08 2.91-6.51 6.55-6.12 11.12 1.04 3.03 3.23 5.49 5 8.12 11.37 15.45 23.99 29.98 37.46 43.63 11.53 11.54 23.74 22.58 37.6 31.28 7.97 4.86 16.67 9.21 26.13 9.97 8.44.67 16.33-3.27 23.35-7.51 13.11-8.21 24.5-18.85 35.25-29.88 17.43-18.2 33.08-38.12 46.62-59.37 7.76-12.42 15.04-25.3 19.78-39.2 2.14-6.69 4.04-13.87 2.5-20.88-1.71-6.59-7.01-11.46-12.51-15.08-9.26-6-19.78-9.65-30.26-12.89-26.09-7.83-53.14-11.63-79.66-17.63-6.58-1.75-13.79-2.95-18.99-7.72-10.71-8.88-21.41-19.67-24.22-33.83-1.92-7.77 1.25-15.55 4.91-22.29 5.12-9.16 11.46-17.65 18.76-25.18.82-.81 1.4-1.77 1.76-2.88-4.45 3.36-7.83 7.88-11.7 11.86-12.19 13.25-24.38 26.66-34.45 41.65zm137.85 249.73c-21.48 14.37-44.59 26.1-67.79 37.4-20.41-8.86-41-17.74-59.72-29.89-22.32-15.34-43.43-32.33-64.63-49.17-2.87-2.19-5.46-4.76-8.6-6.58.76 1.81 1.75 3.51 2.82 5.16 15.26 23.86 30.94 47.49 47.98 70.13 13.88 18.54 29.67 35.55 45.71 52.22 12.48 12.94 25.26 25.59 38.22 38.04 25.77-25.66 51.19-51.75 74.43-79.74 14.05-17.22 26.6-35.58 38.9-54.07 9.49-14.47 18.94-28.99 27.76-43.88-3.77 1.84-6.43 5.25-9.73 7.77-21.29 18.13-42.52 36.42-65.35 52.61z" />
</svg>