<?xml version="1.0" encoding="utf-8"?>
<svg xmlns="http://www.w3.org/2000/svg" width="285" height="500">
	<g>
		<rect opacity="0" fill="#fff" width="285" height="500" />
		<path fill="#B70000" d="M173.53.66c-7.677 13.415-22.134 29.306-21.24 90.26-.34 16.92 6.11 33.09 13.99 47.77 19.034 36.534 73.052 71.624 97.616 93.721 2.257 2.03 6.622 6.226 7.107 6.747 6.872 7.387 13.883 23.08 13.077 30.832-1.21 14.36-5.61 28.21-10.38 41.73-3.612 12.148-25.645 55.52-40.01 73.95 3.213-21.764-.584-81.389-9.6-105.83-9.484-25.52-16.847-37.955-37.45-51.59-20.777-13.69-55.084-26.37-79.59-32.55-5.043-1.657-10.332-4.535-13.017-9.258-.48-.845-.817-1.769-1.013-2.72-1.989-9.652-.731-19.701 1.22-29.262 1.92-10.68 4.42-21.31 8.02-31.55-1.063 18.496 3.948 32.45 18.66 47.22 18.107 16.787 93.749 39.36 102.24 43.04-7.2-7.28-15.59-13.24-23.17-20.09-4.23-3.94-9.2-6.91-13.81-10.35-12.658-9.843-27.491-16.2-41.252-24.274-13.744-8.065-19.802-23.571-20.268-39.496-.49-13.8.86-27.67 4.14-41.09 2.47-13.29 7.85-25.83 14.5-37.54 6.947-14.111 27.894-37.907 30.23-39.67zm-121.486 247.647c-27.318 44.268-58.119 68.115-49.904 96.783 7.05 15.92 21.69 26.32 35.05 36.63 17.312 11.267 43.863 29.288 80.52 44.11-24.34-27.664-52.035-76.728-58.364-105.399-.248-1.123-.112-2.291.387-3.328.675-1.403 1.377-2.792 2.148-4.144 5.83-10.15 10.59-20.83 15.84-31.26 4.01-9.147 7.511-18.606 9.778-28.344 1.072-4.605 1.467-9.355 1.011-14.061-1.037-10.697-4.671-21.1-8.969-30.905-3.5-9.1-8.29-17.81-14.81-25.11-2.94-3.34-5.47-7.19-9.21-9.71 18.534 25.386 12.062 43.573-1.231 70.662-.684 1.392-1.432 2.758-2.246 4.076zm70.706 8.553c-7.27 10.1-14.49 20.3-20.54 31.19-4.647 7.139-9.306 14.518-12.396 22.507-3.013 7.791-3.966 12.74-.666 20.357 3.042 7.022 18.946 29.611 24.203 36.656 4.95 6.66 8.99 14.2 15.49 19.54 4.39 3.471 11.159 2.509 15.943-1.823 12.127-10.982 16.514-26.152 26.837-46.627 7.586-14.77 13.258-33.784 16.118-50.981 1.529-9.196 1.661-9.637-2.218-18.219-3.53-7.11-10.06-11.92-15.66-17.29-5.339-4.741-10.635-9.718-17.113-12.838-5.844-2.814-7.163-2.978-12.356-.221-7.409 3.933-12.316 11.437-17.642 17.749zm63.8 132.05c-7.64 17.271-18.983 30.316-24.71 36.92-7.066 8.365-23.802 17.188-32.288 16.284-16.923-1.802-31.09-9.734-44.792-18.944 7.55 10.47 13.92 21.87 22.87 31.26 8.81 9.77 16.57 20.62 26.97 28.82 14.238 11.885 23.386 14.415 33.486 15.414 3.056.302 6.157.096 9.099-.786 5.095-1.528 11.588-5.441 14.642-18.359.237-1.003 8.489-34.645 9.383-45.368 3.276-23.017.946-77.69-1.64-100.76-.97 5.78-.83 11.69-1.94 17.47-1.11 13.309-6.12 25.789-11.08 38.049z" />
	</g>
</svg>