<?xml version="1.0" encoding="utf-8"?>
<svg xmlns="http://www.w3.org/2000/svg" width="288" height="500">
	<rect opacity="0" fill="#fff" width="288" height="500" />
	<path fill="#00D4AC" d="M180.105 260.376c5.248 30.565-15.446 60.311-45.97 64.27-45.913 6.119-78.291-45.511-51.12-87.04-53.085 68.891 20.626 165.802 96.85 125.64 26.799-14.34 44.12-44.369 43.11-74.75.651-59.245-66.426-108.33-125.7-65.16 38.964-22.608 77.002 2.071 82.83 37.04zm-69.904 154.84c.573 1.592 1.49 3.027 2.438 4.421 11.657 17.151 25.405 49.422 29.27 66.583.41 1.821 1.401 7.46 1.485 7.756.332 1.174.674 1.248 1.046.07.096-.305 1.19-5.758 1.652-7.748 5.798-24.955 18.045-47.437 30.419-68.851-4.11 3.8-9.3 6.05-14.29 8.44-4.81 2.23-10.18 2.79-15.42 3-5.97.07-12.05.03-17.83-1.63-7.13-2.411-13.41-6.841-18.77-12.041zm38.917-390.602c12.959 38.986 41.094 85.131 67.579 115.263 16.823 16.923 31.455 32.276 42.153 46.748 15.853 21.445 25.253 44.47 24.538 80.116-.223 11.13-1.349 23.238-3.717 33.275-6.513 27.608-19.666 51.414-37.205 69.73-15.136 15.807-35.596 29.147-58.509 36.642 5.982-2.939 31.855-12.579 52.477-41.722 14.439-20.406 22.01-44.335 23.283-68.168 1.351-59.572-31.517-112.712-92.019-124.584-13.753-2.699-29.577-3.032-38.68-2.056-47.302 5.069-102.826 47.902-100.061 124.62.246 11.659 1.875 22.682 4.749 32.997 6.459 23.187 19.219 42.745 36.411 57.848 9.711 8.53 20.869 15.543 32.881 19.986-14.055-4.019-27.016-10.639-38.603-19.167-22.762-16.753-40.663-41.231-50.794-68.538-8.618-23.228-9.02-39.386-9.024-56.688-.007-30.568 9.017-52.053 22.443-70.943s31.256-35.187 48.86-55.379c21.103-24.207 52.72-75.76 63.969-112.967 3.504-11.589 3.74-17.031 4.152-16.481s1.002 7.09 5.117 19.468z" />
</svg>