<?xml version="1.0" encoding="utf-8"?>
<svg xmlns="http://www.w3.org/2000/svg" width="1620" height="376">
	<g id="2nd" transform="translate(0,200)">
		<g id="bg">
			<path opacity=".3" fill="#fff" d="M0 176v-29.5h32c9.665 0 17.5-7.835 17.5-17.5v-64c0-9.665-7.835-17.5-17.5-17.5h-32v-29.5h91v158h-91z" />
			<linearGradient id="2nd_bg_a" gradientUnits="userSpaceOnUse" x1="100.5" y1="97" x2="1620" y2="97">
				<stop offset="0" stop-color="#fff" stop-opacity=".3" />
				<stop offset="1" stop-color="#fff" stop-opacity=".05" />
			</linearGradient>
			<rect x="100.5" y="18" fill="url(#2nd_bg_a)" width="840" height="158" />
		</g>
		<g id="gauge">
			<linearGradient id="2nd_hp_a" gradientUnits="userSpaceOnUse" x1="609.75" y1="81" x2="609.75" y2="113">
				<stop offset="0" stop-color="#65A719" />
				<stop offset="1" stop-color="#87D529" />
			</linearGradient>
			<polygon fill="url(#2nd_hp_a)" points="878.75,81 340.75,81 340.75,113 860.275,113" />
		</g>
		<g id="wrapper">
			<path fill="#373737" d="M330.75 70.5v52h535.299l30.022-52h-565.321zm529.525 42.5h-519.525v-32h538l-18.475 32z" />
			<linearGradient id="2nd_w_a" gradientUnits="userSpaceOnUse" x1="613.293" y1="68.5" x2="613.293" y2="121.5">
				<stop offset="0" stop-color="#373232" />
				<stop offset="1" stop-color="#252525" />
			</linearGradient>
			<path fill="url(#2nd_w_a)" d="M329.95 68.5v53h536.087l30.599-53h-566.686zm561.49 3l-27.135 47h-531.355v-47h558.49z" />
			<path fill="#FBFBFB" d="M329.95 70.5v53h536.087l30.599-53h-566.686zm561.49 3l-27.135 47h-531.355v-47h558.49z" />
		</g>
		<g id="Names">
			<g id="Schmitt" display="none">
				<path fill="#4D4D4D" d="M147.549 75.968v-5.295h-10.585v18.353h12.601c2.808 0 5.041 2.248 5.041 5.005v22.561c0 2.756-2.232 5.005-5.041 5.005h-14.689c-2.736 0-4.968-2.249-4.968-5.005v-7.399h7.057v5.295h10.585v-18.354h-12.673c-2.736 0-4.968-2.248-4.968-5.005v-22.56c0-2.756 2.232-5.005 4.968-5.005h19.73v12.404h-7.058zm24.766 16.611v-5.295h-6.48v27.202h6.48v-5.295h7.057v7.399c0 2.756-2.232 5.005-5.041 5.005h-10.585c-2.736 0-4.968-2.249-4.968-5.005v-31.41c0-2.757 2.232-5.006 4.968-5.006h15.625v12.404h-7.056zm31.608-7.398v36.415h-7.057v-34.312h-6.48v34.312h-7.057v-58.032h7.057v16.611h8.497c2.808 0 5.04 2.249 5.04 5.006zm37.944-5.006v41.421h-7.057v-34.312h-5.833v34.312h-7.128v-34.312h-5.833v34.312h-7.057v-36.415c0-2.757 2.232-5.006 4.968-5.006h27.94zm12.021-12.114v8.271h-7.057v-8.271h7.057zm-7.056 12.114h7.057v41.421h-7.057v-41.421zm32.617 34.312v7.109h-15.625c-2.736 0-4.968-2.249-4.968-5.005v-48.893h7.057v12.477h13.537v7.109h-13.537v27.202h13.536zm24.119 0v7.109h-15.625c-2.736 0-4.968-2.249-4.968-5.005v-48.893h7.057v12.477h13.537v7.109h-13.537v27.202h13.536z" />
				<path fill="#FBFBFB" d="M147.548 77.56v-5.295h-10.585v18.353h12.601c2.808 0 5.041 2.248 5.041 5.005v22.561c0 2.756-2.232 5.005-5.041 5.005h-14.689c-2.736 0-4.968-2.249-4.968-5.005v-7.399h7.057v5.295h10.585v-18.354h-12.673c-2.736 0-4.968-2.248-4.968-5.005v-22.561c0-2.756 2.232-5.005 4.968-5.005h19.73v12.405h-7.058zm24.767 16.611v-5.295h-6.48v27.202h6.48v-5.295h7.057v7.399c0 2.756-2.232 5.005-5.041 5.005h-10.585c-2.736 0-4.968-2.249-4.968-5.005v-31.41c0-2.757 2.232-5.006 4.968-5.006h15.625v12.404h-7.056zm31.608-7.398v36.415h-7.057v-34.312h-6.48v34.312h-7.057v-58.033h7.057v16.611h8.497c2.808.001 5.04 2.25 5.04 5.007zm37.944-5.006v41.421h-7.057v-34.312h-5.833v34.312h-7.128v-34.312h-5.833v34.312h-7.057v-36.415c0-2.757 2.232-5.006 4.968-5.006h27.94zm12.021-12.114v8.271h-7.057v-8.271h7.057zm-7.057 12.114h7.057v41.421h-7.057v-41.421zm32.617 34.311v7.109h-15.625c-2.736 0-4.968-2.249-4.968-5.005v-48.892h7.057v12.477h13.537v7.109h-13.537v27.202h13.536zm24.119 0v7.109h-15.625c-2.736 0-4.968-2.249-4.968-5.005v-48.892h7.057v12.477h13.537v7.109h-13.538v27.202h13.537z" />
			</g>
			<g id="Lisbeth" display="none">
				<path fill="#4D4D4D" d="M160.545 121.596h-24.698v-58.032h7.057v50.923h17.642v7.109zm9.143-53.535v8.271h-7.057v-8.271h7.057zm-7.057 12.114h7.057v41.421h-7.057v-41.421zm25.56 12.404v-5.295h-6.48v10.011h8.497c2.809 0 5.041 2.249 5.041 5.077v14.219c0 2.756-2.232 5.005-5.041 5.005h-10.585c-2.736 0-4.968-2.249-4.968-5.005v-7.399h7.057v5.295h6.48v-10.083h-8.569c-2.736 0-4.968-2.248-4.968-5.005v-14.218c0-2.757 2.232-5.006 4.968-5.006h15.625v12.404h-7.057zm32.473-12.404v36.416c0 2.756-2.232 5.005-5.041 5.005h-15.553v-58.032h7.057v16.611h13.537zm-7.057 7.109h-6.48v27.202h6.48v-27.202zm32.544 16.249c0 2.757-2.232 5.078-5.041 5.078h-8.497v5.875h13.537v7.109h-15.625c-2.736 0-4.968-2.249-4.968-5.005v-31.41c0-2.757 2.232-5.006 4.968-5.006h15.625v23.359zm-7.056-2.103v-14.146h-6.48v14.146h6.48zm32.904 13.057v7.109h-15.625c-2.736 0-4.968-2.249-4.968-5.005v-48.893h7.057v12.477h13.537v7.109h-13.537v27.202h13.536zm24.119-29.306v36.415h-7.057v-34.312h-6.48v34.312h-7.057v-58.032h7.057v16.611h8.497c2.808 0 5.04 2.249 5.04 5.006z" />
				<path fill="#FBFBFB" d="M160.544 123.188h-24.698v-58.033h7.057v50.923h17.642v7.11zm9.143-53.535v8.271h-7.057v-8.271h7.057zm-7.057 12.114h7.057v41.421h-7.057v-41.421zm25.56 12.404v-5.295h-6.48v10.011h8.497c2.809 0 5.041 2.249 5.041 5.077v14.219c0 2.756-2.232 5.005-5.041 5.005h-10.585c-2.736 0-4.968-2.249-4.968-5.005v-7.399h7.057v5.295h6.48v-10.083h-8.569c-2.736 0-4.968-2.248-4.968-5.005v-14.218c0-2.757 2.232-5.006 4.968-5.006h15.625v12.404h-7.057zm32.473-12.404v36.416c0 2.756-2.232 5.005-5.041 5.005h-15.553v-58.033h7.057v16.611h13.537zm-7.057 7.109h-6.48v27.202h6.48v-27.202zm32.544 16.249c0 2.757-2.232 5.078-5.041 5.078h-8.497v5.875h13.537v7.109h-15.625c-2.736 0-4.968-2.249-4.968-5.005v-31.41c0-2.757 2.232-5.006 4.968-5.006h15.625v23.359zm-7.056-2.103v-14.146h-6.48v14.146h6.48zm32.904 13.056v7.109h-15.625c-2.736 0-4.968-2.249-4.968-5.005v-48.892h7.057v12.477h13.537v7.109h-13.537v27.202h13.536zm24.119-29.305v36.415h-7.057v-34.312h-6.48v34.312h-7.057v-58.033h7.057v16.611h8.497c2.808.001 5.04 2.25 5.04 5.007z" />
			</g>
			<g id="Silica" display="none">
				<path fill="#4D4D4D" d="M157.892 75.968v-5.295h-10.585v18.353h12.601c2.808 0 5.041 2.248 5.041 5.005v22.561c0 2.756-2.232 5.005-5.041 5.005h-14.689c-2.736 0-4.968-2.249-4.968-5.005v-7.399h7.057v5.295h10.585v-18.354h-12.673c-2.736 0-4.968-2.248-4.968-5.005v-22.56c0-2.756 2.232-5.005 4.968-5.005h19.73v12.404h-7.058zm18.286-7.907v8.271h-7.057v-8.271h7.057zm-7.057 12.114h7.057v41.421h-7.057v-41.421zm24.337 34.312v7.109h-12.313v-58.032h7.057v50.923h5.256zm11.159-46.426v8.271h-7.057v-8.271h7.057zm-7.056 12.114h7.057v41.421h-7.057v-41.421zm25.56 12.404v-5.295h-6.48v27.202h6.48v-5.295h7.057v7.399c0 2.756-2.232 5.005-5.041 5.005h-10.585c-2.736 0-4.968-2.249-4.968-5.005v-31.41c0-2.757 2.232-5.006 4.968-5.006h15.625v12.404h-7.056zm31.608 29.017h-15.625c-2.736 0-4.968-2.249-4.968-5.005v-18.426c0-2.757 2.232-5.005 4.968-5.005h8.569v-3.192l-13.537-2.684v-7.109l15.553 3.119c2.665.508 5.041 3.265 5.041 6.021v32.281zm-7.128-21.327h-6.409v14.218h6.409v-14.218z" />
				<path fill="#FBFBFB" d="M157.892 77.56v-5.295h-10.585v18.353h12.601c2.808 0 5.041 2.248 5.041 5.005v22.561c0 2.756-2.232 5.005-5.041 5.005h-14.689c-2.736 0-4.968-2.249-4.968-5.005v-7.399h7.057v5.295h10.585v-18.354h-12.673c-2.736 0-4.968-2.248-4.968-5.005v-22.561c0-2.756 2.232-5.005 4.968-5.005h19.73v12.405h-7.058zm18.286-7.907v8.271h-7.057v-8.271h7.057zm-7.057 12.114h7.057v41.421h-7.057v-41.421zm24.337 34.311v7.109h-12.313v-58.032h7.057v50.923h5.256zm11.159-46.425v8.271h-7.057v-8.271h7.057zm-7.056 12.114h7.057v41.421h-7.057v-41.421zm25.56 12.404v-5.295h-6.48v27.202h6.48v-5.295h7.057v7.399c0 2.756-2.232 5.005-5.041 5.005h-10.585c-2.736 0-4.968-2.249-4.968-5.005v-31.41c0-2.757 2.232-5.006 4.968-5.006h15.625v12.404h-7.056zm31.608 29.017h-15.625c-2.736 0-4.968-2.249-4.968-5.005v-18.426c0-2.757 2.232-5.005 4.968-5.005h8.569v-3.192l-13.537-2.684v-7.109l15.553 3.119c2.665.508 5.041 3.265 5.041 6.021v32.281zm-7.128-21.327h-6.409v14.218h6.409v-14.218z" />
			</g>
			<g id="Asuna">
				<path fill="#4D4D4D" d="M164.948 121.596h-7.057l-1.512-21.327h-7.561l-1.512 21.327h-7.057l3.744-53.027c.216-2.756 2.592-5.005 5.329-5.005h11.521l4.105 58.032zm-9.073-28.436l-1.584-22.487h-3.384l-1.584 22.487h6.552zm27.792-.581v-5.295h-6.48v10.011h8.497c2.809 0 5.041 2.249 5.041 5.077v14.219c0 2.756-2.232 5.005-5.041 5.005h-10.585c-2.736 0-4.968-2.249-4.968-5.005v-7.399h7.057v5.295h6.48v-10.083h-8.569c-2.736 0-4.968-2.248-4.968-5.005v-14.218c0-2.757 2.232-5.006 4.968-5.006h15.625v12.404h-7.057zm32.472-12.404v41.421h-15.625c-2.736 0-4.968-2.249-4.968-5.005v-36.416h7.057v34.312h6.48v-34.312h7.056zm25.559 0v41.421h-7.057v-34.312h-6.48v34.312h-7.057v-36.415c0-2.757 2.232-5.006 4.968-5.006h15.626zm25.56 41.421h-15.625c-2.736 0-4.968-2.249-4.968-5.005v-18.426c0-2.757 2.232-5.005 4.968-5.005h8.569v-3.192l-13.537-2.684v-7.109l15.553 3.119c2.665.508 5.041 3.265 5.041 6.021v32.281zm-7.129-21.327h-6.409v14.218h6.409v-14.218z" />
				<path fill="#FBFBFB" d="M164.948 123.188h-7.057l-1.512-21.327h-7.561l-1.512 21.327h-7.057l3.744-53.027c.216-2.756 2.592-5.005 5.329-5.005h11.521l4.105 58.032zm-9.073-28.436l-1.584-22.487h-3.384l-1.584 22.487h6.552zm27.792-.581v-5.295h-6.48v10.011h8.497c2.809 0 5.041 2.249 5.041 5.077v14.219c0 2.756-2.232 5.005-5.041 5.005h-10.585c-2.736 0-4.968-2.249-4.968-5.005v-7.399h7.057v5.295h6.48v-10.083h-8.569c-2.736 0-4.968-2.248-4.968-5.005v-14.218c0-2.757 2.232-5.006 4.968-5.006h15.625v12.404h-7.057zm32.472-12.404v41.421h-15.625c-2.736 0-4.968-2.249-4.968-5.005v-36.416h7.057v34.312h6.48v-34.312h7.056zm25.559 0v41.421h-7.057v-34.312h-6.48v34.312h-7.057v-36.415c0-2.757 2.232-5.006 4.968-5.006h15.626zm25.56 41.421h-15.625c-2.736 0-4.968-2.249-4.968-5.005v-18.426c0-2.757 2.232-5.005 4.968-5.005h8.569v-3.192l-13.537-2.684v-7.109l15.553 3.119c2.665.508 5.041 3.265 5.041 6.021v32.281zm-7.129-21.327h-6.409v14.218h6.409v-14.218z" />
			</g>
			<g id="Kirito" display="none">
				<path fill="#4D4D4D" d="M156.739 86.414l8.209 35.182h-7.057l-5.473-23.285-5.112 14.146v9.14h-7.057v-58.033h7.057v29.233l10.585-29.233h7.057l-8.209 22.85zm20.231-18.353v8.271h-7.057v-8.271h7.057zm-7.057 12.114h7.057v41.421h-7.057v-41.421zm32.617 0v7.109l-13.537 2.684v31.628h-7.057v-32.28c0-2.757 2.376-5.514 4.968-6.021l15.626-3.12zm9.934-12.114v8.271h-7.057v-8.271h7.057zm-7.056 12.114h7.057v41.421h-7.057v-41.421zm32.617 34.312v7.109h-15.625c-2.736 0-4.968-2.249-4.968-5.005v-48.893h7.057v12.477h13.537v7.109h-13.537v27.202h13.536zm19.079 7.109h-10.585c-2.736 0-4.968-2.249-4.968-5.005v-31.41c0-2.757 2.232-5.006 4.968-5.006h10.585c2.809 0 5.041 2.249 5.041 5.006v31.41c0 2.756-2.232 5.005-5.041 5.005zm-2.016-34.312h-6.48v27.202h6.48v-27.202z" />
				<path fill="#FBFBFB" d="M156.739 88.006l8.209 35.182h-7.057l-5.473-23.285-5.112 14.146v9.14h-7.057v-58.034h7.057v29.233l10.585-29.233h7.057l-8.209 22.851zm20.231-18.353v8.271h-7.057v-8.271h7.057zm-7.057 12.114h7.057v41.421h-7.057v-41.421zm32.617 0v7.109l-13.537 2.684v31.628h-7.057v-32.28c0-2.757 2.376-5.514 4.968-6.021l15.626-3.12zm9.934-12.114v8.271h-7.057v-8.271h7.057zm-7.056 12.114h7.057v41.421h-7.057v-41.421zm32.617 34.311v7.109h-15.625c-2.736 0-4.968-2.249-4.968-5.005v-48.892h7.057v12.477h13.537v7.109h-13.537v27.202h13.536zm19.079 7.11h-10.585c-2.736 0-4.968-2.249-4.968-5.005v-31.41c0-2.757 2.232-5.006 4.968-5.006h10.585c2.809 0 5.041 2.249 5.041 5.006v31.41c0 2.756-2.232 5.005-5.041 5.005zm-2.016-34.312h-6.48v27.202h6.48v-27.202z" />
			</g>
		</g>
		<g id="plus" stroke="#4D4D4D" stroke-miterlimit="10" display="none">
			<path fill="#fff" stroke-width="3" d="M32 47.5h-64c-9.665 0-17.5 7.835-17.5 17.5v64c0 9.665 7.835 17.5 17.5 17.5h64c9.665 0 17.5-7.835 17.5-17.5v-64c0-9.665-7.835-17.5-17.5-17.5z" />
			<g stroke-width="8" fill="none">
				<line y1="69" y2="125" />
				<line x1="-28" y1="97" x2="28" y2="97" />
			</g>
		</g>
		<g id="para" display="none">
			<polygon fill="#C5C525" stroke="#C5C525" stroke-width="4" stroke-linecap="round" stroke-linejoin="round" points="926.427,54 876.775,140 972.123,140 1021.775,54" />
			<polygon points="980.275,65 922.275,101.5 943.775,101.5 918.775,129 977.775,92.5 955.275,92.5" />
		</g>
	</g>
	<g id="1st">
		<g id="bg">
			<polygon id="gauge_bg" opacity=".09" fill="#fff" points="951.315,104.5 930.53,140.5 332.95,140.5 332.95,53.5 1514.975,53.5 1485.53,104.5" />
			<path opacity=".3" fill="#fff" d="M0 0h91v194h-91v-47.5h32c9.665 0 17.5-7.835 17.5-17.5v-64c0-9.665-7.835-17.5-17.5-17.5h-32v-47.5z" />
			<g id="without_status" display="none">
				<linearGradient id="1st_bg_a" gradientUnits="userSpaceOnUse" x1="100.5" y1="97" x2="1620" y2="97">
					<stop offset="0" stop-color="#fff" stop-opacity=".3" />
					<stop offset="1" stop-color="#fff" stop-opacity=".01" />
				</linearGradient>
				<path fill="url(#1st_bg_a)" d="M1620 0l-112.006 194h-1407.494v-194h1519.5zm-105.025 53.5h-1182.025v87h597.58l20.785-36h534.215l29.445-51z" />
			</g>
			<g id="with_status">
				<linearGradient id="1st_bg_b" gradientUnits="userSpaceOnUse" x1="100.5" y1="129" x2="1620" y2="129">
					<stop offset="0" stop-color="#fff" stop-opacity=".3" />
					<stop offset="1" stop-color="#fff" stop-opacity=".05" />
				</linearGradient>
				<path fill="url(#1st_bg_b)" d="M1540.614 137.5l79.386-137.5h-1519.5v194h867v-35c0-11.874 9.626-21.5 21.5-21.5h551.614zm-589.299-33l-20.785 36h-597.58v-87h1182.025l-29.445 51h-534.215zm616.185 54.5v84c0 8.284-6.716 15-15 15h-182.75v-114h182.75c8.284 0 15 6.716 15 15zm-578.5-15h374.25v114h-374.25c-8.284 0-15-6.716-15-15v-84c0-8.284 6.716-15 15-15z" />
			</g>
		</g>
		<g id="gauge">
			<g id="green">
				<g>
					<linearGradient id="1st_hp_a" gradientUnits="userSpaceOnUse" x1="921.217" y1="61" x2="921.217" y2="133">
						<stop offset="0" stop-color="#65A719" />
						<stop offset="1" stop-color="#87D529" />
					</linearGradient>
					<polygon fill="url(#1st_hp_a)" points="946.985,97 1481.2,97 1501.985,61 340.45,61 340.45,133 926.2,133" />
				</g>
				<g id="max (4%)">
					<polygon fill="#93C856" points="1481.2,97 1501.985,61 1455.784,61 1435,97" />
				</g>
			</g>
			<g id="yellow" display="none">
				<linearGradient id="1st_hp_c" gradientUnits="userSpaceOnUse" x1="921.217" y1="61" x2="921.217" y2="133">
					<stop offset="0" stop-color="#939409" />
					<stop offset="1" stop-color="#B4B733" />
				</linearGradient>
				<polygon fill="url(#1st_hp_c)" points="946.985,97 1481.2,97 1501.985,61 340.45,61 340.45,133 926.2,133" />
			</g>
			<g id="red" display="none">
				<linearGradient id="1st_hp_d" gradientUnits="userSpaceOnUse" x1="921.217" y1="61" x2="921.217" y2="133">
					<stop offset="0" stop-color="#890034" />
					<stop offset="1" stop-color="#AE0750" />
				</linearGradient>
				<polygon fill="url(#1st_hp_d)" points="946.985,97 1481.2,97 1501.985,61 340.45,61 340.45,133 926.2,133" />
			</g>
			<g id="yellow (54.75%)" display="none">
				<linearGradient id="1st_hp2_a" gradientUnits="userSpaceOnUse" x1="658.362" y1="61" x2="658.362" y2="133">
					<stop offset="0" stop-color="#939409" />
					<stop offset="1" stop-color="#B4B733" />
				</linearGradient>
				<polygon fill="url(#1st_hp2_a)" points="955.489,97 976.274,61 340.45,61 340.45,133 926.2,133 946.985,97" />
			</g>
			<g id="red (21.25%)" display="none">
				<linearGradient id="1st_hp2_b" gradientUnits="userSpaceOnUse" x1="463.863" y1="61" x2="463.863" y2="133">
					<stop offset="0" stop-color="#890034" />
					<stop offset="1" stop-color="#AE0750" />
				</linearGradient>
				<polygon fill="url(#1st_hp2_b)" points="587.276,61 545.707,133 340.45,133 340.45,61" />
			</g>
		</g>
		<g id="wrapper">
			<path fill="#373737" d="M330.75 50.5v92h601.523l20.785-36h534.215l32.332-56h-1188.855zm1150.45 46.5h-534.215l-20.785 36h-585.75v-72h1161.535l-20.785 36z" />
			<linearGradient id="1st_w_a" gradientUnits="userSpaceOnUse" x1="925.061" y1="49" x2="925.061" y2="142">
				<stop offset="0" stop-color="#373232" />
				<stop offset="1" stop-color="#161616" />
			</linearGradient>
			<path fill="url(#1st_w_a)" d="M1520.171 49h-1190.221v93h602.312l20.785-36h534.215l32.909-57zm-568.856 54l-20.785 36h-597.58v-87h1182.025l-29.445 51h-534.215z" />
			<path fill="#FBFBFB" d="M1520.171 50.5h-1190.221v93h602.312l20.785-36h534.215l32.909-57zm-568.856 54l-20.785 36h-597.58v-87h1182.025l-29.445 51h-534.215z" />
		</g>
		<g id="Status">
			<g id="lv1" display="none">
				<path fill="#4D4D4D" d="M1515.591 174.76v48.401h-5.929v-42.471h-4.417v-5.93h10.346zm-93.839 48.401h-20.752v-48.401h5.929v42.473h14.823v5.928zm22.506-48.401l-3.448 48.401h-13.855l-3.448-48.401h5.929l3.025 42.473h2.844l3.025-42.473h5.928zm10.042 13.855v5.929h-5.929v-5.929h5.929zm-5.929 28.618h5.929v5.929h-5.929v-5.929zm-180.226-15.308v15.308h14.822v5.929h-20.751v-22.99c0-2.299 1.875-4.175 4.234-4.175h10.588v-15.307h-8.894v4.416h-5.929v-6.171c0-2.299 1.875-4.175 4.234-4.175h16.517v22.991c0 2.299-1.875 4.174-4.174 4.174h-10.647zm27.164-21.235v15.307h10.648c2.299 0 4.174 1.876 4.174 4.175v18.815c0 2.299-1.875 4.175-4.174 4.175h-16.577v-5.929h14.822v-15.308h-14.822v-27.165h20.751v5.93h-14.822zm41.986-5.93v44.227c0 2.299-1.875 4.175-4.174 4.175h-12.343c-2.359 0-4.234-1.876-4.234-4.175v-40.052c0-2.299 1.875-4.175 4.234-4.175h16.517zm-5.929 5.93h-8.894v36.543h8.894v-36.543zm-159.392 42.471h-5.929l7.744-54.33h5.929l-7.744 54.33zm-95.829-21.236v15.308h14.822v5.929h-20.751v-22.99c0-2.299 1.875-4.175 4.234-4.175h10.588v-15.307h-8.894v4.416h-5.929v-6.171c0-2.299 1.875-4.175 4.234-4.175h16.517v22.991c0 2.299-1.875 4.174-4.174 4.174h-10.647zm27.164-21.235v15.307h10.648c2.299 0 4.174 1.876 4.174 4.175v18.815c0 2.299-1.875 4.175-4.174 4.175h-16.577v-5.929h14.822v-15.308h-14.822v-27.165h20.751v5.93h-14.822zm41.986-5.93v44.227c0 2.299-1.875 4.175-4.174 4.175h-12.343c-2.359 0-4.234-1.876-4.234-4.175v-40.052c0-2.299 1.875-4.175 4.234-4.175h16.517zm-5.929 5.93h-8.894v36.543h8.894v-36.543z" />
				<path fill="#FBFBFB" d="M1515.591 176.26v48.401h-5.929v-42.471h-4.417v-5.93h10.346zm-93.839 48.401h-20.752v-48.401h5.929v42.473h14.823v5.928zm22.506-48.401l-3.448 48.401h-13.855l-3.448-48.401h5.929l3.025 42.473h2.844l3.025-42.473h5.928zm10.042 13.855v5.929h-5.929v-5.929h5.929zm-5.929 28.618h5.929v5.929h-5.929v-5.929zm-180.226-15.308v15.308h14.822v5.929h-20.751v-22.99c0-2.299 1.875-4.175 4.234-4.175h10.588v-15.307h-8.894v4.416h-5.929v-6.171c0-2.299 1.875-4.175 4.234-4.175h16.517v22.991c0 2.299-1.875 4.174-4.174 4.174h-10.647zm27.164-21.235v15.307h10.648c2.299 0 4.174 1.876 4.174 4.175v18.815c0 2.299-1.875 4.175-4.174 4.175h-16.577v-5.929h14.822v-15.308h-14.822v-27.165h20.751v5.93h-14.822zm41.986-5.93v44.227c0 2.299-1.875 4.175-4.174 4.175h-12.343c-2.359 0-4.234-1.876-4.234-4.175v-40.052c0-2.299 1.875-4.175 4.234-4.175h16.517zm-5.929 5.93h-8.894v36.543h8.894v-36.543zm-159.392 42.471h-5.929l7.744-54.33h5.929l-7.744 54.33zm-95.829-21.236v15.308h14.822v5.929h-20.751v-22.99c0-2.299 1.875-4.175 4.234-4.175h10.588v-15.307h-8.894v4.416h-5.929v-6.171c0-2.299 1.875-4.175 4.234-4.175h16.517v22.991c0 2.299-1.875 4.174-4.174 4.174h-10.647zm27.164-21.235v15.307h10.648c2.299 0 4.174 1.876 4.174 4.175v18.815c0 2.299-1.875 4.175-4.174 4.175h-16.577v-5.929h14.822v-15.308h-14.822v-27.165h20.751v5.93h-14.822zm41.986-5.93v44.227c0 2.299-1.875 4.175-4.174 4.175h-12.343c-2.359 0-4.234-1.876-4.234-4.175v-40.052c0-2.299 1.875-4.175 4.234-4.175h16.517zm-5.929 5.93h-8.894v36.543h8.894v-36.543z" />
			</g>
			<g id="lv40" display="none">
				<path fill="#4D4D4D" d="M1493.63 174.76v48.401h-5.929v-21.236h-10.588c-2.359 0-4.234-1.875-4.234-4.174v-22.991h5.929v21.236h8.894v-21.236h5.928zm27.164 0v44.227c0 2.299-1.875 4.175-4.174 4.175h-12.343c-2.359 0-4.234-1.876-4.234-4.175v-40.052c0-2.299 1.875-4.175 4.234-4.175h16.517zm-5.929 5.93h-8.894v36.543h8.894v-36.543zm-93.113 42.471h-20.752v-48.401h5.929v42.473h14.823v5.928zm22.506-48.401l-3.448 48.401h-13.855l-3.448-48.401h5.929l3.025 42.473h2.844l3.025-42.473h5.928zm10.042 13.855v5.929h-5.929v-5.929h5.929zm-5.929 28.618h5.929v5.929h-5.929v-5.929zm-196.742 5.928h-12.343c-2.359 0-4.234-1.876-4.234-4.175v-40.052c0-2.299 1.875-4.175 4.174-4.175h12.403c2.299 0 4.174 1.876 4.174 4.175v40.052c0 2.299-1.875 4.175-4.174 4.175zm-1.755-42.471h-8.894v15.307h8.894v-15.307zm0 21.235h-8.894v15.308h8.894v-15.308zm27.89-27.165v48.401h-5.929v-42.471h-4.417v-5.93h10.346zm17.545 27.165v15.308h14.822v5.929h-20.751v-22.99c0-2.299 1.875-4.175 4.234-4.175h10.588v-15.307h-8.894v4.416h-5.929v-6.171c0-2.299 1.875-4.175 4.234-4.175h16.517v22.991c0 2.299-1.875 4.174-4.174 4.174h-10.647zm41.986-27.165v44.227c0 2.299-1.875 4.175-4.174 4.175h-12.343c-2.359 0-4.234-1.876-4.234-4.175v-40.052c0-2.299 1.875-4.175 4.234-4.175h16.517zm-5.929 5.93h-8.894v36.543h8.894v-36.543zm-159.392 42.471h-5.929l7.744-54.33h5.929l-7.744 54.33zm-112.345 0h-12.343c-2.359 0-4.234-1.876-4.234-4.175v-40.052c0-2.299 1.875-4.175 4.174-4.175h12.403c2.299 0 4.174 1.876 4.174 4.175v40.052c0 2.299-1.875 4.175-4.174 4.175zm-1.755-42.471h-8.894v15.307h8.894v-15.307zm0 21.235h-8.894v15.308h8.894v-15.308zm27.89-27.165v48.401h-5.929v-42.471h-4.417v-5.93h10.346zm17.545 27.165v15.308h14.822v5.929h-20.751v-22.99c0-2.299 1.875-4.175 4.234-4.175h10.588v-15.307h-8.894v4.416h-5.929v-6.171c0-2.299 1.875-4.175 4.234-4.175h16.517v22.991c0 2.299-1.875 4.174-4.174 4.174h-10.647zm41.986-27.165v44.227c0 2.299-1.875 4.175-4.174 4.175h-12.343c-2.359 0-4.234-1.876-4.234-4.175v-40.052c0-2.299 1.875-4.175 4.234-4.175h16.517zm-5.929 5.93h-8.894v36.543h8.894v-36.543z" />
				<path fill="#FBFBFB" d="M1493.63 176.26v48.401h-5.929v-21.236h-10.588c-2.359 0-4.234-1.875-4.234-4.174v-22.991h5.929v21.236h8.894v-21.236h5.928zm27.164 0v44.227c0 2.299-1.875 4.175-4.174 4.175h-12.343c-2.359 0-4.234-1.876-4.234-4.175v-40.052c0-2.299 1.875-4.175 4.234-4.175h16.517zm-5.929 5.93h-8.894v36.543h8.894v-36.543zm-93.113 42.471h-20.752v-48.401h5.929v42.473h14.823v5.928zm22.506-48.401l-3.448 48.401h-13.855l-3.448-48.401h5.929l3.025 42.473h2.844l3.025-42.473h5.928zm10.042 13.855v5.929h-5.929v-5.929h5.929zm-5.929 28.618h5.929v5.929h-5.929v-5.929zm-196.742 5.928h-12.343c-2.359 0-4.234-1.876-4.234-4.175v-40.052c0-2.299 1.875-4.175 4.174-4.175h12.403c2.299 0 4.174 1.876 4.174 4.175v40.052c0 2.299-1.875 4.175-4.174 4.175zm-1.755-42.471h-8.894v15.307h8.894v-15.307zm0 21.235h-8.894v15.308h8.894v-15.308zm27.89-27.165v48.401h-5.929v-42.471h-4.417v-5.93h10.346zm17.545 27.165v15.308h14.822v5.929h-20.751v-22.99c0-2.299 1.875-4.175 4.234-4.175h10.588v-15.307h-8.894v4.416h-5.929v-6.171c0-2.299 1.875-4.175 4.234-4.175h16.517v22.991c0 2.299-1.875 4.174-4.174 4.174h-10.647zm41.986-27.165v44.227c0 2.299-1.875 4.175-4.174 4.175h-12.343c-2.359 0-4.234-1.876-4.234-4.175v-40.052c0-2.299 1.875-4.175 4.234-4.175h16.517zm-5.929 5.93h-8.894v36.543h8.894v-36.543zm-159.392 42.471h-5.929l7.744-54.33h5.929l-7.744 54.33zm-112.345 0h-12.343c-2.359 0-4.234-1.876-4.234-4.175v-40.052c0-2.299 1.875-4.175 4.174-4.175h12.403c2.299 0 4.174 1.876 4.174 4.175v40.052c0 2.299-1.875 4.175-4.174 4.175zm-1.755-42.471h-8.894v15.307h8.894v-15.307zm0 21.235h-8.894v15.308h8.894v-15.308zm27.89-27.165v48.401h-5.929v-42.471h-4.417v-5.93h10.346zm17.545 27.165v15.308h14.822v5.929h-20.751v-22.99c0-2.299 1.875-4.175 4.234-4.175h10.588v-15.307h-8.894v4.416h-5.929v-6.171c0-2.299 1.875-4.175 4.234-4.175h16.517v22.991c0 2.299-1.875 4.174-4.174 4.174h-10.647zm41.986-27.165v44.227c0 2.299-1.875 4.175-4.174 4.175h-12.343c-2.359 0-4.234-1.876-4.234-4.175v-40.052c0-2.299 1.875-4.175 4.234-4.175h16.517zm-5.929 5.93h-8.894v36.543h8.894v-36.543z" />
			</g>
			<g id="lv44_silica" display="none">
				<path fill="#4D4D4D" d="M1493.63 174.76v48.401h-5.929v-21.236h-10.588c-2.359 0-4.234-1.875-4.234-4.174v-22.991h5.929v21.236h8.894v-21.236h5.928zm27.164 0v48.401h-5.929v-21.236h-10.588c-2.359 0-4.234-1.875-4.234-4.174v-22.991h5.929v21.236h8.894v-21.236h5.928zm-99.042 48.401h-20.752v-48.401h5.929v42.473h14.823v5.928zm22.506-48.401l-3.448 48.401h-13.855l-3.448-48.401h5.929l3.025 42.473h2.844l3.025-42.473h5.928zm10.042 13.855v5.929h-5.929v-5.929h5.929zm-5.929 28.618h5.929v5.929h-5.929v-5.929zm-192.568-42.473v44.227c0 2.299-1.875 4.175-4.174 4.175h-16.577v-5.929h14.822v-15.308h-10.588c-2.359 0-4.234-1.875-4.234-4.174v-18.816c0-2.299 1.875-4.175 4.234-4.175h16.517zm-5.929 5.93h-8.894v15.307h8.894v-15.307zm33.093-5.93v44.227c0 2.299-1.875 4.175-4.174 4.175h-12.343c-2.359 0-4.234-1.876-4.234-4.175v-6.171h5.929v4.417h8.894v-15.308h-11.374v-5.929h11.374v-15.306h-8.894v4.416h-5.929v-6.171c0-2.299 1.875-4.175 4.234-4.175h16.517zm27.164 0v48.401h-5.929v-21.236h-10.588c-2.359 0-4.234-1.875-4.234-4.174v-22.991h5.929v21.236h8.894v-21.236h5.928zm12.342 27.165v15.308h14.822v5.929h-20.751v-22.99c0-2.299 1.875-4.175 4.234-4.175h10.588v-15.307h-8.894v4.416h-5.929v-6.171c0-2.299 1.875-4.175 4.234-4.175h16.517v22.991c0 2.299-1.875 4.174-4.174 4.174h-10.647zm-150.499 21.236h-5.929l7.744-54.33h5.929l-7.744 54.33zm-108.171-48.401v44.227c0 2.299-1.875 4.175-4.174 4.175h-16.577v-5.929h14.822v-15.308h-10.588c-2.359 0-4.234-1.875-4.234-4.174v-18.816c0-2.299 1.875-4.175 4.234-4.175h16.517zm-5.929 5.93h-8.894v15.307h8.894v-15.307zm33.093-5.93v44.227c0 2.299-1.875 4.175-4.174 4.175h-12.343c-2.359 0-4.234-1.876-4.234-4.175v-6.171h5.929v4.417h8.894v-15.308h-11.374v-5.929h11.374v-15.306h-8.894v4.416h-5.929v-6.171c0-2.299 1.875-4.175 4.234-4.175h16.517zm27.164 0v48.401h-5.929v-21.236h-10.588c-2.359 0-4.234-1.875-4.234-4.174v-22.991h5.929v21.236h8.894v-21.236h5.928zm12.342 27.165v15.308h14.822v5.929h-20.751v-22.99c0-2.299 1.875-4.175 4.234-4.175h10.588v-15.307h-8.894v4.416h-5.929v-6.171c0-2.299 1.875-4.175 4.234-4.175h16.517v22.991c0 2.299-1.875 4.174-4.174 4.174h-10.647z" />
				<path fill="#FBFBFB" d="M1493.63 176.26v48.401h-5.929v-21.236h-10.588c-2.359 0-4.234-1.875-4.234-4.174v-22.991h5.929v21.236h8.894v-21.236h5.928zm27.164 0v48.401h-5.929v-21.236h-10.588c-2.359 0-4.234-1.875-4.234-4.174v-22.991h5.929v21.236h8.894v-21.236h5.928zm-99.042 48.401h-20.752v-48.401h5.929v42.473h14.823v5.928zm22.506-48.401l-3.448 48.401h-13.855l-3.448-48.401h5.929l3.025 42.473h2.844l3.025-42.473h5.928zm10.042 13.855v5.929h-5.929v-5.929h5.929zm-5.929 28.618h5.929v5.929h-5.929v-5.929zm-192.568-42.473v44.227c0 2.299-1.875 4.175-4.174 4.175h-16.577v-5.929h14.822v-15.308h-10.588c-2.359 0-4.234-1.875-4.234-4.174v-18.816c0-2.299 1.875-4.175 4.234-4.175h16.517zm-5.929 5.93h-8.894v15.307h8.894v-15.307zm33.093-5.93v44.227c0 2.299-1.875 4.175-4.174 4.175h-12.343c-2.359 0-4.234-1.876-4.234-4.175v-6.171h5.929v4.417h8.894v-15.308h-11.374v-5.929h11.374v-15.306h-8.894v4.416h-5.929v-6.171c0-2.299 1.875-4.175 4.234-4.175h16.517zm27.164 0v48.401h-5.929v-21.236h-10.588c-2.359 0-4.234-1.875-4.234-4.174v-22.991h5.929v21.236h8.894v-21.236h5.928zm12.342 27.165v15.308h14.822v5.929h-20.751v-22.99c0-2.299 1.875-4.175 4.234-4.175h10.588v-15.307h-8.894v4.416h-5.929v-6.171c0-2.299 1.875-4.175 4.234-4.175h16.517v22.991c0 2.299-1.875 4.174-4.174 4.174h-10.647zm-150.499 21.236h-5.929l7.744-54.33h5.929l-7.744 54.33zm-108.171-48.401v44.227c0 2.299-1.875 4.175-4.174 4.175h-16.577v-5.929h14.822v-15.308h-10.588c-2.359 0-4.234-1.875-4.234-4.174v-18.816c0-2.299 1.875-4.175 4.234-4.175h16.517zm-5.929 5.93h-8.894v15.307h8.894v-15.307zm33.093-5.93v44.227c0 2.299-1.875 4.175-4.174 4.175h-12.343c-2.359 0-4.234-1.876-4.234-4.175v-6.171h5.929v4.417h8.894v-15.308h-11.374v-5.929h11.374v-15.306h-8.894v4.416h-5.929v-6.171c0-2.299 1.875-4.175 4.234-4.175h16.517zm27.164 0v48.401h-5.929v-21.236h-10.588c-2.359 0-4.234-1.875-4.234-4.174v-22.991h5.929v21.236h8.894v-21.236h5.928zm12.342 27.165v15.308h14.822v5.929h-20.751v-22.99c0-2.299 1.875-4.175 4.234-4.175h10.588v-15.307h-8.894v4.416h-5.929v-6.171c0-2.299 1.875-4.175 4.234-4.175h16.517v22.991c0 2.299-1.875 4.174-4.174 4.174h-10.647z" />
			</g>
			<g id="lv70" display="none">
				<path fill="#4D4D4D" d="M1487.701 223.161h-5.929l5.929-42.472h-14.822v-5.93h16.577c2.299 0 4.174 1.876 4.174 4.175l-5.929 44.227zm33.093-48.401v44.227c0 2.299-1.875 4.175-4.174 4.175h-12.343c-2.359 0-4.234-1.876-4.234-4.175v-40.052c0-2.299 1.875-4.175 4.234-4.175h16.517zm-5.929 5.93h-8.894v36.543h8.894v-36.543zm-93.113 42.471h-20.752v-48.401h5.929v42.473h14.823v5.928zm22.506-48.401l-3.448 48.401h-13.855l-3.448-48.401h5.929l3.025 42.473h2.844l3.025-42.473h5.928zm10.042 13.855v5.929h-5.929v-5.929h5.929zm-5.929 28.618h5.929v5.929h-5.929v-5.929zm-224.935-42.473v48.401h-5.929v-42.471h-4.417v-5.93h10.346zm32.367 0v44.227c0 2.299-1.875 4.175-4.174 4.175h-12.343c-2.359 0-4.234-1.876-4.234-4.175v-6.171h5.929v4.417h8.894v-15.308h-11.375v-5.929h11.374v-15.306h-8.894v4.416h-5.929v-6.171c0-2.299 1.875-4.175 4.234-4.175h16.518zm21.961 0v48.401h-5.929v-42.471h-4.417v-5.93h10.346zm17.545 27.165v15.308h14.822v5.929h-20.751v-22.99c0-2.299 1.875-4.175 4.234-4.175h10.588v-15.307h-8.894v4.416h-5.929v-6.171c0-2.299 1.875-4.175 4.234-4.175h16.517v22.991c0 2.299-1.875 4.174-4.174 4.174h-10.647zm41.986 17.062c0 2.299-1.875 4.175-4.174 4.175h-12.343c-2.359 0-4.234-1.876-4.234-4.175v-40.052c0-2.299 1.875-4.175 4.234-4.175h16.517v5.93h-14.822v15.307h10.648c2.299 0 4.174 1.876 4.174 4.175v18.815zm-5.929-1.754v-15.308h-8.894v15.308h8.894zm-159.392 5.928h-5.929l7.744-54.33h5.929l-7.744 54.33zm-140.538-48.401v48.401h-5.929v-42.471h-4.417v-5.93h10.346zm32.367 0v44.227c0 2.299-1.875 4.175-4.174 4.175h-12.343c-2.359 0-4.234-1.876-4.234-4.175v-6.171h5.929v4.417h8.894v-15.308h-11.375v-5.929h11.374v-15.306h-8.894v4.416h-5.929v-6.171c0-2.299 1.875-4.175 4.234-4.175h16.518zm21.961 0v48.401h-5.929v-42.471h-4.417v-5.93h10.346zm17.545 27.165v15.308h14.822v5.929h-20.751v-22.99c0-2.299 1.875-4.175 4.234-4.175h10.588v-15.307h-8.894v4.416h-5.929v-6.171c0-2.299 1.875-4.175 4.234-4.175h16.517v22.991c0 2.299-1.875 4.174-4.174 4.174h-10.647zm41.986 17.062c0 2.299-1.875 4.175-4.174 4.175h-12.343c-2.359 0-4.234-1.876-4.234-4.175v-40.052c0-2.299 1.875-4.175 4.234-4.175h16.517v5.93h-14.822v15.307h10.648c2.299 0 4.174 1.876 4.174 4.175v18.815zm-5.929-1.754v-15.308h-8.894v15.308h8.894z" />
				<path fill="#FBFBFB" d="M1487.701 224.661h-5.929l5.929-42.472h-14.822v-5.93h16.577c2.299 0 4.174 1.876 4.174 4.175l-5.929 44.227zm33.093-48.401v44.227c0 2.299-1.875 4.175-4.174 4.175h-12.343c-2.359 0-4.234-1.876-4.234-4.175v-40.052c0-2.299 1.875-4.175 4.234-4.175h16.517zm-5.929 5.93h-8.894v36.543h8.894v-36.543zm-93.113 42.471h-20.752v-48.401h5.929v42.473h14.823v5.928zm22.506-48.401l-3.448 48.401h-13.855l-3.448-48.401h5.929l3.025 42.473h2.844l3.025-42.473h5.928zm10.042 13.855v5.929h-5.929v-5.929h5.929zm-5.929 28.618h5.929v5.929h-5.929v-5.929zm-224.935-42.473v48.401h-5.929v-42.471h-4.417v-5.93h10.346zm32.367 0v44.227c0 2.299-1.875 4.175-4.174 4.175h-12.343c-2.359 0-4.234-1.876-4.234-4.175v-6.171h5.929v4.417h8.894v-15.308h-11.375v-5.929h11.374v-15.306h-8.894v4.416h-5.929v-6.171c0-2.299 1.875-4.175 4.234-4.175h16.518zm21.961 0v48.401h-5.929v-42.471h-4.417v-5.93h10.346zm17.545 27.165v15.308h14.822v5.929h-20.751v-22.99c0-2.299 1.875-4.175 4.234-4.175h10.588v-15.307h-8.894v4.416h-5.929v-6.171c0-2.299 1.875-4.175 4.234-4.175h16.517v22.991c0 2.299-1.875 4.174-4.174 4.174h-10.647zm41.986 17.062c0 2.299-1.875 4.175-4.174 4.175h-12.343c-2.359 0-4.234-1.876-4.234-4.175v-40.052c0-2.299 1.875-4.175 4.234-4.175h16.517v5.93h-14.822v15.307h10.648c2.299 0 4.174 1.876 4.174 4.175v18.815zm-5.929-1.754v-15.308h-8.894v15.308h8.894zm-159.392 5.928h-5.929l7.744-54.33h5.929l-7.744 54.33zm-140.538-48.401v48.401h-5.929v-42.471h-4.417v-5.93h10.346zm32.367 0v44.227c0 2.299-1.875 4.175-4.174 4.175h-12.343c-2.359 0-4.234-1.876-4.234-4.175v-6.171h5.929v4.417h8.894v-15.308h-11.375v-5.929h11.374v-15.306h-8.894v4.416h-5.929v-6.171c0-2.299 1.875-4.175 4.234-4.175h16.518zm21.961 0v48.401h-5.929v-42.471h-4.417v-5.93h10.346zm17.545 27.165v15.308h14.822v5.929h-20.751v-22.99c0-2.299 1.875-4.175 4.234-4.175h10.588v-15.307h-8.894v4.416h-5.929v-6.171c0-2.299 1.875-4.175 4.234-4.175h16.517v22.991c0 2.299-1.875 4.174-4.174 4.174h-10.647zm41.986 17.062c0 2.299-1.875 4.175-4.174 4.175h-12.343c-2.359 0-4.234-1.876-4.234-4.175v-40.052c0-2.299 1.875-4.175 4.234-4.175h16.517v5.93h-14.822v15.307h10.648c2.299 0 4.174 1.876 4.174 4.175v18.815zm-5.929-1.754v-15.308h-8.894v15.308h8.894z" />
			</g>
			<g id="lv74_schmitt" display="none">
				<path fill="#4D4D4D" d="M1487.701 223.161h-5.929l5.929-42.472h-14.822v-5.93h16.577c2.299 0 4.174 1.876 4.174 4.175l-5.929 44.227zm33.093-48.401v48.401h-5.929v-21.236h-10.588c-2.359 0-4.234-1.875-4.234-4.174v-22.991h5.929v21.236h8.894v-21.236h5.928zm-99.042 48.401h-20.752v-48.401h5.929v42.473h14.823v5.928zm22.506-48.401l-3.448 48.401h-13.855l-3.448-48.401h5.929l3.025 42.473h2.844l3.025-42.473h5.928zm10.042 13.855v5.929h-5.929v-5.929h5.929zm-5.929 28.618h5.929v5.929h-5.929v-5.929zm-224.935-42.473v48.401h-5.929v-42.471h-4.417v-5.93h10.346zm26.438 48.401h-5.929l5.929-42.472h-14.822v-5.93h16.577c2.299 0 4.174 1.876 4.174 4.175l-5.929 44.227zm18.271-21.236v15.308h14.822v5.929h-20.751v-22.99c0-2.299 1.875-4.175 4.234-4.175h10.588v-15.307h-8.894v4.416h-5.929v-6.171c0-2.299 1.875-4.175 4.234-4.175h16.517v22.991c0 2.299-1.875 4.174-4.174 4.174h-10.647zm41.986-27.165v44.227c0 2.299-1.875 4.175-4.174 4.175h-12.343c-2.359 0-4.234-1.876-4.234-4.175v-40.052c0-2.299 1.875-4.175 4.234-4.175h16.517zm-5.929 5.93h-8.894v36.543h8.894v-36.543zm33.093-5.93v44.227c0 2.299-1.875 4.175-4.174 4.175h-12.343c-2.359 0-4.234-1.876-4.234-4.175v-40.052c0-2.299 1.875-4.175 4.234-4.175h16.517zm-5.929 5.93h-8.894v36.543h8.894v-36.543zm-159.392 42.471h-5.929l7.744-54.33h5.929l-7.744 54.33zm-140.538-48.401v48.401h-5.929v-42.471h-4.417v-5.93h10.346zm26.438 48.401h-5.929l5.929-42.472h-14.822v-5.93h16.577c2.299 0 4.174 1.876 4.174 4.175l-5.929 44.227zm18.271-21.236v15.308h14.822v5.929h-20.751v-22.99c0-2.299 1.875-4.175 4.234-4.175h10.588v-15.307h-8.894v4.416h-5.929v-6.171c0-2.299 1.875-4.175 4.234-4.175h16.517v22.991c0 2.299-1.875 4.174-4.174 4.174h-10.647zm41.986-27.165v44.227c0 2.299-1.875 4.175-4.174 4.175h-12.343c-2.359 0-4.234-1.876-4.234-4.175v-40.052c0-2.299 1.875-4.175 4.234-4.175h16.517zm-5.929 5.93h-8.894v36.543h8.894v-36.543zm33.093-5.93v44.227c0 2.299-1.875 4.175-4.174 4.175h-12.343c-2.359 0-4.234-1.876-4.234-4.175v-40.052c0-2.299 1.875-4.175 4.234-4.175h16.517zm-5.929 5.93h-8.894v36.543h8.894v-36.543z" />
				<path fill="#FBFBFB" d="M1487.701 224.661h-5.929l5.929-42.472h-14.822v-5.93h16.577c2.299 0 4.174 1.876 4.174 4.175l-5.929 44.227zm33.093-48.401v48.401h-5.929v-21.236h-10.588c-2.359 0-4.234-1.875-4.234-4.174v-22.991h5.929v21.236h8.894v-21.236h5.928zm-99.042 48.401h-20.752v-48.401h5.929v42.473h14.823v5.928zm22.506-48.401l-3.448 48.401h-13.855l-3.448-48.401h5.929l3.025 42.473h2.844l3.025-42.473h5.928zm10.042 13.855v5.929h-5.929v-5.929h5.929zm-5.929 28.618h5.929v5.929h-5.929v-5.929zm-224.935-42.473v48.401h-5.929v-42.471h-4.417v-5.93h10.346zm26.438 48.401h-5.929l5.929-42.472h-14.822v-5.93h16.577c2.299 0 4.174 1.876 4.174 4.175l-5.929 44.227zm18.271-21.236v15.308h14.822v5.929h-20.751v-22.99c0-2.299 1.875-4.175 4.234-4.175h10.588v-15.307h-8.894v4.416h-5.929v-6.171c0-2.299 1.875-4.175 4.234-4.175h16.517v22.991c0 2.299-1.875 4.174-4.174 4.174h-10.647zm41.986-27.165v44.227c0 2.299-1.875 4.175-4.174 4.175h-12.343c-2.359 0-4.234-1.876-4.234-4.175v-40.052c0-2.299 1.875-4.175 4.234-4.175h16.517zm-5.929 5.93h-8.894v36.543h8.894v-36.543zm33.093-5.93v44.227c0 2.299-1.875 4.175-4.174 4.175h-12.343c-2.359 0-4.234-1.876-4.234-4.175v-40.052c0-2.299 1.875-4.175 4.234-4.175h16.517zm-5.929 5.93h-8.894v36.543h8.894v-36.543zm-159.392 42.471h-5.929l7.744-54.33h5.929l-7.744 54.33zm-140.538-48.401v48.401h-5.929v-42.471h-4.417v-5.93h10.346zm26.438 48.401h-5.929l5.929-42.472h-14.822v-5.93h16.577c2.299 0 4.174 1.876 4.174 4.175l-5.929 44.227zm18.271-21.236v15.308h14.822v5.929h-20.751v-22.99c0-2.299 1.875-4.175 4.234-4.175h10.588v-15.307h-8.894v4.416h-5.929v-6.171c0-2.299 1.875-4.175 4.234-4.175h16.517v22.991c0 2.299-1.875 4.174-4.174 4.174h-10.647zm41.986-27.165v44.227c0 2.299-1.875 4.175-4.174 4.175h-12.343c-2.359 0-4.234-1.876-4.234-4.175v-40.052c0-2.299 1.875-4.175 4.234-4.175h16.517zm-5.929 5.93h-8.894v36.543h8.894v-36.543zm33.093-5.93v44.227c0 2.299-1.875 4.175-4.174 4.175h-12.343c-2.359 0-4.234-1.876-4.234-4.175v-40.052c0-2.299 1.875-4.175 4.234-4.175h16.517zm-5.929 5.93h-8.894v36.543h8.894v-36.543z" />
			</g>
			<g id="lv78" display="none">
				<path fill="#4D4D4D" d="M1487.701 223.161h-5.929l5.929-42.472h-14.822v-5.93h16.577c2.299 0 4.174 1.876 4.174 4.175l-5.929 44.227zm28.919 0h-12.343c-2.359 0-4.234-1.876-4.234-4.175v-40.052c0-2.299 1.875-4.175 4.174-4.175h12.403c2.299 0 4.174 1.876 4.174 4.175v40.052c0 2.299-1.875 4.175-4.174 4.175zm-1.755-42.471h-8.894v15.307h8.894v-15.307zm0 21.235h-8.894v15.308h8.894v-15.308zm-93.113 21.236h-20.752v-48.401h5.929v42.473h14.823v5.928zm22.506-48.401l-3.448 48.401h-13.855l-3.448-48.401h5.929l3.025 42.473h2.844l3.025-42.473h5.928zm10.042 13.855v5.929h-5.929v-5.929h5.929zm-5.929 28.618h5.929v5.929h-5.929v-5.929zm-224.935-42.473v48.401h-5.929v-42.471h-4.417v-5.93h10.346zm32.367 0v48.401h-5.929v-21.236h-10.588c-2.359 0-4.234-1.875-4.234-4.174v-22.991h5.929v21.236h8.894v-21.236h5.928zm12.342 5.93v15.307h10.648c2.299 0 4.174 1.876 4.174 4.175v18.815c0 2.299-1.875 4.175-4.174 4.175h-16.577v-5.929h14.822v-15.308h-14.822v-27.165h20.751v5.93h-14.822zm41.986-5.93v44.227c0 2.299-1.875 4.175-4.174 4.175h-12.343c-2.359 0-4.234-1.876-4.234-4.175v-40.052c0-2.299 1.875-4.175 4.234-4.175h16.517zm-5.929 5.93h-8.894v36.543h8.894v-36.543zm33.093-5.93v44.227c0 2.299-1.875 4.175-4.174 4.175h-12.343c-2.359 0-4.234-1.876-4.234-4.175v-40.052c0-2.299 1.875-4.175 4.234-4.175h16.517zm-5.929 5.93h-8.894v36.543h8.894v-36.543zm-159.392 42.471h-5.929l7.744-54.33h5.929l-7.744 54.33zm-140.538-48.401v48.401h-5.929v-42.471h-4.417v-5.93h10.346zm32.367 0v48.401h-5.929v-21.236h-10.588c-2.359 0-4.234-1.875-4.234-4.174v-22.991h5.929v21.236h8.894v-21.236h5.928zm12.342 5.93v15.307h10.648c2.299 0 4.174 1.876 4.174 4.175v18.815c0 2.299-1.875 4.175-4.174 4.175h-16.577v-5.929h14.822v-15.308h-14.822v-27.165h20.751v5.93h-14.822zm41.986-5.93v44.227c0 2.299-1.875 4.175-4.174 4.175h-12.343c-2.359 0-4.234-1.876-4.234-4.175v-40.052c0-2.299 1.875-4.175 4.234-4.175h16.517zm-5.929 5.93h-8.894v36.543h8.894v-36.543zm33.093-5.93v44.227c0 2.299-1.875 4.175-4.174 4.175h-12.343c-2.359 0-4.234-1.876-4.234-4.175v-40.052c0-2.299 1.875-4.175 4.234-4.175h16.517zm-5.929 5.93h-8.894v36.543h8.894v-36.543z" />
				<path fill="#FBFBFB" d="M1487.701 224.661h-5.929l5.929-42.472h-14.822v-5.93h16.577c2.299 0 4.174 1.876 4.174 4.175l-5.929 44.227zm28.919 0h-12.343c-2.359 0-4.234-1.876-4.234-4.175v-40.052c0-2.299 1.875-4.175 4.174-4.175h12.403c2.299 0 4.174 1.876 4.174 4.175v40.052c0 2.299-1.875 4.175-4.174 4.175zm-1.755-42.471h-8.894v15.307h8.894v-15.307zm0 21.235h-8.894v15.308h8.894v-15.308zm-93.113 21.236h-20.752v-48.401h5.929v42.473h14.823v5.928zm22.506-48.401l-3.448 48.401h-13.855l-3.448-48.401h5.929l3.025 42.473h2.844l3.025-42.473h5.928zm10.042 13.855v5.929h-5.929v-5.929h5.929zm-5.929 28.618h5.929v5.929h-5.929v-5.929zm-224.935-42.473v48.401h-5.929v-42.471h-4.417v-5.93h10.346zm32.367 0v48.401h-5.929v-21.236h-10.588c-2.359 0-4.234-1.875-4.234-4.174v-22.991h5.929v21.236h8.894v-21.236h5.928zm12.342 5.93v15.307h10.648c2.299 0 4.174 1.876 4.174 4.175v18.815c0 2.299-1.875 4.175-4.174 4.175h-16.577v-5.929h14.822v-15.308h-14.822v-27.165h20.751v5.93h-14.822zm41.986-5.93v44.227c0 2.299-1.875 4.175-4.174 4.175h-12.343c-2.359 0-4.234-1.876-4.234-4.175v-40.052c0-2.299 1.875-4.175 4.234-4.175h16.517zm-5.929 5.93h-8.894v36.543h8.894v-36.543zm33.093-5.93v44.227c0 2.299-1.875 4.175-4.174 4.175h-12.343c-2.359 0-4.234-1.876-4.234-4.175v-40.052c0-2.299 1.875-4.175 4.234-4.175h16.517zm-5.929 5.93h-8.894v36.543h8.894v-36.543zm-159.392 42.471h-5.929l7.744-54.33h5.929l-7.744 54.33zm-140.538-48.401v48.401h-5.929v-42.471h-4.417v-5.93h10.346zm32.367 0v48.401h-5.929v-21.236h-10.588c-2.359 0-4.234-1.875-4.234-4.174v-22.991h5.929v21.236h8.894v-21.236h5.928zm12.342 5.93v15.307h10.648c2.299 0 4.174 1.876 4.174 4.175v18.815c0 2.299-1.875 4.175-4.174 4.175h-16.577v-5.929h14.822v-15.308h-14.822v-27.165h20.751v5.93h-14.822zm41.986-5.93v44.227c0 2.299-1.875 4.175-4.174 4.175h-12.343c-2.359 0-4.234-1.876-4.234-4.175v-40.052c0-2.299 1.875-4.175 4.234-4.175h16.517zm-5.929 5.93h-8.894v36.543h8.894v-36.543zm33.093-5.93v44.227c0 2.299-1.875 4.175-4.174 4.175h-12.343c-2.359 0-4.234-1.876-4.234-4.175v-40.052c0-2.299 1.875-4.175 4.234-4.175h16.517zm-5.929 5.93h-8.894v36.543h8.894v-36.543z" />
			</g>
			<g id="lv96">
				<path fill="#4D4D4D" d="M1493.63 174.76v44.227c0 2.299-1.875 4.175-4.174 4.175h-16.577v-5.929h14.822v-15.308h-10.588c-2.359 0-4.234-1.875-4.234-4.174v-18.816c0-2.299 1.875-4.175 4.234-4.175h16.517zm-5.929 5.93h-8.894v15.307h8.894v-15.307zm33.093 38.297c0 2.299-1.875 4.175-4.174 4.175h-12.343c-2.359 0-4.234-1.876-4.234-4.175v-40.052c0-2.299 1.875-4.175 4.234-4.175h16.517v5.93h-14.822v15.307h10.648c2.299 0 4.174 1.876 4.174 4.175v18.815zm-5.929-1.754v-15.308h-8.894v15.308h8.894zm-93.113 5.928h-20.752v-48.401h5.929v42.473h14.823v5.928zm22.506-48.401l-3.448 48.401h-13.855l-3.448-48.401h5.929l3.025 42.473h2.844l3.025-42.473h5.928zm10.042 13.855v5.929h-5.929v-5.929h5.929zm-5.929 28.618h5.929v5.929h-5.929v-5.929zm-224.935-42.473v48.401h-5.929v-42.471h-4.417v-5.93h10.346zm28.193 48.401h-12.343c-2.359 0-4.234-1.876-4.234-4.175v-40.052c0-2.299 1.875-4.175 4.174-4.175h12.403c2.299 0 4.174 1.876 4.174 4.175v40.052c0 2.299-1.875 4.175-4.174 4.175zm-1.755-42.471h-8.894v15.307h8.894v-15.307zm0 21.235h-8.894v15.308h8.894v-15.308zm18.271-21.235v15.307h10.648c2.299 0 4.174 1.876 4.174 4.175v18.815c0 2.299-1.875 4.175-4.174 4.175h-16.577v-5.929h14.822v-15.308h-14.822v-27.165h20.751v5.93h-14.822zm41.986-5.93v44.227c0 2.299-1.875 4.175-4.174 4.175h-12.343c-2.359 0-4.234-1.876-4.234-4.175v-40.052c0-2.299 1.875-4.175 4.234-4.175h16.517zm-5.929 5.93h-8.894v36.543h8.894v-36.543zm33.093-5.93v44.227c0 2.299-1.875 4.175-4.174 4.175h-12.343c-2.359 0-4.234-1.876-4.234-4.175v-40.052c0-2.299 1.875-4.175 4.234-4.175h16.517zm-5.929 5.93h-8.894v36.543h8.894v-36.543zm-159.392 42.471h-5.929l7.744-54.33h5.929l-7.744 54.33zm-140.538-48.401v48.401h-5.929v-42.471h-4.417v-5.93h10.346zm28.193 48.401h-12.343c-2.359 0-4.234-1.876-4.234-4.175v-40.052c0-2.299 1.875-4.175 4.174-4.175h12.403c2.299 0 4.174 1.876 4.174 4.175v40.052c0 2.299-1.875 4.175-4.174 4.175zm-1.755-42.471h-8.894v15.307h8.894v-15.307zm0 21.235h-8.894v15.308h8.894v-15.308zm18.271-21.235v15.307h10.648c2.299 0 4.174 1.876 4.174 4.175v18.815c0 2.299-1.875 4.175-4.174 4.175h-16.577v-5.929h14.822v-15.308h-14.822v-27.165h20.751v5.93h-14.822zm41.986-5.93v44.227c0 2.299-1.875 4.175-4.174 4.175h-12.343c-2.359 0-4.234-1.876-4.234-4.175v-40.052c0-2.299 1.875-4.175 4.234-4.175h16.517zm-5.929 5.93h-8.894v36.543h8.894v-36.543zm33.093-5.93v44.227c0 2.299-1.875 4.175-4.174 4.175h-12.343c-2.359 0-4.234-1.876-4.234-4.175v-40.052c0-2.299 1.875-4.175 4.234-4.175h16.517zm-5.929 5.93h-8.894v36.543h8.894v-36.543z" />
				<path fill="#FBFBFB" d="M1493.63 176.26v44.227c0 2.299-1.875 4.175-4.174 4.175h-16.577v-5.929h14.822v-15.308h-10.588c-2.359 0-4.234-1.875-4.234-4.174v-18.816c0-2.299 1.875-4.175 4.234-4.175h16.517zm-5.929 5.93h-8.894v15.307h8.894v-15.307zm33.093 38.297c0 2.299-1.875 4.175-4.174 4.175h-12.343c-2.359 0-4.234-1.876-4.234-4.175v-40.052c0-2.299 1.875-4.175 4.234-4.175h16.517v5.93h-14.822v15.307h10.648c2.299 0 4.174 1.876 4.174 4.175v18.815zm-5.929-1.754v-15.308h-8.894v15.308h8.894zm-93.113 5.928h-20.752v-48.401h5.929v42.473h14.823v5.928zm22.506-48.401l-3.448 48.401h-13.855l-3.448-48.401h5.929l3.025 42.473h2.844l3.025-42.473h5.928zm10.042 13.855v5.929h-5.929v-5.929h5.929zm-5.929 28.618h5.929v5.929h-5.929v-5.929zm-224.935-42.473v48.401h-5.929v-42.471h-4.417v-5.93h10.346zm28.193 48.401h-12.343c-2.359 0-4.234-1.876-4.234-4.175v-40.052c0-2.299 1.875-4.175 4.174-4.175h12.403c2.299 0 4.174 1.876 4.174 4.175v40.052c0 2.299-1.875 4.175-4.174 4.175zm-1.755-42.471h-8.894v15.307h8.894v-15.307zm0 21.235h-8.894v15.308h8.894v-15.308zm18.271-21.235v15.307h10.648c2.299 0 4.174 1.876 4.174 4.175v18.815c0 2.299-1.875 4.175-4.174 4.175h-16.577v-5.929h14.822v-15.308h-14.822v-27.165h20.751v5.93h-14.822zm41.986-5.93v44.227c0 2.299-1.875 4.175-4.174 4.175h-12.343c-2.359 0-4.234-1.876-4.234-4.175v-40.052c0-2.299 1.875-4.175 4.234-4.175h16.517zm-5.929 5.93h-8.894v36.543h8.894v-36.543zm33.093-5.93v44.227c0 2.299-1.875 4.175-4.174 4.175h-12.343c-2.359 0-4.234-1.876-4.234-4.175v-40.052c0-2.299 1.875-4.175 4.234-4.175h16.517zm-5.929 5.93h-8.894v36.543h8.894v-36.543zm-159.392 42.471h-5.929l7.744-54.33h5.929l-7.744 54.33zm-140.538-48.401v48.401h-5.929v-42.471h-4.417v-5.93h10.346zm28.193 48.401h-12.343c-2.359 0-4.234-1.876-4.234-4.175v-40.052c0-2.299 1.875-4.175 4.174-4.175h12.403c2.299 0 4.174 1.876 4.174 4.175v40.052c0 2.299-1.875 4.175-4.174 4.175zm-1.755-42.471h-8.894v15.307h8.894v-15.307zm0 21.235h-8.894v15.308h8.894v-15.308zm18.271-21.235v15.307h10.648c2.299 0 4.174 1.876 4.174 4.175v18.815c0 2.299-1.875 4.175-4.174 4.175h-16.577v-5.929h14.822v-15.308h-14.822v-27.165h20.751v5.93h-14.822zm41.986-5.93v44.227c0 2.299-1.875 4.175-4.174 4.175h-12.343c-2.359 0-4.234-1.876-4.234-4.175v-40.052c0-2.299 1.875-4.175 4.234-4.175h16.517zm-5.929 5.93h-8.894v36.543h8.894v-36.543zm33.093-5.93v44.227c0 2.299-1.875 4.175-4.174 4.175h-12.343c-2.359 0-4.234-1.876-4.234-4.175v-40.052c0-2.299 1.875-4.175 4.234-4.175h16.517zm-5.929 5.93h-8.894v36.543h8.894v-36.543z" />
			</g>
		</g>
		<g id="Name">
			<g id="Schmitt" display="none">
				<path fill="#4D4D4D" d="M135.586 80.117v-6.143h-12.368v21.287h14.724c3.282 0 5.89 2.608 5.89 5.806v26.166c0 3.197-2.608 5.806-5.89 5.806h-17.164c-3.197 0-5.806-2.608-5.806-5.806v-8.582h8.246v6.143h12.368v-21.287h-14.808c-3.197 0-5.806-2.608-5.806-5.806v-26.166c0-3.197 2.608-5.806 5.806-5.806h23.053v14.388h-8.245zm28.942 19.267v-6.142h-7.572v31.552h7.572v-6.143h8.245v8.582c0 3.197-2.608 5.806-5.89 5.806h-12.368c-3.197 0-5.806-2.608-5.806-5.806v-36.43c0-3.197 2.608-5.806 5.806-5.806h18.257v14.387h-8.244zm36.935-8.581v42.236h-8.245v-39.797h-7.572v39.797h-8.246v-67.309h8.246v19.268h9.928c3.281-.001 5.889 2.608 5.889 5.805zm44.34-5.806v48.042h-8.246v-39.797h-6.815v39.797h-8.33v-39.797h-6.815v39.797h-8.246v-42.236c0-3.197 2.608-5.806 5.806-5.806h32.646zm14.05-14.051v9.592h-8.246v-9.592h8.246zm-8.246 14.051h8.246v48.042h-8.246v-48.042zm38.114 39.797v8.245h-18.257c-3.197 0-5.806-2.608-5.806-5.806v-56.707h8.246v14.472h15.817v8.245h-15.817v31.552h15.817zm28.185 0v8.245h-18.257c-3.197 0-5.806-2.608-5.806-5.806v-56.707h8.246v14.472h15.817v8.245h-15.817v31.552h15.817z" />
				<path fill="#FBFBFB" d="M135.585 81.617v-6.143h-12.368v21.287h14.724c3.282 0 5.89 2.608 5.89 5.806v26.166c0 3.197-2.608 5.806-5.89 5.806h-17.164c-3.197 0-5.806-2.608-5.806-5.806v-8.582h8.246v6.143h12.368v-21.287h-14.808c-3.197 0-5.806-2.608-5.806-5.806v-26.166c0-3.197 2.608-5.806 5.806-5.806h23.053v14.388h-8.245zm28.942 19.267v-6.142h-7.572v31.552h7.572v-6.143h8.245v8.582c0 3.197-2.608 5.806-5.89 5.806h-12.368c-3.197 0-5.806-2.608-5.806-5.806v-36.43c0-3.197 2.608-5.806 5.806-5.806h18.257v14.387h-8.244zm36.935-8.581v42.236h-8.245v-39.797h-7.572v39.797h-8.246v-67.309h8.246v19.268h9.928c3.281-.001 5.889 2.608 5.889 5.805zm44.34-5.806v48.042h-8.246v-39.797h-6.815v39.797h-8.33v-39.797h-6.815v39.797h-8.246v-42.236c0-3.197 2.608-5.806 5.806-5.806h32.646zm14.051-14.051v9.592h-8.246v-9.592h8.246zm-8.246 14.051h8.246v48.042h-8.246v-48.042zm38.113 39.797v8.245h-18.257c-3.197 0-5.806-2.608-5.806-5.806v-56.707h8.246v14.472h15.817v8.245h-15.817v31.552h15.817zm28.186 0v8.245h-18.257c-3.197 0-5.806-2.608-5.806-5.806v-56.707h8.246v14.472h15.817v8.245h-15.817v31.552h15.817z" />
			</g>
			<g id="Lisbeth" display="none">
				<path fill="#4D4D4D" d="M150.771 133.039h-28.859v-67.309h8.246v59.064h20.613v8.245zm10.686-62.093v9.592h-8.246v-9.592h8.246zm-8.246 14.051h8.246v48.042h-8.246v-48.042zm29.869 14.387v-6.142h-7.572v11.611h9.928c3.282 0 5.89 2.608 5.89 5.89v16.49c0 3.197-2.608 5.806-5.89 5.806h-12.368c-3.197 0-5.806-2.608-5.806-5.806v-8.582h8.246v6.143h7.572v-11.695h-10.012c-3.197 0-5.806-2.608-5.806-5.806v-16.49c0-3.197 2.608-5.806 5.806-5.806h18.257v14.387h-8.245zm37.945-14.387v42.236c0 3.197-2.608 5.806-5.89 5.806h-18.173v-67.309h8.246v19.268h15.817zm-8.245 8.245h-7.572v31.552h7.572v-31.552zm38.029 18.847c0 3.197-2.608 5.89-5.889 5.89h-9.928v6.815h15.817v8.245h-18.257c-3.197 0-5.806-2.608-5.806-5.806v-36.43c0-3.197 2.608-5.806 5.806-5.806h18.257v27.092zm-8.246-2.439v-16.408h-7.572v16.407h7.572zm38.451 15.144v8.245h-18.257c-3.197 0-5.806-2.608-5.806-5.806v-56.707h8.246v14.472h15.817v8.245h-15.817v31.552h15.817zm28.185-33.991v42.236h-8.245v-39.797h-7.572v39.797h-8.246v-67.309h8.246v19.268h9.928c3.281-.001 5.889 2.608 5.889 5.805z" />
				<path fill="#FBFBFB" d="M150.771 134.539h-28.859v-67.309h8.246v59.064h20.613v8.245zm10.686-62.093v9.592h-8.246v-9.592h8.246zm-8.246 14.051h8.246v48.042h-8.246v-48.042zm29.868 14.387v-6.142h-7.572v11.611h9.928c3.282 0 5.89 2.608 5.89 5.89v16.49c0 3.197-2.608 5.806-5.89 5.806h-12.368c-3.197 0-5.806-2.608-5.806-5.806v-8.582h8.246v6.143h7.572v-11.695h-10.012c-3.197 0-5.806-2.608-5.806-5.806v-16.49c0-3.197 2.608-5.806 5.806-5.806h18.257v14.387h-8.245zm37.945-14.387v42.236c0 3.197-2.608 5.806-5.89 5.806h-18.173v-67.309h8.246v19.268h15.817zm-8.245 8.245h-7.572v31.552h7.572v-31.552zm38.029 18.847c0 3.197-2.608 5.89-5.889 5.89h-9.928v6.815h15.817v8.245h-18.257c-3.197 0-5.806-2.608-5.806-5.806v-36.43c0-3.197 2.608-5.806 5.806-5.806h18.257v27.092zm-8.245-2.439v-16.408h-7.572v16.407h7.572zm38.45 15.144v8.245h-18.257c-3.197 0-5.806-2.608-5.806-5.806v-56.707h8.246v14.472h15.817v8.245h-15.817v31.552h15.817zm28.186-33.991v42.236h-8.245v-39.797h-7.572v39.797h-8.246v-67.309h8.246v19.268h9.928c3.281-.001 5.889 2.608 5.889 5.805z" />
			</g>
			<g id="Silica" display="none">
				<path fill="#4D4D4D" d="M160.864 80.117v-6.143h-12.368v21.287h14.724c3.282 0 5.89 2.608 5.89 5.806v26.166c0 3.197-2.608 5.806-5.89 5.806h-17.164c-3.197 0-5.806-2.608-5.806-5.806v-8.582h8.246v6.143h12.368v-21.287h-14.808c-3.197 0-5.806-2.608-5.806-5.806v-26.166c0-3.197 2.608-5.806 5.806-5.806h23.053v14.388h-8.245zm21.37-9.171v9.592h-8.246v-9.592h8.246zm-8.246 14.051h8.246v48.042h-8.246v-48.042zm28.438 39.797v8.245h-14.387v-67.309h8.246v59.064h6.141zm13.041-53.848v9.592h-8.246v-9.592h8.246zm-8.245 14.051h8.246v48.042h-8.246v-48.042zm29.868 14.387v-6.142h-7.572v31.552h7.572v-6.143h8.245v8.582c0 3.197-2.608 5.806-5.889 5.806h-12.368c-3.197 0-5.806-2.608-5.806-5.806v-36.43c0-3.197 2.608-5.806 5.806-5.806h18.257v14.387h-8.245zm36.935 33.655h-18.257c-3.197 0-5.806-2.608-5.806-5.806v-21.37c0-3.197 2.608-5.806 5.806-5.806h10.012v-3.702l-15.818-3.113v-8.245l18.173 3.617c3.113.59 5.89 3.787 5.89 6.983v37.442zm-8.33-24.736h-7.488v16.491h7.488v-16.491z" />
				<path fill="#FBFBFB" d="M160.864 81.617v-6.143h-12.368v21.287h14.724c3.282 0 5.89 2.608 5.89 5.806v26.166c0 3.197-2.608 5.806-5.89 5.806h-17.164c-3.197 0-5.806-2.608-5.806-5.806v-8.582h8.246v6.143h12.368v-21.287h-14.808c-3.197 0-5.806-2.608-5.806-5.806v-26.166c0-3.197 2.608-5.806 5.806-5.806h23.053v14.388h-8.245zm21.369-9.171v9.592h-8.246v-9.592h8.246zm-8.245 14.051h8.246v48.042h-8.246v-48.042zm28.437 39.797v8.245h-14.387v-67.309h8.246v59.064h6.141zm13.042-53.848v9.592h-8.246v-9.592h8.246zm-8.246 14.051h8.246v48.042h-8.246v-48.042zm29.868 14.387v-6.142h-7.572v31.552h7.572v-6.143h8.245v8.582c0 3.197-2.608 5.806-5.889 5.806h-12.368c-3.197 0-5.806-2.608-5.806-5.806v-36.43c0-3.197 2.608-5.806 5.806-5.806h18.257v14.387h-8.245zm36.935 33.655h-18.257c-3.197 0-5.806-2.608-5.806-5.806v-21.37c0-3.197 2.608-5.806 5.806-5.806h10.012v-3.702l-15.818-3.113v-8.245l18.173 3.617c3.113.59 5.89 3.787 5.89 6.983v37.442zm-8.329-24.736h-7.488v16.491h7.488v-16.491z" />
			</g>
			<g id="Asuna" display="none">
				<path fill="#4D4D4D" d="M169.109 133.039h-8.245l-1.767-24.736h-8.834l-1.767 24.736h-8.246l4.375-61.504c.252-3.197 3.029-5.806 6.226-5.806h13.462l4.796 67.31zm-10.601-32.981l-1.851-26.083h-3.955l-1.851 26.083h7.657zm32.477-.674v-6.142h-7.572v11.611h9.928c3.282 0 5.89 2.608 5.89 5.89v16.49c0 3.197-2.608 5.806-5.89 5.806h-12.368c-3.197 0-5.806-2.608-5.806-5.806v-8.582h8.246v6.143h7.572v-11.695h-10.012c-3.197 0-5.806-2.608-5.806-5.806v-16.49c0-3.197 2.608-5.806 5.806-5.806h18.257v14.387h-8.245zm37.945-14.387v48.042h-18.257c-3.197 0-5.806-2.608-5.806-5.806v-42.236h8.246v39.797h7.572v-39.797h8.245zm29.869 0v48.042h-8.245v-39.797h-7.572v39.797h-8.246v-42.236c0-3.197 2.608-5.806 5.806-5.806h18.257zm29.868 48.042h-18.257c-3.197 0-5.806-2.608-5.806-5.806v-21.37c0-3.197 2.608-5.806 5.806-5.806h10.012v-3.702l-15.818-3.113v-8.245l18.173 3.617c3.113.59 5.89 3.787 5.89 6.983v37.442zm-8.329-24.736h-7.488v16.491h7.488v-16.491z" />
				<path fill="#FBFBFB" d="M169.109 134.539h-8.245l-1.767-24.736h-8.834l-1.767 24.736h-8.246l4.375-61.504c.252-3.197 3.029-5.806 6.226-5.806h13.462l4.796 67.31zm-10.601-32.981l-1.851-26.083h-3.955l-1.851 26.083h7.657zm32.476-.674v-6.142h-7.572v11.611h9.928c3.282 0 5.89 2.608 5.89 5.89v16.49c0 3.197-2.608 5.806-5.89 5.806h-12.368c-3.197 0-5.806-2.608-5.806-5.806v-8.582h8.246v6.143h7.572v-11.695h-10.012c-3.197 0-5.806-2.608-5.806-5.806v-16.49c0-3.197 2.608-5.806 5.806-5.806h18.257v14.387h-8.245zm37.946-14.387v48.042h-18.257c-3.197 0-5.806-2.608-5.806-5.806v-42.236h8.246v39.797h7.572v-39.797h8.245zm29.868 0v48.042h-8.245v-39.797h-7.572v39.797h-8.246v-42.236c0-3.197 2.608-5.806 5.806-5.806h18.257zm29.869 48.042h-18.257c-3.197 0-5.806-2.608-5.806-5.806v-21.37c0-3.197 2.608-5.806 5.806-5.806h10.012v-3.702l-15.818-3.113v-8.245l18.173 3.617c3.113.59 5.89 3.787 5.89 6.983v37.442zm-8.33-24.736h-7.488v16.491h7.488v-16.491z" />
			</g>
			<g id="Kirito">
				<path fill="#4D4D4D" d="M159.518 92.233l9.591 40.807h-8.245l-6.395-27.008-5.974 16.406v10.602h-8.246v-67.31h8.246v33.907l12.368-33.907h8.245l-9.59 26.503zm23.642-21.287v9.592h-8.246v-9.592h8.246zm-8.246 14.051h8.246v48.042h-8.246v-48.042zm38.113 0v8.245l-15.817 3.113v36.684h-8.246v-37.441c0-3.196 2.776-6.394 5.806-6.983l18.257-3.618zm11.611-14.051v9.592h-8.246v-9.592h8.246zm-8.246 14.051h8.246v48.042h-8.246v-48.042zm38.113 39.797v8.245h-18.257c-3.197 0-5.806-2.608-5.806-5.806v-56.707h8.246v14.472h15.817v8.245h-15.817v31.552h15.817zm22.296 8.245h-12.368c-3.197 0-5.806-2.608-5.806-5.806v-36.43c0-3.197 2.608-5.806 5.806-5.806h12.368c3.282 0 5.89 2.608 5.89 5.806v36.431c0 3.197-2.608 5.805-5.89 5.805zm-2.355-39.797h-7.572v31.552h7.572v-31.552z" />
				<path fill="#FBFBFB" d="M159.518 93.733l9.591 40.807h-8.245l-6.395-27.008-5.974 16.406v10.602h-8.246v-67.31h8.246v33.907l12.368-33.907h8.245l-9.59 26.503zm23.641-21.287v9.592h-8.246v-9.592h8.246zm-8.245 14.051h8.246v48.042h-8.246v-48.042zm38.113 0v8.245l-15.817 3.113v36.684h-8.246v-37.441c0-3.196 2.776-6.394 5.806-6.983l18.257-3.618zm11.61-14.051v9.592h-8.246v-9.592h8.246zm-8.245 14.051h8.246v48.042h-8.246v-48.042zm38.113 39.797v8.245h-18.257c-3.197 0-5.806-2.608-5.806-5.806v-56.707h8.246v14.472h15.817v8.245h-15.817v31.552h15.817zm22.296 8.245h-12.368c-3.197 0-5.806-2.608-5.806-5.806v-36.43c0-3.197 2.608-5.806 5.806-5.806h12.368c3.282 0 5.89 2.608 5.89 5.806v36.431c-.001 3.197-2.608 5.805-5.89 5.805zm-2.356-39.797h-7.572v31.552h7.572v-31.552z" />
			</g>
		</g>
		<g id="plus" stroke="#4D4D4D" stroke-miterlimit="10" display="none">
			<path fill="#fff" stroke-width="3" d="M32 47.5h-64c-9.665 0-17.5 7.835-17.5 17.5v64c0 9.665 7.835 17.5 17.5 17.5h64c9.665 0 17.5-7.835 17.5-17.5v-64c0-9.665-7.835-17.5-17.5-17.5z" />
			<g stroke-width="8" fill="none">
				<line y1="69" y2="125" />
				<line x1="-28" y1="97" x2="28" y2="97" />
			</g>
		</g>
		<g id="para" display="none">
			<polygon fill="#C5C525" stroke="#C5C525" stroke-width="4" stroke-linecap="round" stroke-linejoin="round" points="1547.652,38.5 1498,124.5 1593.348,124.5 1643,38.5" />
			<polygon points="1601.5,49.5 1543.5,86 1565,86 1540,113.5 1599,77 1576.5,77" />
		</g>
	</g>
</svg>