<?xml version="1.0" encoding="utf-8"?>
<svg xmlns="http://www.w3.org/2000/svg" width="1416" height="1062">
	<g>
		<g>
			<rect y="531" fill="#0880BE" width="1416" height="531" />
			<rect fill="#0A96D2" width="1416" height="531" />
			<rect y="19" fill="#fff" width="1416" height="1024" />
		</g>
		<g opacity=".4">
			<rect x="1348" y="1007.5" fill="#0A96D2" width="68" height="23" />
			<rect x="1290" y="979.5" fill="#0A96D2" width="126" height="23" />
			<g opacity=".5" fill="#0880BE">
				<path fill="#0880BE" d="M706 256.5l470 470-335.5 335.5h-840.5v-99.5l706-706zm218.5-256.5l491.5 491.5v-491.5h-491.5z" />
				<polygon fill="#0A96D2" points="1416,968.621 1416,964.379 708.121,256.5 943.5,21.121 1416,493.621 1416,489.379 945.621,19 964.621,0 960.379,0 943.5,16.879 926.621,0 922.379,0 941.379,19 706,254.379 704.939,255.439 361,599.379 0,238.379 0,242.622 358.879,601.5 0,960.379 0,964.621 706,258.621" />
			</g>
			<path fill="#0A96D2" d="M1416 967h-12v-12h12v12zm0-249.5h-12v12h12v-12zm0-237.5h-12v12h12v-12zm0-237.5h-12v12h12v-12z" />
			<path fill="#0A96D2" d="M12 729.5h-12v-12h12v12zm0-249.5h-12v12h12v-12zm0-237.5h-12v12h12v-12z" />
		</g>
		<g>
			<path fill="#0880C0" d="M244 974.688h-133.5v29.5h133.5v-29.5zm0-33.313h-133.5v29.5h133.5v-29.5zm0-33.312h-133.5v29.5h133.5v-29.5zm0-33.313h-133.5v29.5h133.5v-29.5zm0-33.312h-133.5v29.5h133.5v-29.5zm0-33.313h-133.5v29.5h133.5v-29.5zm0-33.312h-133.5v29.5h133.5v-29.5zm0-33.313h-133.5v29.5h133.5v-29.5z" />
			<path fill="#2C92C8" d="M574 1004.188h-330v-29.5h330v29.5zm0-62.813h-330v29.5h330v-29.5zm0-33.312h-330v29.5h330v-29.5zm0-33.313h-330v29.5h330v-29.5zm0-33.312h-330v29.5h330v-29.5zm0-33.313h-330v29.5h330v-29.5zm0-33.312h-330v29.5h330v-29.5zm0-33.313h-330v29.5h330v-29.5z" />
			<rect x="110.5" y="1008" fill="#0880BE" width="463.5" height="49" />
		</g>
		<g>
			<rect x="110.5" y="131" fill="#0A96D2" width="530" height="7" />
			<rect x="110.5" y="3" fill="#0A96D2" width="463.5" height="29.5" />
			<path fill="#0A96D2" d="M826 32.5h-3v-29.5h3v29.5zm-5.5-29.5h-3v29.5h3v-29.5zm-7.5 0h-3v29.5h3v-29.5zm-5.5 0h-8v29.5h8v-29.5zm-12.75 0h-3v29.5h3v-29.5zm-5.5 0h-8v29.5h8v-29.5zm-17.75 0h-3v29.5h3v-29.5zm-5.5 0h-3v29.5h3v-29.5zm-5.5 0h-3v29.5h3v-29.5zm-12.5 0h-3v29.5h3v-29.5zm-7.5 0h-3v29.5h3v-29.5zm-6.25 0h-7v29.5h7v-29.5zm-10 0h-6v29.5h6v-29.5zm-10.75 0h-5v29.5h5v-29.5zm-7.5 0h-3v29.5h3v-29.5zm-5 0h-3v29.5h3v-29.5zm-5.5 0h-3v29.5h3v-29.5zm-8 0h-7v29.5h7v-29.5zm-10 0h-3v29.5h3v-29.5zm-10.5 0h-3v29.5h3v-29.5zm-7.5 0h-6v29.5h6v-29.5zm-10 0h-4v29.5h4v-29.5zm-8 0h-4v29.5h4v-29.5zm-8 0h-6v29.5h6v-29.5zm-10 0h-4v29.5h4v-29.5zm-10.5 0h-4v29.5h4v-29.5zm-8 0h-4v29.5h4v-29.5zm-11 0h-5v29.5h5v-29.5zm-7.5 0h-3v29.5h3v-29.5zm-5.5 0h-3v29.5h3v-29.5z" />
			<path fill="#0880BE" d="M908 1008h3v49h-3v-49zm5.5 49h3v-49h-3v49zm7.5 0h3v-49h-3v49zm5.5 0h8v-49h-8v49zm12.75 0h3v-49h-3v49zm5.5 0h8v-49h-8v49zm17.75 0h3v-49h-3v49zm5.5 0h3v-49h-3v49zm5.5 0h3v-49h-3v49zm12.5 0h3v-49h-3v49zm7.5 0h3v-49h-3v49zm6.25 0h7v-49h-7v49zm10 0h6v-49h-6v49zm10.75 0h5v-32h-5v32zm7.5 0h3v-32h-3v32zm5 0h3v-32h-3v32zm5.5 0h3v-32h-3v32zm8 0h7v-32h-7v32zm10 0h3v-32h-3v32zm10.5 0h3v-32h-3v32zm7.5 0h6v-32h-6v32zm10 0h4v-32h-4v32zm8 0h4v-32h-4v32zm8 0h6v-32h-6v32zm10 0h4v-32h-4v32zm10.5 0h4v-32h-4v32zm8 0h4v-32h-4v32zm11 0h5v-32h-5v32zm7.5 0h3v-32h-3v32zm5.5 0h3v-32h-3v32z" />
		</g>
		<g>
			<rect x="684.667" y="1008" fill="#E31446" width="110.667" height="49" />
			<rect x="795.333" y="1008" fill="#049EA8" width="110.667" height="49" />
			<rect x="574" y="1008" fill="#8ED006" width="110.667" height="49" />
		</g>
		<g>
			<circle fill="#FA2864" cx="1333.5" cy="82" r="27.5" />
			<path fill="#FBFBFB" d="M1326.061 76.593c0-4.165 2.907-6.304 6.975-6.304h5.248v3.231h-5.567c-1.673 0-2.752.977-2.752 2.561v11.935c0 1.623.977 2.56 2.624 2.56h2.432v-7.711h-2.88v-3.2h6.783v14.111h-6.207c-4.072 0-6.655-2.211-6.655-6.336v-10.847z" />
		</g>
		<g>
			<circle fill="#0CBEC6" cx="1252" cy="82" r="27.5" />
			<polygon fill="#FBFBFB" points="1262.606,72.101 1261.899,71.394 1252,81.293 1242.101,71.394 1241.394,72.101 1251.293,82 1241.394,91.899 1242.101,92.606 1252,82.707 1261.899,92.606 1262.606,91.899 1252.707,82" />
		</g>
		<g>
			<circle fill="#0A96D2" cx="1170.5" cy="82" r="27.5" />
			<path fill="#FBFBFB" d="M1168.676 70.27h3.648v3.647h-3.648v-3.647zm0 6.778h3.648v16.727h-3.648v-16.727z" />
		</g>
		<g>
			<polygon fill="#0A96D2" points="1170.5,43.5 1140.5,0 1200.5,0" />
			<rect y="1043" fill="#0880BE" width="1416" height="19" />
			<rect fill="#0A96D2" width="1416" height="19" />
		</g>
	</g>
</svg>