<?xml version="1.0" encoding="utf-8"?>
<svg xmlns="http://www.w3.org/2000/svg" width="100" height="100">
	<path fill="#C8C8C8" d="M100 50c0 27.614-22.386 50-50 50s-50-22.386-50-50 22.386-50 50-50 50 22.386 50 50zm-29.797 13.469l13.469-13.469-13.469-13.469-13.469 13.469 13.469 13.469zm-20.203-20.203l13.469-13.469-13.469-13.469-13.469 13.47 13.469 13.468zm-20.203-6.735l-13.469 13.469 13.469 13.469 13.469-13.469-13.469-13.469zm20.203 20.203l-13.469 13.468 13.469 13.47 13.469-13.469-13.469-13.469z" />
</svg>