<?xml version="1.0" encoding="utf-8"?>
<svg xmlns="http://www.w3.org/2000/svg" width="100" height="100">
	<g>
		<circle opacity="0" cx="50" cy="50" r="50" />
		<path fill="#C8C8C8" d="M.051 48c1.051-26.686 23.006-48 49.949-48s48.898 21.314 49.949 48h-22.832l-4.197-19.585-8.489 25.468-8.417-23.465-7.718 27.6-9.215-44.757-8.834 50.982-3.646-16.243h-26.55zm73.832 4l-1.803-8.415-7.511 22.532-8.083-22.535-8.782 31.4-8.285-40.243-8.666 50.018-7.354-32.757h-23.348c1.051 26.686 23.006 48 49.949 48s48.898-21.314 49.949-48h-26.066z" />
	</g>
</svg>