<?xml version="1.0" encoding="utf-8"?>
<svg xmlns="http://www.w3.org/2000/svg" width="100" height="100">
	<path fill="#C8C8C8" d="M62.115 54.422c8.667-6.871 18.336-14.531 36.412-16.48.957 3.863 1.473 7.899 1.473 12.058l-.011.443c-19.06 1.672-29.358 9.466-38.539 16.452-8.174 6.22-15.894 12.095-28.281 12.095-10.558 0-17.2-3.404-23.624-6.697-1.855-.951-3.681-1.875-5.558-2.701-2.114-4.961-3.437-10.334-3.842-15.963 3.573 1.337 6.765 3.291 10.047 5.328 6.276 3.897 12.765 7.926 22.977 7.926 13.228-.001 20.512-5.775 28.946-12.461zm-52.628-16.135c6.435 4.181 13.089 8.504 23.682 8.504 14.286 0 22.121-6.059 30.415-12.474 6.86-5.305 14.399-11.097 26.646-14.003-9.107-12.321-23.733-20.314-40.23-20.314-22.066 0-40.78 14.301-47.415 34.135 2.362 1.207 4.607 2.661 6.902 4.152zm51.167 32.782c-8.339 6.346-15.541 11.826-27.484 11.826-10.24 0-16.739-3.331-23.024-6.553-1.254-.642-2.494-1.272-3.745-1.873 8.568 15.234 24.877 25.531 43.599 25.531 26.145 0 47.589-20.07 49.799-45.642-19.375 1.708-29.826 9.619-39.145 16.711zm2.126-32.571c-8.112 6.273-15.775 12.199-29.611 12.199-10.204 0-16.692-4.215-22.965-8.292-2.837-1.843-5.598-3.637-8.603-4.993-1.025 3.951-1.576 8.092-1.595 12.359 3.348 1.297 6.379 3.15 9.493 5.083 6.432 3.994 13.084 8.123 23.671 8.123 13.687 0 21.495-6.191 29.763-12.745 8.313-6.59 17.589-13.902 34.504-16.035-1.237-3.715-2.893-7.237-4.921-10.508-14.049 2.71-22.283 9.045-29.736 14.809z" />
</svg>