<?xml version="1.0" encoding="utf-8"?>
<svg xmlns="http://www.w3.org/2000/svg" width="100" height="100">
	<path fill="#C8C8C8" d="M26.974 33.553h46.053v39.145c0 2.352-1.924 4.276-4.276 4.276h-37.5c-2.352 0-4.276-1.924-4.276-4.276v-39.145zm73.026 16.447c0 27.614-22.386 50-50 50s-50-22.386-50-50 22.386-50 50-50 50 22.386 50 50zm-56.25-27.632h12.5c2.171 0 2.711-1.276 1.201-2.835l-4.704-4.856c-1.511-1.559-3.983-1.559-5.493 0l-4.704 4.856c-1.511 1.56-.971 2.835 1.2 2.835zm33.553 5.921c0-4.542-3.681-8.224-8.224-8.224h-2.474c-.724 0-1.722.431-2.218.958l-4.396 4.671c-.374.396-.893.621-1.438.621h-17.106c-.544 0-1.065-.225-1.437-.621l-4.396-4.671c-.496-.527-1.494-.958-2.218-.958h-2.475c-4.542 0-8.224 3.681-8.224 8.224v44.737c0 4.542 3.682 8.224 8.224 8.224h38.158c4.542 0 8.224-3.681 8.224-8.224v-44.737z" />
</svg>