<?xml version="1.0" encoding="utf-8"?>
<svg xmlns="http://www.w3.org/2000/svg" width="367.825" height="69.8">
	<g>
		<rect x="0" y="0" opacity="0" width="367.825" height="69.8" />
		<path d="M60.593 33.682c0 2.316-4.526 4.205-10.074 4.205h-2.044l12.118 21.396h-14.308l-12.118-21.396h-9.344v21.396h-14.307v-44.56c0-2.316 4.526-4.207 10.074-4.207h40.003v23.166zm-14.308-17.192h-21.461v15.424h21.461v-15.424zM105.998 20.942v-4.452h-21.461v36.82h21.461v-4.45h14.308v6.219c0 2.316-4.526 4.205-10.22 4.205h-29.783c-5.548 0-10.074-1.889-10.074-4.205v-40.356c0-2.316 4.526-4.207 10.074-4.207h40.003v10.426h-14.308zM176.369 16.49h-17.812v42.793h-14.454v-42.793h-17.812v-5.975h50.077v5.975zM199.875 60.804h-7.435v4.498h-6.174v-17.704c0-.999 1.953-1.814 4.347-1.814h13.672v13.205c0 1-1.953 1.815-4.41 1.815zm-1.764-12.442h-5.67v9.864h5.67v-9.864zM226.65 45.783v2.578l-11.845.973v11.47h-6.174v-11.706c0-1 2.079-1.999 4.347-2.184l13.672-1.131zM242.777 60.804h-9.262c-2.394 0-4.347-.815-4.347-1.815v-11.391c0-.999 1.953-1.814 4.347-1.814h9.262c2.457 0 4.41.815 4.41 1.814v11.391c0 1-1.953 1.815-4.41 1.815zm-1.764-12.442h-5.671v9.864h5.671v-9.864zM265.142 64.171l-13.609 1.131v-2.578l11.845-.973v-.947h-7.497c-2.395 0-4.348-.815-4.348-1.815v-11.391c0-.999 1.953-1.814 4.348-1.814h13.672v16.204c-.001 1-2.08 1.999-4.411 2.183zm-1.765-15.809h-5.67v9.864h5.67v-9.864zM291.916 45.783v2.578l-11.844.973v11.47h-6.175v-11.706c0-1 2.079-1.999 4.348-2.184l13.671-1.131zM312.454 54.254c0 .999-1.953 1.841-4.41 1.841h-7.434v2.131h11.844v2.578h-13.671c-2.395 0-4.348-.815-4.348-1.815v-11.391c0-.999 1.953-1.814 4.348-1.814h13.671v8.47zm-6.174-.764v-5.129h-5.67v5.129h5.67zM328.897 50.281v-1.92h-5.67v3.63h7.434c2.457 0 4.41.815 4.41 1.842v5.155c0 1-1.953 1.815-4.41 1.815h-9.261c-2.395 0-4.348-.815-4.348-1.815v-2.683h6.175v1.92h5.67v-3.655h-7.497c-2.395 0-4.348-.815-4.348-1.815v-5.156c0-.999 1.953-1.814 4.348-1.814h13.671v4.498h-6.174zM351.135 50.281v-1.92h-5.67v3.63h7.434c2.457 0 4.41.815 4.41 1.842v5.155c0 1-1.953 1.815-4.41 1.815h-9.261c-2.395 0-4.348-.815-4.348-1.815v-2.683h6.175v1.92h5.67v-3.655h-7.497c-2.395 0-4.348-.815-4.348-1.815v-5.156c0-.999 1.953-1.814 4.348-1.814h13.671v4.498h-6.174z" />
	</g>
</svg>