<?xml version="1.0" encoding="utf-8"?>
<svg xmlns="http://www.w3.org/2000/svg" width="699" height="321.5">
	<g fill="#FBFBFB">
		<rect x="0" fill-opacity="0" width="699" height="321.5" />
		<path d="M515.5 293l-16.42-14h5.42c4.142 0 7.5-3.358 7.5-7.5v-9c0-4.142-3.358-7.5-7.5-7.5h-33.5v38h8.8v-14h7.98l16.42 14h11.3zm-35.7-31.25h20.9c1.381 0 2.5 1.119 2.5 2.5v5.5c0 1.381-1.119 2.5-2.5 2.5h-20.9v-10.5zm-51.3-6.75h8l21.5 38h-9.164l-16.336-31.25-16.734 31.25h-8.766l21.5-38zm-40.5 38l-23.6-16.796v16.796h-8.8v-38h8.8v15.732l21.6-15.732h11.833l-24.733 18 27.7 20h-12.8zm-92.5 0v-7.2h26.8l-26.8-26.8v-4h38v6.75h-24l26.5 27.25v4h-40.5zm-12.5 0h-9.164l-16.336-31.25-16.734 31.25h-8.766l21.5-38h8l21.5 38zm-99.5 0h40.5v-7.2h-26.8l26.8-26.8v-4h-38v6.75h24l-26.5 27.25v4z" />
		<polygon points="349.5,113 444.5,226.5 520,226.5 529,235.5 670.5,235.5 515,81.75 616.5,81.75 670,28.5 529,28.5 520,37.5 403,37.5 548.5,182 475.5,182 349.5,37.5 223.5,182 150.5,182 296,37.5 179,37.5 170,28.5 29,28.5 82.5,81.75 184,81.75 28.5,235.5 170,235.5 179,226.5 254.5,226.5" />
	</g>
</svg>