<?xml version="1.0" encoding="utf-8"?>
<svg xmlns="http://www.w3.org/2000/svg" width="216.265" height="548.817">
	<path fill="#C8C8C8" d="M181.219 547.981c1.925-.542 4.747-2.002 6.271-3.244 2.765-2.253 2.769-2.274 1.804-9.779-.532-4.137-1.881-9.537-2.999-12s-2.041-6.635-2.054-9.269c-.015-3.195-.689-5.693-2.023-7.5-1.1-1.49-2.887-5.811-3.97-9.602-2.235-7.823-2.078-14.97.518-23.608 1.297-4.316 1.697-10.451 1.859-28.5.174-19.42.469-23.498 1.9-26.2.932-1.76 1.694-5.221 1.694-7.691s.419-4.75.931-5.066c1.301-.804.265-5.669-1.662-7.798-.882-.975-3.952-3.331-6.821-5.235s-5.493-4.185-5.832-5.068c-1.052-2.741-.629-22.727.569-26.942.626-2.2 1.198-8.275 1.272-13.5.074-5.225.665-10.737 1.314-12.25 1.106-2.58 1.567-2.751 7.454-2.765 7.826-.018 10.059-1.141 15.465-7.773 4.259-5.225 4.31-5.379 4.31-13.083 0-4.288.495-10.259 1.099-13.27 1.086-5.406 1.171-5.506 6.839-8.011l5.739-2.537.781-14.406c1.019-18.799.646-69.18-.587-79.406-.531-4.4-1.173-12.05-1.426-17-.316-6.161-1.43-12.127-3.533-18.914-1.689-5.453-3.661-13.103-4.382-17-1.253-6.776-3.362-12.775-7.935-22.575-2.731-5.853-12.768-15.844-19.098-19.011-2.748-1.375-5.268-2.869-5.6-3.321-.332-.451-.179-2.701.339-5 2.006-8.9 2.061-12.693.213-14.734-4.009-4.43-7.471-1.38-9.429 8.305-.639 3.163-1.63 5.75-2.201 5.75s-3.501-2.25-6.51-5-6.079-5-6.823-5c-2.059 0-2.77-3.642-1.299-6.66 1.248-2.56 2.842-3.401 9.018-4.761 2.157-.475 2.858-1.355 3.452-4.337.41-2.058.651-4.093.534-4.522-.117-.429.515-2.187 1.404-3.906 2.589-5.007 1.517-13.822-2.775-22.813-1.969-4.125-4.354-9.36-5.299-11.633-2.421-5.818-9.825-12.933-17.046-16.379-11.757-5.612-23.614-4.93-34.294 1.973-8.04 5.197-11.824 10.952-14.519 22.085-1.189 4.911-2.424 8.934-2.744 8.941-.653.014.148-6.196 2.498-19.369 2.005-11.239 1.997-15.064-.037-17.097-4.31-4.31-6.271.082-9.339 20.914-1.129 7.665-2.671 14.88-3.427 16.034-1.581 2.413-3.24 9.481-7.564 32.227-3.352 17.632-4.98 21.632-9.548 23.467-8.324 3.343-19.442 12.957-23.049 19.932-2.863 5.537-6.873 10.539-19.646 24.508-8.072 8.828-14.781 22.831-15.023 31.357-.05 1.771 1.411 4.617 4.177 8.132 10.266 13.049 20.692 17.412 32.041 13.407 7.997-2.822 8.361-2.546 7.546 5.726-.392 3.974-1.38 9.037-2.196 11.25-.816 2.213-1.44 6.499-1.386 9.524s-.833 12.432-1.97 20.904-2.253 17.472-2.48 20c-.227 2.528-1.092 7.521-1.922 11.096-2.763 11.891-7.591 41.058-7.591 45.858 0 2.106.697 3.139 2.75 4.077 4.016 1.834 12.818 2.574 13.697 1.151.396-.641 1.543-5.535 2.549-10.876 2.94-15.612 5.091-24.638 6.124-25.702 2.502-2.576 2.904 3.345 2.647 38.992l-.267 37 3.25 10.893c4.232 14.184 4.246 17.162.093 19.404-5.222 2.818-6.843 4.912-6.843 8.835 0 1.998.961 5.186 2.134 7.086l2.134 3.454-2.225 4.456-2.225 4.456 2.267 4.709c2.126 4.416 2.308 6.416 2.928 32.209.778 32.365.144 41.187-3.455 48.069-1.445 2.764-2.559 6.557-2.559 8.715 0 2.7-.909 5.058-3.099 8.035-2.746 3.734-4.528 10.484-4.868 18.445-.018.421 1.43 1.656 3.217 2.746 4.734 2.886 8.412 2.674 22.072-1.274 4.591-1.327 7.678-4.93 7.678-8.961 0-2.156 1.148-4.078 4.25-7.115l4.25-4.161-.163-13.5c-.09-7.425-.402-14.85-.694-16.5-.573-3.237 1.923-14.741 3.905-18 .669-1.1 1.501-3.919 1.848-6.264.348-2.345 2.185-8.87 4.084-14.5 1.898-5.63 3.955-12.6 4.57-15.491.865-4.067 2.097-6.234 5.448-9.585 3.559-3.559 4.443-5.205 4.966-9.245.35-2.703 1.94-9.64 3.534-15.415 2.554-9.256 2.829-11.573 2.322-19.555-.432-6.794-.169-10.453 1.052-14.654.895-3.079 1.659-7.329 1.698-9.445.134-7.314 1.296-8.008 3.624-2.165 1.582 3.97 2.29 8.615 2.791 18.319 1.656 32.065 1.705 32.408 5.015 35.253 1.688 1.451 3.088 3.709 3.201 5.163.111 1.421.952 3.034 1.869 3.584 4.832 2.898 5.88 4.376 6.125 8.639.138 2.399.316 5.036.394 5.861.399 4.202 7.073 29.401 9.402 35.5 3.593 9.409 4.53 16.07 4.925 35 .319 15.296 1.354 22.122 3.562 23.486.558.345 1.219 3.402 1.469 6.794.687 9.328 3.212 12.675 10.663 14.138 6.129 1.204 8.852 1.221 12.889.084zm-101-465.462c0-3.293 2.296-17.099 2.967-17.836.398-.437 3.151.805 6.119 2.759 2.968 1.955 6.188 3.805 7.155 4.112 4.352 1.381.279 6.415-7.961 9.839-7.173 2.981-8.28 3.132-8.28 1.126z" />
</svg>