<?xml version="1.0" encoding="utf-8"?>
<svg xmlns="http://www.w3.org/2000/svg" width="628" height="84">
	<g fill="#FBFBFB">
		<polygon points="628,24 628,0 559,0 544,15 544,54 604,54 604,60 544,60 544,84 613,84 628,69 628,30 568,30 568,24" />
		<polygon points="468,60 432,60 432,0 423,0 408,15 408,84 477,84 492,69 492,0 468,0" />
		<polygon points="287,0 272,15 272,84 341,84 356,69 356,30 302,30 302,54 332,54 332,60 296,60 296,24 356,24 356,0" />
		<polygon points="151,0 136,15 136,84 160,84 160,24 196,24 196,30 166,30 166,84 205,84 220,69 220,60 190,60 190,54 220,54 220,0" />
		<path d="M30 54v-24h24v24h-24zm-15-54l-15 15v69h24v-60h36v60h9l15-15v-69h-69z" />
	</g>
</svg>