<?xml version="1.0" encoding="utf-8"?>
<svg xmlns="http://www.w3.org/2000/svg" width="116" height="43">
	<g>
		<g>
			<polygon points="104.64,34.65 113.5,34.65 113.5,32.5 102.5,32.5 102.5,40.5 104.64,40.5" />
			<path d="M90,35.42v5.08h11v-8H90v2.15h8.86v0.77C98.86,35.42,90,35.42,90,35.42z M92.14,38.35v-0.77h6.72v0.77H92.14z" />
			<path d="M88.5,37.58V32.5h-11v8h11v-2.15h-8.86v-0.77H88.5z M86.36,34.65v0.77h-6.72v-0.77H86.36z" />
			<polygon points="76,34.65 76,32.5 65,32.5 65,40.5 76,40.5 76,35.42 67.9,35.42 67.9,37.58 73.86,37.58 73.86,38.35 67.14,38.35 67.14,34.65" />
			<path d="M63.5 37.58v-5.08h-11v8h11v-2.15h-8.86v-.77h8.86zm-2.14-2.93v.77h-6.72v-.77h6.72z" />
			<polygon points="48.86,32.5 48.86,36.01 45.5,38.92 42.14,36.01 42.14,32.5 40,32.5 40,36.99 44.04,40.5 46.96,40.5 51,36.99 51,32.5" />
			<polygon points="29.64,34.65 38.5,34.65 38.5,32.5 27.5,32.5 27.5,40.5 29.64,40.5" />
			<path d="M26 37.58v-5.08h-11v8h11v-2.15h-8.86v-.77h8.86zm-2.14-2.93v.77h-6.72v-.77h6.72z" />
			<polygon points="4.64,34.73 10.57,40.5 13.5,40.5 13.5,32.5 11.36,32.5 11.36,38.27 5.43,32.5 2.5,32.5 2.5,40.5 4.64,40.5" />
		</g>
		<g>
			<polygon points="113.5,9.5 113.5,2.5 77.5,2.5 77.5,28.5 113.5,28.5 113.5,12 87,12 87,19 106.5,19 106.5,21.5 84.5,21.5 84.5,9.5" />
			<polygon points="69,2.5 69,13.9 58,23.38 47,13.9 47,2.5 40,2.5 40,17.1 53.22,28.5 62.78,28.5 76,17.1 76,2.5" />
			<polygon points="9.5,9.74 28.93,28.5 38.5,28.5 38.5,2.5 31.5,2.5 31.5,21.26 12.07,2.5 2.5,2.5 2.5,28.5 9.5,28.5" />
		</g>
	</g>
</svg>