<?xml version="1.0" encoding="utf-8"?>
<svg xmlns="http://www.w3.org/2000/svg" width="1108" height="286">
	<g fill="#FBFBFB">
		<polygon points="578,226 554,244 530,226 0,226 0,286 530,286 554,268 578,286 1108,286 1108,226" />
		<path d="M28.933.75h50.854v33.838h-22.527v-11.312h-22.817v113.309h22.817v-11.312h22.526v16.822c0 4.706-1.677 8.718-5.027 12.037-3.352 3.32-7.348 4.979-11.988 4.979h-33.838c-4.771 0-8.798-1.644-12.085-4.931s-4.931-7.314-4.931-12.085v-124.329c0-4.769 1.644-8.798 4.931-12.085s7.314-4.931 12.085-4.931zm118.239 141.346c0 4.706-1.677 8.718-5.027 12.037-3.352 3.32-7.348 4.979-11.988 4.979h-22.623c-4.771 0-8.798-1.644-12.085-4.931s-4.931-7.314-4.931-12.085v-79.181c0-4.641 1.659-8.604 4.979-11.892 3.319-3.287 7.331-4.931 12.037-4.931h22.623c4.641 0 8.636 1.644 11.988 4.931 3.351 3.287 5.027 7.251 5.027 11.892v79.181zm-22.817-5.511v-67.966h-11.312v67.966h11.312zm94.65-73.67v96.196h-22.816v-90.492h-11.312v90.492h-22.526v-113.018h39.639c4.641 0 8.636 1.644 11.988 4.931 3.35 3.287 5.027 7.25 5.027 11.891zm72.8 101.9c0 4.641-1.692 8.942-5.076 12.907-3.384 3.963-7.364 6.396-11.94 7.299l-39.639 7.928v-22.526l33.838-6.768v-4.544h-16.822c-4.771 0-8.798-1.644-12.085-4.931s-4.931-7.314-4.931-12.085v-79.18c0-4.641 1.659-8.604 4.979-11.892 3.319-3.287 7.331-4.931 12.037-4.931h39.639v118.723zm-22.817-28.23v-67.966h-11.312v67.966h11.312zm55.978-82.564l39.639-7.928v22.526l-34.128 6.768v83.725h-22.527v-84.982c0-4.641 1.692-8.926 5.076-12.858 3.384-3.931 7.363-6.348 11.94-7.251zm107.508 20.109v84.981h-39.639c-4.641 0-8.638-1.675-11.988-5.027-3.352-3.351-5.027-7.348-5.027-11.988v-45.15c0-4.641 1.675-8.636 5.027-11.988 3.351-3.351 7.348-5.027 11.988-5.027h16.822v-4.544l-33.838-6.768v-22.526l39.639 7.928c4.576.903 8.556 3.32 11.94 7.251 3.384 3.932 5.076 8.217 5.076 12.858zm-34.128 62.455h11.312v-34.128h-11.312v34.128zm50.08 5.511v-130.131h22.526v34.128h34.128v22.526h-34.128v67.966h34.128v22.526h-39.639c-4.771 0-8.798-1.644-12.085-4.931s-4.93-7.314-4.93-12.084zm102.867-96.003h22.816v113.019h-39.639c-4.771 0-8.798-1.644-12.085-4.931s-4.931-7.314-4.931-12.085v-96.003h22.526v90.492h11.312v-90.492zm61.488-45.343v135.835h11.312v22.526h-33.838v-158.361h22.526zm83.338 73.38v84.981h-39.639c-4.641 0-8.638-1.675-11.988-5.027-3.352-3.351-5.027-7.348-5.027-11.988v-45.15c0-4.641 1.675-8.636 5.027-11.988 3.351-3.351 7.348-5.027 11.988-5.027h16.822v-4.544l-33.838-6.768v-22.526l39.639 7.928c4.576.903 8.556 3.32 11.94 7.251 3.384 3.932 5.076 8.217 5.076 12.858zm-34.128 62.455h11.312v-34.128h-11.312v34.128zm50.08 5.511v-130.131h22.526v34.128h34.128v22.526h-34.128v67.966h34.128v22.526h-39.639c-4.771 0-8.798-1.644-12.085-4.931s-4.93-7.314-4.93-12.084zm69.03-130.131h22.526v22.623h-22.526v-22.623zm0 147.146v-113.018h22.526v113.019h-22.526zm95.036-17.015c0 4.706-1.677 8.718-5.027 12.037-3.352 3.32-7.348 4.979-11.988 4.979h-22.623c-4.771 0-8.798-1.644-12.085-4.931s-4.931-7.314-4.931-12.085v-79.181c0-4.641 1.659-8.604 4.979-11.892 3.319-3.287 7.331-4.931 12.037-4.931h22.623c4.641 0 8.636 1.644 11.988 4.931 3.351 3.287 5.027 7.251 5.027 11.892v79.181zm-22.817-5.511v-67.966h-11.312v67.966h11.312zm94.65-73.67v96.196h-22.816v-90.492h-11.312v90.492h-22.526v-113.018h39.639c4.641 0 8.636 1.644 11.988 4.931 3.35 3.287 5.027 7.25 5.027 11.891zm33.161-16.822h39.639v33.838h-22.816v-11.312h-11.311v22.623h17.111c4.641 0 8.637 1.677 11.988 5.027 3.352 3.353 5.027 7.348 5.027 11.988v33.838c0 4.641-1.676 8.638-5.027 11.988-3.352 3.353-7.348 5.027-11.988 5.027h-22.623c-4.641 0-8.637-1.675-11.988-5.027-3.352-3.351-5.027-7.348-5.027-11.988v-16.822h22.527v11.312h11.311v-22.816h-17.016c-4.641 0-8.604-1.644-11.891-4.931s-4.932-7.251-4.932-11.892v-34.031c0-4.641 1.676-8.604 5.027-11.892s7.348-4.93 11.989-4.93zm57.428 82.371l-3.191-48.533v-79.181h22.527v79.181l-3.094 48.533h-16.242zm-3.192 30.647v-19.433h22.527v19.433h-22.527zm41.381-30.647l-3.191-48.533v-79.181h22.527v79.181l-3.094 48.533h-16.242zm-3.191 30.647v-19.433h22.527v19.433h-22.527z" />
	</g>
</svg>