<?xml version="1.0" encoding="utf-8"?>
<svg xmlns="http://www.w3.org/2000/svg" width="100" height="100">
	<path fill="#C8C8C8" d="M93.798 57.517l-5.811 2.906c-3.195 1.598-4.886 5.679-3.756 9.068l.001.003 2.053 6.16c2.923 8.771-1.86 13.555-10.631 10.631l-6.165-2.055c-3.389-1.129-7.469.561-9.067 3.756l-2.906 5.811c-4.135 8.269-10.9 8.269-15.035 0l-2.906-5.811c-1.598-3.195-5.678-4.885-9.067-3.756l-6.164 2.055c-8.771 2.923-13.555-1.861-10.631-10.631l2.055-6.164c1.129-3.389-.561-7.468-3.755-9.067l-5.812-2.906c-8.269-4.134-8.269-10.9 0-15.035l5.81-2.905h.001c3.195-1.598 4.885-5.678 3.757-9.067l-2.055-6.165c-2.923-8.771 1.86-13.555 10.631-10.631l6.161 2.054.002.001c3.39 1.13 7.47-.56 9.068-3.756l.001-.001 2.905-5.81c4.135-8.269 10.9-8.269 15.035 0l2.905 5.81v.001c1.598 3.196 5.679 4.886 9.069 3.756l.002-.001 6.161-2.054c8.771-2.924 13.555 1.86 10.631 10.631l-2.054 6.162v.001c-1.13 3.39.56 7.471 3.756 9.069l.002.001 5.809 2.905c8.269 4.134 8.269 10.9 0 15.034zm-27.494-7.517c0-9.005-7.3-16.304-16.304-16.304s-16.304 7.299-16.304 16.304 7.299 16.304 16.304 16.304 16.304-7.299 16.304-16.304z" />
</svg>