<?xml version="1.0" encoding="utf-8"?>
<svg xmlns="http://www.w3.org/2000/svg" width="100" height="100">
	<g fill="#FBFBFB">
		<path d="M100 50c0 27.614-22.386 50-50 50s-50-22.386-50-50 22.386-50 50-50 50 22.386 50 50zm-50-45.66c-25.218 0-45.66 20.442-45.66 45.66s20.442 45.66 45.66 45.66 45.66-20.442 45.66-45.66-20.442-45.66-45.66-45.66z" />
		<path d="M88.184 77.681l-1.122-6.123-27.971-6.527-.932-4.196 6.06-5.594 1.864-24.941-9.323-10.489h-13.52l-9.323 10.489 1.865 24.941 6.06 5.594-.932 4.196-27.971 6.527-1.122 6.123c8.572 11.806 22.477 19.489 38.183 19.489s29.611-7.683 38.184-19.489z" />
	</g>
</svg>