<?xml version="1.0" encoding="utf-8"?>
<svg xmlns="http://www.w3.org/2000/svg" xmlns:xlink="http://www.w3.org/1999/xlink" width="1493" height="930">
	<g transform="translate(-14 -81.5)">
		<g>
			<g>
				<rect x="45" y="81.5" fill="#303030" width="824" height="930" />
				<rect x="45" y="81.5" fill="#404040" width="824" height="203" />
			</g>
			<g>
				<path fill="#505050" d="M833.5 987.5h2.5v-9h-2.5v9zm-153.5 0h3.5v-9h-3.5v9zm-7 0h3v-9h-3v9zm15.5 0h4v-9h-4v9zm15.5 0h3v-9h-3v9zm-6.5 0h3.5v-9h-3.5v9zm11.5 0h3v-9h-3v9zm-46.5 0h6.5v-9h-6.5v9zm-25 0h6.5v-9h-6.5v9zm20 0h3v-9h-3v9zm-34 0v-9h-2v9h2zm2 0h3v-9h-3v9zm20.5 0h3.5v-9h-3.5v9zm-15.5 0h3v-9h-3v9zm89.5 0h3v-9h-3v9zm86.5 0h4v-9h-4v9zm-16 0h5v-9h-5v9zm-9 0h7v-9h-7v9zm16 0h7v-9h-7v9zm-25.5 0h3.5v-9h-3.5v9zm52 0h2.5v-9h-2.5v9zm-11.5 0h9.5v-9h-9.5v9zm16 0h3v-9h-3v9zm-83.5 0h3v-9h-3v9zm-10 0h4v-9h-4v9zm31 0h4v-9h-4v9zm-36.5 0h3.5v-9h-3.5v9zm-4.5 0h2.5v-9h-2.5v9zm34 0h4v-9h-4v9zm-9 0h3v-9h-3v9z" />
				<path fill="#505050" d="M79 554v-4h9v4h-9zm9-18v-3.5h-9v3.5h9zm0-22.5v-3h-9v3h9zm0 47v-2.5h-9v2.5h9zm0-36v-3h-9v3h9zm0 6v-4h-9v4h9zm0-22v-2h-9v2h9zm0 63v-7h-9v7h9zm0 41.5v-3h-9v3h9zm0-9.5v-3h-9v3h9zm0 4.5v-2.5h-9v2.5h9zm0-31.5v-3h-9v3h9zm0 11.5v-3.5h-9v3.5h9zm0 8.5v-6.5h-9v6.5h9zm0-51.5v-4h-9v4h9zm0-117.5v-5h-9v5h9zm0 9v-7h-9v7h9zm0 16v-7h-9v7h9zm0-9v-5h-9v5h9zm0 61v-3h-9v3h9zm0-95v-3h-9v3h9zm0 211v-2.5h-9v2.5h9zm0-200v-9h-9v9h9zm0 68v-2h-9v2h9zm0 11v-5h-9v5h9zm0-15v-4h-9v4h9zm0-10v-4h-9v4h9zm0-6v-5h-9v5h9zm0-7v-3h-9v3h9zm-9-59v2h9v-2h-9zm9 371.5v-3.5h-9v3.5h9zm0 7v-3h-9v3h9zm0-15.5v-4h-9v4h9zm0-15.5v-3h-9v3h9zm0 6.5v-3.5h-9v3.5h9zm0-11.5v-3h-9v3h9zm0 46.5v-6.5h-9v6.5h9zm0 25v-6.5h-9v6.5h9zm0-20v-3h-9v3h9zm0-396v-3h-9v3h9zm0 430h-9v2h9v-2zm0-2v-3h-9v3h9zm0-20.5v-3.5h-9v3.5h9zm0 15.5v-3h-9v3h9zm0-89.5v-3h-9v3h9zm0-86.5v-4h-9v4h9zm0 16v-5h-9v5h9zm0 9v-7h-9v7h9zm0-16v-7h-9v7h9zm0 25.5v-3.5h-9v3.5h9zm0-52v-2.5h-9v2.5h9zm0 11.5v-9.5h-9v9.5h9zm0-16v-3h-9v3h9zm0 83.5v-3h-9v3h9zm0 10v-4h-9v4h9zm0-31v-4h-9v4h9zm0 36.5v-3.5h-9v3.5h9zm0 4.5v-2.5h-9v2.5h9zm0-34v-4h-9v4h9zm0 9v-3h-9v3h9z" />
			</g>
			<path fill="#C8C8C8" d="M404.333 984.25l-7.294 8.545-7.325-8.545h4.12c0-8.698 9.614-11.75 15.718-11.75.488 0 1.068.131 1.068.61 0 .48-.58.61-1.068.61-2.899 0-9.766 2.899-9.766 10.529h4.547zm11.628-8.545l-7.294 8.545h4.547c0 7.63-6.867 10.529-9.766 10.529-.488 0-1.068.131-1.068.61s.58.61 1.068.61c6.104 0 15.718-3.052 15.718-11.75h4.12l-7.325-8.544z" />
			<g>
				<g>
					<g fill="#505050">
						<rect x="649" y="908.015" width="110.253" height="5.717" />
						<rect x="463" y="908.015" width="110.253" height="5.717" />
						<rect x="649" y="898.215" width="110.253" height="5.717" />
						<rect x="463" y="898.215" width="110.253" height="5.717" />
					</g>
					<g>
						<path fill="#505050" d="M833.979 827.572v64.518h-369.958v-64.518h369.958m2.042-2.042h-374.042v68.602h374.042v-68.602z" />
						<line stroke="#505050" stroke-width="2.011" stroke-miterlimit="10" x1="649" y1="826.551" x2="649" y2="893.111" fill="none" />
						<g fill="#505050">
							<circle cx="759.253" cy="883.923" r="1.021" />
							<circle cx="759.253" cy="880.911" r="1.021" />
							<circle cx="759.253" cy="877.9" r="1.021" />
							<circle cx="759.253" cy="874.888" r="1.021" />
							<circle cx="759.253" cy="871.877" r="1.021" />
							<circle cx="759.253" cy="868.865" r="1.021" />
							<circle cx="759.253" cy="865.854" r="1.021" />
							<circle cx="759.253" cy="862.842" r="1.021" />
							<circle cx="759.253" cy="859.831" r="1.021" />
							<circle cx="759.253" cy="856.819" r="1.021" />
							<circle cx="759.253" cy="853.808" r="1.021" />
							<circle cx="759.253" cy="850.796" r="1.021" />
							<circle cx="759.253" cy="847.785" r="1.021" />
							<circle cx="759.253" cy="844.773" r="1.021" />
							<circle cx="759.253" cy="841.762" r="1.021" />
							<circle cx="759.253" cy="838.75" r="1.021" />
							<circle cx="759.253" cy="835.739" r="1.021" />
							<circle cx="573.457" cy="883.923" r="1.021" />
							<circle cx="573.457" cy="880.911" r="1.021" />
							<circle cx="573.457" cy="877.9" r="1.021" />
							<circle cx="573.457" cy="874.888" r="1.021" />
							<circle cx="573.457" cy="871.877" r="1.021" />
							<circle cx="573.457" cy="868.865" r="1.021" />
							<circle cx="573.457" cy="865.854" r="1.021" />
							<circle cx="573.457" cy="862.842" r="1.021" />
							<circle cx="573.457" cy="859.831" r="1.021" />
							<circle cx="573.457" cy="856.819" r="1.021" />
							<circle cx="573.457" cy="853.808" r="1.021" />
							<circle cx="573.457" cy="850.796" r="1.021" />
							<circle cx="573.457" cy="847.785" r="1.021" />
							<circle cx="573.457" cy="844.773" r="1.021" />
							<circle cx="573.457" cy="841.762" r="1.021" />
							<circle cx="573.457" cy="838.75" r="1.021" />
							<circle cx="573.457" cy="835.739" r="1.021" />
						</g>
					</g>
				</g>
				<g>
					<g fill="#505050">
						<rect x="649" y="815.73" width="110.253" height="5.717" />
						<rect x="463" y="815.73" width="110.253" height="5.717" />
						<rect x="649" y="805.93" width="110.253" height="5.717" />
						<rect x="463" y="805.93" width="110.253" height="5.717" />
					</g>
					<rect x="463" y="815.73" fill="#C8C8C8" width="40.426" height="5.717" />
					<g>
						<path fill="#505050" d="M833.979 735.286v64.518h-369.958v-64.518h369.958m2.042-2.042h-374.042v68.602h374.042v-68.602z" />
						<line stroke="#505050" stroke-width="2.011" stroke-miterlimit="10" x1="649" y1="734.265" x2="649" y2="800.825" fill="none" />
						<g fill="#505050">
							<circle cx="759.253" cy="791.638" r="1.021" />
							<circle cx="759.253" cy="788.626" r="1.021" />
							<circle cx="759.253" cy="785.614" r="1.021" />
							<circle cx="759.253" cy="782.603" r="1.021" />
							<circle cx="759.253" cy="779.591" r="1.021" />
							<circle cx="759.253" cy="776.58" r="1.021" />
							<circle cx="759.253" cy="773.568" r="1.021" />
							<circle cx="759.253" cy="770.557" r="1.021" />
							<circle cx="759.253" cy="767.545" r="1.021" />
							<circle cx="759.253" cy="764.534" r="1.021" />
							<circle cx="759.253" cy="761.522" r="1.021" />
							<circle cx="759.253" cy="758.511" r="1.021" />
							<circle cx="759.253" cy="755.499" r="1.021" />
							<circle cx="759.253" cy="752.488" r="1.021" />
							<circle cx="759.253" cy="749.476" r="1.021" />
							<circle cx="759.253" cy="746.465" r="1.021" />
							<circle cx="759.253" cy="743.453" r="1.021" />
							<circle cx="573.457" cy="791.638" r="1.021" />
							<circle cx="573.457" cy="788.626" r="1.021" />
							<circle cx="573.457" cy="785.614" r="1.021" />
							<circle cx="573.457" cy="782.603" r="1.021" />
							<circle cx="573.457" cy="779.591" r="1.021" />
							<circle cx="573.457" cy="776.58" r="1.021" />
							<circle cx="573.457" cy="773.568" r="1.021" />
							<circle cx="573.457" cy="770.557" r="1.021" />
							<circle cx="573.457" cy="767.545" r="1.021" />
							<circle cx="573.457" cy="764.534" r="1.021" />
							<circle cx="573.457" cy="761.522" r="1.021" />
							<circle cx="573.457" cy="758.511" r="1.021" />
							<circle cx="573.457" cy="755.499" r="1.021" />
							<circle cx="573.457" cy="752.488" r="1.021" />
							<circle cx="573.457" cy="749.476" r="1.021" />
							<circle cx="573.457" cy="746.465" r="1.021" />
							<circle cx="573.457" cy="743.453" r="1.021" />
						</g>
					</g>
				</g>
				<g>
					<g fill="#505050">
						<rect x="649" y="723.444" width="110.253" height="5.717" />
						<rect x="463" y="723.444" width="110.253" height="5.717" />
						<rect x="649" y="713.644" width="110.253" height="5.717" />
						<rect x="463" y="713.644" width="110.253" height="5.717" />
					</g>
					<g>
						<g fill="#C8C8C8">
							<rect x="649" y="723.444" width="26.134" height="5.717" />
							<rect x="463" y="723.444" width="20.417" height="5.717" />
						</g>
						<rect x="463" y="713.644" fill="#C8C8C8" width="81.669" height="5.717" />
					</g>
					<g>
						<path fill="#505050" d="M833.979 643.001v64.518h-369.958v-64.518h369.958m2.042-2.042h-374.042v68.602h374.042v-68.602z" />
						<line stroke="#505050" stroke-width="2.011" stroke-miterlimit="10" x1="649" y1="641.98" x2="649" y2="708.54" fill="none" />
						<g fill="#505050">
							<circle cx="759.253" cy="699.352" r="1.021" />
							<circle cx="759.253" cy="696.341" r="1.021" />
							<circle cx="759.253" cy="693.329" r="1.021" />
							<circle cx="759.253" cy="690.317" r="1.021" />
							<circle cx="759.253" cy="687.306" r="1.021" />
							<circle cx="759.253" cy="684.294" r="1.021" />
							<circle cx="759.253" cy="681.283" r="1.021" />
							<circle cx="759.253" cy="678.271" r="1.021" />
							<circle cx="759.253" cy="675.26" r="1.021" />
							<circle cx="759.253" cy="672.248" r="1.021" />
							<circle cx="759.253" cy="669.237" r="1.021" />
							<circle cx="759.253" cy="666.225" r="1.021" />
							<circle cx="759.253" cy="663.214" r="1.021" />
							<circle cx="759.253" cy="660.202" r="1.021" />
							<circle cx="759.253" cy="657.191" r="1.021" />
							<circle cx="759.253" cy="654.179" r="1.021" />
							<circle cx="759.253" cy="651.168" r="1.021" />
							<circle cx="573.457" cy="699.352" r="1.021" />
							<circle cx="573.457" cy="696.341" r="1.021" />
							<circle cx="573.457" cy="693.329" r="1.021" />
							<circle cx="573.457" cy="690.317" r="1.021" />
							<circle cx="573.457" cy="687.306" r="1.021" />
							<circle cx="573.457" cy="684.294" r="1.021" />
							<circle cx="573.457" cy="681.283" r="1.021" />
							<circle cx="573.457" cy="678.271" r="1.021" />
							<circle cx="573.457" cy="675.26" r="1.021" />
							<circle cx="573.457" cy="672.248" r="1.021" />
							<circle cx="573.457" cy="669.237" r="1.021" />
							<circle cx="573.457" cy="666.225" r="1.021" />
							<circle cx="573.457" cy="663.214" r="1.021" />
							<circle cx="573.457" cy="660.202" r="1.021" />
							<circle cx="573.457" cy="657.191" r="1.021" />
							<circle cx="573.457" cy="654.179" r="1.021" />
							<circle cx="573.457" cy="651.168" r="1.021" />
						</g>
					</g>
				</g>
				<g>
					<g fill="#505050">
						<rect x="463" y="603.391" width="110.253" height="5.717" />
						<rect x="463" y="593.591" width="110.253" height="5.717" />
					</g>
					<g fill="#C8C8C8">
						<rect x="463" y="603.391" width="16.742" height="5.717" />
						<rect x="463" y="593.591" width="34.301" height="5.717" />
					</g>
					<path fill="#505050" d="M647.979 522.948v64.518h-183.958v-64.518h183.958m2.042-2.042h-188.042v68.602h188.042v-68.602z" />
					<g fill="#505050">
						<circle cx="573.457" cy="579.299" r="1.021" />
						<circle cx="573.457" cy="576.288" r="1.021" />
						<circle cx="573.457" cy="573.276" r="1.021" />
						<circle cx="573.457" cy="570.265" r="1.021" />
						<circle cx="573.457" cy="567.253" r="1.021" />
						<circle cx="573.457" cy="564.242" r="1.021" />
						<circle cx="573.457" cy="561.23" r="1.021" />
						<circle cx="573.457" cy="558.219" r="1.021" />
						<circle cx="573.457" cy="555.207" r="1.021" />
						<circle cx="573.457" cy="552.195" r="1.021" />
						<circle cx="573.457" cy="549.184" r="1.021" />
						<circle cx="573.457" cy="546.172" r="1.021" />
						<circle cx="573.457" cy="543.161" r="1.021" />
						<circle cx="573.457" cy="540.149" r="1.021" />
						<circle cx="573.457" cy="537.138" r="1.021" />
						<circle cx="573.457" cy="534.126" r="1.021" />
						<circle cx="573.457" cy="531.115" r="1.021" />
					</g>
				</g>
				<g>
					<g fill="#505050">
						<rect x="463" y="483.339" width="110.253" height="5.717" />
						<rect x="463" y="473.538" width="110.253" height="5.717" />
					</g>
					<g fill="#C8C8C8">
						<rect x="463" y="483.339" width="50.226" height="5.717" />
						<rect x="463" y="473.538" width="88.61" height="5.717" />
					</g>
					<g>
						<path fill="#505050" d="M833.979 402.895v64.518h-369.958v-64.518h369.958m2.042-2.042h-374.042v68.602h374.042v-68.602z" />
						<g fill="#505050">
							<circle cx="759.253" cy="459.246" r="1.021" />
							<circle cx="759.253" cy="456.235" r="1.021" />
							<circle cx="759.253" cy="453.223" r="1.021" />
							<circle cx="759.253" cy="450.212" r="1.021" />
							<circle cx="759.253" cy="447.2" r="1.021" />
							<circle cx="759.253" cy="444.189" r="1.021" />
							<circle cx="759.253" cy="441.177" r="1.021" />
							<circle cx="759.253" cy="438.166" r="1.021" />
							<circle cx="759.253" cy="435.154" r="1.021" />
							<circle cx="759.253" cy="432.143" r="1.021" />
							<circle cx="759.253" cy="429.131" r="1.021" />
							<circle cx="759.253" cy="426.12" r="1.021" />
							<circle cx="759.253" cy="423.108" r="1.021" />
							<circle cx="759.253" cy="420.097" r="1.021" />
							<circle cx="759.253" cy="417.085" r="1.021" />
							<circle cx="759.253" cy="414.074" r="1.021" />
							<circle cx="759.253" cy="411.062" r="1.021" />
						</g>
					</g>
				</g>
				<g>
					<g>
						<polygon fill="#909090" points="599.218,562.415 590.98,563.445 590.98,561.385 599.218,560.356" />
						<path fill="#C8C8C8" d="M606.532 555.207c0 6.315-5.119 11.434-11.434 11.434-6.315 0-11.434-5.119-11.434-11.434 0-6.315 5.119-11.434 11.434-11.434 6.315 0 11.434 5.119 11.434 11.434zm-7.314-7.723h-8.238v15.961l8.238-1.03v-14.931z" />
					</g>
					<g>
						<polygon fill="#909090" points="785.014,442.362 776.776,443.392 776.776,441.333 785.014,440.303" />
						<path fill="#C8C8C8" d="M792.328 435.154c0 6.315-5.119 11.434-11.434 11.434-6.315 0-11.434-5.119-11.434-11.434s5.119-11.434 11.434-11.434c6.315.001 11.434 5.12 11.434 11.434zm-7.314-7.723h-8.238v15.961l8.238-1.03v-14.931z" />
					</g>
				</g>
			</g>
			<path fill="#C8C8C8" d="M340 926.003c1.925-.542 4.747-2.002 6.271-3.244 2.765-2.253 2.769-2.274 1.804-9.779-.532-4.137-1.881-9.537-2.999-12s-2.041-6.635-2.054-9.269c-.015-3.195-.689-5.693-2.023-7.5-1.1-1.49-2.887-5.811-3.97-9.602-2.235-7.823-2.078-14.97.518-23.608 1.297-4.316 1.697-10.451 1.859-28.5.174-19.42.469-23.498 1.9-26.2.932-1.76 1.694-5.221 1.694-7.691s.419-4.75.931-5.066c1.301-.804.265-5.669-1.662-7.798-.882-.975-3.952-3.331-6.821-5.235s-5.493-4.185-5.832-5.068c-1.052-2.741-.629-22.727.569-26.942.626-2.2 1.198-8.275 1.272-13.5.074-5.225.665-10.737 1.314-12.25 1.106-2.58 1.567-2.751 7.454-2.765 7.826-.018 10.059-1.141 15.465-7.773 4.259-5.225 4.31-5.379 4.31-13.083 0-4.288.495-10.259 1.099-13.27 1.086-5.406 1.171-5.506 6.839-8.011l5.739-2.537.781-14.406c1.019-18.799.646-69.18-.587-79.406-.531-4.4-1.173-12.05-1.426-17-.316-6.161-1.43-12.127-3.533-18.914-1.689-5.453-3.661-13.103-4.382-17-1.253-6.776-3.362-12.775-7.935-22.575-2.731-5.853-12.768-15.844-19.098-19.011-2.748-1.375-5.268-2.869-5.6-3.321-.332-.451-.179-2.701.339-5 2.006-8.9 2.061-12.693.213-14.734-4.009-4.43-7.471-1.38-9.429 8.305-.639 3.163-1.63 5.75-2.201 5.75s-3.501-2.25-6.51-5-6.079-5-6.823-5c-2.059 0-2.77-3.642-1.299-6.66 1.248-2.56 2.842-3.401 9.018-4.761 2.157-.475 2.858-1.355 3.452-4.337.41-2.058.651-4.093.534-4.522-.117-.429.515-2.187 1.404-3.906 2.589-5.007 1.517-13.822-2.775-22.813-1.969-4.125-4.354-9.36-5.299-11.633-2.421-5.818-9.825-12.933-17.046-16.379-11.758-5.612-23.615-4.929-34.296 1.973-8.04 5.197-11.824 10.952-14.519 22.085-1.189 4.911-2.424 8.934-2.744 8.941-.653.014.148-6.196 2.498-19.369 2.005-11.239 1.997-15.064-.037-17.098-4.31-4.31-6.271.082-9.339 20.914-1.129 7.665-2.671 14.88-3.427 16.034-1.581 2.413-3.24 9.481-7.564 32.227-3.352 17.632-4.98 21.632-9.548 23.467-8.324 3.343-19.442 12.957-23.049 19.932-2.863 5.537-6.873 10.539-19.646 24.508-8.072 8.828-14.781 22.831-15.023 31.357-.05 1.771 1.411 4.617 4.177 8.132 10.267 13.05 20.692 17.412 32.042 13.408 7.997-2.822 8.361-2.546 7.546 5.726-.392 3.974-1.38 9.037-2.196 11.25-.816 2.213-1.44 6.499-1.386 9.524s-.833 12.432-1.97 20.904-2.253 17.472-2.48 20c-.227 2.528-1.092 7.521-1.922 11.096-2.763 11.891-7.591 41.058-7.591 45.858 0 2.106.697 3.139 2.75 4.077 4.016 1.834 12.818 2.574 13.697 1.151.396-.641 1.543-5.535 2.549-10.876 2.94-15.612 5.091-24.638 6.124-25.702 2.502-2.576 2.904 3.345 2.647 38.992l-.267 37 3.25 10.893c4.232 14.184 4.246 17.162.093 19.404-5.222 2.818-6.843 4.912-6.843 8.835 0 1.998.961 5.186 2.134 7.086l2.134 3.454-2.225 4.456-2.225 4.456 2.267 4.709c2.126 4.416 2.308 6.416 2.928 32.209.778 32.365.144 41.187-3.455 48.069-1.445 2.764-2.559 6.557-2.559 8.715 0 2.7-.909 5.058-3.099 8.035-2.746 3.734-4.528 10.484-4.868 18.445-.018.421 1.43 1.656 3.217 2.746 4.734 2.886 8.412 2.674 22.072-1.274 4.591-1.327 7.678-4.93 7.678-8.961 0-2.156 1.148-4.078 4.25-7.115l4.25-4.161-.163-13.5c-.09-7.425-.402-14.85-.694-16.5-.573-3.237 1.923-14.741 3.905-18 .669-1.1 1.501-3.919 1.848-6.264.348-2.345 2.185-8.87 4.084-14.5 1.898-5.63 3.955-12.6 4.57-15.491.865-4.067 2.097-6.234 5.448-9.585 3.559-3.559 4.443-5.205 4.966-9.245.35-2.703 1.94-9.64 3.534-15.415 2.554-9.256 2.829-11.573 2.322-19.555-.432-6.794-.169-10.453 1.052-14.654.895-3.079 1.659-7.329 1.698-9.445.134-7.314 1.296-8.008 3.624-2.165 1.582 3.97 2.29 8.615 2.791 18.319 1.656 32.065 1.705 32.408 5.015 35.253 1.688 1.451 3.088 3.709 3.201 5.163.111 1.421.952 3.034 1.869 3.584 4.832 2.898 5.88 4.376 6.125 8.639.138 2.399.316 5.036.394 5.861.399 4.202 7.073 29.401 9.402 35.5 3.593 9.409 4.53 16.07 4.925 35 .319 15.296 1.354 22.122 3.562 23.486.558.345 1.219 3.402 1.469 6.794.687 9.328 3.212 12.675 10.663 14.138 6.13 1.204 8.853 1.221 12.89.084zm-101-465.462c0-3.293 2.296-17.099 2.967-17.836.398-.437 3.151.805 6.119 2.759 2.968 1.955 6.188 3.805 7.155 4.112 4.352 1.381.279 6.415-7.961 9.839-7.173 2.981-8.28 3.131-8.28 1.126z" />
			<path fill="#C8C8C8" d="M833.574 324.229l-1.337.668c-.735.368-1.124 1.306-.864 2.086v.001l.472 1.417c.672 2.017-.428 3.118-2.445 2.445l-1.418-.473c-.779-.26-1.718.129-2.085.864l-.668 1.337c-.951 1.902-2.507 1.902-3.458 0l-.668-1.337c-.368-.735-1.306-1.124-2.085-.864l-1.418.473c-2.017.672-3.118-.428-2.445-2.445l.473-1.418c.26-.779-.129-1.718-.864-2.085l-1.337-.668c-1.902-.951-1.902-2.507 0-3.458l1.336-.668c.735-.367 1.124-1.306.864-2.085l-.473-1.418c-.672-2.017.428-3.118 2.445-2.445l1.417.472c.78.26 1.718-.129 2.086-.864l.668-1.336c.951-1.902 2.507-1.902 3.458 0l.668 1.336c.368.735 1.306 1.124 2.086.864l1.417-.472c2.017-.672 3.118.428 2.445 2.445l-.472 1.417c-.26.78.129 1.718.864 2.086l1.336.668c1.903.95 1.903 2.506.002 3.457zm-6.324-1.729c0-2.071-1.679-3.75-3.75-3.75s-3.75 1.679-3.75 3.75 1.679 3.75 3.75 3.75 3.75-1.679 3.75-3.75z" />
			<g fill="#C8C8C8" stroke="#C8C8C8" stroke-miterlimit="10">
				<rect x="464.5" y="174.125" width="21.485" height="17" />
				<rect x="464.5" y="136" width="368.75" height="17" />
			</g>
			<g>
				<path fill="#D2D2D2" d="M833.25 212.25v17h-368.75v-17h368.75m2.5-2.5h-373.75v22h373.75v-22z" />
				<path fill="#D2D2D2" d="M833.25 174.125v17h-368.75v-17h368.75m2.5-2.5h-373.75v22h373.75v-22z" />
				<path fill="#D2D2D2" d="M833.25 136v17h-368.75v-17h368.75m2.5-2.5h-373.75v22h373.75v-22z" />
			</g>
			<path fill="#C8C8C8" d="M371 220.5c0 6.351-5.149 11.5-11.5 11.5s-11.5-5.149-11.5-11.5 5.149-11.5 11.5-11.5 11.5 5.149 11.5 11.5zm-8.262-.849l-4.581-4.581c-.469-.469-1.229-.469-1.697 0s-.469 1.229 0 1.697l3.732 3.732-3.732 3.732c-.469.469-.469 1.229 0 1.697s1.229.469 1.697 0l4.581-4.581c.469-.467.469-1.227 0-1.696z" />
			<g>
				<rect x="14" y="117.5" fill="#4274A4" width="359" height="79" />
				<g fill="#FBFBFB">
					<path d="M130.5 156.5c0 14.636-11.864 26.5-26.5 26.5s-26.5-11.864-26.5-26.5 11.864-26.5 26.5-26.5 26.5 11.864 26.5 26.5zm-26.5-24.2c-13.365 0-24.2 10.835-24.2 24.2s10.835 24.2 24.2 24.2 24.2-10.835 24.2-24.2-10.835-24.2-24.2-24.2z" />
					<path d="M124.237 171.171l-.595-3.245-14.825-3.459-.494-2.224 3.212-2.965.988-13.219-4.942-5.559h-7.165l-4.942 5.559.988 13.219 3.212 2.965-.494 2.224-14.825 3.459-.595 3.245c4.546 6.257 11.916 10.329 20.24 10.329s15.694-4.072 20.237-10.329z" />
				</g>
			</g>
		</g>
		<g>
			<rect x="913" y="81.5" fill="#303030" width="200" height="930" />
			<g fill="#4274A4" display="none" id="v1">
				<rect display="none" x="913" y="810.5" width="200" height="167" />
				<rect display="none" x="913" y="642.25" width="200" height="167" />
				<rect display="none" x="913" y="474" width="200" height="167" />
				<rect display="none" x="913" y="305.75" width="200" height="167" />
				<rect x="913" y="137.5" width="200" height="167" />
			</g>
			<g fill="#4274A4" id="v2">
				<rect display="none" x="913" y="807" width="200" height="167" />
				<rect display="none" x="913" y="642.25" width="200" height="162" />
				<rect display="none" x="913" y="474" width="200" height="167" />
				<rect display="none" x="913" y="305" width="200" height="167" />
				<rect x="913" y="137.5" width="200" height="167" />
			</g>
			<g>
				<path fill="#C8C8C8" d="M1068 890.5c0 30.376-24.624 55-55 55s-55-24.624-55-55 24.624-55 55-55 55 24.624 55 55zm-55-49.054c-27.092 0-49.054 21.962-49.054 49.054s21.962 49.054 49.054 49.054 49.054-21.962 49.054-49.054-21.962-49.054-49.054-49.054zm-7.425 22.538c-3.59-3.59-8.696-4.729-13.255-3.431l7.565 7.565-1.735 7.533-7.533 1.735-7.565-7.565c-1.298 4.559-.159 9.666 3.431 13.255 3.676 3.676 8.943 4.781 13.583 3.33l32.675 32.676c2.441 2.441 6.398 2.441 8.839 0s2.441-6.398 0-8.839l-32.676-32.676c1.452-4.641.348-9.907-3.329-13.583z" />
				<path fill="#C8C8C8" d="M1017.571,728.169l52.929,19.331-57.5,24-57.5-24,52.929-19.331,4.571,11.598,4.571-11.598zm-4.571-56.169c-8.271,0-15,6.729-15,15s15,46,15,46,15-37.729,15-46-6.729-15-15-15zm0,8c3.314,0,6,2.686,6,6s-2.686,6-6,6-6-2.686-6-6,2.686-6,6-6" />
				<path fill="#C8C8C8" d="M1075 597.5l-15.5-17.336v-43.664c0-12.427-10.073-22.5-22.5-22.5h-48c-12.427 0-22.5 10.073-22.5 22.5v38.5c0 12.427 10.073 22.5 22.5 22.5h86z" />
				<path fill="#C8C8C8" d="M1008.8 386.075h-44.238c.792-16.072 9.413-30.077 22.123-38.306l22.115 38.306zm-44.239 4.85c.792 16.072 9.413 30.076 22.123 38.305l22.116-38.305h-44.239zm26.322 40.734c6.633 3.406 14.147 5.341 22.117 5.341s15.484-1.935 22.117-5.341l-22.117-38.309-22.117 38.309zm70.556-40.734h-44.239l22.116 38.305c12.71-8.229 21.331-22.233 22.123-38.305zm-35.839-9.7h44.238c-.792-16.072-9.413-30.077-22.123-38.306l-22.115 38.306zm9.517-35.884c-6.633-3.406-14.147-5.341-22.117-5.341s-15.484 1.935-22.117 5.341l22.117 38.309 22.117-38.309z" />
				<path fill="#FBFBFB" d="M1042.156 170.5h-58.312l-29.156 50.5 29.156 50.5h58.312l29.156-50.5-29.156-50.5zm-56.271 97.465l2.333-4.04-24.783-42.925h-4.665l27.115-46.965 2.333 4.04h49.565l2.333-4.04 27.115 46.965h-4.665l-24.783 42.925 2.333 4.04h-54.231zm49.84-15.655l-59.085-43.346h72.72l-59.085 43.346 22.725-69.69 22.725 69.69z" />
			</g>
		</g>
		<g>
			<polygon fill="#303030" points="1133,221 1181,255 1181,187" />
			<g fill="#303030">
				<rect x="1157" y="81.5" width="350" height="279" />
				<rect x="1157" y="267.5" width="350" height="93" />
				<rect x="1157" y="174.5" width="350" height="93" />
				<rect x="1157" y="81.5" width="350" height="93" />
			</g>
			<g fill="#C8C8C8">
				<path d="M1233.5 314c0 14.497-11.753 26.25-26.25 26.25s-26.25-11.753-26.25-26.25 11.753-26.25 26.25-26.25 26.25 11.753 26.25 26.25zm-13.883 4.268l-20.329-21.036-2.828 2.828 8.309 8.309-2.475 2.475 5.657 2.121-4.243 4.243 1.768 3.182-5.657 8.485 4.95 4.95 7.248-9.016 6.01-.354 3.182-3.182-1.592-3.005z" />
				<path d="M1233.5 221c0 14.497-11.753 26.25-26.25 26.25s-26.25-11.753-26.25-26.25 11.753-26.25 26.25-26.25 26.25 11.753 26.25 26.25zm-12.25.5l-14-17-14 17h7.5v16.5h13v-16.5h7.5z" />
				<path d="M1233.5 128c0 14.497-11.753 26.25-26.25 26.25s-26.25-11.753-26.25-26.25 11.753-26.25 26.25-26.25 26.25 11.753 26.25 26.25zm-15.643 7.071l7.071-7.071-7.071-7.071-7.071 7.071 7.071 7.071zm-10.607-10.606l7.071-7.071-7.071-7.071-7.071 7.071 7.071 7.071zm-10.607-3.536l-7.071 7.071 7.071 7.071 7.071-7.071-7.071-7.071zm10.607 10.606l-7.071 7.071 7.071 7.071 7.071-7.071-7.071-7.071z" />
			</g>
		</g>
	</g>
</svg>