<?xml version="1.0" encoding="utf-8"?>
<svg xmlns="http://www.w3.org/2000/svg" width="1000" height="700">
	<g fill="#EFF2F8">
		<polygon points="195,700 0,700 0,0 195,0 195,35 76,350 195,665" />
		<polygon points="805,665 924,350 805,35 805,0 1000,0 1000,700 805,700" />
		<path opacity=".5" d="M550 700h-100v-86h100v86zm-86-135l-14-215v-350h100v350l-14 215h-72z" />
		<path d="M656 482.5c0 23.472-19.028 42.5-42.5 42.5h-227c-23.472 0-42.5-19.028-42.5-42.5v-186.5h312v186.5zm-242.5-156.5v-80.5c0-47.696 38.804-86.5 86.5-86.5s86.5 38.804 86.5 86.5v80.5h30v-80.5c0-64.341-52.159-116.5-116.5-116.5s-116.5 52.159-116.5 116.5v80.5h30z" />
	</g>
</svg>