<?xml version="1.0" encoding="utf-8"?>
<svg xmlns="http://www.w3.org/2000/svg" width="4584" height="752">
	<path fill="#F09632" d="M4220 743v-100h117c89 0 129-40 129-129 0-41-13-68-36-85-26-19-56-28-92-28h-88v-100h88c71 0 109-35 109-104s-32-88-109-88h-118v-100h137c130 0 202 62 202 193 0 59-22 116-54 150 43 32 79 87 79 150 0 82-14 146-64 189-41 36-101 52-178 52h-122z" />
	<path fill="#FBFBFB" d="M3414 427c30-8 61-15 83-23 2-1 3-2 4-2 3-9 4-16 4-26v-55c0-33-12-45-45-45-30 0-46 15-46 45v106zm-114 177v-266c0-98 61-156 160-156 100 0 159 58 159 156v46c0 57-37 95-99 112l-106 30v85c0 23 14 38 35 38h125v94h-137c-83 0-137-57-137-139zm-158 139v-734h114v734h-114zm-155 0v-734h114v734h-114zm-372-100v-454h114v428c0 17 2 35 4 35 6-1 41-10 98-26v-437h114v554h-85l-14-30c-41 13-90 37-143 37-63 0-88-52-88-107zm-316-341h46c72 0 109-33 109-102 0-62-31-91-109-91h-46v193zm0 341h45c90 0 129-38 129-123 0-44-13-71-36-88-26-18-56-28-92-28h-46v239zm-122 100v-734h187c130 0 202 62 202 193 0 59-21 116-54 150 43 32 79 87 79 150 0 83-14 146-65 189-41 36-100 52-177 52h-172zm-224-254v-69h34v-17c0-25 8-46 23-62s36-24 61-24h41v66h-33c-4 0-7 1-10 4s-4 7-4 12v21h46v69h-46v259h-78v-259h-34zm-128 171c0 9 2 15 6 19s9 6 17 6 14-2 18-6 5-10 5-19v-152c0-9-1-15-5-19s-10-6-18-6-13 2-17 6-6 10-6 19v152zm-77 0v-152c0-28 9-51 27-68 18-16 42-24 73-24s55 8 73 24c18 17 27 40 27 68v152c0 28-9 51-27 68-18 16-42 24-73 24s-55-8-73-24c-18-17-27-40-27-68zm-268-56v-561l114-43v189h80v94h-80v328c0 24 13 38 33 38h47v94h-58c-83 0-136-57-136-139zm-243-177c30-8 61-15 83-23 2-1 3-2 4-2 3-9 4-16 4-26v-55c0-33-12-45-45-45-30 0-46 15-46 45v106zm-114 177v-266c0-98 61-156 160-156 100 0 159 58 159 156v46c0 57-37 95-99 112l-106 30v85c0 23 14 38 35 38h125v94h-137c-83 0-137-57-137-139zm-158 139v-734h114v734h-114zm-155 0v-734h114v734h-114zm-372-100v-454h114v428c0 17 2 35 4 35 6-1 41-10 98-26v-437h114v554h-85l-14-30c-41 13-90 37-143 37-63 0-88-52-88-107zm-316-341h46c72 0 109-33 109-102 0-62-31-91-109-91h-46v193zm0 341h45c90 0 129-38 129-123 0-44-13-71-36-88-26-18-56-28-92-28h-46v239zm-122 100v-734h187c130 0 202 62 202 193 0 59-21 116-54 150 43 32 79 87 79 150 0 83-14 146-65 189-41 36-100 52-177 52h-172zm3657-139v-561l114-43v189h80v87.578c20.43-54.308 73.67-87.578 139-87.578h104v94h-89c-40 0-54 14-54 50 0 19 14 42 52 70 50 37 113 85 113 182 0 102-60 158-160 158h-163c-83 0-136-57-136-139zm147 45h140c46 0 65-19 65-68 0-23-15-48-52-77-16-12-33-25-50-39-43-36-65-82-65-137 0-16.131 2.36-31.192 6.77-45h-77.77v328c0 24 13 38 33 38z" />
</svg>