<?xml version="1.0" encoding="utf-8"?>
<svg xmlns="http://www.w3.org/2000/svg" width="113" height="113">
	<g fill="#C8C8C8">
		<path d="M56.5 9.75c25.778 0 46.75 20.972 46.75 46.75s-20.972 46.75-46.75 46.75-46.75-20.972-46.75-46.75 20.972-46.75 46.75-46.75m0-3.25c-27.614 0-50 22.386-50 50s22.386 50 50 50 50-22.386 50-50-22.386-50-50-50z" />
		<polygon points="72.25,52.623 72.25,72.25 40.75,72.25 40.75,40.75 62.639,40.75 69.37,34.25 34.25,34.25 34.25,78.75 78.75,78.75 78.75,46.346" />
		<path d="M75.139 31.712l5.188-5.188 6.918 6.918-5.188 5.188-6.918-6.918zm-1.922 1.922l-22.866 22.866-1.922 8.839 8.839-1.922 22.866-22.866-6.917-6.917z" />
	</g>
</svg>