<?xml version="1.0" encoding="utf-8"?>
<svg xmlns="http://www.w3.org/2000/svg" width="1063.5" height="1063.5">
	<g opacity=".9">
		<rect opacity="0" fill="#ECECEC" width="1063.5" height="1063.5" />
		<circle fill="#5CC4F0" stroke="#FBFBFB" stroke-width="2.5" stroke-miterlimit="10" cx="531.75" cy="531.75" r="335.5" />
		<circle fill="#0CA8E0" stroke="#FBFBFB" stroke-width="2.5" stroke-miterlimit="10" cx="531.75" cy="531.75" r="114" />
		<path fill="#0CA8E0" stroke="#FBFBFB" stroke-width="2.5" stroke-miterlimit="10" d="M653.25 531.75c0 67.103-54.397 121.5-121.5 121.5s-121.5-54.397-121.5-121.5 54.397-121.5 121.5-121.5 121.5 54.397 121.5 121.5zm-121.5-147.5c-81.462 0-147.5 66.038-147.5 147.5s66.038 147.5 147.5 147.5 147.5-66.038 147.5-147.5-66.038-147.5-147.5-147.5z" />
		<path fill="#3EDAF4" stroke="#FBFBFB" stroke-width="2.5" stroke-miterlimit="10" d="M789.75 531.75c0 142.489-115.511 258-258 258s-258-115.511-258-258 115.511-258 258-258 258 115.511 258 258zm-258-275.5c-152.154 0-275.5 123.346-275.5 275.5s123.346 275.5 275.5 275.5 275.5-123.346 275.5-275.5-123.346-275.5-275.5-275.5z" />
		<g>
			<path fill="#94BCA2" stroke="#FBFBFB" stroke-width="2.5" stroke-miterlimit="10" d="M748.8 580.863l-37.069-8.388c-18.544 82.3-92.079 143.775-179.98 143.775-13.436 0-26.532-1.45-39.152-4.177l-8.064 37.14c15.219 3.289 31.012 5.037 47.216 5.037 106.005 0 194.686-74.136 217.049-173.387z" />
			<path fill="#44BEF2" stroke="#FBFBFB" stroke-width="2.5" stroke-miterlimit="10" d="M531.75 306.25c-114.563 0-209.164 85.434-223.588 196.064l54.534 7.18c10.906-83.647 82.434-148.244 169.054-148.244 68.935 0 128.31 40.914 155.18 99.78l50.058-22.813c-35.538-77.856-114.066-131.967-205.238-131.967z" />
			<path fill="#44BEF2" stroke="#FBFBFB" stroke-width="2.5" stroke-miterlimit="10" d="M384.25 531.75c0-.861.018-1.717.033-2.574l-77.983-1.361c-.022 1.31-.05 2.62-.05 3.935 0 94.661 58.334 175.685 141.01 209.121l29.225-72.335c-54.078-21.87-92.235-74.868-92.235-136.786z" />
			<path fill="#3EDAF4" stroke="#FBFBFB" stroke-width="2.5" stroke-miterlimit="10" d="M572.262 682.944c-12.923 3.454-26.5 5.306-40.512 5.306-72.421 0-133.342-49.195-151.194-115.988l-25.602 6.86c20.876 78.102 92.112 135.628 176.796 135.628 16.385 0 32.261-2.166 47.372-6.204l-6.86-25.602z" />
			<path fill="#9682E1" stroke="#FBFBFB" stroke-width="2.5" stroke-miterlimit="10" d="M746.293 451.536l-19.674 7.356c8.081 21.603 12.669 44.906 13.085 69.229l20.995-.367c-.458-26.779-5.51-52.435-14.406-76.218z" />
			<g>
				<path fill="#9682E1" d="M694.692 594.298c7.459-19.419 11.558-40.503 11.558-62.548 0-22.583-4.29-44.163-12.099-63.972l-25.128 9.898c6.601 16.743 10.227 34.985 10.227 54.073 0 18.634-3.464 36.456-9.769 52.87l25.211 9.679z" />
				<path opacity=".5" fill="#44BEF2" d="M678.377 547.808c-5.102 47.117-32.389 87.573-71.204 110.715l18.919 31.801c48.552-28.948 82.684-79.552 89.066-138.488l-36.781-4.028z" />
				<g stroke="#FBFBFB" stroke-width="2.5" stroke-miterlimit="10" fill="none">
					<path d="M694.692 594.298c7.459-19.419 11.558-40.503 11.558-62.548 0-22.583-4.29-44.163-12.099-63.972l-25.128 9.898c6.601 16.743 10.227 34.985 10.227 54.073 0 18.634-3.464 36.456-9.769 52.87l25.211 9.679z" />
					<path d="M678.377 547.808c-5.102 47.117-32.389 87.573-71.204 110.715l18.919 31.801c48.552-28.948 82.684-79.552 89.066-138.488l-36.781-4.028z" />
				</g>
			</g>
		</g>
		<path fill="#9682E1" stroke="#FBFBFB" stroke-width="2.5" stroke-miterlimit="10" d="M763.25 531.75c0 127.854-103.646 231.5-231.5 231.5s-231.5-103.646-231.5-231.5 103.646-231.5 231.5-231.5 231.5 103.646 231.5 231.5zm-231.5-241c-133.101 0-241 107.899-241 241s107.899 241 241 241 241-107.899 241-241-107.899-241-241-241z" />
		<g fill="#9682E1" stroke="#FBFBFB" stroke-width="2.5" stroke-miterlimit="10">
			<path d="M345.783 378.451c20.054-24.3 44.788-44.589 72.809-59.519l-5.634-10.597c-29.417 15.674-55.382 36.973-76.434 62.483l9.259 7.633zM290.75 531.75c0-24.522 3.674-48.183 10.481-70.477l-11.478-3.509c-7.146 23.404-11.003 48.243-11.003 73.986 0 8.556.431 17.011 1.26 25.349l11.94-1.202c-.79-7.943-1.2-15.997-1.2-24.147zM439.505 309.05c21.639-8.973 44.866-14.884 69.146-17.193l-1.15-11.945c-25.489 2.424-49.872 8.629-72.589 18.049l4.593 11.089zM319.422 645.838c-7.423-13.786-13.54-28.378-18.191-43.611l-11.478 3.509c4.883 15.991 11.304 31.31 19.097 45.783l10.572-5.681zM434.912 765.538l4.593-11.089c-36.689-15.214-68.812-39.217-93.722-69.401l-9.26 7.633c26.151 31.688 59.873 56.886 98.389 72.857z" />
			<path d="M717.717 378.451c-20.054-24.3-44.788-44.589-72.809-59.519l5.634-10.597c29.417 15.674 55.382 36.973 76.434 62.483l-9.259 7.633zM772.75 531.75c0-24.522-3.674-48.183-10.481-70.477l11.478-3.509c7.146 23.404 11.003 48.243 11.003 73.986 0 8.556-.431 17.011-1.26 25.349l-11.94-1.202c.79-7.943 1.2-15.997 1.2-24.147zM623.995 309.05c-21.639-8.973-44.866-14.884-69.146-17.193l1.15-11.945c25.489 2.424 49.872 8.629 72.589 18.049l-4.593 11.089zM744.078 645.838c7.423-13.786 13.54-28.378 18.191-43.611l11.478 3.509c-4.883 15.991-11.304 31.31-19.097 45.783l-10.572-5.681zM628.588 765.538l-4.593-11.089c36.689-15.214 68.812-39.217 93.722-69.401l9.26 7.633c-26.151 31.688-59.873 56.886-98.389 72.857z" />
		</g>
		<path fill="#94BCA2" stroke="#FBFBFB" stroke-width="2.5" stroke-miterlimit="10" d="M875.25 531.75c0 189.71-153.79 343.5-343.5 343.5s-343.5-153.79-343.5-343.5 153.79-343.5 343.5-343.5 343.5 153.79 343.5 343.5zm-343.5-365c-201.584 0-365 163.416-365 365s163.416 365 365 365 365-163.416 365-365-163.416-365-365-365z" />
		<g fill="#9682E1" stroke="#FBFBFB" stroke-width="2.5" stroke-miterlimit="10">
			<path d="M730.792 279.266l-23.526 29.843c33.611 26.533 61.071 60.511 79.887 99.449l34.234-16.513c-21.338-44.157-52.479-82.689-90.595-112.779z" />
			<path d="M815.25 531.75c0 71.169-26.229 136.208-69.542 185.991l28.679 24.93c49.118-56.456 78.863-130.213 78.863-210.921 0-1.407-.035-2.805-.053-4.208l-37.994.497c.016 1.237.047 2.47.047 3.711z" />
		</g>
		<path fill="#9682E1" stroke="#FBFBFB" stroke-width="2.5" stroke-miterlimit="10" d="M508.073 892.986c-188.89-12.196-338.323-169.264-338.323-361.236 0-199.927 162.073-362 362-362 46.289 0 90.546 8.694 131.236 24.528l3.263-8.39c-41.701-16.228-87.059-25.138-134.499-25.138-204.898 0-371 166.102-371 371 0 196.745 153.148 357.718 346.735 370.217l.588-8.981z" />
		<g fill="#9682E1" stroke="#FBFBFB" stroke-width="2.5" stroke-miterlimit="10">
			<path d="M578.691 819.976c-15.284 2.47-30.959 3.774-46.941 3.774-86.132 0-163.545-37.301-216.991-96.621l-45.337 40.822c64.611 71.712 158.203 116.799 262.328 116.799 19.319 0 38.274-1.558 56.75-4.544l-9.809-60.23z" />
			<path d="M330.525 241.685l34.783 50.14c47.221-32.82 104.578-52.075 166.442-52.075 54.563 0 105.619 14.981 149.311 41.031l31.201-52.444c-52.818-31.491-114.551-49.587-180.511-49.587-74.788 0-144.141 23.259-201.226 62.935z" />
		</g>
		<path fill="#0CA8E0" stroke="#FBFBFB" stroke-width="2.5" stroke-miterlimit="10" d="M908.25 531.75c0 207.935-168.565 376.5-376.5 376.5s-376.5-168.565-376.5-376.5 168.565-376.5 376.5-376.5 376.5 168.565 376.5 376.5zm-376.5-393c-217.048 0-393 175.952-393 393s175.952 393 393 393 393-175.952 393-393-175.952-393-393-393z" />
		<path fill="#0CA8E0" stroke="#FBFBFB" stroke-width="2.5" stroke-miterlimit="10" d="M131.535 627.833l17.993-4.32c-5.891-24.626-9.468-50.15-10.479-76.334l-18.486.726c1.058 27.417 4.804 54.143 10.972 79.928zM389.286 917.916l6.405-17.361c-60.903-22.476-114.708-59.607-157.14-107.115l-13.802 12.319c44.429 49.744 100.767 88.623 164.537 112.157zM901.681 712.177l-16.631-8.112c-5.538 11.334-11.605 22.362-18.17 33.052l15.776 9.667c6.873-11.192 13.226-22.739 19.025-34.607zM942.49 556.872l-18.466-1.129c-.763 12.669-2.127 25.176-4.063 37.494l18.275 2.894c2.026-12.898 3.455-25.993 4.254-39.259z" />
		<g fill="#0CA8E0" stroke="#FBFBFB" stroke-width="2.5" stroke-miterlimit="10">
			<path d="M890.294 322.654l-19.007 11.085c25.247 43.199 42.491 91.645 49.685 143.31l21.788-3.062c-7.597-54.558-25.806-105.717-52.466-151.333z" />
			<path d="M121.807 466.821l21.732 3.442c10.215-65.012 36.367-124.731 74.335-175.036l-17.571-13.24c-40.093 53.121-67.709 116.183-78.496 184.834z" />
			<path d="M367.18 174.77c23.142-10.686 47.498-19.188 72.807-25.242l-5.137-21.397c-26.725 6.393-52.445 15.37-76.883 26.655l9.213 19.984z" />
			<path d="M515.457 117.065l.864 21.983c5.119-.198 10.262-.299 15.429-.299 47.831 0 93.663 8.549 136.059 24.195l7.617-20.646c-44.769-16.522-93.168-25.55-143.676-25.55-5.456.002-10.888.109-16.293.317z" />
		</g>
		<path fill="#0CA8E0" stroke="#FBFBFB" stroke-width="2.5" stroke-miterlimit="10" d="M761.373 850.717c-20.315 14.65-42.085 27.408-65.053 38.014l15.285 33.155c25.101-11.591 48.893-25.533 71.095-41.544l-21.327-29.625z" />
		<g fill="#0CA8E0" stroke="#FBFBFB" stroke-width="2.5" stroke-miterlimit="10" display="none">
			<circle opacity="0" cx="531.75" cy="531.75" r="430.75" />
			<polygon points="531.75,238.25 524.822,234.25 524.822,226.25 531.75,222.25 538.678,226.25 538.678,234.25" />
			<polygon points="531.75,825.25 524.822,829.25 524.822,837.25 531.75,841.25 538.678,837.25 538.678,829.25" />
			<polygon points="431.367,255.95 423.489,254.561 420.752,247.043 425.895,240.915 433.773,242.304 436.509,249.822" />
			<polygon points="632.133,807.55 626.991,813.678 629.727,821.196 637.605,822.585 642.748,816.456 640.011,808.939" />
			<polygon points="343.092,306.916 335.213,308.305 330.071,302.177 332.807,294.659 340.686,293.27 345.828,299.398" />
			<polygon points="720.408,756.584 717.672,764.102 722.814,770.23 730.693,768.841 733.429,761.323 728.287,755.195" />
			<polygon points="277.572,385 270.643,389 263.715,385 263.715,377 270.643,373 277.572,377" />
			<polygon points="785.928,678.5 785.928,686.5 792.857,690.5 799.785,686.5 799.785,678.5 792.857,674.5" />
			<polygon points="242.709,480.784 237.567,486.913 229.688,485.523 226.952,478.006 232.094,471.878 239.973,473.267" />
			<polygon points="820.791,582.716 823.527,590.233 831.406,591.622 836.548,585.494 833.812,577.977 825.933,576.587" />
			<polygon points="242.709,582.716 239.973,590.233 232.094,591.622 226.952,585.494 229.688,577.977 237.567,576.587" />
			<polygon points="820.791,480.784 825.933,486.913 833.812,485.523 836.548,478.006 831.406,471.878 823.527,473.267" />
			<polygon points="277.572,678.5 277.572,686.5 270.643,690.5 263.715,686.5 263.715,678.5 270.643,674.5" />
			<polygon points="785.928,385 792.857,389 799.785,385 799.785,377 792.857,373 785.928,377" />
			<polygon points="343.092,756.584 345.828,764.102 340.686,770.23 332.807,768.841 330.071,761.323 335.213,755.195" />
			<polygon points="720.408,306.916 728.287,308.305 733.429,302.177 730.693,294.659 722.814,293.27 717.672,299.398" />
			<polygon points="431.367,807.55 436.509,813.678 433.773,821.196 425.895,822.585 420.752,816.456 423.489,808.939" />
			<polygon points="632.133,255.95 640.011,254.561 642.748,247.043 637.605,240.915 629.727,242.304 626.991,249.822" />
		</g>
		<g fill="#0CA8E0" stroke="#FBFBFB" stroke-width="2.5" stroke-miterlimit="10" transform="rotate(2 531.75 531.75)">
			<circle opacity="0" cx="531.75" cy="531.75" r="430.75" />
			<polygon points="531.75,238.25 524.822,234.25 524.822,226.25 531.75,222.25 538.678,226.25 538.678,234.25" />
			<polygon points="531.75,825.25 524.822,829.25 524.822,837.25 531.75,841.25 538.678,837.25 538.678,829.25" />
			<polygon points="431.367,255.95 423.489,254.561 420.752,247.043 425.895,240.915 433.773,242.304 436.509,249.822" />
			<polygon points="632.133,807.55 626.991,813.678 629.727,821.196 637.605,822.585 642.748,816.456 640.011,808.939" />
			<polygon points="343.092,306.916 335.213,308.305 330.071,302.177 332.807,294.659 340.686,293.27 345.828,299.398" />
			<polygon points="720.408,756.584 717.672,764.102 722.814,770.23 730.693,768.841 733.429,761.323 728.287,755.195" />
			<polygon points="277.572,385 270.643,389 263.715,385 263.715,377 270.643,373 277.572,377" />
			<polygon points="785.928,678.5 785.928,686.5 792.857,690.5 799.785,686.5 799.785,678.5 792.857,674.5" />
			<polygon points="242.709,480.784 237.567,486.913 229.688,485.523 226.952,478.006 232.094,471.878 239.973,473.267" />
			<polygon points="820.791,582.716 823.527,590.233 831.406,591.622 836.548,585.494 833.812,577.977 825.933,576.587" />
			<polygon points="242.709,582.716 239.973,590.233 232.094,591.622 226.952,585.494 229.688,577.977 237.567,576.587" />
			<polygon points="820.791,480.784 825.933,486.913 833.812,485.523 836.548,478.006 831.406,471.878 823.527,473.267" />
			<polygon points="277.572,678.5 277.572,686.5 270.643,690.5 263.715,686.5 263.715,678.5 270.643,674.5" />
			<polygon points="785.928,385 792.857,389 799.785,385 799.785,377 792.857,373 785.928,377" />
			<polygon points="343.092,756.584 345.828,764.102 340.686,770.23 332.807,768.841 330.071,761.323 335.213,755.195" />
			<polygon points="720.408,306.916 728.287,308.305 733.429,302.177 730.693,294.659 722.814,293.27 717.672,299.398" />
			<polygon points="431.367,807.55 436.509,813.678 433.773,821.196 425.895,822.585 420.752,816.456 423.489,808.939" />
			<polygon points="632.133,255.95 640.011,254.561 642.748,247.043 637.605,240.915 629.727,242.304 626.991,249.822" />
		</g>
		<g fill="#0CA8E0" stroke="#FBFBFB" stroke-width="2.5" stroke-miterlimit="10">
			<rect x="1.25" y="513.25" width="38" height="38" />
			<rect x="1.25" y="421.25" width="38" height="38" />
			<rect x="1.25" y="329.25" width="38" height="38" />
		</g>
	</g>
</svg>