<?xml version="1.0" encoding="utf-8"?>
<svg xmlns="http://www.w3.org/2000/svg" width="120" height="120">
	<g transform="translate(10 10)">
		<path fill="#FBFBFB" d="M110 50c0 33.137-26.863 60-60 60s-60-26.863-60-60 26.863-60 60-60 60 26.863 60 60zm-60-57.5c-31.756 0-57.5 25.744-57.5 57.5s25.744 57.5 57.5 57.5 57.5-25.744 57.5-57.5-25.744-57.5-57.5-57.5z" />
		<circle fill="#FBFBFB" cx="50" cy="50" r="50" />
		<path fill="#C9C9C9" d="M31.946 72h-17.387l1.835-9.635 16.518-3.671v-3.671l-3.9-3.671-.688-12.388 5.964-5.964h6.424l5.965 5.965-.688 12.388-3.9 3.671v2.273l-7.667 1.703-2.476 13zm33.054-14.5v-4l4.25-4 .75-13.5-6.5-6.5h-7l-6.5 6.5.75 13.5 4.25 4v4l-18 4-2 10.5h50l-2-10.5-18-4z" />
	</g>
</svg>