<?xml version="1.0" encoding="utf-8"?>
<svg xmlns="http://www.w3.org/2000/svg" width="120" height="120">
	<g transform="translate(10 10)">
		<path fill="#EBA601" d="M110 50c0 33.137-26.863 60-60 60s-60-26.863-60-60 26.863-60 60-60 60 26.863 60 60zm-60-57.5c-31.756 0-57.5 25.744-57.5 57.5s25.744 57.5 57.5 57.5 57.5-25.744 57.5-57.5-25.744-57.5-57.5-57.5z" />
		<circle fill="#EBA601" cx="50" cy="50" r="50" />
		<path fill="#FBFBFB" d="M77.5 42.5v23.25c0 1.657-1.343 3-3 3h-2v7.75l-6.458-7.75h-24.042c-1.657 0-3-1.343-3-3v-6h18.5c2.485 0 4.5-2.015 4.5-4.5v-15.75h12.5c1.657 0 3 1.343 3 3zm-20-13.5h-32.5c-1.657 0-3 1.343-3 3v23.25c0 1.657 1.343 3 3 3h2v7.75l6.458-7.75h24.042c1.657 0 3-1.343 3-3v-23.25c0-1.657-1.343-3-3-3z" />
	</g>
</svg>