<?xml version="1.0" encoding="utf-8"?>
<svg xmlns="http://www.w3.org/2000/svg" width="120" height="120">
	<g transform="translate(10 10)">
		<path fill="#EBA601" d="M110 50c0 33.137-26.863 60-60 60s-60-26.863-60-60 26.863-60 60-60 60 26.863 60 60zm-60-57.5c-31.756 0-57.5 25.744-57.5 57.5s25.744 57.5 57.5 57.5 57.5-25.744 57.5-57.5-25.744-57.5-57.5-57.5z" />
		<circle fill="#EBA601" cx="50" cy="50" r="50" />
		<polygon fill="#FBFBFB" points="55,57.5 55,53.5 59.25,49.5 60,36 53.5,29.5 46.5,29.5 40,36 40.75,49.5 45,53.5 45,57.5 27,61.5 25,72 75,72 73,61.5" />
	</g>
</svg>