<?xml version="1.0" encoding="utf-8"?>
<svg xmlns="http://www.w3.org/2000/svg" width="3963" height="652">
	<path fill="#FBFBFB" d="M3678 540v-249c0-80 42-134 138-134s138 54 138 134v43c0 84-72 94-176 122v68c0 18 10 35 38 35h101v84h-137c-52 0-102-51-102-103zm100-171c70-18 76-17 76-39v-54c0-18-10-35-38-35s-38 17-38 35v93zm-415 274v-480h84l4 20 102-25c59-14 96 36 96 82v403h-102v-398l-82 23v375h-102zm-151 0v-480h102v480h-102zm0-518v-102h102v102h-102zm-149-102h102v620h-102v-620zm-328 620v-480h84l4 20 102-25c59-14 96 36 96 82v403h-102v-398l-82 23v375h-102zm-394-145v-344c0-68 46-152 179-152 130 0 179 85 179 153v343c0 68-49 152-179 152-133 0-179-84-179-152zm106 4c0 33 36 59 73 59s73-26 73-59v-352c0-33-36-59-73-59s-73 26-73 59v352zm-482 38v-249c0-80 42-134 138-134s138 54 138 134v43c0 84-72 94-176 122v68c0 18 10 35 38 35h101v84h-137c-52 0-102-51-102-103zm100-171c70-18 76-17 76-39v-54c0-18-10-35-38-35s-38 17-38 35v93zm-237-346h102v620h-102v-620zm-313 499v-66c0-99 92-120 176-148v-21c0-19-12-43-31-43h-112v-81h133c52 0 106 51 106 103v377h-156c-36 1-116-41-116-121zm92 0c0 18 20 37 36 37h48v-163c-56 19-84 26-84 56v70zm-462-20v-352c0-68 75-141 162-141h168v89h-160c-29 0-63 26-63 59v338c0 33 34 59 63 59h71v-205h-79v-89h186v383h-186c-87 0-162-73-162-141zm-420 141v-480h84l4 20 102-25c59-14 96 36 96 82v403h-102v-398l-82 23v375h-102zm-335-78v-402h102v401l82-23v-378h102v480h-75l-12-25-85 29c-44 15-114-4-114-82zm-381-63v-352c0-68 75-141 162-141h168v89h-160c-29 0-63 26-63 59v338c0 33 34 59 63 59h71v-205h-79v-89h186v383h-186c-87 0-162-73-162-141z" />
</svg>